<?xml version="1.0" encoding="utf-8"?>
<!-- Generator: Adobe Illustrator 26.5.0, SVG Export Plug-In . SVG Version: 6.00 Build 0)  -->
<svg version="1.1" id="_Слой_1" xmlns="http://www.w3.org/2000/svg" xmlns:xlink="http://www.w3.org/1999/xlink" x="0px"
	 y="0px" viewBox="0 0 650 650" style="enable-background:new 0 0 650 650;" xml:space="preserve">
<style type="text/css">
	.st0{fill:#0F0F14;}
	.st1{fill:#3A444F;}
	.st2{opacity:0.6;fill:#3A444F;enable-background:new    ;}
	.st3{fill:#FFFFFF;}
	.st4{opacity:0.2;fill:#FFFFFF;enable-background:new    ;}
	.st5{opacity:0.4;}
	.st6{opacity:0.4;fill:#FFFFFF;enable-background:new    ;}
</style>
<path class="st0" d="M446.4,291.7c-4.5-23.8-27.6-48-36.3-61.1c-8.6-13.2-12.5-28.6-12.5-28.6H271.9c0,0-3.8,15.4-12.5,28.6
	c-8.6,13.2-31.8,37.4-36.3,61.1c-4.5,23.8-3.4,33.3-3.4,33.3s-1,9.5,3.5,33.3c4.5,23.8,27.6,48,36.3,61.1
	c8.6,13.2,12.5,28.6,12.5,28.6h125.8c0,0,3.8-15.4,12.5-28.6c8.7-13.2,31.8-37.4,36.3-61.1c4.5-23.8,3.5-33.3,3.5-33.3
	S450.9,315.4,446.4,291.7z"/>
<circle class="st1" cx="334.8" cy="325" r="100.2"/>
<path class="st0" d="M334.8,419.5c-52.2,0-94.6-42.4-94.6-94.6s42.4-94.6,94.6-94.6s94.6,42.4,94.6,94.6S386.9,419.5,334.8,419.5z
	 M334.8,232c-51.3,0-92.9,41.7-92.9,92.9s41.7,92.9,92.9,92.9s92.9-41.7,92.9-92.9S386,232,334.8,232z"/>
<circle class="st0" cx="334.8" cy="325" r="89"/>
<path class="st2" d="M273.7,206.8h122.3v6.6H273.7V206.8z M273.7,436.3h123.6v6.6H273.7V436.3z"/>
<path class="st3" d="M375.2,249.7v16.5h-1.6v-12.4l-2.7,0.2h-0.7v-1h0.4c1.1,0,1.9-0.2,2.4-0.6c0.5-0.4,0.8-0.8,0.9-1.3
	c0.1-0.2,0.1-0.4,0.1-0.6v-0.8L375.2,249.7L375.2,249.7z M399.6,297.1v-0.2c0-0.1,0-0.1,0-0.2v-0.2c0-1.3,0.3-2.4,1-3.3
	c0.7-0.9,1.4-1.7,2.2-2.4c0.1-0.1,0.2-0.2,0.3-0.3c0.1-0.1,0.2-0.2,0.3-0.3c0.7-0.6,1.3-1.3,1.8-2c0.5-0.7,0.8-1.5,0.8-2.5v-0.2
	c0-1.2-0.2-2-0.7-2.5c-0.5-0.5-1.1-0.7-1.9-0.7c-0.8,0-1.4,0.3-1.7,0.8c-0.3,0.6-0.5,1.5-0.5,2.8h-1.4c0-1.7,0.3-3,1-3.8
	c0.6-0.8,1.6-1.2,3-1.2c1.1,0,1.9,0.4,2.5,1.1c0.6,0.7,1,1.6,1.2,2.5c0,0.1,0,0.1,0,0.2v0.7c0,1.2-0.3,2.3-1,3.3
	c-0.7,1-1.5,1.9-2.3,2.7c-0.8,0.7-1.4,1.4-2.1,2.1c-0.6,0.6-1.1,1.3-1.2,1.9c0,0.1,0,0.1,0,0.2v0.2h6.7v1.5h-7.9V297.1L399.6,297.1z
	 M410.3,343.4v10.5h1.4v1.2h-1.4v4.4h-1.5v-4.4h-5.5v-1.4l5.5-10.3H410.3z M404.7,353.8h4.1v-8.1L404.7,353.8z M382.6,376.7v1.4
	h-4.8l-0.7,5c0.5-0.5,1.2-0.8,1.9-0.9c0.1,0,0.2,0,0.3,0h0.5c0.9,0.1,1.7,0.6,2.4,1.5c0.7,0.9,1.1,2.2,1.1,4v0.3
	c-0.1,1.7-0.5,3-1.3,3.8c-0.8,0.8-1.7,1.3-2.6,1.4H379c-1,0-1.8-0.3-2.6-1c-0.8-0.7-1.2-1.7-1.2-2.9v-0.4h1.4c0.1,1,0.3,1.8,0.8,2.3
	c0.5,0.5,1,0.7,1.5,0.7h0.2c0.1,0,0.1,0,0.2,0c0.6-0.1,1.2-0.5,1.7-1.2c0.5-0.7,0.8-1.5,0.8-2.5v-0.4c0-1.4-0.3-2.5-0.7-3.2
	c-0.5-0.6-1-1-1.6-1.1h-0.4c-0.5,0-0.9,0.2-1.3,0.5c-0.4,0.3-0.7,0.6-0.8,1.1h-1.4l1-8.3L382.6,376.7L382.6,376.7z M339.9,394.4
	v-0.3c0-0.6-0.2-1.1-0.6-1.5c-0.4-0.4-0.9-0.6-1.4-0.6h-0.3c-0.1,0-0.2,0-0.3,0.1c-0.4,0.1-0.8,0.4-1.1,0.7
	c-0.3,0.3-0.6,0.8-0.8,1.5c0,0.1,0,0.1-0.1,0.1c0,0.1,0,0.1-0.1,0.1c-0.1,0.3-0.1,0.6-0.2,0.9c-0.1,0.3-0.1,0.7-0.1,1.1
	c0,0.2,0,0.5-0.1,0.8c0,0.3,0,0.6-0.1,1c0.3-0.4,0.6-0.7,1-0.9c0.4-0.3,0.8-0.4,1.2-0.5c0.1,0,0.2,0,0.3-0.1h0.6
	c0.9,0.1,1.7,0.5,2.4,1.3s1.1,2,1.1,3.6c0,1.9-0.3,3.3-1.1,4.2c-0.7,0.9-1.7,1.4-2.9,1.4c-1.6,0-2.6-0.7-3.2-2.2s-0.9-3.2-0.9-5.2
	c0-0.4,0-0.8,0-1.2c0-0.4,0.1-0.8,0.1-1.2c0.1-0.6,0.1-1.1,0.2-1.7c0.1-0.6,0.2-1.1,0.3-1.6c0.2-1.1,0.7-1.9,1.4-2.5
	c0.7-0.6,1.4-0.9,2.2-1h0.5c0.8,0.1,1.5,0.4,2.2,1c0.7,0.6,1,1.4,1,2.5v0.1L339.9,394.4L339.9,394.4z M335.5,399.2
	c-0.4,0.8-0.6,1.6-0.6,2.5v0.6c0.1,1,0.4,1.8,0.8,2.6c0.5,0.8,1.1,1.2,1.9,1.2h0.1c0.8,0,1.4-0.4,1.8-1.2c0.4-0.8,0.7-1.7,0.7-2.7
	v-0.5c0-1-0.3-1.9-0.7-2.7s-1.2-1.2-2.1-1.2h-0.1C336.4,398,335.8,398.4,335.5,399.2L335.5,399.2z M300.4,382.3v1.4
	c-0.3,0.3-0.6,0.8-1,1.4s-0.7,1.2-1.1,2c-0.5,1.1-1,2.3-1.5,3.6s-0.9,2.7-1.1,4.1c-0.1,0.5-0.2,1.1-0.2,1.6c-0.1,0.5-0.1,1-0.1,1.6
	v0.4h-1.6c0-0.9,0.1-1.8,0.2-2.7c0.1-0.9,0.3-1.9,0.6-2.8c0.4-1.6,1-3.2,1.7-4.8c0.7-1.6,1.6-3,2.5-4.3h-6.4v-1.4L300.4,382.3
	L300.4,382.3z M267.3,362c-0.5-0.3-0.9-0.8-1.2-1.4c-0.3-0.6-0.5-1.3-0.5-2v-0.3c0.1-1,0.4-2,1-2.8c0.6-0.8,1.5-1.3,2.7-1.3
	s2.1,0.4,2.6,1.2c0.6,0.8,0.8,1.7,0.9,2.7v0.1c0,0.8-0.2,1.6-0.5,2.3c-0.3,0.7-0.8,1.2-1.3,1.5c0.7,0.2,1.2,0.7,1.6,1.5
	c0.4,0.8,0.6,1.6,0.6,2.5v0.5c-0.1,1-0.4,2-1,2.9c-0.6,0.9-1.5,1.3-2.7,1.4h-0.4c-1.4,0-2.4-0.5-3-1.4c-0.6-0.9-1-1.9-1-3v-0.5
	c0.1-0.8,0.3-1.6,0.7-2.3C266.2,362.9,266.6,362.4,267.3,362L267.3,362z M267.2,363.6c-0.5,0.6-0.6,1.3-0.6,2.1v0.5
	c0,0.8,0.2,1.6,0.6,2.3c0.4,0.7,1.1,1,1.9,1c0.9,0,1.6-0.3,2-1c0.4-0.7,0.6-1.5,0.7-2.3v-0.2c0-0.8-0.2-1.6-0.6-2.3
	c-0.4-0.7-1-1.1-1.8-1.1h-0.2C268.2,362.7,267.6,363,267.2,363.6L267.2,363.6z M267.6,356.4c-0.4,0.6-0.6,1.3-0.7,2v0.2
	c0,0.7,0.2,1.4,0.6,2c0.4,0.6,0.9,0.9,1.6,0.9h0.3c0.7-0.1,1.2-0.4,1.5-1c0.3-0.6,0.5-1.3,0.5-2.1v-0.1c0-0.7-0.2-1.4-0.5-2
	c-0.3-0.6-0.8-0.9-1.5-0.9h-0.1C268.6,355.5,268,355.8,267.6,356.4L267.6,356.4z M251.6,327.2h1.4v0.4c0,0.5,0.2,1,0.7,1.4
	c0.4,0.5,0.9,0.6,1.5,0.6c0.1,0,0.3,0,0.4-0.1c0.1,0,0.3-0.1,0.4-0.2c0.3-0.1,0.5-0.3,0.7-0.6c0.2-0.3,0.5-0.6,0.6-1
	c0.1-0.3,0.3-0.7,0.3-1.2c0.1-0.5,0.1-1,0.2-1.4v-1.9c-0.2,0.3-0.4,0.5-0.6,0.6c-0.2,0.2-0.4,0.3-0.6,0.5c-0.3,0.2-0.6,0.3-0.9,0.4
	c-0.3,0.1-0.6,0.1-0.8,0.1c-0.6,0-1.2-0.2-1.7-0.6c-0.5-0.4-0.9-0.9-1.2-1.4c-0.2-0.4-0.4-0.9-0.5-1.5s-0.2-1.1-0.2-1.7v-0.8
	c0.1-1.2,0.5-2.3,1-3.3c0.6-1,1.4-1.6,2.5-1.7h0.3c1.1,0,2,0.4,2.5,1.3c0.5,0.9,0.9,1.8,1.2,2.9c0.1,0.7,0.2,1.4,0.3,2
	c0,0.6,0.1,1.2,0.1,1.6v1c0,2.7-0.3,4.8-1.1,6c-0.7,1.3-1.8,2-3.2,2c-0.9,0-1.6-0.3-2.3-1c-0.6-0.6-1-1.4-1-2.4L251.6,327.2
	L251.6,327.2z M255.1,315.5c-0.7,0-1.3,0.5-1.7,1.3c-0.5,0.8-0.7,1.8-0.8,2.9c0,1,0.2,2,0.6,2.8c0.4,0.8,1,1.3,2,1.3h0.1
	c0.9,0,1.5-0.3,1.9-1.1c0.4-0.8,0.6-1.7,0.6-2.6v-0.5c-0.1-1-0.3-1.9-0.7-2.7c-0.4-0.8-1-1.2-1.6-1.2L255.1,315.5L255.1,315.5z
	 M268,280.7v16.5h-1.6v-12.4l-2.7,0.2H263v-1h0.4c1.1,0,1.9-0.2,2.4-0.6c0.5-0.4,0.8-0.8,0.9-1.3c0.1-0.2,0.1-0.4,0.1-0.6v-0.8
	L268,280.7L268,280.7z M272.2,288.1c0.1-2.5,0.5-4.4,1.2-5.5c0.6-1.1,1.5-1.7,2.7-1.7h0.4c1.6,0.1,2.6,1,3.2,2.6
	c0.5,1.7,0.8,3.6,0.8,5.6c0,2.5-0.3,4.5-0.8,6c-0.5,1.6-1.7,2.4-3.4,2.4h-0.5c-1.2-0.1-2-0.6-2.5-1.7c-0.5-1.1-0.8-2.3-1-3.7
	c-0.1-0.8-0.1-1.5-0.1-2.2L272.2,288.1L272.2,288.1z M273.5,288.6v1.4c0,0.5,0,0.9,0.1,1.4c0.1,1.3,0.3,2.5,0.6,3.6s1,1.6,1.8,1.6
	c1.2,0,2-0.7,2.3-2.1c0.3-1.4,0.5-3.2,0.5-5.2c0-2.1-0.2-3.8-0.5-5.1c-0.4-1.3-1.1-2-2.2-2c-1,0.1-1.6,0.5-1.9,1.4s-0.4,2-0.5,3.4
	c0,0.3,0,0.6-0.1,0.9C273.6,288,273.6,288.4,273.5,288.6L273.5,288.6z M298.4,248.7v16.5h-1.6v-12.4l-2.7,0.2h-0.7v-1h0.4
	c1.1,0,1.9-0.2,2.4-0.6c0.5-0.4,0.8-0.8,0.9-1.3c0.1-0.2,0.1-0.4,0.1-0.6v-0.8L298.4,248.7L298.4,248.7z M308.2,248.7v16.5h-1.6
	v-12.4l-2.7,0.2h-0.7v-1h0.4c1.1,0,1.9-0.2,2.4-0.6c0.5-0.4,0.8-0.8,0.9-1.3c0.1-0.2,0.1-0.4,0.1-0.6v-0.8L308.2,248.7L308.2,248.7z
	 M333.5,240.4v16.5h-1.6v-12.4l-2.7,0.2h-0.7v-1h0.4c1.1,0,1.9-0.2,2.4-0.6s0.8-0.8,0.9-1.3c0.1-0.2,0.1-0.4,0.1-0.6v-0.9
	L333.5,240.4L333.5,240.4z M337.6,256.8v-0.2c0-0.1,0-0.1,0-0.2v-0.2c0-1.3,0.3-2.4,1-3.3c0.7-0.9,1.4-1.7,2.2-2.4
	c0.1-0.1,0.2-0.2,0.3-0.3c0.1-0.1,0.2-0.2,0.3-0.3c0.7-0.6,1.3-1.3,1.8-2c0.5-0.7,0.8-1.5,0.8-2.5v-0.2c0-1.2-0.2-2-0.7-2.5
	s-1.1-0.7-1.9-0.7c-0.8,0-1.4,0.3-1.7,0.8c-0.3,0.6-0.5,1.5-0.5,2.8h-1.4c0-1.7,0.3-3,1-3.8c0.6-0.8,1.6-1.2,3-1.2
	c1.1,0,1.9,0.4,2.5,1.1c0.6,0.7,1,1.6,1.2,2.5c0,0.1,0,0.1,0,0.2v0.7c0,1.2-0.3,2.3-1,3.3c-0.7,1-1.5,1.9-2.3,2.7
	c-0.8,0.7-1.4,1.4-2.1,2.1c-0.6,0.6-1.1,1.3-1.2,1.9c0,0.1,0,0.1,0,0.2v0.2h6.7v1.5h-7.9v-0.2L337.6,256.8z M397.4,313.8h20v17.6
	h-20V313.8z"/>
<path class="st1" d="M334.3,261.7h5.3v76h-5.3V261.7z"/>
<path class="st1" d="M326.1,325.1l52.3-26.7l2.4,4.7l-52.3,26.7L326.1,325.1z"/>
<path class="st1" d="M277.5,373.2l70.1-60.9l1.2,1.4l-70.1,60.9L277.5,373.2z"/>
<path class="st4" d="M331.4,228.7v-3.9c-53.6,0-97.2,43.6-97.2,97.2h3.9C238.2,270.5,280,228.7,331.4,228.7z"/>
<path class="st0" d="M397.3,86.5c0,0,0.1-7.9-1.6-10c-1.7-2.1-9.1-1.4-9.1-1.4L337,75h-4.6l-49.6,0.1c0,0-7.4-0.7-9.1,1.4
	c-1.7,2.1-1.6,10-1.6,10L271.9,202h125.7C397.6,202,397.3,86.5,397.3,86.5z"/>
<path class="st2" d="M385.7,80.5l-95.6-0.9c0,0-6.7-0.3-8.5,2.9c-1.8,3.5-3.1,121-3.1,121l19.4,0.3c0,0-9.1-108.2-9.4-111.1
	c-0.7-8.6,5.2-7.8,5.2-7.8l90,0.5L385.7,80.5L385.7,80.5z"/>
<path class="st0" d="M397.4,563.5c0,0,0.1,7.9-1.6,10c-1.7,2.1-9.1,1.4-9.1,1.4l-49.6,0.1h-4.6l-49.6-0.1c0,0-7.4,0.7-9.1-1.4
	c-1.7-2.1-1.6-10-1.6-10L272,448.1h125.6L397.4,563.5L397.4,563.5z"/>
<path class="st2" d="M385.8,569.5l-95.6,0.9c0,0-6.7,0.3-8.5-2.9c-1.8-3.5-3.1-121-3.1-121l19.4-0.3c0,0-9.1,108.2-9.3,111.1
	c-0.7,8.7,5.2,7.8,5.2,7.8l90-0.5L385.8,569.5L385.8,569.5z"/>
<g class="st5">
	<path class="st6" d="M294.8,347.8c0-43.9,35.6-79.5,79.5-79.5c7.5,0,14.7,1.1,21.6,3c-14.6-16.8-36.1-27.4-60-27.4
		c-43.9,0-79.5,35.6-79.5,79.5c0,36.4,24.5,67.1,57.9,76.5C302.1,386,294.8,367.7,294.8,347.8L294.8,347.8z"/>
</g>
<path d="M407,325.8l-0.8,2.1h-6.5v-0.3c1.9-1.8,3.3-3.2,4-4.3c0.8-1.1,1.2-2.1,1.2-3.1c0-0.6-0.2-1.3-0.7-1.7
	c-0.4-0.4-0.9-0.7-1.5-0.7c-0.5,0-1,0.2-1.5,0.5c-0.4,0.3-0.8,0.8-0.9,1.4H400c0.1-1,0.5-1.8,1.1-2.3c0.5-0.5,1.3-0.8,2.1-0.8
	c0.9,0,1.6,0.3,2.3,0.9c0.6,0.6,0.9,1.2,0.9,2c0,0.5-0.1,1.1-0.4,1.7c-0.4,0.9-1.1,1.8-2,2.8c-1.3,1.5-2.2,2.4-2.6,2.7h2.9
	c0.6,0,1,0,1.2-0.1c0.2-0.1,0.5-0.1,0.7-0.3c0.2-0.1,0.4-0.3,0.5-0.6L407,325.8L407,325.8z M415.4,323.9v1.2h-1.5v2.9h-1.3V325h-4.7
	V324l5.1-7.3h0.9v7.2H415.4z M412.6,323.9v-5.5l-3.9,5.5H412.6z"/>
</svg>
