<?xml version="1.0" encoding="utf-8"?>
<!-- Generator: Adobe Illustrator 26.5.0, SVG Export Plug-In . SVG Version: 6.00 Build 0)  -->
<svg version="1.1" id="Capa_1" xmlns="http://www.w3.org/2000/svg" xmlns:xlink="http://www.w3.org/1999/xlink" x="0px" y="0px"
	 viewBox="0 0 650 650" style="enable-background:new 0 0 650 650;" xml:space="preserve">
<style type="text/css">
	.st0{fill:#56271E;}
	.st1{fill:#006C90;}
	.st2{opacity:0.4;fill:#56271E;enable-background:new    ;}
</style>
<g>
	<g id="Layer_1">
		<path class="st0" d="M461.8,484.6c-0.7-3.4-1.3-6.7-2-10.1c-0.6-7.7-2.8-15.9-4-22.5c-0.4-2.1-0.8-4.2-1.1-6.3
			c-3.1-19.5-6.9-39-10.8-58.5c-1.7-9-3.4-18-4.9-27.1c-1-6.3-0.6-17.3-3.7-24.1c4.7-36,11.3-72,17.5-107.5
			c4.2-23.6,7-47.4,10.4-71.1c3-20.7,3.6-42-0.1-62.6c1-1.1,1.8-2.8,1.3-3.3c1.2-4.3,2.9-10.9,1.6-14.5c-1.7-4.4-10.3,0.3-12.6,1
			c-23.9,7.2-45.9,13-71.1,14.2c-16.1,0.7-31.8-0.3-47.6-2.1c-0.3-0.1-0.7-0.2-1.2-0.1c-5.5-0.6-10.9-1.3-16.5-2.1
			c-10-1.3-20-3.4-29.8-5.5c-10-2-20-6-30.1-7.5c-0.2,0-0.5,0.2-0.8,0.4c-4.7,0.7-5.3,9.7-5.8,14.9c0,0.3,0,0.7,0.1,1
			c-2.6,29.5-13.7,57.2-23.8,84.8c-9.9,27-19.9,54-29.1,81.3c-2.3,6-4.5,12-6.4,18.1c-0.1,0.1-0.1,0.2-0.1,0.2
			c-2,6.2-3.8,12.5-5.3,18.8c-0.9,3.1-1.8,6.2-2.8,9.3c-2.8,26.5-4.2,53.2-4.3,79.9v0.1c0.6,14.4,1.9,28.7,3.6,42.7
			c3.4,28.4,9.2,56.2,15.8,83.8c0.2,0.1,0.4,0.3,0.4,0.7c5.2,19.7,9.9,39.6,16,59.1c13.6,8.4,34.5,4.1,48.6,0.3
			c14.6-3.9,29.3-10.3,39.6-21.3c-0.6-2.3-0.9-4.7-1-7c-6-28.9-12.6-57.9-19.4-86.5c-8.2-34.5-14.1-69.6-13-105
			c0.3-1.2,0.5-2.3,0.7-3.4c2.8-8.8,7.3-16.9,10.8-25.4c9.8-20,19.5-40.1,29.1-60.2c8.4-17.8,16.1-36,22.7-54.5
			c0.4-1.1,0.8-2.3,1.2-3.4c7.5,11.4,9.6,25.9,10.7,40.1c-0.5,21.3-1.5,42.6-2.2,63.8c-1,30.2,1.1,61.2,4.7,91.2
			c0.3,2.9,0.7,5.8,1.1,8.8c0.5,6.6,1.1,13.3,2.2,20.1c2.9,17.6,6.5,35,10.5,52.3c2.6,11.2,5.4,22.3,8.4,33.4
			c5.5,16.3,11.8,32.3,17.6,48.5c15.2,7.6,32.9,4,49-0.5c11.5-3.2,26-8.5,35.3-17.6C468.1,524.1,464.8,504.4,461.8,484.6
			L461.8,484.6z"/>
		<path class="st1" d="M457.7,164.6l-1.1,7.8c-13.5,0-22.8-3.8-29.5-16.7c-6.4-12.3-4.9-30.5-4.9-44.5l2.3-0.6
			c12.4-3.3,23.7-9.5,35.6-14.1c0.1,0.1,0.3,0.1,0.5,0c-0.2,1.7-0.4,3.2-0.3,3.6c0.4,7,0.6,14,0.7,21.1
			C461.1,135.7,459.8,150.2,457.7,164.6L457.7,164.6z M398.6,95.4c6.8-0.8,13.5-1.8,20.2-3.2c9.6-1.9,18.7-5.1,28-8.1
			c2.6-0.8,5.1-1.6,7.7-2.4c3.8-3.2,7.8-5.2,9.1-1.3c1,3.2-0.2,8.9-2.4,11.4c-0.1,0.1-0.3,0.2-0.4,0.3c0,0.2-0.1,0.3-0.1,0.5
			c-0.3,0.1-0.6,0.3-0.9,0.4c-1.6,1.2-3.6,1.8-5.6,2.4c-12.9,5.5-25.5,11.4-39.5,14.4c-5.5,1.2-11.2,2.2-16.9,2.9
			c0.1-0.6,0.1-1.1,0.1-1.7C397.3,105.8,398.2,100.6,398.6,95.4L398.6,95.4z"/>
		<path class="st1" d="M462.7,79c-18.6,15.3-41.3,24.4-65.1,28.7c0,1.1,0,2.2,0.1,3.3c0.1,0.6,0,1.1-0.1,1.7
			c5.7-0.8,11.4-1.8,16.9-2.9c14-3,26.6-8.8,39.5-14.4c2-0.5,4-1.1,5.6-2.4c0.3-0.1,0.6-0.2,0.9-0.4c0-0.1,0.1-0.3,0.1-0.5
			c0.1-0.1,0.3-0.2,0.4-0.3c2.3-2.6,3.5-8.2,2.4-11.4C463.3,79.8,463,79.3,462.7,79z M391.3,104.1c0-2.7,0.3-5.3,0.2-7.9
			c1.3-0.1,2.6-0.2,3.9-0.4c0,3.4-0.4,6.9-0.5,10.3c0,1.5-0.1,3-0.1,4.5c0,1.2,0.1,1.9-0.2,2.5l-2.8,0.3
			C390.7,111.4,391.2,105,391.3,104.1z"/>
		<path class="st1" d="M327.6,94.6c10.6,1.3,21.3,2.2,31.9,2.5c9.8,0.3,19.7,0.1,29.6-0.7c-0.3,5.7-0.7,11.4-0.7,17.1v0.2
			c-10.9,1-21.8,1-32.4-0.5c-7.1-1-14.2-1.8-21.3-2.5c-2.2-0.9-4.3-2.1-6.3-3.5C324.5,104.6,322.5,97.2,327.6,94.6z"/>
		<path class="st1" d="M388.4,109.1c-7,0.9-14.1,1.5-21.2,1.6c-11.8,0.3-23.5,0-35.2-1.2c0.8,0.4,1.7,0.9,2.5,1.2
			c7.1,0.7,14.2,1.5,21.3,2.5c10.6,1.5,21.6,1.4,32.4,0.5v-0.2C388.4,112,388.4,110.5,388.4,109.1L388.4,109.1z"/>
		<path class="st1" d="M302.3,90.5c7.6,1.6,15.2,2.8,22.9,3.8c-1.7,1.9-2.9,4.2-3.4,6.1c-0.8,3.6,0.2,6.7,2.3,9.2
			c-8-0.9-16-1.9-24.1-3.3c-1.8-0.3-3.6-0.6-5.4-0.9c1.3-5.2,2.5-10.5,3.2-15.7C299.3,90,300.8,90.2,302.3,90.5L302.3,90.5z"/>
		<path class="st1" d="M298.9,103.8c-1.2-0.3-2.4-0.6-3.6-0.9l-0.6,2.5c1.8,0.3,3.6,0.6,5.4,0.9c8,1.4,16,2.4,24.1,3.3
			c-0.3-0.3-0.6-0.7-0.8-1.1C315.1,107.4,307,105.9,298.9,103.8z"/>
		<path class="st1" d="M296.4,89.4c-0.9,3.2-1.8,6.4-2.6,9.7c-0.5,2-1.1,3.9-1.6,5.9c-1.6-0.3-3.2-0.5-4.9-0.9
			c1.8-5.1,2.8-10.4,3.9-15.7C293,88.8,294.7,89.1,296.4,89.4L296.4,89.4z M254.6,80.2c0.2-0.9,0.7-1.6,1.6-2
			c0.1-0.1,0.3-0.3,0.4-0.4c2.7-1.8,7.6,0.9,9.9,1.7c4.7,1.7,9.3,3.1,14,4.6c2.4,0.7,6.1,1.7,7.8,3.6c0.4,0.1,0.8,0.1,1.1,0.2
			c-0.1,0.4-0.3,0.8-0.4,1.2c0.2,0.8,0.1,1.7-0.4,2.8c-0.1,0.3-0.3,0.4-0.5,0.5c-0.5,1.7-0.9,3.5-1.4,5.2c-0.6,1.8-1.1,3.7-1.6,5.5
			c0,0.1-0.1,0.2-0.1,0.3c-3.7-0.8-7.3-1.7-10.7-3c-1.5-0.6-4.6-2-7.2-3.1c-2.3-0.7-4.5-1.9-6.6-2.5c-1.6-0.5-5.2-0.8-5.9-2.9
			C253.5,88.8,252.8,83.6,254.6,80.2L254.6,80.2z"/>
		<path class="st1" d="M254.6,80.2c0.2-0.9,0.7-1.6,1.6-2c0.1-0.1,0.3-0.3,0.4-0.4c2.7-1.8,7.6,0.9,9.9,1.7c4.7,1.7,9.3,3.1,14,4.6
			c2.4,0.7,6.1,1.7,7.8,3.6c0.4,0.1,0.8,0.1,1.1,0.2c-0.1,0.4-0.3,0.8-0.4,1.2c0.2,0.8,0.1,1.7-0.4,2.8c-0.1,0.3-0.3,0.4-0.5,0.5
			c-0.5,1.7-0.9,3.5-1.4,5.2c-0.6,1.8-1.1,3.7-1.6,5.5c0,0.1-0.1,0.2-0.1,0.3c-3.7-0.8-7.3-1.7-10.7-3c-1.5-0.6-4.6-2-7.2-3.1
			c-2.3-0.7-4.5-1.9-6.6-2.5c-1.6-0.5-5.2-0.8-5.9-2.9C253.5,88.8,252.8,83.6,254.6,80.2L254.6,80.2z"/>
		<path class="st1" d="M253.6,87.3c0.2,1.8,0.5,3.5,0.9,4.9c0.7,2.1,4.2,2.4,5.9,2.9c2.1,0.6,4.4,1.8,6.6,2.5
			c2.6,1.1,5.7,2.5,7.2,3.1c3.4,1.3,7.1,2.3,10.7,3c0-0.1,0.1-0.2,0.1-0.3c0.3-0.9,0.5-1.8,0.8-2.8
			C274.6,97.5,263.1,93.8,253.6,87.3z"/>
		<path class="st1" d="M253.7,95.7c4.3,3.5,11.8,6.1,14.6,7.2c2.4,1,4.8,1.8,7.3,2.5c-0.1,3.4-2.8,9.4-3.4,11.4
			c-2.1,6.9-4.3,13.7-7.1,20.4c-3.7,8.9-10.6,14-19.4,16.9c-3,1-4.6,0.2-7.1,1.9c-0.1,0.1-0.3,0.3-0.5,0.5c0.1-0.3,0.2-0.6,0.3-0.9
			C245.5,136.5,253.1,116.3,253.7,95.7L253.7,95.7z"/>
		<path class="st1" d="M326.8,212.7c-6.8,18.5-15.1,36.6-23.6,54.4c-8.6,18-16.3,36.5-25.3,54.3c-5.3,10.5-10.9,21-15.8,31.6
			c-1.9,5.7-3.6,11.5-5.3,17.3c2.1-4.2,4.4-8.3,6.1-12.6c0.5-1.3,2.6-1.2,2.6,0.3c0,14,0.3,28,2.4,41.9c1.9,12.8,4.3,25.5,5.9,38.3
			c0.1,0.4-0.1,0.6-0.2,0.9c0.8,3.9,1.6,7.8,2.4,11.6c4.3,20.6,9.1,41.1,13.6,61.7c2.7,12.5,4.9,25.1,7.8,37.5
			c-0.7,0.5-1.5,1-2.2,1.5c-0.1,0.3-0.3,0.6-0.6,0.8c-3.6,2-7.2,4-10.7,6.1c-1.9,1.1-3.8,2.2-6,2.6c-8.4,3.6-17.2,6.4-26.2,8.2
			c-8.1,1.6-17.6,1.8-25.6,0.2c-3-0.6-6.4-3.1-9.5-4.7c-2.6-11.5-5.7-23-8.8-34.5c-0.7-2.3-1.3-4.6-1.8-7H206
			c-1.6-6.2-3.1-12.4-4.5-18.7c-5.4-25.5-10.7-51.1-14.2-76.9c-5.7-41.8-7.2-85.4-0.1-127.4c0.6-2,1.2-4.1,2-6.1
			c1.8-5.1,3.9-10,6-15c2.7-8.9,5.6-17.8,8.5-26.7c10.4-31.1,22.1-61.8,33.3-92.6c0.2,0.2,0.5,0.3,1.2,0c6.1-2.4,11.4-2.1,17-6.2
			c4.9-3.6,8.7-7.6,11.7-13c3.6-6.7,5.9-14.6,7.9-21.9c0.7-2.6,3.3-8.3,3.5-12.5c4.5,1.2,9.1,2.2,13.7,3h0.1
			c5.2,0.9,10.4,1.7,15.5,2.6c4.7,0.8,9.5,1.6,14.4,2.3c-0.2,6.3-3,12.5-3.7,18.8c-1.1,9.8-2.2,19.6-3.4,29.4
			c-0.9,7.3-0.9,15,0.9,22.1c1.6,6.1,8,9.9,12.7,13.4c0.2,0.1,0.5,0,0.7-0.1c0.8,0.9,1.6,1.8,2.4,2.7
			C329.9,204.7,328.3,208.8,326.8,212.7L326.8,212.7z"/>
		<path class="st1" d="M188.5,368.3c0.5-38.9,6.7-77,19.5-113.7c11.3-32.7,27.4-63.7,37.4-96.8c-2.3,0.6-4.7,1.1-7.2,2.1
			c-0.7,0.3-1,0.2-1.2,0c-11.2,30.8-22.9,61.5-33.3,92.6c-3,8.9-5.8,17.7-8.5,26.7c-2.1,4.9-4.2,9.9-6,15c-0.7,2-1.3,4-2,6.1
			c-7.1,42-5.6,85.6,0.1,127.4c2.6,19,6.1,37.9,10,56.7C192.2,446,188.1,407,188.5,368.3L188.5,368.3z"/>
		<path class="st2" d="M327.9,199.4c-15.4-0.3-30.7-2.6-46-4.3c9.2,3.6,18.5,7,28,9.7c0.6,0.2,1.2,0.9,0.9,1.6
			c-3.1,7.7-7.8,14.5-11.9,21.7c-4.6,8-8.4,16.5-11.9,25.1c-6.9,17.1-12.6,34.6-19.2,51.9c-6.9,18.2-12.7,36.8-17.7,55.6
			c-2.5,9.4-5.5,18.5-9,27.6c-2.8,7.4-5.5,14.8-6.9,22.6c6.9-8.6,12-18.4,17.6-28c0.5-0.9,2.2-0.8,2.4,0.3
			c5.6,27.6,7,55.7,10.6,83.6c2.7,20.6,10.7,41.8,8.4,62.8c-1.8,16.7-12.7,31-30,33.9c-9.9,1.7-19.8,0-28.2-4.6
			c0.5,1.9,0.9,3.8,1.3,5.7c3.1,1.6,6.5,4.1,9.5,4.7c8.1,1.5,17.5,1.4,25.6-0.2c9-1.8,17.9-4.5,26.2-8.2c2.2-0.3,4.1-1.4,6-2.6
			c3.5-2.1,7.1-4,10.7-6.1c0.4-0.2,0.5-0.5,0.6-0.8c0.7-0.5,1.5-1,2.2-1.5c-2.9-12.4-5.1-25-7.8-37.5c-4.5-20.6-9.3-41.1-13.6-61.7
			c-0.8-3.8-1.6-7.7-2.4-11.6c0.2-0.2,0.3-0.5,0.2-0.9c-1.6-12.8-4-25.5-5.9-38.3c-2.1-13.9-2.4-27.9-2.4-41.9c0-1.6-2-1.7-2.6-0.3
			c-1.8,4.4-4,8.4-6.1,12.6c1.7-5.8,3.4-11.5,5.3-17.3c5-10.7,10.5-21.1,15.8-31.6c9-17.9,16.7-36.3,25.3-54.3
			c8.5-17.8,16.8-35.9,23.6-54.4c1.4-3.9,3.1-8,4.7-12.3c-0.3-0.3-0.6-0.7-0.9-1C329.8,199.4,328.9,199.4,327.9,199.4L327.9,199.4z"
			/>
		<path class="st1" d="M333.1,198.5c-1.4-1.4-2.9-2.7-4.5-3.8c-3.3-4.4-7.7-8.1-9.7-13.4c-3.1-8.2-1-20.6,0.2-28.9
			c1.2-8.4,1.1-17,3-25.3c0.8-3.6,2.6-8.5,2.4-12.6c7.1,1,14.4,1.9,21.6,2.5C341.1,125.1,334.7,182,333.1,198.5z M410.4,562.3
			c-4.5,0.7-15.1-0.1-20.3-3.6c-8.1-24.4-17.2-48.6-23.6-73.6c-0.2-0.8-0.4-1.6-0.5-2.3c-0.1-0.3-0.2-0.7-0.3-1
			c-3.6-13-6.8-26.2-9.1-39.5c-4-22.7-6.4-45.5-7.3-68.4c-2.2-24.5-3-49.5-2-74c0.7-16.8,1.3-33.6,1.8-50.4
			c-0.7-8.3-1.7-16.5-3.8-24.6c-2.1-8-4.8-16.9-10-23.6c0.3-0.4,0.5-0.8,0.5-1.1c2.3-27.9,6.6-55.5,12.9-82.7
			c12.5,0.9,25.1,1.2,37.4,0.3c1.2-0.1,2.4-0.3,3.6-0.4c0.9,0.3,2.2,0.1,4.1-0.3c0.2,0,0.4-0.1,0.6-0.2c8.4-1.1,16.8-2.8,25-4.8
			c-2.4,15.3-1.6,33.1,3.7,47.6c5.2,14.3,18.6,17.7,32.2,17.4c0.2,0,0.4-0.1,0.6-0.2c-3,21.4-5.9,42.8-9.8,64.1
			c-4.4,23.9-7.6,48.2-11.5,72.2c-1.8,11.3-4,22.9-5.7,34.7c0.1,2.3,0.2,4.7,0.3,7c0.3,5.7,1.3,11.5,2,17.3
			c0.5-6.1,1.1-12.1,1.8-18.1c0.5,6.3,1.6,12.7,2.6,18.9c1.3,8.7,3,17.3,4.7,25.9l0.8,4.1l1.1,5.8c1,5.5,2.2,11,3.5,16.7
			c1.6,7.4,3.2,14.8,4.6,22.1c1.4,6.9,2.6,14,3.7,21c0.8,3.5,1.5,7.1,2.2,10.6c1.6,7.8,2.6,15.6,3.8,23.5c0.2,1.2,0.5,2.4,0.7,3.6
			c2.6,12.5,5.5,25.1,7.9,37.7c-7.1,6.8-22.5,11.1-30.8,13.2C428.8,559.1,419.6,560.9,410.4,562.3L410.4,562.3z"/>
		<path class="st1" d="M357.9,428.3c-5.1-28.6-7.7-57-9.1-86c-0.5-10.8-1.1-21.6-1.9-32.4c-0.4,21.2,0.4,42.7,2.3,63.9
			c0.9,23,3.3,45.7,7.3,68.4c2.4,13.3,5.5,26.5,9.1,39.5c0.1,0.3,0.2,0.7,0.3,1c0.2,0.8,0.3,1.6,0.5,2.3c3.1,12.3,6.9,24.4,11,36.5
			C369.8,490.7,363.5,459.5,357.9,428.3L357.9,428.3z"/>
		<path class="st2" d="M349.1,249.3c-0.5,16.8-1.2,33.6-1.8,50.4c-0.2,4.2-0.3,8.3-0.3,12.5c2.8-14.8,5.8-29.6,8.1-44.4
			c1.6-10.4,3-20.8,3.5-31.3c0.3-5.8,0.2-11.8,1.4-17.5c2-9.2,7.6-14.6,16-17.7c6.3-3,13.6-5,19.4-8.8c-19.8,1.8-39.5,6.1-59.3,6.7
			c0,0.2,0,0.4-0.1,0.6c0,0.3-0.2,0.7-0.5,1.1c5.2,6.7,7.9,15.6,10,23.6C347.4,232.8,348.4,241,349.1,249.3L349.1,249.3z
			 M460.8,505.9c-0.3-1.2-0.5-2.4-0.7-3.6c-1.1-7.8-2.2-15.7-3.8-23.5c-0.7-3.5-1.5-7.1-2.2-10.6c-1.1-7-2.4-14-3.7-21
			c-1.4-7.3-3-14.7-4.6-22.1c-1.3-5.6-2.5-11.2-3.5-16.7l-1.1-5.8l-0.8-4.1c-1.7-8.6-3.4-17.2-4.7-25.9c-0.9-6.3-2-12.6-2.6-18.9
			c-0.7,6.1-1.3,12.1-1.8,18.1c-0.7-5.8-1.7-11.5-2-17.3c-0.1-2.3-0.2-4.7-0.3-7c1.6-11.7,3.8-23.4,5.7-34.7
			c3.9-24,7.1-48.3,11.5-72.2c3.9-21.2,6.8-42.7,9.8-64.1c-0.2,0.1-0.4,0.2-0.6,0.2c-13.6,0.3-27-3.1-32.2-17.4
			c-5.3-14.5-6.1-32.3-3.7-47.6c-0.9,0.2-1.9,0.5-2.8,0.7c-3.6,17.4-5.6,37.2,3.1,52.9c0.6,1.1,1.3,2.2,2,3.2c4.1,4,9.1,7,12.5,11.7
			c4.3,6.1,4.1,13,2.8,20.1c-2.1,11.4-5,22.5-6.9,34c-2,11.8-3.4,23.7-5.4,35.4c-4.2,24.3-7.7,48.8-11,73.2
			c-3.1,23-9.4,45.6-12.3,68.6c6.9-11.3,11-24,16.3-36.1c0.5-1.1,2-0.6,2.4,0.3c11.7,28.9,12.9,59.9,19.4,90c2.8,13,6.4,25.8,8.2,39
			c1.3,9.4,2,20.9-2.8,29.6c-7.5,13.7-25.9,20.1-40.5,21.4c-5.1,0.4-10.6,0.2-15.7-0.9c0.4,1.2,0.8,2.5,1.2,3.7
			c5.3,3.6,15.8,4.3,20.3,3.6c9.3-1.4,18.5-3.2,27.5-5.5c8.3-2.1,23.7-6.5,30.8-13.2C466.3,531,463.5,518.5,460.8,505.9L460.8,505.9
			z"/>
		<path class="st2" d="M460.3,100.1c0-0.3,0.2-1.9,0.3-3.6c-0.2,0-0.3,0-0.5,0c-3.2,1.2-6.5,2.6-9.6,4c2.8,20.9,2.2,44-6.7,63.1
			c-0.2,0.5-0.9,0.7-1.5,0.6c-11.4-3.1-16.4-15.4-19.7-26c0.6,6.3,1.9,12.4,4.5,17.5c6.7,12.8,16,16.6,29.5,16.7l1.1-7.8
			c2.1-14.3,3.4-28.9,3.2-43.3C460.9,114.2,460.7,107.2,460.3,100.1L460.3,100.1z M270,103.6c-1.6,17.8-10.3,38.4-28,42.5
			c-1.1,3.2-2.3,6.4-3.5,9.6c-0.1,0.3-0.2,0.6-0.3,0.9c0.2-0.2,0.3-0.4,0.5-0.5c2.5-1.6,4.1-0.9,7.1-1.9c8.8-2.9,15.7-8,19.4-16.9
			c2.8-6.7,5-13.5,7.1-20.4c0.6-2,3.2-8.1,3.4-11.4C273.7,104.9,271.8,104.2,270,103.6L270,103.6z"/>
	</g>
</g>
</svg>
