<?xml version="1.0" encoding="utf-8"?>
<!-- Generator: Adobe Illustrator 26.5.0, SVG Export Plug-In . SVG Version: 6.00 Build 0)  -->
<svg version="1.1" id="Layer_1" xmlns="http://www.w3.org/2000/svg" xmlns:xlink="http://www.w3.org/1999/xlink" x="0px" y="0px"
	 viewBox="0 0 650 650" style="enable-background:new 0 0 650 650;" xml:space="preserve">
<style type="text/css">
	.st0{fill:#8E99A0;}
	.st1{fill:#371A45;}
	.st2{opacity:0.6;}
	.st3{fill:#FFFFFF;}
	.st4{fill:#F46800;}
	.st5{fill:#82898E;}
	.st6{fill:#00B9F2;}
	.st7{fill:#F2E7ED;}
	.st8{opacity:0.5;}
	.st9{opacity:0.3;}
	.st10{opacity:0.25;}
</style>
<path class="st0" d="M328.7,240.4c-41,18.2-69.6,55.4-95.6,96.7c-36.6,43.9-90,62.3-159.3,48.3c-14.3-2.9-26.4-12.9-31.5-26.6
	c-3.3-8.7-3.6-18.5,0.4-27.4c-3.6-20.3,8.2-37.6,30.7-53c27.7-22.8,46.9-52.1,57.4-88c3.4-37.6,17.8-66,55.7-74.5
	c10.7-5.9,19.5-13,26.8-20.9c19.7-22.4,50.8-30.3,72-9.4c19.6,20.5,36.4,44.3,49.6,72.4c1,2.2,2,4.4,3,6.6
	C360.6,190.7,361.2,219.6,328.7,240.4L328.7,240.4z"/>
<path class="st1" d="M117.6,390.4c-13.9,0-28.6-1.6-43.8-4.7c-14.6-3-26.8-13.3-31.9-26.9c-3.5-9.4-3.4-19.2,0.3-27.6
	c-3.4-19.3,6.7-36.8,30.9-53.4c27.5-22.7,46.8-52.2,57.2-87.8c4-43.3,21.7-67.1,56-74.8c10.3-5.7,19.2-12.7,26.6-20.8
	c11.6-13.2,26.8-21.1,41.7-21.7c11.7-0.5,22.4,3.8,31.1,12.3c20.3,21.2,37,45.6,49.7,72.5c1,2.2,2,4.4,3,6.6
	c12.4,14.3,17.8,29.1,15.9,42.6c-1.9,13-10.4,24.4-25.3,33.9h-0.1c-42.1,18.7-70.7,57.5-95.4,96.5c-18.6,22.3-41.4,37.8-67.7,46.1
	C150.9,388,134.7,390.3,117.6,390.4L117.6,390.4z M256.2,73.8h-1.6c-14.6,0.5-29.5,8.3-41,21.4c-7.5,8.2-16.5,15.3-26.9,21h-0.1
	c-33.8,7.6-51.4,31.2-55.3,74.1c-10.5,35.8-29.8,65.5-57.6,88.3c-24,16.4-34,33.6-30.6,52.6v0.3c-3.7,8.2-3.8,17.8-0.4,27.1
	c5,13.3,16.9,23.4,31.2,26.3c66.4,13.5,121.3-3.1,158.8-48.1c24.7-39.1,53.4-78,95.7-96.8c14.6-9.3,23-20.5,24.9-33.2
	c1.9-13.3-3.5-27.8-15.7-41.9l-0.1-0.1c-1-2.2-2-4.4-3-6.6c-12.6-26.8-29.3-51.2-49.5-72.3C277,77.9,267.1,73.8,256.2,73.8
	L256.2,73.8z"/>
<g class="st2">
	<path class="st3" d="M280.9,81.6c-20.3-11.1-45.6-2.6-62.4,16.6c-7.2,7.9-16,15-26.8,20.9c-37.9,8.5-52.3,36.9-55.7,74.5
		c-10.5,35.9-29.7,65.2-57.4,88c-22.5,15.4-34.3,32.8-30.7,53c-4,8.9-3.6,18.7-0.4,27.4c2.8,7.5,7.7,13.9,13.9,18.7
		c-8.7-4.8-15.6-12.5-19.1-22c-3.3-8.7-3.6-18.5,0.4-27.4c-3.6-20.3,8.2-37.6,30.7-53c27.7-22.8,46.9-52.1,57.4-88
		c3.4-37.6,17.8-66,55.7-74.5c10.7-5.9,19.5-13,26.8-20.9C231.6,74,259.9,65.7,280.9,81.6L280.9,81.6z"/>
</g>
<g class="st2">
	<path class="st3" d="M154.1,266.2c38.5,0.2,54.7-41.3,53-82.7c1.3-16,5.8-30.8,20.9-38.3c19.2-5.4,33.2-16.2,39.7-32.8
		c3.5-5.1,3.8-22.5-9.8-19.3c11.9,5.2,4,27.8-11.4,36.5c0,0-10.8,7-23.8,12.3c-13,5.2-19,23.5-19,23.5s-3.9,19.6-5.6,35.9
		C196.3,217.8,197.6,243.8,154.1,266.2L154.1,266.2z"/>
</g>
<path class="st4" d="M143.2,367.2c0.7-31.7,44.1-46.9,74.1-87.2c-16.7,24.6-30,48.4-35.1,70.4C171,359.7,157.9,365,143.2,367.2z"/>
<path class="st1" d="M142.7,367.7v-0.6c0.5-19,15.5-31.8,34.7-47.9c12.8-10.8,27.4-23.1,39.6-39.5l0.8,0.5
	c-19.3,28.5-30.5,50.8-35,70.2v0.1l-0.2,0.1c-10.9,9-24.1,14.6-39.3,16.9L142.7,367.7L142.7,367.7z M211.1,288.5
	C200.4,301,188.6,311,177.9,320c-18.7,15.8-33.6,28.4-34.3,46.6c14.8-2.3,27.6-7.8,38.2-16.5C185.9,332.7,195.3,312.9,211.1,288.5
	L211.1,288.5z"/>
<g class="st2">
	<path class="st3" d="M217.3,280c-5.8,8.5-11.2,16.9-15.9,25.2c-25,23.9-50.9,38.4-54.1,61.3c-1.4,0.3-2.8,0.5-4.1,0.7
		C143.9,335.5,187.3,320.3,217.3,280z"/>
</g>
<path class="st4" d="M250.1,263.8c0.6-49,88.5-85.9,63.5-143.5l23.2,40.3c5.1,27.1-10.7,45-39.2,57.3
	C277.4,225.4,261.9,241.3,250.1,263.8L250.1,263.8z"/>
<path class="st1" d="M249.6,265.8v-2c0.3-21.2,16.3-39.6,33.2-59.2c21.9-25.3,44.6-51.5,30.4-84.1l0.8-0.4l23.2,40.3v0.1
	c4.8,25.3-8.1,44.2-39.5,57.8c-19.2,7.2-35.1,22.6-47.2,45.7L249.6,265.8L249.6,265.8z M316.1,125.6c9.8,30.6-11.8,55.5-32.6,79.6
	c-16.3,18.8-31.6,36.5-32.9,56.5c12-22.3,27.8-37.2,46.7-44.3c30.9-13.4,43.6-31.9,38.9-56.7L316.1,125.6L316.1,125.6z"/>
<g class="st2">
	<path class="st3" d="M321.7,134.5c9.1,41.5-38.8,72.4-58.6,106.7c-1.3,2.3-2.5,4.7-3.6,7c-3.4,4.7-6.6,9.9-9.5,15.5
		c0-1.8,0.2-3.7,0.4-5.5l9.8-23.4c-0.1-0.2-0.1-0.5-0.2-0.7c1-1.6,2.1-3.2,3.2-4.8c23.7-34,69.2-65.7,50.3-109.1L321.7,134.5
		L321.7,134.5z"/>
</g>
<path class="st1" d="M182.2,351.6c2.6-36,50.3-70,52.2-131.1l51.8-93.5l3.6-36.9c0,0,23.1,26.2,26,35.9
	c7.5,31.9-13.3,64.3-46.8,96.9c0,0-21.3,21.6-17.5,37.9l-14.7,34C224.4,319.3,205.7,337.8,182.2,351.6L182.2,351.6z"/>
<path class="st5" d="M181.6,352.4l0.1-0.9c1.1-15.4,10.3-30.2,20.9-47.3c14.2-22.9,30.2-48.8,31.3-83.8v-0.1l0.1-0.1l51.8-93.4
	l3.7-37.8l0.7,0.8c1,1.1,23.2,26.4,26.1,36.1c6.8,28.7-8.1,59.6-46.9,97.4c-0.2,0.2-21.1,21.6-17.3,37.5v0.3l-14.7,34
	c-11.9,23.4-30.3,42.6-54.8,56.9L181.6,352.4L181.6,352.4z M234.7,220.7c-1.1,35.2-17.2,61.2-31.4,84.1
	c-10.3,16.6-19.3,31.1-20.6,45.9c24-14.2,42-33.1,53.7-56.1l14.6-33.8c-3.7-16.4,16.7-37.3,17.6-38.2c38.5-37.5,53.4-68.2,46.7-96.5
	c-2.5-8.5-21.2-30.3-25.2-34.9l-3.5,35.9v0.1L234.7,220.7L234.7,220.7z"/>
<g class="st2">
	<path class="st3" d="M293.5,94.5l-3.6,36.6l-51.8,93.5c-1.7,57-43.4,90.5-51.1,124c-1.6,1-3.2,2-4.9,3c2.6-36,50.3-70,52.2-131.1
		l51.8-93.5l3.6-36.9C289.7,90.1,291.2,91.8,293.5,94.5L293.5,94.5z"/>
</g>
<path class="st6" d="M259.9,234.7c-18.6-60.3,56-97.4,27.2-146.7c5.3,30.1-12.7,57.6-36.6,84.4c-31.8,39.8-4.7,97-21.5,135.8"/>
<path class="st1" d="M229.5,308.3l-0.9-0.4c7.1-16.4,6.3-35.9,5.5-56.6c-1.1-27.7-2.3-56.3,16-79.3c21.1-23.8,42-52.3,36.5-84
	l-0.5-2.6l1.3,2.3c14.8,25.4,2.5,47.6-10.5,71.1c-12.6,22.8-25.7,46.4-16.7,75.7l-0.9,0.3c-9.1-29.7,4-53.5,16.7-76.5
	c12.5-22.6,24.3-43.9,11.8-67.8c4.1,31-16.4,58.9-37.1,82.1c-18.1,22.7-17,51.2-15.8,78.7C235.9,272,236.7,291.7,229.5,308.3
	L229.5,308.3z"/>
<g class="st2">
	<path class="st3" d="M263.3,229.5c-1.1,1.6-2.2,3.2-3.2,4.8c-16-54,42.5-89.4,33.1-131.9c0.1-4.2-0.2-8.3-0.9-12.4
		C320,137.3,252.4,173.4,263.3,229.5L263.3,229.5z"/>
</g>
<path class="st7" d="M328.7,240.4c-41,18.2-69.6,55.4-95.6,96.7c-36.6,43.9-90,62.3-159.3,48.3c-12.6-2.6-23.5-10.6-29.4-21.9
	c-0.8-1.5-1.5-3.1-2.1-4.7c-3.3-8.7-3.6-18.5,0.4-27.4c10.3-19.4,48.9,0.3,65.1,27c3.1,5.1,8.2,8.5,14.1,9.5
	c38.2,5.8,93.1-30.3,112-68.2c15.2-39.2,33.6-73,66.8-82.7c26.3-14.5,44.5-31.8,34.2-59c1,2.2,2,4.4,3,6.6c1,1.2,2,2.3,2.9,3.5
	C360.6,193.3,359.8,220.5,328.7,240.4z"/>
<path class="st1" d="M117.6,390.4c-13.9,0-28.6-1.6-43.8-4.7C60.9,383.1,50,375,44,363.6c-0.8-1.5-1.5-3.1-2.1-4.7
	c-3.5-9.5-3.4-19.3,0.4-27.8c2.7-5.1,7.5-7.9,13.9-8.1c16.4-0.5,40.2,15.6,52,35.1c3,5,8,8.3,13.7,9.2
	c36.4,5.6,91.7-28.1,111.5-67.9c13.6-35.3,32.2-72.8,67-82.9c22.9-12.7,44.9-29.5,34-58.4l0.9-0.4c1,2.2,2,4.4,3,6.6
	c1,1.2,2,2.3,2.9,3.5l0.1,0.1c10.5,13.5,14.9,27.3,12.8,39.9c-2.2,12.6-10.6,23.8-25.1,33h-0.1c-42.1,18.7-70.7,57.5-95.4,96.5
	c-18.6,22.3-41.4,37.8-67.7,46.1C150.9,388.1,134.8,390.4,117.6,390.4L117.6,390.4z M57,323.9h-0.7c-6.1,0.2-10.6,2.7-13.1,7.6
	c-3.6,8.2-3.8,17.8-0.4,27c0.6,1.6,1.3,3.2,2.1,4.6c5.8,11.2,16.5,19.1,29.1,21.6c66.4,13.5,121.3-3.1,158.8-48.1
	c24.7-39.1,53.4-78,95.7-96.8c14.3-9.1,22.6-20,24.7-32.4c2.1-12.4-2.3-26-12.7-39.3l-0.1-0.1c-0.9-1.1-1.8-2.3-2.8-3.4l-0.1-0.1
	c0,0-0.1-0.2-0.1-0.3c2.3,10.2,0.5,19.4-5.5,28c-5.9,8.6-15.7,16.5-31,24.9h-0.1c-34.4,10.1-52.9,47.3-66.5,82.5
	c-9.1,18.3-27.4,37.2-49,50.7c-22.4,14-45.6,20.5-63.6,17.8c-6-0.9-11.3-4.5-14.4-9.7C95.8,339.7,72.9,324,56.9,324L57,323.9z"/>
<path class="st1" d="M117.6,392.5c-14.1,0-28.9-1.6-44.3-4.7c-15.3-3.1-28.1-13.9-33.4-28.2c-3.6-9.7-3.5-19.8,0.1-28.6
	c-3.2-19.9,7.2-37.8,31.8-54.7c27.2-22.3,46.1-51.4,56.4-86.5c1.9-20.7,6.9-36.8,15.3-49.1c9.5-13.9,23.6-23.1,42-27.3
	c10-5.6,18.7-12.4,25.8-20.2c11.9-13.6,27.7-21.8,43.1-22.4c12.3-0.5,23.5,4,32.6,12.9c22.1,23,39.9,49.7,53,79.5
	c12.6,14.7,18.2,30,16.1,44c-2,13.6-10.8,25.5-26.2,35.4c-0.1,0.1-0.2,0.1-0.4,0.2c-41.6,18.5-70,56.9-94.5,95.7
	c-0.1,0.1-0.1,0.2-0.2,0.3c-18.8,22.6-41.9,38.3-68.6,46.7C151.3,390,135,392.4,117.6,392.5L117.6,392.5z M256.2,75.8h-1.5
	c-14,0.5-28.4,8-39.5,20.7c-7.6,8.4-16.9,15.6-27.4,21.5c-0.2,0.1-0.4,0.2-0.7,0.2c-32.8,7.4-49.9,30.3-53.7,72.2
	c0,0.2,0,0.3-0.1,0.5c-10.6,36.1-30.2,66.2-58.2,89.3c-0.1,0-0.1,0.1-0.2,0.1c-23.2,15.9-32.9,32.4-29.7,50.5c0.1,0.5,0,1-0.2,1.5
	c-3.4,7.7-3.6,16.7-0.3,25.5c4.7,12.6,16.1,22.2,29.7,25c66.5,13.5,119.2-2.4,156.7-47.2c24.9-39.4,53.7-78.4,96.4-97.4
	c14-9,22-19.7,23.8-31.7c1.8-12.7-3.4-26.6-15.2-40.3c-0.2-0.2-0.3-0.4-0.4-0.6c-12.9-29.3-30.5-55.7-52.2-78.3
	C275.9,79.8,266.5,75.9,256.2,75.8L256.2,75.8z"/>
<path class="st1" d="M130.6,370.9c-3.1,0-6.1-0.2-9-0.7c-6.6-1-12.4-4.9-15.9-10.7C94.7,341.5,72.1,326,57,326h-0.6
	c-5.3,0.1-9.2,2.3-11.4,6.5c-0.7,1.2-2.2,1.7-3.4,1.1c-1.2-0.7-1.7-2.2-1.1-3.4c3.1-5.8,8.5-9,15.7-9.2c17-0.5,41.6,16,53.8,36
	c2.7,4.4,7.2,7.5,12.3,8.3c17.2,2.6,39.7-3.7,61.5-17.3c21-13.1,38.9-31.6,47.8-49.4c13.8-35.7,32.6-73.5,68.1-84
	c15.8-8.8,25.7-17,31-25.8c6.3-10.6,6.1-22.3-0.7-35.8c-0.6-1.3,0-2.8,1.2-3.4c1.2-0.5,2.6-0.1,3.3,1.1c17.7,34.9-8.1,55-32.5,68.5
	c-0.2,0.1-0.4,0.2-0.5,0.2c-33.6,9.8-51.8,46.5-65.1,81.2c0,0.1-0.1,0.1-0.1,0.2C219.2,334.7,170.4,370.9,130.6,370.9L130.6,370.9z"
	/>
<path class="st6" d="M145.2,174.2c2.1-11.1,6.9-22.8,11.5-30.2c2.1-3.3,5.3-5.6,9.1-6.5c15.5-3.4,42.3,0.1,45.6,13.5
	c0,0-12.4,18.4-13.6,54.7c-1.2,36.4-29.7,59.1-55.6,63.5c-20.8,2.9-32.5-2.9-29.6-22.7C127.3,225.9,138.4,202,145.2,174.2
	L145.2,174.2z"/>
<g class="st2">
	<path class="st3" d="M211.5,151.1c0,0-1,1.4-2.4,4.3c-4.4-12.6-30.2-15.8-45.4-12.4c-3.8,0.8-7,3.2-9.1,6.5c-1.9,3-3.9,6.8-5.6,11
		c2.2-6.3,5-12,7.7-16.3c2.1-3.3,5.3-5.6,9.1-6.5C181.4,134.2,208.2,137.7,211.5,151.1L211.5,151.1z"/>
</g>
<path class="st1" d="M134.2,272.5c-8.2,0-15.4-2.1-20-6.4c-5.3-4.9-6.7-12.1-3.8-20.4c0.5-1.3,1.9-2,3.2-1.6s2,1.9,1.6,3.2
	c-2.2,6.4-1.4,11.4,2.5,15c7.4,6.8,24.2,6.7,39.8-0.3c24.4-10.9,38.6-34.5,38.2-62.9v-0.2c1-17.3,3.5-36.7,14-49.6
	c3.6-4.4,8-7.8,13-10.3c0.1,0,0.2-0.1,0.2-0.1c12.2-4.2,22.1-10.2,30.4-18.3c10.5-12.7,9.1-18.8,8-20.9c-1.4-2.5-4.7-3.8-9-3.3
	c-4,0.5-7.8,2.4-10.7,5.6c-16.3,17.8-35.3,30.2-56.7,36.8c-1.3,0.4-2.8-0.4-3.2-1.7c-0.4-1.3,0.4-2.8,1.7-3.2
	c20.5-6.3,38.8-18.2,54.5-35.4c3.7-4.1,8.6-6.7,13.8-7.3c6.4-0.7,11.6,1.5,14.1,5.9c2,3.6,3.5,12-8.6,26.6c-0.1,0.1-0.1,0.1-0.2,0.2
	c-8.7,8.5-19.5,15.1-32.2,19.5c-4.3,2.1-8.2,5.1-11.2,8.9c-9.6,11.8-11.9,30.1-12.9,46.6c0.5,30.5-14.9,55.8-41.2,67.6
	c-8.6,3.9-17.4,5.8-25.2,5.8L134.2,272.5z"/>
<path class="st1" d="M145.2,176.8c0,0-0.3,0-0.5,0c-1.4-0.2-2.3-1.6-2-2.9c0,0,0,0,0-0.1c2-10.6,6.7-22.8,11.9-31.1
	c2.4-3.9,6.3-6.6,10.7-7.6c14.9-3.3,44.7-0.9,48.6,15.3c0.3,1.3-0.5,2.7-1.9,3.1c-1.4,0.3-2.7-0.5-3.1-1.9
	c-2.8-11.4-27.8-14.9-42.6-11.6c-3.1,0.7-5.8,2.6-7.5,5.3c-4.9,7.8-9.3,19.3-11.2,29.3C147.5,175.8,146.4,176.7,145.2,176.8
	L145.2,176.8z"/>
<circle class="st1" cx="160.3" cy="250" r="5.9"/>
<path class="st1" d="M160.3,256.4c-1,0-2-0.2-2.9-0.7c-1.5-0.8-2.6-2.1-3.2-3.7c-0.5-1.6-0.4-3.4,0.4-4.9c0.8-1.5,2.1-2.6,3.7-3.2
	c1.6-0.5,3.4-0.4,4.9,0.4c1.5,0.8,2.6,2.1,3.2,3.7c0.5,1.6,0.4,3.4-0.4,4.9C164.8,255.1,162.7,256.4,160.3,256.4L160.3,256.4z
	 M160.3,244.6c-0.5,0-1.1,0.1-1.6,0.2c-1.4,0.4-2.5,1.4-3.2,2.7c-0.7,1.3-0.8,2.8-0.4,4.1c0.4,1.4,1.4,2.5,2.7,3.2
	c1.3,0.7,2.8,0.8,4.1,0.4c2.9-0.9,4.4-4,3.5-6.8C164.8,246.1,162.7,244.6,160.3,244.6L160.3,244.6z"/>
<circle class="st1" cx="172.7" cy="228.4" r="5.9"/>
<path class="st1" d="M172.7,234.8c-2.7,0-5.2-1.7-6.1-4.4c-0.5-1.6-0.4-3.4,0.4-4.9c0.8-1.5,2.1-2.6,3.7-3.2c3.4-1,6.9,0.8,8,4.1
	c1.1,3.4-0.8,6.9-4.1,8C174,234.7,173.3,234.8,172.7,234.8z M172.7,223c-0.6,0-1.1,0.1-1.7,0.2c-1.4,0.4-2.5,1.4-3.2,2.7
	c-0.7,1.3-0.8,2.8-0.4,4.1c0.9,2.9,4,4.4,6.8,3.5c2.9-0.9,4.4-4,3.5-6.8c-0.4-1.4-1.4-2.5-2.7-3.2C174.4,223.2,173.6,223,172.7,223z
	"/>
<circle class="st1" cx="179.1" cy="204.9" r="5.9"/>
<path class="st1" d="M179.1,211.3c-1,0-2-0.2-2.9-0.7c-1.5-0.8-2.6-2.1-3.2-3.7c-0.5-1.6-0.4-3.4,0.4-4.9c1.6-3.1,5.4-4.4,8.6-2.7
	c1.5,0.8,2.6,2.1,3.2,3.7c0.5,1.6,0.4,3.4-0.4,4.9C183.6,210,181.5,211.3,179.1,211.3L179.1,211.3z M179.1,199.5
	c-0.5,0-1.1,0.1-1.6,0.2c-1.4,0.4-2.5,1.4-3.2,2.7c-0.7,1.3-0.8,2.8-0.4,4.1c0.4,1.4,1.4,2.5,2.7,3.2c2.7,1.4,5.9,0.3,7.3-2.3
	c0.7-1.3,0.8-2.8,0.4-4.1C183.6,201.1,181.5,199.5,179.1,199.5L179.1,199.5z"/>
<circle class="st1" cx="182.8" cy="176.7" r="5.9"/>
<path class="st1" d="M182.8,183.1c-2.7,0-5.2-1.7-6.1-4.4c-0.5-1.6-0.4-3.4,0.4-4.9c0.8-1.5,2.1-2.6,3.7-3.2
	c1.6-0.5,3.4-0.4,4.9,0.4c3.1,1.6,4.4,5.4,2.7,8.6c-0.8,1.5-2.1,2.6-3.7,3.2C184.1,183,183.5,183.1,182.8,183.1z M182.8,171.3
	c-0.5,0-1.1,0.1-1.6,0.2c-2.9,0.9-4.4,4-3.5,6.8c0.9,2.9,4,4.4,6.8,3.5c2.9-0.9,4.4-4,3.5-6.8C187.3,172.8,185.2,171.3,182.8,171.3
	L182.8,171.3z"/>
<ellipse transform="matrix(7.863313e-02 -0.9969 0.9969 7.863313e-02 -66.9857 317.3457)" class="st1" cx="138.2" cy="194.9" rx="5.3" ry="3.7"/>
<path class="st1" d="M138,200.7h-0.2c-2.3-0.2-4-2.9-3.7-6.1c0.1-1.5,0.6-2.9,1.5-3.9c0.9-1.1,2-1.6,3.2-1.5c1.1,0.1,2.2,0.8,2.9,2
	c0.7,1.1,1,2.6,0.8,4.1c-0.1,1.5-0.6,2.9-1.5,3.9C140.1,200.2,139.1,200.7,138,200.7z M138.4,190.1c-0.8,0-1.5,0.4-2.2,1.2
	c-0.7,0.9-1.2,2.1-1.3,3.4c-0.2,2.7,1.1,4.9,2.8,5.1c0.8,0.1,1.7-0.4,2.3-1.2c0.7-0.9,1.2-2.1,1.3-3.4c0.1-1.3-0.1-2.6-0.7-3.5
	c-0.5-0.9-1.3-1.5-2.1-1.5C138.6,190.1,138.4,190.1,138.4,190.1z"/>
<ellipse transform="matrix(7.863276e-02 -0.9969 0.9969 7.863276e-02 -43.9076 308.6219)" class="st1" cx="145" cy="178.1" rx="6.2" ry="4.4"/>
<path class="st1" d="M144.8,184.8h-0.3c-1.3-0.1-2.5-0.9-3.3-2.3c-0.8-1.3-1.1-3-1-4.8c0.3-3.7,2.7-6.6,5.3-6.3
	c2.7,0.2,4.6,3.4,4.3,7.1c-0.1,1.8-0.7,3.4-1.7,4.6C147.1,184.2,146,184.8,144.8,184.8L144.8,184.8z M145.3,172.3
	c-2.1,0-3.9,2.4-4.1,5.5c-0.1,1.6,0.2,3.1,0.8,4.2c0.6,1.1,1.6,1.8,2.6,1.8c1,0.1,2-0.4,2.8-1.4c0.8-1,1.4-2.5,1.5-4
	c0.2-3.2-1.3-5.9-3.4-6.1C145.5,172.3,145.3,172.3,145.3,172.3z"/>
<ellipse transform="matrix(0.3143 -0.9493 0.9493 0.3143 -117.9045 268.739)" class="st1" cx="127.1" cy="216" rx="5.3" ry="3.7"/>
<path class="st1" d="M126.2,221.6c-0.3,0-0.7,0-1-0.1c-1.1-0.4-1.9-1.3-2.3-2.6c-0.4-1.3-0.3-2.8,0.1-4.2s1.3-2.7,2.4-3.4
	c1.1-0.8,2.3-1.1,3.4-0.7c2.2,0.7,3.2,3.8,2.2,6.8C130.2,219.9,128.2,221.7,126.2,221.6L126.2,221.6z M127.9,211.3
	c-0.6,0-1.2,0.2-1.8,0.7c-0.9,0.7-1.6,1.7-2.1,3c-0.4,1.2-0.5,2.5-0.1,3.6c0.3,1,0.9,1.7,1.7,2c1.7,0.6,3.8-1,4.6-3.6
	c0.8-2.5,0.1-5-1.6-5.6C128.4,211.3,128.2,211.2,127.9,211.3L127.9,211.3z"/>
<ellipse transform="matrix(0.521 -0.8536 0.8536 0.521 -143.2001 212.6913)" class="st1" cx="117.9" cy="233.9" rx="5.3" ry="3.7"/>
<path class="st1" d="M116.6,239.3c-0.6,0-1.2-0.1-1.7-0.5c-2-1.2-2.2-4.4-0.6-7.1c1.7-2.7,4.6-4,6.6-2.8c2,1.2,2.2,4.4,0.6,7.1
	c-0.8,1.3-1.9,2.3-3.1,2.8C117.8,239.2,117.2,239.3,116.6,239.3L116.6,239.3z M119.2,229.5c-1.4,0-3,1-4,2.8
	c-1.4,2.3-1.3,4.9,0.2,5.8c0.7,0.4,1.6,0.4,2.6,0c1-0.5,2-1.3,2.7-2.4c1.4-2.3,1.3-4.9-0.2-5.8C120,229.6,119.6,229.5,119.2,229.5z"
	/>
<circle class="st1" cx="163.5" cy="163.9" r="6.9"/>
<path class="st1" d="M163.5,171.3c-3.2,0-6.1-2.1-7-5.1c-1.2-3.9,0.9-8,4.8-9.3c3.9-1.2,8.1,0.9,9.3,4.8c0.6,1.9,0.4,3.9-0.5,5.6
	c-0.9,1.8-2.4,3-4.3,3.6C164.9,171.3,164.2,171.4,163.5,171.3L163.5,171.3z M163.5,157.5c-0.6,0-1.3,0.1-1.9,0.3
	c-3.4,1.1-5.3,4.7-4.2,8.1c0.5,1.6,1.7,3,3.2,3.8c1.5,0.8,3.3,1,4.9,0.4c1.6-0.5,3-1.7,3.8-3.2c0.8-1.5,1-3.3,0.4-4.9
	C168.8,159.4,166.3,157.6,163.5,157.5L163.5,157.5z M160.3,252.2c-0.7,0-1.3-0.3-1.8-0.9c-11.5-15-22.2-26-32.8-33.5
	c-0.6-0.5-1-1.2-0.9-1.9c0.1-0.8,0.5-1.4,1.2-1.8c1.2-0.6,26.6-13.9,47.6-12.2c-5.6-6.3-16.9-17.4-29.1-20.6
	c-1.2-0.3-1.9-1.5-1.6-2.7c0.3-1.2,1.5-1.9,2.7-1.6c18.9,5,34.6,25.8,35.3,26.7c0.6,0.7,0.6,1.8,0.1,2.5c-0.5,0.8-1.5,1.2-2.4,0.9
	c-16.3-4-38.9,5.5-47.2,9.3c9.9,7.7,20,18.3,30.7,32.3c0.7,1,0.6,2.4-0.4,3.1C161.2,252.1,160.7,252.2,160.3,252.2L160.3,252.2z"/>
<path class="st1" d="M117.9,236.2c-0.9,0-1.7-0.5-2.1-1.4c-0.4-1.1,0.1-2.4,1.3-2.9c1.2-0.5,28.3-10.6,50-7.1
	c-10.3-13-19.6-22.1-29-28.4c-0.6-0.4-1-1.1-1-1.9c0-0.7,0.4-1.5,1.1-1.8c1-0.6,25.2-15,44.9-18.3c1.2-0.2,2.3,0.6,2.5,1.8
	c0.2,1.2-0.6,2.3-1.8,2.5c-14.9,2.5-33.2,12.1-40.3,16c10,7.3,20,17.7,31,32.3c0.6,0.8,0.6,1.8,0,2.6c-0.6,0.8-1.6,1.1-2.5,0.8
	c-20.9-6.7-53,5.4-53.4,5.5C118.4,236.1,118.1,236.1,117.9,236.2L117.9,236.2z"/>
<path class="st1" d="M207,207.2c-4.4,0-8.6-1.7-11.8-4.9c-4.2-4.2-7.4-9.9-10.6-15.5c-5.6-10-10.9-19.4-21.5-20.7
	c-0.9-0.1-1.7-0.8-1.9-1.7c-0.2-0.9,0.1-1.8,0.9-2.4c13.9-9.3,31.3-9.7,45.1-1.1c11.7,7.2,18,19.2,16.6,31.4
	c-0.7,6.4-5.1,11.9-11.3,13.9C210.8,206.9,208.9,207.2,207,207.2z M169.3,163.1c9.1,3.6,14.2,12.7,19.2,21.6
	c3.1,5.5,6,10.7,9.8,14.5c3.4,3.4,8.2,4.5,12.9,2.9c4.6-1.5,7.8-5.5,8.4-10.3c1.2-10.4-4.3-20.8-14.5-27.1
	C196.4,159.3,182.8,156.5,169.3,163.1L169.3,163.1z"/>
<path class="st1" d="M114.6,210.7c-2.6,0-5.3-0.7-7.7-2.3c-5.7-3.6-8.2-10.1-6.2-16.6c7.2-23.9,37.5-39.2,63.5-32
	c1.2,0.3,1.9,1.6,1.6,2.7v0.1c0.3,1.2-0.4,2.4-1.5,2.7c-10.3,3-18.5,14.2-26.4,25c-4.5,6.1-8.7,11.9-13.2,16.2
	C121.7,209.3,118.1,210.7,114.6,210.7L114.6,210.7z M150.7,162.5c-20.3,0-40.3,12.6-45.8,30.7c-1.7,5.5,1.3,9.6,4.3,11.5
	c3,1.9,8.1,2.7,12.3-1.3c4.2-4,8.4-9.6,12.7-15.6c7.2-9.8,14.5-19.9,23.9-24.7C155.6,162.7,153.2,162.5,150.7,162.5L150.7,162.5z"/>
<path class="st1" d="M178.7,195.3c-0.9,0-1.7-0.5-2.1-1.3c-9.3-22-14.3-27.4-14.4-27.5c-0.8-0.9-0.8-2.3,0.1-3.1c0,0,0,0,0,0
	c0.9-0.8,2.3-0.8,3.1,0c0.2,0.2,5.5,5.7,15.3,28.9c0.5,1.1,0,2.4-1.2,2.9C179.3,195.2,179,195.3,178.7,195.3L178.7,195.3z"/>
<path class="st1" d="M153.2,182.9c-1.2,0-2.2-1-2.2-2.2c0-0.4,0.1-0.7,0.3-1l9-17c0.6-1.1,1.9-1.5,3-0.9c1.1,0.6,1.5,1.9,0.9,3
	l-9,17C154.8,182.5,154,182.9,153.2,182.9L153.2,182.9z M111.5,259.1c4.4-4.3,8.3-9.2,11.9-14.4c3.5-5.2,6.7-10.7,9.5-16.3
	c5.8-11.3,10.5-23.1,14.7-35.1c0.2-0.5,0.7-0.7,1.2-0.6c0.5,0.2,0.7,0.7,0.6,1.2c-3.9,12.2-8.2,24.3-13.7,35.9
	c-2.7,5.8-5.7,11.5-9.2,17c-3.4,5.5-7.4,10.7-11.9,15.5c-0.9,0.9-2.3,0.9-3.2,0.1C110.6,261.5,110.6,260,111.5,259.1L111.5,259.1
	L111.5,259.1z M150.9,268.8c-1.8-1.1-3.2-2.8-4-4.6c-0.8-1.8-1.2-3.7-1.3-5.5c-0.2-3.6,0.4-7,1.1-10.3c1.5-6.6,3.7-12.9,6.1-19
	c4.7-12.3,10.1-24.3,14.4-36.6c0.2-0.5,0.7-0.8,1.2-0.6s0.7,0.7,0.6,1.2c-3.9,12.6-9,24.8-13.2,37.1c-2.1,6.2-4.1,12.4-5.3,18.7
	c-0.6,3.1-1,6.3-0.7,9.2c0.2,3,1.3,5.5,3.4,6.6c1,0.6,1.4,2,0.7,3C153.3,269,152,269.4,150.9,268.8C151,268.9,151,268.9,150.9,268.8
	z M228.1,93.3c2.9-1.8,5.9-3.1,9.1-4.1c3.2-1,6.6-1.6,10-1.5c3.4,0.1,7,0.8,10.1,2.5c3.2,1.6,5.9,4.1,8.1,6.8
	c0.9,1.1,0.7,2.7-0.4,3.6c-1.1,0.9-2.7,0.7-3.6-0.4c0,0-0.1-0.1-0.1-0.1c-1.6-2.4-3.6-4.6-6.1-6.1c-2.4-1.6-5.3-2.4-8.2-2.8
	c-3-0.3-6.1,0-9.1,0.6c-3,0.7-6.1,1.7-8.8,3.1h0c-0.5,0.2-1,0.1-1.3-0.4C227.6,94.1,227.7,93.6,228.1,93.3L228.1,93.3z M250.1,266
	c-1.2,0-2.2-1-2.2-2.2c0.3-21.8,17.2-41.4,33.6-60.3c21.6-24.9,43.9-50.6,30.1-82.3c-0.5-1.1,0-2.4,1.2-2.9c1.1-0.5,2.4,0,2.9,1.2
	c14.9,34.2-8.4,61-30.8,87c-16.6,19.2-32.3,37.2-32.5,57.4C252.4,265.1,251.4,266.1,250.1,266L250.1,266z"/>
<path class="st1" d="M229.1,310.3c-0.3,0-0.6-0.1-0.9-0.2c-1.1-0.5-1.6-1.8-1.2-2.9c6.9-16,6.2-35.3,5.3-55.8
	c-1.1-28-2.3-57,16.4-80.5c0,0,0-0.1,0.1-0.1c20.9-23.4,41.5-51.6,36-82.5c-0.2-1.1,0.4-2.1,1.4-2.5c1-0.4,2.1,0,2.7,1
	c15.3,26.2,2.8,48.9-10.5,72.8C266,182.1,253.2,205.4,262,234c0.4,1.2-0.3,2.4-1.5,2.8c-1.2,0.4-2.4-0.3-2.8-1.5
	c-9.4-30.4,4.6-55.6,16.9-77.8c11-19.8,20.7-37.4,15.5-56.6c-1,27.4-19.4,52-38,72.9c-17.7,22.2-16.5,50.3-15.4,77.5
	c0.8,21,1.7,40.8-5.7,57.7C230.8,309.8,230,310.4,229.1,310.3z"/>
<path class="st1" d="M182.2,353.8H182c-1.2-0.1-2.1-1.2-2.1-2.4c1.1-15.8,10.4-30.8,21.1-48c14.1-22.7,30-48.4,31-82.9
	c0-1.2,1-2.2,2.2-2.2h0.1c1.2,0,2.2,1.1,2.2,2.3c-1.1,35.7-17.3,62-31.7,85.1c-10.4,16.8-19.4,31.3-20.5,46
	C184.3,352.9,183.3,353.8,182.2,353.8z"/>
<path class="st1" d="M143.2,369.4L143.2,369.4c-1.3,0-2.3-1-2.2-2.2c0,0,0,0,0,0c0.5-19.8,16.6-33.4,35.3-49.2
	c12.7-10.8,27.2-23,39.3-39.3c0.7-1,2.1-1.2,3.1-0.5c1,0.7,1.2,2.1,0.5,3.1c-12.4,16.6-27.1,29-40,40
	c-18.6,15.7-33.3,28.1-33.7,45.9C145.4,368.4,144.4,369.4,143.2,369.4L143.2,369.4z"/>
<g class="st8">
	<path class="st1" d="M188.8,137.1c0,0,26.1-13.2,37.1-23.5c11-10.3,28.9-31.7,38.5-11.8c0,0,2.2,18.5-34.9,37.1
		c0,0-14.6,4.9-18.3,11.4C211.3,150.3,204.9,136.8,188.8,137.1L188.8,137.1z"/>
	<path class="st1" d="M211.3,151.3l-0.4-0.8c0,0-6.3-13-21.4-13h-2.7l1.9-0.9c0.2-0.1,26.2-13.2,37-23.4c1.3-1.2,2.6-2.5,4.1-3.9
		c7.9-7.8,17.8-17.5,26.1-16c3.6,0.6,6.7,3.4,9,8.3v0.1c0.1,0.8,1.9,19-35.1,37.6c-0.2,0.1-14.5,5-18.1,11.2L211.3,151.3
		L211.3,151.3z M190.7,136.7c12.7,0.6,19,10,20.6,12.7c4.3-6.2,17.5-10.7,18.1-10.9c35.1-17.6,34.6-35.3,34.6-36.5
		c-2.2-4.5-5-7.1-8.3-7.7c-7.8-1.3-17.5,8.1-25.3,15.8c-1.5,1.4-2.8,2.8-4.1,3.9C217,122.7,196.7,133.6,190.7,136.7L190.7,136.7z"/>
</g>
<g class="st9">
	<path class="st1" d="M328.7,240.4c-41,18.2-69.6,55.4-95.6,96.7c-36.6,43.9-90,62.3-159.3,48.3c-12.6-2.6-23.5-10.6-29.4-21.9
		c-0.4-1.5-0.7-3-0.8-4.4c-4.6-36.7,48.9-4.7,56.6,7.3s22.4,12.4,22.4,12.4c45,2.1,79.7-25.8,95.2-40.5s48.6-68.3,48.6-68.3
		c13-24.8,26.1-32.4,33.7-34.6c7.5-2.2,14.7-5.8,20.8-10.7c35.8-29,20.7-55.4,20-56.6C360.7,193.3,359.8,220.5,328.7,240.4
		L328.7,240.4z"/>
	<path class="st1" d="M117.6,390.4c-13.9,0-28.6-1.6-43.8-4.7C60.9,383.1,50,375,44,363.6v-0.1c-0.4-1.5-0.7-3-0.9-4.5
		c-1.1-9.1,1.1-14.7,6.8-16.8c14-5.1,45,14.9,50.8,23.7c7.6,11.6,21.8,12.2,22,12.2c41.1,1.9,74.3-20.9,94.8-40.3
		c15.3-14.5,48.2-67.6,48.5-68.2c12.7-24.2,25.5-32.3,34-34.8c7.9-2.3,14.8-5.9,20.6-10.6c35.5-28.9,20.6-54.9,19.9-56l0.8-0.5
		c10.6,13.5,15,27.4,12.9,40c-2.2,12.6-10.6,23.8-25.1,33h-0.1c-42.1,18.7-70.7,57.5-95.4,96.5c-18.6,22.3-41.4,37.8-67.7,46.1
		C150.9,388,134.7,390.4,117.6,390.4z M44.9,363.2c5.8,11.2,16.5,19,29.1,21.6c66.4,13.5,121.3-3.1,158.8-48.1
		c24.7-39.1,53.4-78,95.7-96.8c14.3-9.1,22.6-20,24.7-32.4c1.9-11.3-1.6-23.6-10.1-35.8c3.1,8.7,6.5,30.1-21.9,53.2
		c-5.9,4.8-13,8.5-20.9,10.8c-6.8,2-20.2,9.2-33.5,34.4c-0.4,0.6-33.4,53.8-48.7,68.4c-19.9,18.8-51.4,40.7-90.6,40.7
		c-1.6,0-3.3,0-4.9-0.1c-0.1,0-14.9-0.6-22.7-12.6c-5.6-8.6-36-28.4-49.6-23.4c-5.1,1.9-7.2,7.2-6.2,15.8
		C44.2,360.3,44.5,361.7,44.9,363.2L44.9,363.2z"/>
</g>
<g class="st9">
	<path class="st1" d="M63.4,325.1c24.1,11.4,49.7,18.8,74.8,5.3c8.6-4.6,15.5-12,19.9-20.8c7.3-14.6,23.5-41.4,45.6-47.4
		c30.8-8.4,4.4-87.1,24.3-100c19.8-13,62.1-41.9,47.6-82.1c0,0,10.7,2.2,12,12.3s-4,29.4-4,29.4s-10.8,21.6-27.1,43.4
		c-16.4,21.8-20.2,38-20.2,38s-3.6,33.5-4.7,38.3c-1.1,4.8-13.7,42.9-27.9,55.9c-14.2,13-36.3,30.7-36.3,30.7s-25,21.5-24.1,37.9
		c0,0-22.9,10.1-35.7-8.8C94.8,338.5,63.4,325.2,63.4,325.1L63.4,325.1z"/>
	<path class="st1" d="M129.6,369.3c-7.3,0-16-2.4-22.3-11.6c-9.9-14.6-31.2-25.9-40-30.2c-1.3-0.6-2.7-1.2-4-1.9l0.4-0.8
		c0,0,1.6,0.7,4,1.9c21.3,9.6,45.9,16.6,70.4,3.5c8.4-4.5,15.2-11.6,19.7-20.6c7.6-15.2,23.8-41.6,46-47.7
		c16.7-4.5,16.3-30.2,15.8-55.1c-0.4-20-0.7-39,8.4-44.9c17-11.1,62.2-40.6,47.4-81.5l-0.3-0.8l0.8,0.2c0,0,11,2.4,12.4,12.7
		c1.3,10.1-3.8,28.8-4,29.6c-0.1,0.3-11,22-27.2,43.5c-16.1,21.5-20,37.6-20.1,37.8c-0.1,1.3-3.6,33.5-4.7,38.3
		c-0.9,3.8-13.4,42.8-28,56.2c-14.1,12.9-36.1,30.6-36.3,30.8c-0.2,0.2-24.8,21.6-24,37.5v0.3l-0.3,0.1
		C143.6,366.6,137.4,369.3,129.6,369.3L129.6,369.3z M77.2,331.6c10.2,5.8,23.6,14.8,30.9,25.5c11.7,17.2,32.1,9.8,34.8,8.7
		c-0.5-16.4,23.3-37.1,24.3-38c0.2-0.2,22.2-17.9,36.3-30.7c14.5-13.2,26.9-51.9,27.8-55.7c1.1-4.7,4.6-37.9,4.7-38.2
		c0-0.2,4-16.6,20.3-38.2c16.1-21.5,27-43.1,27.1-43.3c0-0.1,5.2-19.3,3.9-29.1c-1.1-8-8.3-10.9-10.8-11.6
		c14.2,41.2-31,70.7-48,81.8c-8.6,5.6-8.3,24.3-7.9,44.1c0.5,25.2,1,51.3-16.5,56c-21.8,5.9-37.8,32.1-45.4,47.2
		c-4.6,9.1-11.5,16.4-20.1,21C117.4,342.2,96.3,338.8,77.2,331.6z"/>
</g>
<g class="st9">
	<path class="st1" d="M297.2,101.2c0,0,17.1,26.1,6.7,52.9s-28.5,32.9-40.9,74.3c33.1-33.7,57.6-67.6,53.5-101.9
		C316.6,126.6,305.3,106.3,297.2,101.2L297.2,101.2z"/>
	<path class="st1" d="M262.1,230.2l0.5-1.8c7.2-24.1,16.5-36.6,24.8-47.6c6-8,11.7-15.6,16.1-26.8c10.2-26.3-6.5-52.3-6.7-52.5
		l-1.2-1.8l1.8,1.2c8.1,5.1,19.1,24.7,19.5,25.6l0.1,0.2c4.5,37.6-26.3,74.4-53.6,102.3L262.1,230.2L262.1,230.2z M298.8,103
		c3.7,6.7,14.3,28.9,5.6,51.3c-4.4,11.3-10.1,18.9-16.2,27c-8.4,11.2-17,22.7-24.1,45.4c26.8-27.5,56.3-63.4,52-100
		C315.4,125.5,306.2,109.3,298.8,103z"/>
</g>
<g class="st10">
	<path class="st3" d="M70.9,305.6c-1.5,2-2.8,4.8-1.3,6.8c1.2,1.7,3.6,1.7,5.7,1.5c5.5-0.6,10.9-2.1,15.9-4.4
		c3.3-1.5,6.6-3.4,8.8-6.2c2.2-2.9,3.3-6.8,1.9-10.2C96,278.1,75.2,299.8,70.9,305.6L70.9,305.6z"/>
</g>
<g class="st10">
	<path class="st3" d="M102.9,280.4c-0.4,1.2-0.5,2.7,0.1,3.8c0.6,1.1,1.9,1.7,3.2,1.9c1.3,0.2,2.5-0.1,3.8-0.3
		c1.8-0.4,3.7-0.8,5.3-1.8c1.6-1,2.9-2.6,3-4.5c0.2-2.3-1.5-4.6-3.6-5.2c-2.5-0.8-4.5,0.7-6.7,1.6
		C105.7,276.7,103.7,277.8,102.9,280.4L102.9,280.4z"/>
</g>
<path class="st0" d="M327.1,390.2c38.2,23.4,61.6,64.2,82,108.4c30.4,48.4,81,73.7,151.5,68.9c14.6-1,27.9-9.2,34.8-22.2
	c4.4-8.2,6-17.8,3.3-27.2c6.3-19.6-3.2-38.4-23.4-56.6c-24.5-26.3-39.6-57.9-45.2-94.9c1.6-37.7-9-67.7-45.4-81.2
	c-9.8-7.3-17.6-15.4-23.8-24.3c-16.5-24.8-46.3-36.8-70.1-18.9c-22.1,17.7-41.9,39.1-58.7,65.2c-1.3,2-2.6,4.1-3.9,6.2
	C302.1,336.8,297.7,365.3,327.1,390.2L327.1,390.2z"/>
<g class="st2">
	<path class="st3" d="M395.5,239.2c21.5-8.4,45.5,3.5,59.7,24.7c6.1,8.8,13.9,17,23.8,24.3c36.4,13.5,46.9,43.5,45.4,81.2
		c5.7,37,20.8,68.6,45.2,94.9c20.3,18.2,29.7,37,23.4,56.6c2.8,9.4,1.1,19-3.3,27.2c-3.8,7.1-9.5,12.8-16.3,16.6
		c9.2-3.6,17.1-10.3,21.8-19.3c4.4-8.2,6-17.8,3.3-27.2c6.3-19.6-3.2-38.4-23.4-56.6c-24.5-26.3-39.6-57.9-45.2-94.9
		c1.6-37.7-9-67.7-45.4-81.2c-9.8-7.3-17.6-15.4-23.8-24.3C445.3,238.2,418.3,226.2,395.5,239.2L395.5,239.2z"/>
</g>
<g class="st2">
	<path class="st3" d="M496.7,438.9c-38.1-4.9-48.8-48.2-41.6-89c0.8-16-1.7-31.3-15.7-40.7c-18.3-7.9-30.8-20.5-35.1-37.7
		c-2.8-5.5-0.7-22.8,12.3-17.8c-12.5,3.6-7.6,27.1,6.4,37.7c0,0,9.8,8.4,22,15.3c12.2,6.9,15.8,25.8,15.8,25.8s1.2,19.9,0.8,36.4
		S456.6,410.9,496.7,438.9L496.7,438.9z"/>
</g>
<path class="st4" d="M494.3,540.5c3.5-31.5-37.5-52.3-62-96.2c13.3,26.6,23.3,52,25.5,74.4C467.7,529.4,480,536.4,494.3,540.5
	L494.3,540.5z"/>
<path class="st1" d="M494.6,541.1l-0.5-0.1c-14.8-4.2-27.2-11.6-36.8-21.9l-0.1-0.1v-0.1c-1.9-19.8-10-43.4-25.4-74.2l0.8-0.4
	c10,17.9,22.8,32,34,44.4c16.8,18.6,30.1,33.2,28,52L494.6,541.1L494.6,541.1z M458.2,518.5c9.3,10,21.3,17.2,35.7,21.4
	c1.7-18.2-11.4-32.6-27.8-50.8c-9.3-10.3-19.8-21.8-28.7-35.6C449.7,479.8,456.4,500.6,458.2,518.5L458.2,518.5z"/>
<g class="st2">
	<path class="st3" d="M432.3,444.3c4.6,9.2,8.8,18.2,12.4,27.1c21.6,26.9,45.4,44.8,45.5,67.9c1.3,0.5,2.7,0.8,4,1.2
		C497.7,508.9,456.7,488.2,432.3,444.3L432.3,444.3z"/>
</g>
<path class="st4" d="M401.9,423.9c5.9-48.7-76.4-96.9-44-150.6l-28.3,36.9c-8.6,26.1,4.7,46,31.3,62
	C380,382.3,393.3,400,401.9,423.9L401.9,423.9z"/>
<path class="st1" d="M402.2,425.9l-0.7-1.8c-8.9-24.5-22.6-41.8-40.7-51.5c-29.3-17.6-39.7-38.1-31.5-62.6l0.1-0.1l28.3-36.9
	l0.8,0.5c-18.4,30.5,0.6,59.4,19,87.4c14.2,21.6,27.6,42,25,63L402.2,425.9L402.2,425.9z M330.1,310.3c-7.9,23.9,2.3,44,31.2,61.4
	c17.8,9.5,31.4,26.4,40.4,50.1c1.4-20-11.5-39.6-25.1-60.4c-17.5-26.7-35.5-54.2-21.8-83.2L330.1,310.3L330.1,310.3z"/>
<g class="st2">
	<path class="st3" d="M348,286.2c-14.6,39.9,28.9,76.9,44,113.6c1,2.5,1.9,5,2.7,7.4c2.7,5.2,5.2,10.7,7.3,16.6
		c0.2-1.8,0.3-3.6,0.3-5.5l-6.7-24.5c0.1-0.2,0.2-0.4,0.3-0.6c-0.8-1.7-1.6-3.4-2.5-5.2c-19-36.9-59.9-74.3-35.4-114.8L348,286.2
		L348,286.2z"/>
</g>
<path class="st1" d="M457.7,519.9c2.2-36-40.6-76-34.3-136.8l-39-99.6l1.3-37c0,0-26.3,22.9-30.5,32.1
	c-11.7,30.7,4.7,65.5,33.5,102.3c0,0,18.2,24.3,12.3,39.9l10.1,35.6C420.1,482.3,436.2,503.1,457.7,519.9z"/>
<path class="st5" d="M458.1,520.8l-0.7-0.6c-22.4-17.5-38.1-38.9-46.8-63.7l-10.2-35.8l0.1-0.1c5.8-15.2-12-39.2-12.2-39.4
	c-33.4-42.6-44.1-75.2-33.6-102.7c4.2-9.3,29.6-31.4,30.7-32.3l0.8-0.7l-1.3,38l39,99.6v0.1c-3.6,34.8,8.9,62.6,19.9,87.2
	c8.2,18.3,15.4,34.2,14.4,49.6L458.1,520.8L458.1,520.8z M401.4,420.9l10.1,35.4c8.5,24.3,23.9,45.4,45.8,62.6
	c0.6-14.9-6.4-30.4-14.4-48.3c-11-24.6-23.6-52.5-20-87.6l-39-99.5v-0.1l1.3-35.9c-4.5,4-25.9,23.1-29.6,31.3
	c-10.4,27.2,0.3,59.5,33.5,101.8C389.7,381.6,407.2,405.1,401.4,420.9L401.4,420.9z"/>
<g class="st2">
	<path class="st3" d="M381.3,250.3l-1.3,36.8l39,99.6c-5.8,56.8,31.1,95.4,34.2,129.6c1.5,1.2,2.9,2.4,4.4,3.6
		c2.2-36-40.6-76-34.3-136.8l-39-99.6l1.3-37C385.6,246.4,383.9,247.9,381.3,250.3L381.3,250.3z"/>
</g>
<path class="st6" d="M396.1,393.7c26.3-57.3-42.6-103.9-7.6-149c-9.2,29.1,5,58.7,25.1,88.4c26.2,43.7-8.2,96.8,3.3,137.4"/>
<path class="st1" d="M416.5,470.7c-4.9-17.4-1.6-36.8,2.1-57.2c4.7-27.1,9.7-55.2-5.3-80.1c-17.4-25.8-34-56.1-25.9-86.3
	c-15.6,22.1-6.7,44.8,2.7,68.8c9.6,24.5,19.5,49.7,6.5,78l-0.8-0.4c12.8-27.9,3-53-6.5-77.3c-9.8-25-19-48.6-1-71.8l1.6-2.1
	l-0.8,2.5c-9.7,30.7,7.2,61.7,25,88.1c15.2,25.3,10.2,53.5,5.5,80.8c-3.6,20.4-6.9,39.6-2.1,56.8L416.5,470.7L416.5,470.7z"/>
<g class="st2">
	<path class="st3" d="M393.4,388.1c0.9,1.7,1.7,3.4,2.5,5.2c23-51.4-30.3-94.3-15.3-135.1c0.4-4.1,1.2-8.1,2.5-12.2
		C349.4,289.2,411.7,334,393.4,388.1L393.4,388.1z"/>
</g>
<path class="st7" d="M327.1,390.2c38.2,23.4,61.6,64.2,82,108.4c30.4,48.4,81,73.7,151.5,68.9c12.9-0.9,24.7-7.4,32.1-17.8
	c1-1.4,1.9-2.8,2.7-4.4c4.4-8.2,6-17.8,3.3-27.2c-7.7-20.6-48.5-6.1-68.1,18.2c-3.7,4.6-9.3,7.4-15.2,7.5
	c-38.6,0.7-88.3-42.4-102-82.4c-9.8-40.9-23.7-76.8-55.3-90.8c-24.1-17.9-39.9-37.4-26.1-63c-1.3,2-2.6,4.1-3.9,6.2
	c-1.2,1-2.3,2.1-3.3,3.1C301.7,339.3,298.9,366.4,327.1,390.2L327.1,390.2z"/>
<path class="st1" d="M544,568.6c-27.8,0-52.8-5.1-74.3-15.1c-25-11.6-45.5-30-60.9-54.6c-19.3-42-42.5-84.2-81.8-108.3h-0.1
	c-13.2-11.2-20.1-23.3-20.6-36.1c-0.5-12.8,5.7-25.9,18-37.9l0.1-0.1c1.1-1.1,2.2-2.1,3.3-3.1c1.2-2.1,2.5-4.1,3.8-6.1l0.8,0.5
	c-14.6,27.2,4.9,46.8,26,62.3c33.1,14.7,46.7,54.3,55.5,91.1c14.4,42.1,64.7,82.7,101.5,82c5.8-0.1,11.2-2.8,14.9-7.3
	c14.3-17.7,40-30.5,56.2-27.9c6.3,1,10.7,4.4,12.7,9.8c2.6,8.9,1.5,18.7-3.3,27.6c-0.8,1.6-1.7,3-2.7,4.4
	c-7.4,10.6-19.3,17.1-32.4,18C554.9,568.4,549.4,568.6,544,568.6L544,568.6z M327.4,389.8c39.5,24.3,62.8,66.5,82.1,108.6
	c31.2,49.5,83.4,73.2,151,68.6c12.9-0.9,24.5-7.3,31.7-17.6c1-1.4,1.9-2.8,2.7-4.3c4.6-8.7,5.8-18.2,3.2-26.8
	c-1.9-5.1-5.9-8.2-12-9.2c-15.8-2.6-41.2,10-55.3,27.5c-3.8,4.7-9.5,7.6-15.6,7.7c-18.1,0.4-40.3-9.2-60.7-26
	c-19.6-16.2-35.2-37.4-41.8-56.7c-8.8-36.6-22.2-76-55-90.5h-0.1c-14-10.4-22.7-19.6-27.4-28.8c-4.7-9.3-5.3-18.7-1.7-28.5
	c-0.1,0.1-0.1,0.2-0.2,0.3l-0.1,0.1c-1.1,1-2.2,2-3.3,3l-0.1,0.1c-12.1,11.8-18.2,24.7-17.7,37.2c0.5,12.5,7.3,24.4,20.2,35.4
	L327.4,389.8z"/>
<path class="st1" d="M544,570.7c-28.1,0-53.4-5.1-75.2-15.3c-25.4-11.8-46.1-30.4-61.8-55.3c-0.1-0.1-0.1-0.2-0.1-0.3
	c-19.1-41.7-42.2-83.5-81-107.4l-0.3-0.2c-14-11.8-21.1-24.7-21.3-38.5c-0.2-14.2,7.4-28.6,21.8-41.5c17-27.7,38.2-51.8,63-71.7
	c10.2-7.6,21.9-10.6,34-8.5c15.2,2.6,29.7,12.8,39.8,27.9c6,8.7,13.7,16.6,22.9,23.4c17.6,6.6,30.4,17.6,38,32.6
	c6.7,13.3,9.6,29.9,8.7,50.7c5.6,36.1,20.5,67.4,44.5,93.2c22.2,20,30.1,39.2,24.3,58.5c2.5,9.2,1.2,19.2-3.6,28.4
	c-7.2,13.5-21.3,22.4-36.8,23.5C555,570.5,549.4,570.7,544,570.7L544,570.7z M411.3,497.5c31.2,49.5,81.3,72.2,149.1,67.6
	c13.8-1,26.4-8.9,32.7-20.9c4.4-8.2,5.5-17.2,3-25.3c-0.1-0.5-0.1-1,0-1.5c5.6-17.5-1.8-35.1-22.7-54c-0.1,0-0.1-0.1-0.1-0.1
	c-24.7-26.6-40.2-59-45.9-96.2v-0.5c1.7-42-12.1-67.1-43.7-78.7c-0.2-0.1-0.4-0.2-0.6-0.4c-9.7-7.2-17.9-15.6-24.4-24.9
	c-9.3-14-22.6-23.4-36.5-25.8c-10.7-1.8-21.1,0.7-30.1,7.5c-24.4,19.5-45.3,43.3-62,70.7c-0.1,0.2-0.3,0.4-0.5,0.6
	c-13.5,12-20.6,25.1-20.4,37.9c0.1,12.2,6.7,23.8,19.4,34.6C368.5,412.7,391.9,455.2,411.3,497.5L411.3,497.5z"/>
<path class="st1" d="M514.3,546.4c-41.4,0-90.3-45.7-103.5-84.1c0-0.1,0-0.1-0.1-0.2c-8.7-36.1-21.8-74.9-53.8-89.1
	c-0.2-0.1-0.3-0.2-0.5-0.3c-22.5-16.6-45.4-39.9-23.2-72.2c0.8-1.1,2.3-1.5,3.5-0.7c0,0,0,0,0,0c1.2,0.8,1.5,2.4,0.6,3.5
	c-8.6,12.5-10.4,24.1-5.5,35.4c4.1,9.5,12.8,18.9,27.3,29.7c33.8,15.1,47.5,55.1,56.4,92.3c6.5,18.8,21.7,39.4,40.9,55.2
	c19.9,16.4,41.2,25.7,58.7,25.4c5.2-0.1,10-2.5,13.3-6.6c14.7-18.2,41.4-31.4,58.1-28.6c7.1,1.2,12.1,5,14.4,11.2
	c0.5,1.3-0.2,2.8-1.5,3.3c-1.3,0.5-2.8-0.2-3.3-1.5l0,0c-1.6-4.4-5.1-7-10.4-7.9c-14.9-2.4-39.9,10.1-53.4,26.8
	c-4.2,5.2-10.5,8.3-17.1,8.5L514.3,546.4L514.3,546.4z"/>
<path class="st6" d="M517.7,349c-0.6-11.3-3.8-23.6-7.4-31.4c-1.6-3.5-4.5-6.3-8.2-7.6c-14.9-5.5-42-5.6-47,7.3c0,0,9.9,19.9,6.2,56
	c-3.6,36.2,21.6,62.5,46.7,70.3c20.2,5.7,32.6,1.5,32.4-18.6C528.7,402.6,520.9,377.5,517.7,349L517.7,349z"/>
<path class="st1" d="M522.4,446.3c-4.1,0-8.9-0.8-14.5-2.3c-26.1-8.1-50.6-35-47.1-70.8c3.6-35.6-6.1-55.6-6.2-55.8l-0.1-0.2
	l0.1-0.2c5.1-13.1,32.1-13.2,47.6-7.6c3.7,1.3,6.8,4.2,8.5,7.9c4,8.7,6.9,21.1,7.5,31.6c3,27.4,10.6,52.9,22.6,75.8v0.1l0.1,0.1
	c0.1,8.5-2.1,14.6-6.6,18C531.3,445.2,527.3,446.3,522.4,446.3L522.4,446.3z M455.6,317.2c1,2.2,9.6,22.1,6.2,56.1
	c-3.5,35.3,20.6,61.9,46.4,69.8c11.8,3.3,20.4,3,25.6-1c4.2-3.2,6.2-9,6.2-17.1c-12-23-19.6-48.6-22.6-76.1
	c-0.6-10.4-3.5-22.7-7.4-31.3c-1.5-3.4-4.4-6.1-7.9-7.4C486.6,304.7,460.5,305.2,455.6,317.2L455.6,317.2z"/>
<g class="st2">
	<path class="st3" d="M455,317.2c0,0,0.8,1.6,1.8,4.6c6-11.9,32-11.6,46.6-6.3c3.6,1.3,6.6,4.1,8.2,7.6c1.5,3.3,2.9,7.3,4.1,11.6
		c-1.4-6.5-3.4-12.6-5.5-17.2c-1.6-3.5-4.5-6.3-8.2-7.6C487.1,304.4,460.1,304.3,455,317.2L455,317.2z"/>
</g>
<path class="st1" d="M521.3,448.2c-9.2,0-19.9-3.3-30-9.5c-24.5-15.2-36.4-42.2-31.9-72.4c1.2-16.4,1.3-34.9-6.6-47.9
	c-2.5-4.1-5.9-7.6-9.9-10.2c-12-6.1-21.9-14.1-29.4-23.7c-0.1-0.1-0.1-0.1-0.1-0.2c-10.1-16.1-7.5-24.1-5-27.5c3-4.1,8.5-5.6,14.7-4
	c5.1,1.3,9.6,4.5,12.8,9c13.2,19.1,29.8,33.3,49.3,42.3c1.3,0.6,1.8,2.1,1.2,3.4c-0.6,1.3-2.1,1.8-3.3,1.3c0,0,0,0,0,0
	c-20.3-9.3-37.6-24.1-51.3-44c-2.4-3.5-5.9-6-9.8-7c-4.2-1.1-7.7-0.3-9.4,2.1c-1.3,1.9-3.6,7.7,5.1,21.7
	c7.1,9.1,16.2,16.4,27.7,22.2c0.1,0,0.2,0.1,0.2,0.1c4.7,3.1,8.6,7.1,11.6,11.9c8.7,14.2,8.6,33.7,7.4,51v0.2
	c-4.2,28.1,6.8,53.4,29.5,67.4c14.5,9,31.1,11.3,39.4,5.6c4.3-3,5.8-7.9,4.4-14.6c-0.3-1.4,0.6-2.7,2-3c1.4-0.3,2.7,0.6,3,2l0,0
	c1.8,8.6-0.5,15.6-6.5,19.7C532.4,446.8,527.2,448.2,521.3,448.2L521.3,448.2z"/>
<path class="st1" d="M517.7,351.5c-1.3,0-2.5-1.1-2.5-2.4c-0.5-10.2-3.4-22.2-7.2-30.5c-1.3-2.9-3.8-5.2-6.8-6.3
	c-14.3-5.2-39.5-5-43.8,5.8c-0.5,1.3-2,2-3.3,1.5c-1.3-0.5-2-2-1.5-3.3c6.1-15.6,36-14,50.3-8.8c4.2,1.5,7.7,4.8,9.6,9
	c4.1,8.9,7.1,21.6,7.7,32.4c0.1,1.4-1,2.6-2.4,2.7H517.7L517.7,351.5z"/>
<circle class="st1" cx="492.7" cy="422.1" r="5.9"/>
<path class="st1" d="M492.7,428.4c-0.9,0-1.8-0.2-2.7-0.6c-3.2-1.5-4.5-5.3-3-8.5c1.5-3.2,5.3-4.5,8.5-3c3.2,1.5,4.5,5.3,3,8.5
	C497.5,427,495.2,428.4,492.7,428.4L492.7,428.4z M487.9,419.8c-1.3,2.7-0.1,5.9,2.6,7.2c2.7,1.3,5.9,0.1,7.2-2.6s0.1-5.9-2.6-7.2
	C492.4,415.9,489.1,417.1,487.9,419.8z"/>
<circle class="st1" cx="483.3" cy="399" r="5.9"/>
<path class="st1" d="M483.3,405.4c-0.9,0-1.8-0.2-2.7-0.6c-1.5-0.7-2.7-2-3.3-3.6c-0.6-1.6-0.5-3.3,0.2-4.9c0.7-1.5,2-2.7,3.6-3.3
	c1.6-0.6,3.3-0.5,4.9,0.2c1.5,0.7,2.7,2,3.3,3.6c0.6,1.6,0.5,3.3-0.2,4.9C488,404,485.8,405.4,483.3,405.4L483.3,405.4z
	 M483.3,393.6c-2.1,0-4,1.2-4.9,3.1c-1.3,2.7-0.1,5.9,2.6,7.2c2.7,1.3,5.9,0.1,7.2-2.6c0.6-1.3,0.7-2.8,0.2-4.1
	c-0.5-1.4-1.5-2.4-2.8-3.1C484.8,393.8,484.1,393.6,483.3,393.6z"/>
<circle class="st1" cx="480.1" cy="374.9" r="5.9"/>
<path class="st1" d="M480.1,381.3c-0.9,0-1.8-0.2-2.7-0.6c-1.5-0.7-2.7-2-3.3-3.6c-0.6-1.6-0.5-3.3,0.2-4.9c0.7-1.5,2-2.7,3.6-3.3
	c1.6-0.6,3.3-0.5,4.9,0.2c1.5,0.7,2.7,2,3.3,3.6c0.6,1.6,0.5,3.3-0.2,4.9C484.8,379.9,482.5,381.3,480.1,381.3L480.1,381.3z
	 M480.1,369.5c-2.1,0-4,1.2-4.9,3.1c-0.6,1.3-0.7,2.8-0.2,4.1c0.5,1.4,1.5,2.4,2.8,3.1c1.3,0.6,2.8,0.7,4.1,0.2
	c1.4-0.5,2.4-1.5,3.1-2.8c0.6-1.3,0.7-2.8,0.2-4.1c-0.5-1.4-1.5-2.4-2.8-3.1C481.6,369.7,480.8,369.5,480.1,369.5z"/>
<circle class="st1" cx="480.1" cy="346.4" r="5.9"/>
<path class="st1" d="M480.1,352.8c-0.9,0-1.8-0.2-2.7-0.6c-1.5-0.7-2.7-2-3.3-3.6c-0.6-1.6-0.5-3.3,0.2-4.9c0.7-1.5,2-2.7,3.6-3.3
	c1.6-0.6,3.3-0.5,4.9,0.2c1.5,0.7,2.7,2,3.3,3.6c0.6,1.6,0.5,3.3-0.2,4.9C484.9,351.4,482.6,352.8,480.1,352.8L480.1,352.8z
	 M480.1,341c-2.1,0-4,1.2-4.9,3.1c-0.6,1.3-0.7,2.8-0.2,4.1c0.5,1.4,1.5,2.4,2.8,3.1c2.7,1.3,5.9,0.1,7.2-2.6
	c0.6-1.3,0.7-2.8,0.2-4.1c-0.5-1.4-1.5-2.4-2.8-3.1C481.7,341.2,480.9,341,480.1,341z"/>
<ellipse transform="matrix(5.373029e-02 -0.9986 0.9986 5.373029e-02 124.0358 871.6474)" class="st1" cx="521.9" cy="370.4" rx="5.3" ry="3.7"/>
<path class="st1" d="M521.8,376.2h-0.2c-1.1-0.1-2.2-0.7-2.9-1.9c-0.7-1.1-1-2.5-1-4.1c0.1-1.5,0.6-2.9,1.4-3.9
	c0.8-1.1,1.9-1.7,3.1-1.6c1.1,0.1,2.2,0.7,2.9,1.9c0.7,1.1,1,2.5,1,4.1c-0.1,1.5-0.6,2.9-1.4,3.9
	C523.9,375.6,522.9,376.2,521.8,376.2L521.8,376.2z M522.1,365.6c-0.8,0-1.6,0.4-2.2,1.2c-0.7,0.9-1.1,2.1-1.2,3.4s0.2,2.6,0.8,3.5
	c0.6,0.9,1.3,1.4,2.2,1.5c0.8,0,1.7-0.4,2.3-1.2c0.7-0.9,1.1-2.1,1.2-3.4c0.1-1.3-0.2-2.6-0.8-3.5c-0.6-0.9-1.3-1.4-2.2-1.5H522.1z"
	/>
<ellipse transform="matrix(5.373029e-02 -0.9986 0.9986 5.373029e-02 137.3437 850.5056)" class="st1" cx="517.4" cy="352.8" rx="6.2" ry="4.4"/>
<path class="st1" d="M517.2,359.5h-0.2c-2.7-0.1-4.7-3.3-4.5-7c0.2-3.7,2.5-6.6,5.2-6.4c2.7,0.1,4.7,3.3,4.5,7
	C522.1,356.7,519.9,359.5,517.2,359.5L517.2,359.5z M513.5,352.6c-0.2,3.2,1.5,5.9,3.6,6c2.1,0.1,4-2.4,4.2-5.6
	c0.2-3.2-1.5-5.9-3.6-6C515.6,346.9,513.7,349.4,513.5,352.6z"/>
<ellipse transform="matrix(0.9825 -0.1862 0.1862 0.9825 -63.8518 105.5723)" class="st1" cx="530.2" cy="392.7" rx="3.7" ry="5.3"/>
<path class="st1" d="M530.7,398.5c-1,0-1.9-0.4-2.7-1.2c-1-0.9-1.6-2.2-1.9-3.7c-0.6-3.1,0.8-6,3-6.4c2.3-0.4,4.6,1.8,5.2,4.9
	c0.3,1.5,0.1,3-0.4,4.2c-0.6,1.3-1.5,2.1-2.6,2.3C531.1,398.5,530.9,398.5,530.7,398.5L530.7,398.5z M529.7,388c0,0-0.3,0-0.4,0
	c-1.7,0.3-2.8,2.7-2.3,5.3c0.2,1.3,0.8,2.4,1.6,3.2c0.8,0.7,1.6,1.1,2.4,0.9c0.8-0.1,1.5-0.8,1.9-1.7c0.5-1,0.6-2.3,0.3-3.6
	C532.9,389.7,531.3,388,529.7,388L529.7,388z"/>
<ellipse transform="matrix(0.9149 -0.4037 0.4037 0.9149 -120.5026 251.7978)" class="st1" cx="536.9" cy="411.7" rx="3.7" ry="5.3"/>
<path class="st1" d="M538,417.3c-0.7,0-1.5-0.2-2.2-0.7c-1.1-0.7-2.1-1.8-2.7-3.2c-1.3-2.9-0.6-6,1.5-7c2.1-0.9,4.9,0.7,6.2,3.6
	c1.3,2.9,0.6,6-1.5,7C538.8,417.2,538.4,417.3,538,417.3L538,417.3z M533.9,413.1c0.5,1.2,1.3,2.2,2.3,2.8c0.9,0.6,1.8,0.7,2.6,0.3
	c1.6-0.7,2.1-3.3,1-5.7s-3.3-3.8-4.9-3.1C533.3,408,532.9,410.6,533.9,413.1L533.9,413.1z"/>
<circle class="st1" cx="501" cy="336.3" r="6.9"/>
<path class="st1" d="M501,343.7c-4.1,0-7.4-3.3-7.4-7.4c0-1.1,0.2-2.1,0.7-3.1c1.7-3.7,6.1-5.3,9.8-3.5c3.7,1.7,5.3,6.2,3.5,9.9
	C506.4,342.1,503.8,343.7,501,343.7z M495.1,333.6c-1.5,3.2-0.1,7.1,3.1,8.6c1.5,0.7,3.3,0.8,4.9,0.2c1.6-0.6,2.9-1.8,3.6-3.3
	c1.5-3.2,0.1-7.1-3.1-8.6C500.5,329,496.6,330.4,495.1,333.6L495.1,333.6z M492.7,424.3c-0.6,0-1.1-0.2-1.6-0.6
	c-0.8-0.9-0.8-2.3,0-3.2c12.5-12.4,23.9-21.6,34.7-27.9c-7.7-4.9-28.9-17.2-45.6-15.5c-0.9,0.1-1.8-0.4-2.2-1.2
	c-0.4-0.8-0.2-1.9,0.4-2.5c0.8-0.8,19.2-19.4,38.5-21.7c1.2-0.1,2.3,0.7,2.5,1.9c0.1,1.2-0.7,2.3-1.9,2.5
	c-12.6,1.6-25.2,11.1-31.6,16.6c21,1.1,44.4,17.6,45.5,18.4c0.6,0.5,1,1.2,0.9,1.9c0,0.8-0.5,1.5-1.2,1.8
	c-11.4,6.1-23.5,15.6-36.9,28.9C494,424.1,493.4,424.3,492.7,424.3L492.7,424.3z"/>
<path class="st1" d="M536.9,414c-0.4,0-0.7-0.1-1.1-0.3c-0.3-0.2-30.6-16.4-52.2-12.5c-1.2,0.2-2.4-0.5-2.6-1.7
	c-0.1-0.7,0.1-1.5,0.6-2c12.9-13.1,24.1-22,35-27.9c-6.5-4.9-23.4-16.7-37.8-21.2c-1.2-0.3-1.8-1.5-1.5-2.7c0,0,0,0,0-0.1
	c0.4-1.2,1.6-1.8,2.8-1.5c19.1,5.9,41.1,23.3,42.1,24.1c0.6,0.5,0.9,1.2,0.8,2c-0.1,0.8-0.5,1.4-1.2,1.8
	c-10.2,5-20.6,12.8-32.5,24.3c22-0.7,47.5,13,48.6,13.6c1.1,0.6,1.5,1.9,0.9,3C538.4,413.6,537.7,414.1,536.9,414L536.9,414z"/>
<path class="st1" d="M454.3,373.7c-2.6,0-5.2-0.6-7.6-1.8c-5.8-2.9-9.5-8.8-9.3-15.3c0.2-12.3,8-23.4,20.6-28.9
	c14.9-6.7,32-3.9,44.6,7.1c0.7,0.6,1,1.6,0.6,2.5c-0.3,0.8-1.2,1.4-2.1,1.4h-0.3c-10.5,0-16.9,8.6-23.8,17.7
	c-3.8,5.1-7.8,10.3-12.5,13.9C461.4,372.5,457.8,373.7,454.3,373.7L454.3,373.7z M441.7,356.6c-0.1,4.9,2.5,9.1,6.9,11.3
	c4.4,2.2,9.3,1.7,13.1-1.2c4.2-3.3,7.8-8,11.6-13.1c6.1-8.1,12.4-16.5,21.9-18.8c-12.5-8.4-26.3-7.3-35.6-3.2
	C448.8,336.4,441.9,346,441.7,356.6L441.7,356.6z"/>
<path class="st1" d="M545.1,389.3c-4.2,0-8.3-1.9-11.2-5.5c-3.9-4.9-7.4-11.2-11-17.8c-6.4-11.8-13-24-22.8-28.3
	c-1.1-0.5-1.6-1.8-1.2-2.9v-0.1c-0.2-1.2,0.7-2.3,1.9-2.5c0,0,0,0,0,0c26.7-3.6,54.7,15.5,58.7,40.2c1.1,6.7-2.2,12.9-8.4,15.6
	C549.2,388.8,547.2,389.3,545.1,389.3L545.1,389.3z M506.5,336.2c8.6,6,14.6,17,20.4,27.7c3.5,6.5,6.8,12.6,10.5,17.1
	c3.6,4.5,8.7,4.4,12,2.9c3.3-1.5,6.7-5.2,5.8-10.8C551.8,352.2,529.3,335.6,506.5,336.2L506.5,336.2z"/>
<path class="st1" d="M482.1,365.5c-0.4,0-0.8-0.1-1.1-0.3c-1.1-0.6-1.4-2-0.8-3c12.8-21.6,18.7-26.4,19-26.6c1-0.7,2.4-0.6,3.1,0.4
	c0.7,1,0.6,2.3-0.4,3.1c-0.1,0.1-5.8,4.9-17.9,25.4C483.6,365.1,482.8,365.5,482.1,365.5z"/>
<path class="st1" d="M509,356.5c-0.9,0-1.7-0.6-2.1-1.5l-6.7-18.1c-0.5-1.1,0.1-2.4,1.2-2.9c1.1-0.5,2.4,0.1,2.9,1.2
	c0,0,0,0.1,0,0.1l6.7,18.1c0.4,1.2-0.2,2.4-1.3,2.9C509.5,356.5,509.2,356.5,509,356.5z M536.4,440.3c-3.9-5.3-7-11-9.7-16.9
	c-2.7-5.9-4.9-11.9-6.9-18.1c-3.9-12.3-6.6-24.8-8.8-37.4c-0.1-0.5,0.2-1,0.8-1.1c0.5-0.1,1,0.2,1.1,0.7c2.6,12.4,5.7,24.8,9.9,36.7
	c2.1,5.9,4.5,11.8,7.3,17.4c2.8,5.6,6.1,11,9.8,15.9c0.7,1,0.6,2.4-0.4,3.2C538.6,441.5,537.2,441.3,536.4,440.3
	C536.4,440.3,536.4,440.3,536.4,440.3L536.4,440.3z M497.8,437.9c2.2-0.8,3.6-3.2,4.3-6.1c0.7-2.9,0.7-6.1,0.5-9.2
	c-0.4-6.4-1.5-12.8-2.8-19.2c-2.6-12.8-5.9-25.6-8.2-38.6c-0.1-0.5,0.2-1,0.8-1.1c0.5-0.1,1,0.2,1.1,0.7c2.6,12.8,6.4,25.4,9.4,38.2
	c1.5,6.4,2.9,12.9,3.5,19.7c0.2,3.4,0.4,6.8-0.3,10.4c-0.3,1.8-0.9,3.6-2,5.3c-1,1.7-2.7,3.2-4.6,4c-1.1,0.5-2.4,0-2.9-1.1
	c-0.5-1.1,0-2.4,1.1-2.9L497.8,437.9L497.8,437.9z M445.1,259.2c-2.5-1.7-5.4-3.2-8.3-4.2c-2.9-1.1-5.9-1.7-9-1.8
	c-3-0.1-5.9,0.4-8.5,1.6c-2.6,1.2-4.9,3-6.9,5.2c-0.9,1.1-2.5,1.2-3.6,0.2c-1-0.9-1.1-2.5-0.2-3.6c0,0,0,0,0,0l0.1-0.1
	c2.5-2.4,5.6-4.5,8.9-5.7c3.4-1.2,7-1.5,10.4-1.1c3.4,0.4,6.7,1.4,9.7,2.8c3,1.4,5.8,3.1,8.5,5.2c0.4,0.3,0.5,0.9,0.1,1.3
	C446.1,259.5,445.5,259.6,445.1,259.2L445.1,259.2L445.1,259.2z M401.9,426.1h-0.3c-1.2-0.1-2.1-1.3-1.9-2.5
	c2.4-20-10.7-40-24.6-61.2c-18.8-28.7-38.3-58.3-19-90.2c0.6-1.1,2-1.4,3-0.7c1.1,0.6,1.4,2,0.7,3c-17.8,29.5,0.9,58,18.9,85.5
	c13.7,20.9,27.9,42.6,25.3,64.2C403.9,425.3,403,426.1,401.9,426.1L401.9,426.1z"/>
<path class="st1" d="M416.9,472.8c-1,0-1.8-0.6-2.1-1.6c-5-17.8-1.6-37.3,2-58c4.7-26.8,9.6-54.5-5.1-78.8
	c-15.7-23.2-30.6-50-28-77.3c-7.7,18.4-0.4,37.1,7.9,58.2c9.2,23.7,19.8,50.5,6.4,79.4c-0.5,1.1-1.8,1.6-2.9,1.1
	c-1.1-0.5-1.6-1.8-1.1-2.9c12.5-27.2,2.8-52-6.6-75.9c-10-25.5-19.4-49.6-0.7-73.6c0.7-0.8,1.8-1.1,2.8-0.6c1,0.5,1.4,1.6,1.1,2.6
	c-9.5,30,7.2,60.5,24.8,86.5c0,0,0,0.1,0.1,0.1c15.5,25.8,10.5,54.3,5.7,82c-3.5,20.1-6.9,39.2-2.1,56c0.3,1.2-0.4,2.4-1.5,2.7
	C417.4,472.7,417.2,472.7,416.9,472.8L416.9,472.8z"/>
<path class="st1" d="M457.7,522.1h-0.1c-1.2-0.1-2.2-1.1-2.1-2.3c0.9-14.8-6.1-30.3-14.2-48.3c-11.2-24.9-23.8-53-20.1-88.6
	c0.1-1.2,1.2-2.1,2.4-2s2.1,1.2,2,2.4c-3.5,34.3,8.9,61.9,19.8,86.3c8.3,18.6,15.5,34.6,14.6,50.4
	C459.8,521.2,458.8,522.1,457.7,522.1L457.7,522.1z"/>
<path class="st1" d="M494.3,542.7H494c-1.2-0.2-2.1-1.2-2-2.4c1.9-17.7-11-31.9-27.3-50c-11.4-12.5-24.3-26.8-34.4-44.9
	c-0.6-1.1-0.1-2.4,1-3c1-0.5,2.3-0.2,2.9,0.8c9.9,17.7,22.6,31.7,33.8,44.1c16.4,18.1,30.6,33.8,28.4,53.4
	C496.3,541.9,495.3,542.8,494.3,542.7L494.3,542.7z"/>
<g class="st8">
	<path class="st1" d="M479.4,306.4c0,0-24.1-16.5-33.7-28.2c-9.6-11.7-24.5-35.2-36.6-16.8c0,0-4.7,18,29.6,41.4
		c0,0,13.8,6.8,16.6,13.7C455.3,316.5,463.6,303.9,479.4,306.4L479.4,306.4z"/>
	<path class="st1" d="M455.2,317.5l-0.4-0.8c-2.7-6.6-16.2-13.3-16.4-13.4c-34.2-23.3-30.1-41.2-29.9-42l0.1-0.1
		c3-4.5,6.3-6.9,10.1-7h0.4c8.3,0,16.6,10.7,23.4,19.3c1.2,1.6,2.4,3.1,3.5,4.4c9.4,11.5,33.4,27.9,33.6,28.1l1.7,1.2l-2.1-0.3
		c-15.4-2.4-23.5,9.8-23.6,9.9L455.2,317.5L455.2,317.5z M409.5,261.6c-0.2,1.2-3,18.7,29.5,40.8c0.5,0.2,13,6.4,16.4,13.1
		c1.9-2.5,9.5-11,22.1-9.9c-5.5-3.9-24.1-17.3-32.3-27.2c-1.1-1.3-2.3-2.9-3.5-4.5c-6.7-8.6-15-19.3-23-19
		C415.4,255.2,412.3,257.4,409.5,261.6L409.5,261.6z"/>
</g>
<g class="st9">
	<path class="st1" d="M327.1,390.2c38.2,23.4,61.6,64.2,82,108.4c30.4,48.4,81,73.7,151.5,68.9c12.9-0.9,24.7-7.4,32.1-17.8
		c0.6-1.5,1.1-2.9,1.5-4.2c9.4-35.8-47.8-11.1-57.1-0.3c-9.3,10.8-23.8,9.3-23.8,9.3c-44.9-3.9-75.6-36.1-89-52.7
		c-13.4-16.6-39.2-74.1-39.2-74.1c-9.6-26.3-21.6-35.5-28.9-38.8c-7.2-3.2-13.8-7.6-19.2-13.4c-31.6-33.5-13.2-57.7-12.4-58.7
		C301.7,339.3,299,366.4,327.1,390.2L327.1,390.2z"/>
	<path class="st1" d="M544,568.6c-27.8,0-52.8-5.1-74.3-15.1c-25-11.6-45.5-30-60.9-54.6c-19.3-42-42.5-84.2-81.8-108.3h-0.1
		c-13.2-11.2-20.1-23.3-20.6-36.1c-0.5-12.8,5.8-25.9,18-38l0.7,0.6c-0.8,1-19.1,24.8,12.3,58.1c5.1,5.5,11.5,9.9,19,13.3
		c8.1,3.6,19.7,13.3,29.1,39c0.2,0.5,25.8,57.6,39.1,74c17.8,22,47.6,49,88.7,52.5c0.1,0,14.4,1.3,23.4-9.2
		c6.8-8,40.3-23.8,53.5-16.8c5.3,2.8,6.8,8.7,4.5,17.5c-0.4,1.4-0.8,2.8-1.5,4.3v0.1c-7.5,10.6-19.3,17.1-32.5,18
		C554.9,568.5,549.4,568.6,544,568.6L544,568.6z M327.4,389.8c39.5,24.3,62.8,66.5,82.1,108.6c31.2,49.5,83.4,73.2,151,68.6
		c12.9-0.9,24.4-7.3,31.7-17.6c0.6-1.4,1.1-2.8,1.4-4.1c2.2-8.4,0.8-13.9-4-16.5c-12.9-6.8-45.6,8.8-52.3,16.6
		c-9.3,10.9-24.1,9.5-24.2,9.5c-41.4-3.6-71.4-30.7-89.3-52.9c-13.3-16.5-39-73.6-39.2-74.2c-9.8-26.8-22.2-35.6-28.6-38.5
		c-7.6-3.4-14.1-7.9-19.3-13.5c-25.1-26.6-18.9-47.4-14.7-55.6c-10.1,10.9-15.2,22.7-14.7,34.1C307.7,367,314.5,378.9,327.4,389.8
		L327.4,389.8z"/>
</g>
<g class="st9">
	<path class="st1" d="M578.8,509.4c-25.4,8.1-51.8,12-74.9-4.6c-8-5.7-13.8-13.9-17-23.2c-5.3-15.4-17.8-44.2-39-53
		c-29.4-12.4,7.1-86.9-10.8-102.4c-18-15.4-56-49.7-36.3-87.7c0,0-10.8,0.8-13.5,10.6c-2.7,9.8,0,29.7,0,29.7s7.8,22.8,21.1,46.6
		c13.3,23.8,15,40.3,15,40.3s-0.9,33.7-0.4,38.6c0.5,4.9,7.9,44.4,20.3,59.1c12.4,14.8,31.9,35.3,31.9,35.3s22,24.6,18.9,40.8
		c0,0,21.3,13.1,36.6-4C545.9,518.5,578.8,509.4,578.8,509.4L578.8,509.4z"/>
	<path class="st1" d="M511.5,544.6c-9.6,0-17.5-4.7-17.7-4.8l-0.3-0.2l0.1-0.3c2.9-15.7-18.6-40.1-18.8-40.4
		c-0.2-0.2-19.7-20.6-31.9-35.3c-12.7-15.2-20-55.6-20.4-59.4c-0.5-4.9,0.4-37.2,0.4-38.6c0-0.1-1.8-16.6-14.9-40.1
		c-13.2-23.6-21.1-46.5-21.2-46.7c-0.1-0.9-2.7-20.1,0-30c2.7-10,13.8-10.9,13.9-10.9l0.8-0.1l-0.4,0.7
		c-20.1,38.6,20.8,73.8,36.1,87.1c8.2,7,5.3,25.8,2.3,45.6c-3.7,24.6-7.6,50,8.4,56.6c21.2,8.9,33.7,37.2,39.2,53.3
		c3.3,9.5,9.1,17.4,16.8,23c22.6,16.3,47.9,12.5,70.3,5.8c2.6-0.8,4.2-1.3,4.2-1.3l0.3,0.9c-1.4,0.5-2.8,0.9-4.2,1.3
		c-9.4,3.1-32,11.5-43.7,24.6c-6.1,6.8-13.2,8.9-19.5,8.9L511.5,544.6z M494.6,539.2c2.5,1.4,21.8,11.4,35.7-4
		c8.7-9.7,23.2-16.9,34-21.2c-19.9,4.6-41.3,5.2-60.7-8.8c-7.9-5.7-13.8-13.8-17.2-23.5c-5.5-15.9-17.9-44-38.7-52.7
		c-16.6-7-12.7-32.8-9-57.7c3-19.6,5.8-38-2-44.8c-15.4-13.3-56.3-48.4-36.8-87.4c-2.6,0.4-10.1,2.3-12.3,10.1
		c-2.6,9.6,0,29.3,0,29.5c0.1,0.1,7.9,23,21.1,46.5c13.2,23.6,15,40.3,15,40.5c0,0.4-0.9,33.7-0.4,38.6c0.4,3.8,7.5,43.8,20.1,58.9
		c12.2,14.6,31.7,35,31.9,35.2C476.4,499.4,497.3,523.1,494.6,539.2L494.6,539.2z"/>
</g>
<g class="st9">
	<path class="st1" d="M376.7,256.5c0,0-20.4,23.6-13.7,51.6c6.8,28,23.9,36.4,30.7,79.1c-28.4-37.8-48.1-74.6-39.5-108.1
		C354.1,279.1,368,260.5,376.7,256.5L376.7,256.5z"/>
	<path class="st1" d="M394.4,388.9l-1.1-1.5c-23.4-31.2-49-71.7-39.7-108.4l0.1-0.2c0.6-0.8,14.1-18.7,22.7-22.8l2-0.9l-1.4,1.7
		c-0.2,0.2-20.2,23.8-13.6,51.2c2.8,11.6,7.5,19.9,12.4,28.7c6.7,12,14.3,25.5,18.3,50.5L394.4,388.9L394.4,388.9z M354.5,279.3
		c-9.1,35.7,15.4,75.2,38.3,106c-4-23.5-11-36.1-17.8-48.2c-5-8.8-9.6-17.1-12.5-28.9c-5.7-23.4,7.7-44,12.3-50.1
		C366.7,263.3,355.5,278.1,354.5,279.3z"/>
</g>
<g class="st10">
	<path class="st3" d="M420.8,387.4c0.5,0.9,0.9,2,0.2,2.8c-0.6,0.6-1.5,0.5-2.3,0.3c-2.1-0.5-4.2-1.4-6-2.6
		c-1.2-0.8-2.4-1.7-3.1-2.9c-0.7-1.2-0.9-2.9-0.2-4.1C412.4,375.3,419.4,384.9,420.8,387.4L420.8,387.4z"/>
</g>
<g class="st10">
	<path class="st3" d="M545.6,459.7c0.2,1.3,0.1,2.7-0.6,3.7c-0.8,1-2.1,1.5-3.4,1.5c-1.3,0-2.5-0.4-3.7-0.8c-1.8-0.6-3.5-1.3-5-2.5
		c-1.5-1.2-2.5-3-2.4-4.9c0.1-2.3,2.1-4.3,4.3-4.7c2.7-0.5,4.4,1.3,6.4,2.5C543.3,455.8,545.1,457.1,545.6,459.7z"/>
</g>
</svg>
