<svg id="Capa_1" data-name="Capa 1" xmlns="http://www.w3.org/2000/svg" viewBox="0 0 111.21 102.62"><defs><style>.cls-1{fill:#ffd910}</style></defs><rect class="cls-1" y="1.86" width="105.99" height="100.76" rx="40.07" ry="40.07"/><rect x="9.54" width="101.67" height="96.66" rx="38.43" ry="38.43" style="fill:#1d1d1b"/><path class="cls-1" d="M68.98 7.58c-.88.05-1.66.48-4.22 2.31-.93.67-3.58 2.53-5.88 4.14-8.72 6.09-12.19 8.68-15.79 11.78-8.01 6.9-15.43 15.82-20.49 24.64-1.2 2.1-1.95 3.62-1.89 3.85.05.24 1.16-1.14 3.17-3.95.52-.73.98-1.33 1.02-1.33s.07-.05.06-.1c-.01-.05.05-.17.13-.27.08-.09.11-.13.08-.07-.06.09-.05.09.05 0 .07-.05.11-.13.09-.18s0-.11.04-.13c.05-.03.05-.01.02.05-.05.08-.04.08.05 0 .13-.1.15-.24.03-.17-.05.03-.05.02-.03-.03.03-.04.07-.06.11-.04s.12-.05.19-.16c.15-.21.18-.31.06-.23-.05.03-.05.02-.03-.03.03-.04.07-.06.11-.04s.41-.45.84-1.04c2.29-3.14 3.8-5.11 5.17-6.77C36.66 34 42.22 29.34 57.56 18.23c1.03-.74 2.51-1.82 3.03-2.2.77-.57 1.8-1.24 2.13-1.39.35-.17.79-.21.86-.09.03.05.08.05.15-.01.06-.05-.05.17-.25.48-.67 1.07-.86 1.38-1.22 2.07-1.36 2.55-1.95 5.32-1.54 7.04.07.27.12.54.11.58 0 .05.02.09.06.09.03 0 .05.03.03.06-.06.09.21.66.54 1.12.68.96 1.93 1.71 3.64 2.17.91.25 1.93.41 4.16.66 2.31.27 3.46.46 4.92.85.57.15 1.21.31 1.43.36.47.11 1.06.12 1 .03-.07-.11.35.07 1.49.64 2.17 1.08 4.12 2.37 6.19 4.11 1.3 1.09 4.45 4.34 4.36 4.49-.01.03.02.1.09.15.11.09.11.08.01-.04q-.1-.13.05 0c.08.07.14.17.12.21s.03.13.11.21q.15.12.05-.01c-.07-.09-.05-.09.05.02.08.09.13.18.11.21-.02.03.02.09.09.14q.11.09.01-.04t.02-.04c.07.05.11.13.09.18s.02.12.08.17c.1.07.11.07.05-.01-.04-.06-.01-.05.05.02.07.07.11.15.09.18-.02.03 0 .08.04.11.05.03.07.01.03-.05-.03-.05 0-.03.05.03.05.07.09.15.06.19-.02.04 0 .05.03.02.09-.05.97 1.26 1.37 2.06.63 1.27.86 2.37.72 3.53-.04.36-.2 1.16-.35 1.78-.42 1.76-.49 2.23-.49 3.26 0 .66.03 1.08.12 1.46.07.29.13.6.13.68 0 .09.02.15.04.15s.04.08.04.19c.01.27.45 1.41.89 2.27.57 1.15 1.46 2.52 1.6 2.48.03-.01.04.02.02.07s0 .11.05.15c.05.03.07.02.03-.05-.03-.05 0-.03.05.03.05.07.09.15.06.19-.02.04-.01.05.02.03.08-.05.86 1.2 1.22 1.95.27.55.36 1.07.21 1.16-.03.03-.05-.03-.03-.11q.03-.15-.07-.02c-.05.07-.09.15-.07.18.07.11-.59.12-1.48.02-1.18-.14-1.88-.11-2.13.08-.1.07-.22.25-.27.4-.09.25-.09.33.05.86.08.32.17.68.18.8.05.39.39 1.1 1.18 2.53 1.04 1.88 1.25 2.34 1.37 3.07.05.32.05.4-.09.66-.8 1.62-6.52 4.95-10.32 6.02-1.64.47-2.81.61-4.42.56-1.66-.05-3.07-.32-4.95-.94-.96-.31-2.23-.82-2.21-.89 0-.02-.01-.12-.05-.23-.04-.15-.07-.17-.15-.1-.22.19.07-.21 1.36-1.84 1.4-1.78 1.78-2.31 1.74-2.43-.08-.25-2.29 1.76-3.92 3.57l-.43.49-1.36-.68c-1.83-.91-2.79-1.48-2.75-1.64.04-.15-.17-.48-.27-.42-.04.02-.05 0-.02-.04.05-.09 1.9-1.32 4.06-2.71 1.54-1 2.1-1.4 2.15-1.54.1-.31-3.84 1.67-6.53 3.29-.51.3-.94.55-.98.55-.03 0-.51-.3-1.07-.66s-1.06-.66-1.1-.66c-.22 0-.01.31.83 1.24l.55.61-1.04.72c-3.42 2.35-5.68 4.19-9.02 7.38-3.01 2.87-7.56 7.97-7.56 8.46 0 .21.85-.53 4.09-3.54 1.08-1 1.98-1.82 2.01-1.81.06.02 2.01-1.62 3.15-2.63.13-.11.7-.61 1.26-1.1s1.12-.98 1.23-1.07c.75-.66 1.62-1.4 3.05-2.62.91-.77 1.75-1.48 1.86-1.58l.21-.19-.25.17c-.4.29-.29.15.13-.17.21-.15.33-.22.27-.15l-.13.14.28-.13c.6-.3 1.88-.27 2.69.05.1.04.11.03.07-.04-.03-.06-.03-.07.03-.04.04.03.06.07.04.11-.03.06.8.72 1.39 1.1.53.34.86.65 1.1 1.02l.19.32-.73.99c-1.99 2.7-3.97 5.97-5.58 9.22-.71 1.44-.98 2.08-.9 2.17.08.07.33-.29 2.66-3.78 2.4-3.6 3.6-5.37 4.55-6.64.52-.7.76-1 .66-.83-.02.04.19-.05.47-.18.64-.31 1.26-.42 2.05-.36.33.02.67.06.76.07.11.02.08 0-.07-.06-.37-.15-.21-.12.7.13 2.01.55 4.71 1 6.64 1.09.72.04.86.06.5.07l-.5.02.37.09c.53.14 1.86.19 2.59.11 1.86-.23 3.6-1.05 4.49-2.13.09-.11.1-.15.03-.11-.15.08-.06 0 .96-.88 1.17-1 1.44-1.18 2.61-1.65.52-.21 1.15-.5 1.4-.64.25-.15.49-.27.53-.27s.07-.02.06-.04.05-.1.15-.17c.16-.12.17-.12.07 0-.09.11-.09.12.05.05.08-.05.17-.11.19-.16s.02-.05-.03-.03c-.13.08-.09 0 .07-.13.13-.1.13-.11.06-.01-.18.24.06.11.61-.32.3-.25.66-.55.81-.68.61-.58 1.6-1.97 2.14-3.04.34-.67.67-1.52.56-1.46-.03.02 0-.15.08-.39.09-.29.14-.61.15-1.04.01-.98-.15-1.36-1.45-3.42-1.26-1.99-2.28-4.25-3-6.68-.55-1.86-.72-3.19-.83-6.36-.11-3.54-.45-5.19-1.5-7.31-1.2-2.45-3.05-4.5-6.28-6.96-1.33-1.01-2.39-1.76-5.12-3.6-3.35-2.26-4.26-2.93-5.1-3.72-1.12-1.06-1.63-1.91-2.05-3.37-.1-.35-.1-.39.03-.68.25-.59.86-1.06 2.87-2.17 1.69-.94 6.84-3.52 8.03-4.02.86-.36 1.51-.17 1.91.53.11.21.11.25 0 .96-.23 1.5-.82 3.49-1.48 5.05-.42.97-1.28 2.63-2.05 3.91-.36.6-.64 1.1-.62 1.12.11.11 1.38-1.74 2.24-3.23.59-1.04 2.01-3.86 2.66-5.33.27-.61.52-1.1.54-1.08.13.08 1.02-2.29.95-2.52-.02-.07-.01-.11.01-.09.03.02.06-.03.07-.11 0-.08.05-.38.11-.66.21-.97.09-1.38-.43-1.52-1.1-.3-4.53.89-12.96 4.48l-2.42 1.03-.11-.17c-.06-.09-.13-.15-.15-.13-.05.05-.06-.05-.42-3.06-.37-3.03-.52-4.05-.76-5.29-.42-2.09-.94-3.2-1.68-3.58-.23-.11-.37-.13-.74-.11Zm-5.82 67.1s-.05.07-.12.11c-.1.09-.11.08-.02-.03s.14-.14.14-.09Zm-.6.47s-.05.07-.12.11c-.1.09-.11.08-.02-.03s.14-.14.14-.09Zm-8.13 6.95s-.03.07-.12.17-.17.17-.19.17c-.02 0 .03-.07.12-.17s.17-.17.19-.17Zm-.66.6s-.14.18-.36.4-.41.4-.43.4c-.02 0 .14-.18.36-.4s.41-.4.43-.4Z"/><path class="cls-1" d="M79.85 45.7c-1.97.02-2.98.11-4.59.41-1.04.19-1.28.29-.9.39.77.19 1.39.6 1.32.86-.1.4.83 1.9 1.77 2.84.63.64 1.24 1.06 2.16 1.5 1.07.51 1.93.66 2.67.47.83-.22 1.36-.74 2.49-2.44.84-1.24.88-1.32.95-1.61.03-.15.03-.18-.04-.14-.05.03.02-.08.15-.25.56-.68.56-.94-.01-1.23-.59-.29-2.14-.62-3.75-.78-.15-.01-1.15-.01-2.23 0ZM72.32 65.15c-.39 0-2.27.5-3.66.97-4.36 1.48-8.19 3.69-12.62 7.25-2.61 2.1-5.03 4.35-4.67 4.35.11 0 1.39-.86 3.88-2.64 4.22-3.01 6.66-4.65 6.79-4.57.05.03.05.02.02-.04-.04-.07-.03-.08.05-.05.06.02.13 0 .15-.03.03-.05.01-.05-.04-.02-.06.04-.07.03-.04-.03.03-.05.09-.07.15-.05s.09 0 .07-.05c0-.05.04-.07.1-.07.07 0 .11 0 .09-.03-.03-.06 1.45-.94 2.75-1.63 1.3-.7 2.83-1.4 4.63-2.15 1.75-.72 2.28-.96 2.47-1.11q.13-.1-.11-.11Z"/></svg>