<?xml version="1.0" encoding="UTF-8"?>
<svg id="OBJECTS" xmlns="http://www.w3.org/2000/svg" xmlns:xlink="http://www.w3.org/1999/xlink" viewBox="0 0 397.04 214.35">
  <defs>
    <style>
      .cls-1 {
        fill: #fff;
      }

      .cls-2 {
        fill: #1b262c;
      }

      .cls-3 {
        fill: #063b63;
      }

      .cls-4 {
        fill: #d39479;
      }

      .cls-5 {
        fill: #ed6663;
      }

      .cls-6 {
        fill: #e7ac8d;
      }

      .cls-7 {
        clip-path: url(#clippath);
      }

      .cls-8 {
        fill: none;
      }

      .cls-9 {
        fill: #e1f3ff;
      }

      .cls-10 {
        fill: #0f4c81;
      }

      .cls-11 {
        fill: #d2fafb;
      }
    </style>
    <clipPath id="clippath">
      <rect class="cls-8" x="219.15" y="36.15" width="53.06" height="46.07" rx="1.34" ry="1.34"/>
    </clipPath>
  </defs>
  <path class="cls-9" d="M125.99,186.25c-25.78,10.84-55.34,19.03-81.24,8.48C16.08,183.05-.06,149.48,3.54,118.73c3.6-30.75,24.09-57.78,49.93-74.82,25.84-17.04,56.6-25.16,87.25-29.52,40.21-5.72,82.64-5.12,119.63,11.65,15.27,6.92,29.7,16.6,46.26,19.2,9.76,1.53,19.94,.53,29.35,3.51,12.15,3.85,21.57,14.1,26.64,25.79,5.07,11.69,6.23,24.73,5.85,37.47-.48,16.16-3.45,32.54-11.21,46.72-7.76,14.18-20.75,25.98-36.43,29.89-12.96,3.23-26.6,.98-39.64-1.89-22.07-4.85-43.79-11.42-64.83-19.69-9.65-3.79-14.43-6.14-25.12-4.39-10.7,1.76-21.05,5.14-31.13,9.06-11.51,4.49-22.7,9.75-34.08,14.53Z"/>
  <g>
    <g>
      <g>
        <g>
          <polygon class="cls-5" points="368.66 174.39 370.32 102.1 327.56 82.28 281.94 27.28 209.64 27.28 209.64 174.47 368.66 174.39"/>
          <g>
            <g>
              <rect class="cls-1" x="219.15" y="36.15" width="53.06" height="46.07" rx="1.34" ry="1.34"/>
              <path class="cls-1" d="M279.91,40.2l30.42,39.87c.67,.88,.04,2.15-1.06,2.15h-30.42c-.74,0-1.34-.6-1.34-1.34V41.01c0-1.28,1.63-1.83,2.4-.81Z"/>
            </g>
            <g class="cls-7">
              <g>
                <g>
                  <g>
                    <path class="cls-6" d="M239.86,67.11s2.76-3.74,3.64-5.55c0,0,6.86-.08,7.43-.78s2.78-6.67,1.6-9.46c-1.17-2.79-4.05-8.38-4.05-8.38,0,0-8.49,1.97-14.22,8.13,0,0,3.5,4.4,.49,11.75l5.12,4.29Z"/>
                    <path class="cls-11" d="M250.8,49.39l-6.89,3.94-8.07,1.96,.08,.69,7.92-1.38s.54,2,.07,3.74l-8.05,.41-.07,.5,8.28,.07s.5,2.39,2.24,2.99c0,0,3.86,.33,5.3-1.23,1.33-1.44,3.44-7.17,.95-11.26-.36-.6-1.16-.77-1.76-.42Z"/>
                  </g>
                  <path class="cls-5" d="M242.22,49.53s15.52-7.27,15.07-8.55c-.35-.99-4.81,.38-6.74,1.03-.52,.18-1.09,.02-1.46-.39-1.45-1.61-5.57-5.25-11.27-2.4-7.91,3.95-5.61,10.39-4.25,12.98,.34,.65,1.15,.91,1.81,.59l6.84-3.27Z"/>
                </g>
                <g>
                  <path class="cls-4" d="M239.89,79.28l5.43,9.33,16.78,1.42s.28-.77,1.02-1.24,3.39-1.53,4.97-1.26c.81,.14,2.42,4.14,1.87,4.6-.55,.46-1.46-1.61-1.46-1.61,0,0,.87,1.82-.33,2.38s-2.76,1.02-3.86,.69c0,0-15.02,4.81-21.13,2.5-6.11-2.31-9.49-13.15-9.49-13.15l6.21-3.66Z"/>
                  <path class="cls-10" d="M241.24,105.33s-13.04,3.29-26.25,2.31c0,0,5.06-28.37,7.02-32.66,1.96-4.28,8.71-12.09,13.68-12.31,4.97-.22,8.05,4.61,8.61,6.94,.56,2.32-3.07,35.73-3.07,35.73Z"/>
                  <g>
                    <path class="cls-6" d="M246.47,76.64l5.43,9.33,16.78,1.42s.28-.77,1.02-1.24c.74-.47,3.39-1.53,4.97-1.26,.81,.14,2.42,4.14,1.87,4.6-.55,.46-1.46-1.61-1.46-1.61,0,0,.87,1.82-.33,2.38-1.2,.57-2.76,1.02-3.86,.69,0,0-15.02,4.81-21.13,2.5s-9.49-13.15-9.49-13.15l6.21-3.66Z"/>
                    <path class="cls-10" d="M242.67,66.35s3.26,4.41,5.41,12.42c0,0-3.4,3.28-7.64,4.37l-6.21-11.96,8.45-4.83Z"/>
                  </g>
                </g>
              </g>
            </g>
          </g>
          <path class="cls-1" d="M370.2,107.53h-4.42c-1.87,0-3.39,1.52-3.39,3.39v20.55c0,1.87,1.52,3.39,3.39,3.39h3.79l.63-27.33Z"/>
          <path class="cls-1" d="M220.07,95.89h20.23c.62,0,1.12-.5,1.12-1.12s-.5-1.12-1.12-1.12h-20.23c-.62,0-1.12,.5-1.12,1.12s.5,1.12,1.12,1.12Z"/>
        </g>
        <g>
          <path class="cls-10" d="M20.09,27.28H209.64V165.33c0,5.05-4.1,9.14-9.14,9.14H20.09V27.28h0Z" transform="translate(229.73 201.75) rotate(180)"/>
          <g>
            <path class="cls-3" d="M32.25,50.49h32.76c.62,0,1.12-.5,1.12-1.12s-.5-1.12-1.12-1.12H32.25c-.62,0-1.12,.5-1.12,1.12s.5,1.12,1.12,1.12Z"/>
            <path class="cls-3" d="M32.25,64.82h32.76c.62,0,1.12-.5,1.12-1.12s-.5-1.12-1.12-1.12H32.25c-.62,0-1.12,.5-1.12,1.12s.5,1.12,1.12,1.12Z"/>
            <path class="cls-3" d="M32.25,79.16h32.76c.62,0,1.12-.5,1.12-1.12s-.5-1.12-1.12-1.12H32.25c-.62,0-1.12,.5-1.12,1.12s.5,1.12,1.12,1.12Z"/>
            <path class="cls-3" d="M32.25,93.49h32.76c.62,0,1.12-.5,1.12-1.12s-.5-1.12-1.12-1.12H32.25c-.62,0-1.12,.5-1.12,1.12s.5,1.12,1.12,1.12Z"/>
            <path class="cls-3" d="M32.25,107.82h32.76c.62,0,1.12-.5,1.12-1.12s-.5-1.12-1.12-1.12H32.25c-.62,0-1.12,.5-1.12,1.12s.5,1.12,1.12,1.12Z"/>
            <path class="cls-3" d="M32.25,122.15h32.76c.62,0,1.12-.5,1.12-1.12s-.5-1.12-1.12-1.12H32.25c-.62,0-1.12,.5-1.12,1.12s.5,1.12,1.12,1.12Z"/>
          </g>
        </g>
      </g>
      <path class="cls-2" d="M349.35,160.48h36.05v13.99h-36.05c-2.7,0-4.89-2.19-4.89-4.89v-4.2c0-2.7,2.19-4.89,4.89-4.89Z" transform="translate(729.85 334.95) rotate(180)"/>
      <path class="cls-2" d="M16.67,160.48H52.72v13.99H16.67c-2.7,0-4.89-2.19-4.89-4.89v-4.2c0-2.7,2.19-4.89,4.89-4.89Z"/>
      <path class="cls-1" d="M253.76,174.47h4.46c0-19.97,16.25-36.22,36.22-36.22s36.22,16.25,36.22,36.22h4.46c0-22.43-18.25-40.68-40.68-40.68s-40.68,18.25-40.68,40.68Z"/>
      <path class="cls-1" d="M59.8,174.47h4.46c0-19.97,16.25-36.22,36.22-36.22s36.22,16.25,36.22,36.22h4.46c0-22.43-18.25-40.68-40.68-40.68s-40.68,18.25-40.68,40.68Z"/>
    </g>
    <g>
      <circle class="cls-2" cx="294.44" cy="174.47" r="31.1" transform="translate(-34.05 78.39) rotate(-14.34)"/>
      <circle class="cls-1" cx="294.44" cy="174.47" r="14.3"/>
    </g>
    <g>
      <circle class="cls-2" cx="100.49" cy="174.47" r="31.1" transform="translate(-93.94 122.15) rotate(-45)"/>
      <circle class="cls-1" cx="100.49" cy="174.47" r="14.3"/>
    </g>
  </g>
</svg>