<?xml version="1.0" encoding="UTF-8"?>
<svg id="Object" xmlns="http://www.w3.org/2000/svg" viewBox="0 0 1122 350.9">
  <defs>
    <style>
      .cls-1 {
        fill: #f3cc30;
      }

      .cls-2 {
        fill: #f7db5e;
      }

      .cls-3 {
        fill: #edbd31;
      }
    </style>
  </defs>
  <g>
    <path class="cls-1" d="M237.82,35.71l42.48,86.08c.7,1.42,2.05,2.4,3.61,2.62l94.99,13.8c3.94,.57,5.51,5.41,2.66,8.18l-68.74,67c-1.13,1.1-1.65,2.69-1.38,4.25l16.23,94.61c.67,3.92-3.44,6.91-6.96,5.06l-84.96-44.67c-1.4-.73-3.07-.73-4.47,0l-84.96,44.67c-3.52,1.85-7.63-1.14-6.96-5.06l16.23-94.61c.27-1.56-.25-3.14-1.38-4.25l-68.74-67c-2.85-2.78-1.28-7.61,2.66-8.18l94.99-13.8c1.56-.23,2.91-1.21,3.61-2.62l42.48-86.08c1.76-3.57,6.85-3.57,8.61,0Z"/>
    <path class="cls-2" d="M233.52,55.59l-37.86,73.33c-1.99,3.85-5.8,6.41-10.11,6.81l-82.2,7.5,86.84,4.06c5.52,.26,10.56-3.09,12.48-8.26l30.84-83.43Z"/>
    <path class="cls-3" d="M141.23,301.36l-1.87,10.89c-.67,3.92,3.44,6.91,6.96,5.06l84.96-44.67c1.4-.73,3.07-.73,4.47,0l84.96,44.67c3.52,1.85,7.63-1.14,6.96-5.06l-16.23-94.61c-.27-1.56,.25-3.14,1.38-4.25l68.74-67c2.85-2.78,1.28-7.61-2.66-8.18l-31.82-4.62c-51.46,92.35-130.26,140.98-205.86,167.78Z"/>
  </g>
  <g>
    <path class="cls-1" d="M567.63,35.71l42.48,86.08c.7,1.42,2.05,2.4,3.61,2.62l94.99,13.8c3.94,.57,5.51,5.41,2.66,8.18l-68.74,67c-1.13,1.1-1.65,2.69-1.38,4.25l16.23,94.61c.67,3.92-3.44,6.91-6.96,5.06l-84.96-44.67c-1.4-.73-3.07-.73-4.47,0l-84.96,44.67c-3.52,1.85-7.63-1.14-6.96-5.06l16.23-94.61c.27-1.56-.25-3.14-1.38-4.25l-68.74-67c-2.85-2.78-1.28-7.61,2.66-8.18l94.99-13.8c1.56-.23,2.91-1.21,3.61-2.62l42.48-86.08c1.76-3.57,6.85-3.57,8.61,0Z"/>
    <path class="cls-2" d="M563.32,55.59l-37.86,73.33c-1.99,3.85-5.8,6.41-10.11,6.81l-82.2,7.5,86.84,4.06c5.52,.26,10.56-3.09,12.48-8.26l30.84-83.43Z"/>
    <path class="cls-3" d="M471.03,301.36l-1.87,10.89c-.67,3.92,3.44,6.91,6.96,5.06l84.96-44.67c1.4-.73,3.07-.73,4.47,0l84.96,44.67c3.52,1.85,7.63-1.14,6.96-5.06l-16.23-94.61c-.27-1.56,.25-3.14,1.38-4.25l68.74-67c2.85-2.78,1.28-7.61-2.66-8.18l-31.82-4.62c-51.46,92.35-130.26,140.98-205.86,167.78Z"/>
  </g>
  <g>
    <path class="cls-1" d="M899.75,35.71l42.48,86.08c.7,1.42,2.05,2.4,3.61,2.62l94.99,13.8c3.94,.57,5.51,5.41,2.66,8.18l-68.74,67c-1.13,1.1-1.65,2.69-1.38,4.25l16.23,94.61c.67,3.92-3.44,6.91-6.96,5.06l-84.96-44.67c-1.4-.73-3.07-.73-4.47,0l-84.96,44.67c-3.52,1.85-7.63-1.14-6.96-5.06l16.23-94.61c.27-1.56-.25-3.14-1.38-4.25l-68.74-67c-2.85-2.78-1.28-7.61,2.66-8.18l94.99-13.8c1.56-.23,2.91-1.21,3.61-2.62l42.48-86.08c1.76-3.57,6.85-3.57,8.61,0Z"/>
    <path class="cls-2" d="M895.45,55.59l-37.86,73.33c-1.99,3.85-5.8,6.41-10.11,6.81l-82.2,7.5,86.84,4.06c5.52,.26,10.56-3.09,12.48-8.26l30.84-83.43Z"/>
    <path class="cls-3" d="M803.16,301.36l-1.87,10.89c-.67,3.92,3.44,6.91,6.96,5.06l84.96-44.67c1.4-.73,3.07-.73,4.47,0l84.96,44.67c3.52,1.85,7.63-1.14,6.96-5.06l-16.23-94.61c-.27-1.56,.25-3.14,1.38-4.25l68.74-67c2.85-2.78,1.28-7.61-2.66-8.18l-31.82-4.62c-51.46,92.35-130.26,140.98-205.86,167.78Z"/>
  </g>
</svg>