<?xml version="1.0" encoding="UTF-8"?>
<svg id="Layer_1" data-name="Layer 1" xmlns="http://www.w3.org/2000/svg" viewBox="0 0 3000 2000">
  <defs>
    <style>
      .cls-1 {
        fill: #fff;
      }

      .cls-2 {
        fill: #d9935c;
      }

      .cls-3 {
        fill: #4a75cb;
      }

      .cls-4 {
        fill: #f1a34f;
      }

      .cls-5 {
        fill: #2e3552;
      }

      .cls-6 {
        fill: #d86713;
        opacity: .4;
      }

      .cls-7 {
        fill: #d3671e;
      }

      .cls-8 {
        fill: #ffa412;
      }

      .cls-9 {
        fill: #739af0;
      }

      .cls-10 {
        fill: #e27f2b;
      }

      .cls-11 {
        fill: #ead6c3;
      }

      .cls-12 {
        fill: #fbecdb;
      }

      .cls-13 {
        fill: #2c3a64;
      }

      .cls-14 {
        fill: #ed985f;
      }

      .cls-15 {
        fill: #963333;
      }

      .cls-16 {
        fill: #ffb27d;
      }

      .cls-17 {
        fill: #233862;
      }

      .cls-18 {
        fill: #2b478b;
      }
    </style>
  </defs>
  <rect class="cls-1" width="3000" height="2000" transform="translate(3000 2000) rotate(180)"/>
  <g>
    <path class="cls-12" d="M2570.92,1688.29s306.01-328.55,51.75-684.26c-225.59-315.61-488.61-294.03-681.59-165.96-82.19,54.55-319.15,6.72-520.84-314.42C1145.21,85.7,191.81,351.31,365.64,1025.11c84.12,326.07-256.02,337.92-82.7,663.86l2287.99-.69Z"/>
    <path class="cls-11" d="M1887.89,411.07h-55.65l-.32-105.04-118.94,.37v.05l-35.69,.14h0s-.25,0-.25,0l.08,33.54,.25,.19,.17,70.77h-479.15V1687.61h689.5v.45h93.71V411.07h-93.71Zm-673.88,937.85v2.33s0,0,0,0v-2.33Zm658.26,160.49l-181.94,.56v.07s-55.07,.21-55.07,.21h0s-.38,0-.38,0l.13,51.76,.38,.28,.27,108.95h-421.65v-285.16h658.26v123.32Zm-511.3-158.31l.65,.14h-.64v-.14Zm511.3,.14h-64.3l-.5-265.58-183.56,.57v.07l-55.08,.21h0s-.38,0-.38,0l.13,51.76,.33,.25,.32,212.59h55.17v.12s-169.68,0-169.68,0h-2.03l-.45-163.65-183.56,.57v.07s-54.68,.21-54.68,.21v-122.36h658.26v285.16Zm0-320h-187.54l-.5-163.65-183.56,.57v.07l-55.07,.21h0s-.38,0-.38,0l.13,51.76,.38,.29,.27,110.75h-231.98v-285.16h658.26v285.16Zm0-320h-658.26V426.08h658.26v285.16Z"/>
    <g>
      <g>
        <rect class="cls-7" x="1116.07" y="1417.66" width="253.36" height="285.67" transform="translate(-321.58 2798.43) rotate(-89.82)"/>
        <polygon class="cls-4" points="1471.68 1434.7 1242.98 1433.82 1242.36 1687.18 1471.06 1688.06 1471.68 1434.7"/>
        <polygon class="cls-6" points="1242.36 1433.78 1471.65 1434.66 1471.45 1515.22 1241.73 1687.14 1242.36 1433.78"/>
      </g>
      <g>
        <rect class="cls-7" x="936.02" y="1514.14" width="162.8" height="183.56" transform="translate(-591.63 2618.39) rotate(-89.82)"/>
        <polygon class="cls-4" points="1164.53 1525.09 1017.57 1524.53 1017.17 1687.32 1164.13 1687.89 1164.53 1525.09"/>
        <polygon class="cls-6" points="1017.57 1524.53 1164.91 1525.09 1164.78 1576.85 1017.17 1687.32 1017.57 1524.53"/>
      </g>
    </g>
    <path class="cls-17" d="M1697.44,1600.98c-.7-8.46-2.51-16.51-5.21-23.96-.51-1.42-1.06-2.82-1.64-4.19-.42-1.01-.87-2-1.33-2.98-.52-1.11-1.06-2.21-1.62-3.28-.62-1.18-1.26-2.34-1.92-3.48-3.27-5.58-7.1-10.63-11.41-14.99-.01-.02-.03-.03-.05-.04-1.52-1.54-3.11-2.99-4.74-4.35-1.27-1.06-2.59-2.06-3.93-3.01-1.92-1.36-3.89-2.61-5.93-3.72-.76-.42-1.52-.82-2.3-1.2-6.47-3.19-13.45-5.16-20.77-5.61-1.1-.07-2.21-.1-3.32-.1h-30c-35.62,0-64.5,35.37-64.5,79s28.88,79,64.5,79h30c1.11,0,2.22-.03,3.32-.1,7.31-.45,14.3-2.42,20.77-5.61,.77-.38,1.54-.78,2.3-1.2,2.04-1.12,4.01-2.36,5.93-3.72,1.34-.95,2.65-1.94,3.93-3.01,1.64-1.36,3.22-2.81,4.74-4.35,.02-.01,.03-.03,.05-.04,4.32-4.36,8.15-9.41,11.41-14.99,.67-1.14,1.31-2.3,1.92-3.48,.56-1.08,1.1-2.17,1.62-3.28,.46-.98,.9-1.97,1.33-2.98,.58-1.38,1.13-2.77,1.64-4.19,2.71-7.45,4.51-15.51,5.21-23.96,.22-2.66,.33-5.35,.33-8.08s-.11-5.42-.33-8.08Z"/>
    <g>
      <path class="cls-8" d="M1064.36,866.57h-15.12c1.07-3.08-.02-6.31-2.57-7.35-2.65-1.08-5.85,.62-7.15,3.8-.48,1.19-.63,2.42-.49,3.55h-14.78c-.52,0-1.02,.23-1.36,.62l-4.89,5.65c-1.01,1.16-.18,2.97,1.36,2.97h40.12c.52,0,1.02-.23,1.36-.62l4.89-5.65c1.01-1.17,.18-2.97-1.36-2.97Zm-18.46-.95c-.43,1.05-1.48,1.61-2.35,1.25-.87-.35-1.23-1.49-.81-2.54,.43-1.05,1.48-1.61,2.35-1.25,.87,.35,1.23,1.49,.81,2.54Z"/>
      <g>
        <path class="cls-13" d="M777.48,456.73l-48.69,38.16c-2.28,3.56,2.61,3.76,.47,8.15-19.78,40.61-6.51,84.04,10.24,79.66,10.74-2.81,13.78,15.52,13.78,15.52l104.37-84.49s-38.33-79.32-80.16-57Z"/>
        <path class="cls-18" d="M813.82,1653.26l-22.17,8.25s-96.29-133.55-108.14-251.05c-2.12-20.98-1.41-41.3,3.17-60.07,0,0-.94-5.38-2.59-14.88-.76-4.43-1.7-9.77-2.77-15.89-3.13-17.94-7.44-42.48-12.36-70.42-11.33-64.31-26.01-146.51-37.41-206.94l5.97-1.92,64.63-20.85,13.36-42.42,48.13-12.67s10.75,21.03,20.36,120.38c1.77,13.03,3.39,27.4,4.6,42.99,3.75,47.56,4.02,106.57-4.58,174.02-2.21,17.27-5,35.09-8.45,53.41-2.53,13.43-2.91,31.73-1.85,52.74,4.85,96.05,40.11,245.33,40.11,245.33Z"/>
        <path class="cls-17" d="M788.59,1127.76l-104.5,207.76c-.76-4.43-1.7-9.77-2.77-15.89-3.13-17.94-7.44-42.48-12.36-70.42-11.33-64.31-26.01-146.51-37.41-206.94l5.97-1.92,64.63-20.85,13.36-42.42,48.13-12.67s10.75,21.03,20.36,120.38c1.77,13.03,3.39,27.4,4.6,42.99Z"/>
        <path class="cls-18" d="M742.62,991.06l-2.42-20.75c-40.53,10.77-148.82-30.08-148.82-30.08,0,0-39.26,34.52-34.11,117.25,2.52,40.38,7.11,211.97,11.91,262.75,1.73,18.4,3.25,31.5,3.88,36.73,.01,.03,.01,.04,.01,.05,.19,1.6-.37,3.1-1.18,4.5-7.07,12-12.92,24.48-17.72,37.26-47.12,125.56,7.26,280.18,7.26,280.18l14.11-5.69s30.94-172.08,56.08-248.1c4.27-12.89,8.36-23.03,12.11-29.08,10.93-17.64,21.08-46.47,30.28-80.76,17.4-64.82,31.41-149.15,40.73-214.24,1.29,.06,27.87-110.03,27.87-110.03Z"/>
        <path class="cls-14" d="M1061.93,964.56c-8.72,7.72-31.88-18.79-35.06-22.31-.17-.34-.34-.5-.34-.5l7.05-19.63s30.37-1.17,35.4,3.86c5.03,5.03,2.52,30.37-7.05,38.59Z"/>
        <path class="cls-14" d="M1033.58,922.12l-3.02,20.3s-1.34,0-3.69-.17c-7.38-.5-25.33-1.51-45.63-3.69-30.53-3.02-66.77-8.39-81.2-17.28-21.98-13.42-58.05-54.52-81.53-95.63-.67-1.01-1.17-2.01-1.68-3.02-12.25-21.81-20.8-43.45-21.47-60.73-.5-10.57,.67-19.63,2.85-27.51,2.85-10.4,7.55-18.62,12.41-24.83,.67-1.01,1.34-2.01,2.35-2.85,8.05-9.56,15.94-13.59,15.94-13.59,4.03-1.68,8.39,.34,12.92,5.2v.17c3.69,3.86,7.72,9.73,11.58,17.11,.17,.17,.34,.34,.34,.5,.84,1.51,1.68,3.19,2.69,5.03,.33,.34,.5,.84,.67,1.17,1.85,3.86,3.69,7.88,5.54,12.08,20.63,44.96,42.61,113.07,60.9,133.37,7.88,8.72,43.96,25.84,72.64,38.59,20.64,9.06,37.41,15.77,37.41,15.77Z"/>
        <path class="cls-16" d="M820.05,739.43c-12.72,5.9-28.09,9.92-46.68,10.93-69.68,3.82-85.5-57.27-88.38-97.81,10.04-3.64,18.84-3.29,23.91-3.02,4.94,.27,10.1,.78,14.35,1.3,8.53-4.45,23.84-26.08,32.69-62.26l3,1.39,50.28,23.64s-5.34,16.36-9.28,32.02c-3.08,12.25-5.29,24.09-3.44,27.4,3.96,1.61,6.33,2.62,6.33,2.62,0,0,0,.02,.02,.06,.51,1.28,11.44,29.14,17.19,63.73Z"/>
        <path class="cls-9" d="M837.48,785.15c-.53,1.39-1.1,2.75-1.74,4.15-17.65,38.01-50.32,195.45-50.32,195.45,4.65,28.31-212.74-5.56-213.3-31.33-7.66-27.33,27.17-71.24,46.81-93.27,2.46-2.77,4.67-5.74,6.59-8.87,4.85-7.85,7.93-16.72,8.9-25.99,3.86-36.54,2.39-70.78,2.71-91.6h0c3.84-2.84,7.55-5.47,11.01-7.97,5.28-3.86,9.95-7.46,13.39-11.11,3.78-3.98,6.15-8.05,6.42-12.65,.2-3.48,.09-7.04-.27-10.61-.16-1.68-.38-3.37-.63-5.05-2.72-17.68-10.1-33.72-10.1-33.72,18.7-7.56,51.94-3.06,51.94-3.06,0,0-.04,1.85-.05,4.87-.11,12.15,0,43.33,3.89,49.23,4.87,7.35,93.93,39.55,98.64,29.57,4.63-9.81-8.05-55.76-8.53-57.5-.02-.04-.02-.06-.02-.06,29.83,11.71,40.49,21.54,40.49,21.54-17.97,11.66,8.05,51.09-5.85,87.96Z"/>
        <path class="cls-14" d="M809.23,613.62s-5.35,16.35-9.28,32.02c-29.39-8.2-38.31-39.09-41-55.65l50.28,23.64Z"/>
        <path class="cls-16" d="M815.42,630.92s-70.31-16.27-59.51-59.9c10.81-43.63,9.01-75.12,54.36-66.57,45.35,8.54,49.91,27.35,49.85,42.79-.07,15.44-26.14,86.8-44.7,83.69Z"/>
        <path class="cls-13" d="M864.08,522.46c-7.56-15.81-16.46-14.97-22.02-12.17-33.04-30.57-83.11-15.2-83.11-15.2-12.47,30.13-21.84,52.05-21.84,52.05,0,0,10.8,11.06,42.11,10.82,9.56-.07,19.18-4.47,27.93-10.52-16.87,17-36.66,27.34-36.66,27.34,39.19-7.5,65.47-52.87,68.16-57.69,3.32,4.9,9.67,15.34,10.21,24.15,.73,11.98-3.39,35.23,3.46,36.11,0,0,23.1-31.19,11.77-54.9Z"/>
        <path class="cls-9" d="M843.33,697.18s16.93,29.53,19.46,37.13c0,0-21.95-.85-30.82,16.04,0,0-2.13-49.19,11.36-53.17Z"/>
        <path class="cls-3" d="M726.89,931.84c-42.88-.45-79.18-44.98-101.37-80.56,4.85-7.85,7.93-16.72,8.9-25.99,3.86-36.54,2.39-70.78,2.71-91.6h0c3.84-2.84,7.55-5.47,11.01-7.97,5.28-3.86,9.95-7.46,13.39-11.11,35.11,59.35,123.49,217.84,65.35,217.23Z"/>
        <path class="cls-17" d="M643.46,1690.48h-111.66s-2.68-17.02,3.16-29.93c5.59-12.39,14.34-18.02,12.25-33.01,7.09,7.3,18.66,15.48,34.8,13.31,1.98,3.21,12.77,20.37,19.37,25.11,7.3,5.24,39.83,3.37,42.08,24.51Z"/>
        <path class="cls-17" d="M883.2,1690.48h-111.66s-4.17-17.81,3.16-29.93c6.49-10.72,4-16.83-.81-25.7,5.06,2.07,11.6,3.95,18.81,3.54,5.56-.32,11.45-2.85,16.6-5.84,4.81,5.48,25.38,28.8,31.81,33.42,7.3,5.24,39.83,3.37,42.08,24.51Z"/>
        <g>
          <polygon class="cls-17" points="987.01 870.69 878.37 1012.02 879.98 1013.99 990.17 872.4 987.01 870.69"/>
          <polygon class="cls-18" points="989.96 872.67 1100.21 872.67 984.79 1013.99 879.98 1013.99 989.96 872.67"/>
        </g>
        <path class="cls-16" d="M967.28,958.43c-.31-5.62-7.72-5.37-13.36-5.39-9.24-.04-23.82-.68-32.25-3.91,0,0,26.93-.38,21.2-8.89-1.04-1.55-14.43-.38-29.37-.38-6.13,0-21.27,8.4-20.49,8.79-10.83-1.43-20.67-3.53-23.85-4.22h0c-7.38-4.03-16.27-8.89-25.67-14.26-22.65-12.75-48.65-28.35-66.44-41.27-10.23-7.38-17.95-13.92-20.63-18.62-4.19-7.21-8.89-18.62-14.09-32.71-2.68-7.38-5.54-15.43-8.39-23.99-5.03-14.09-10.07-29.36-15.27-44.62-9.39-27.85-19.46-55.87-29.02-77.51-6.21-13.59-12.25-24.83-17.95-31.71-4.53-5.54-8.89-8.39-13.09-7.72-.67,.17-1.17,.33-1.68,.5,0,0-24.16,6.71-24.49,55.36-.17,2.69,0,5.54,.17,8.56,.34,8.56,2.01,18.96,4.53,30.37,4.03,19.13,10.74,41.27,19.12,63.75,2.35,6.04,4.7,12.25,7.21,18.45,18.12,44.96,41.44,86.91,61.07,101.16,.84,.67,1.51,1.18,2.35,1.68,8.22,5.2,20.3,10.4,34.22,15.27,19.8,6.71,43.28,12.75,64.26,17.78h.17c12.25,2.68,23.49,5.2,32.88,7.05,0,0,1.54,.38,4.29,.93,.39,.08,.81,.16,1.25,.24,8.89,2.18,27.18,6.88,44.46,13.59,24.16,9.56,41.93-2.33,49.99-10.74,5.11-5.33,9.14-12.41,8.86-17.54Z"/>
        <path class="cls-9" d="M689.59,691.51c-32.3-8.9-57.21,16.31-57.21,16.31,.41-48.57,24.58-55.22,24.58-55.22,9.73-4.03,30.29,6.85,32.63,38.91Z"/>
      </g>
      <g>
        <path class="cls-8" d="M821.58,432.3c-16-3.66-29.54-3.39-40.98-.58-1.13,.28-2.25,.58-3.35,.91h-.02c-43.68,13.07-54.68,63.67-54.68,63.67,0,0-1.83,13.27-1.36,19.01,.46,5.75,42.07,20.58,48.38,13.2,6.3-7.38,18.5-12.19,18.5-12.19,0,0,42.59,18.13,45.46,19.34,9.64,4.06,40.87,8.34,40.87,8.34,1.02-2.76,28.26-93.15-52.82-111.71Z"/>
        <path class="cls-10" d="M903.24,547.68c-4.32-3.72-12.06-9.35-25.67-16.93,0,0-16.56,3.72-43.46-.73-3.9-19.25-18.07-68.09-53.51-98.31-.11-.09-.2-.18-.31-.27-1.41,.64-2.08,.76-3.04,1.18h-.02c-.29,.12-.61,.28-.98,.48,29.94,22.46,42.38,75.28,46.06,94.55-10.35-2.42-21.84-6.03-34.24-11.35,0,0,31.71,33.77,112.93,37.41,3.17,.14,4.65-3.98,2.24-6.05Z"/>
      </g>
      <polygon class="cls-17" points="987.01 870.69 1097.89 870.69 1100.21 872.67 989.96 872.67 987.01 870.69"/>
    </g>
    <path class="cls-18" d="M1822.76,1537.06h-199.66c-3.94,0-7.13-3.36-7.13-7.5s3.19-7.5,7.13-7.5h199.66c3.94,0,7.13,3.36,7.13,7.5s-3.19,7.5-7.13,7.5Z"/>
    <path class="cls-18" d="M1824.75,1306.06h-203.62c-4.02,0-7.27-3.36-7.27-7.5s3.25-7.5,7.27-7.5h203.62c4.02,0,7.27,3.36,7.27,7.5s-3.25,7.5-7.27,7.5Z"/>
    <g>
      <path class="cls-9" d="M1950.87,961.91c12.08,2.79,66.67,3.45,105-5.16,7.99-1.79,15.29-3.98,21.33-6.65,7.22-3.18,12.67-7.03,15.44-11.66,4.33-7.22,12.26-31.93,21.58-64.32,25.67-89.25,61.79-236.72,61.79-236.72,0,0-72.53,14.8-87.88,27.44-15.36,12.64-28.91,213.1-43.34,218.52-2.13,.8-5.8,2.48-10.5,4.79-.23,.11-.46,.23-.69,.34-2.8,1.38-5.96,2.98-9.37,4.74-29.95,15.39-79.51,43.11-84.64,49.28-6.77,8.13-6.33,15.35,11.28,19.41Z"/>
      <path class="cls-9" d="M2090.04,751.52c0-3.41,.34-6.83,.96-10.25,9.33-51.32,83.54-103.88,85.01-103.88v1.07c.01,7.84,12.38,22.32,31.42,23.57,22.59,1.48,50.48-11.41,50.48-24.43,.14,0,12.69,1.7,16.95,2.17,18.11,2.06,54.25,11.84,69.73,23.54,14.72,11.12-6.08,81.24-18.96,130.9-5.46,21.01-9.48,38.35-8.82,46.03,.33,3.75,3.7,54.72,6.71,100.83,2.49,38.04,4.74,72.75,4.81,74.93,.16,4.32-21.32,19.45-57.39,30.88-8.71,2.76-18.29,5.31-28.61,7.42-18.51,3.81-39.46,6.26-62.24,6.18-7.45-.03-14.51-.41-21.17-1.07-51.53-5.05-69.17-63.77-68.88-307.89Z"/>
      <path class="cls-2" d="M2257.89,636.99c.44-19.93,.11-43.73-2.59-63.84l-79.56,13s-.08,24.29,.26,51.23c-.05,0-2.16,24.99,28.62,28.65,30.78,3.66,54.1-9.75,53.27-29.04Z"/>
      <path class="cls-17" d="M2191.33,1690.48c10-6.16,4.13-51.79,4.13-51.79,0,0-46.86-37.2-53.17-8.56-6.32,28.64-44.22,41.63-65.82,45.21-14.91,2.48-20.41,10.18-21.82,15.08l136.68,.06Z"/>
      <path class="cls-3" d="M2264.21,905.93c0,76.3,36.98,55.74,59.3,35.13-3.01-46.11-5.12-209.42-5.12-209.42,0,0-54.18,65.02-54.18,174.28Z"/>
      <path class="cls-3" d="M2024.22,893.22c1.48,10.7,18.38,41.85,31.64,63.53,7.99-1.79,15.29-3.98,21.33-6.65,7.22-3.18,12.67-7.03,15.44-11.66,4.33-7.22,12.26-31.93,21.58-64.32-6.9-39.88-13.45-79.25-13.45-79.25l-2.03-26.41c0,2.03-30.92,118.07-44.93,120.78-8.44,1.64-14.43-.35-19.52-1.08-.23,.11-.46,.23-.69,.34-2.8,1.38-5.96,2.98-9.37,4.74Z"/>
      <path class="cls-17" d="M2334.91,1690.48c10-6.16,4.13-51.79,4.13-51.79,0,0-46.86-37.2-53.17-8.56-6.32,28.64-44.22,41.63-65.82,45.21-14.91,2.48-20.32,10.18-21.73,15.08l136.6,.06Z"/>
      <path class="cls-17" d="M2265.47,550.21s53.11-83.74-48.87-89.28c0,0-38.25,4.5-46.91-4.16,0,0-29.67,45.1-1.96,93.44,27.71,48.35,97.75,0,97.75,0Z"/>
      <path class="cls-2" d="M2178.11,593.91c7.73,6.08,30.4,12.12,36.95,12.83,0,0,33.61-7.5,39.72-11.18,9.46-5.74,8.85-17.35,9.34-33.49,.58-19.11,2.51-34.11,.37-45.13-2.53-13.18-10.89-20.67-34.28-22.71-42.94-3.73-60.82,7.02-61.57,21.42-.19,3.87-.37,7.55-.5,11.04-1.72,44.89,1.83,60.81,9.96,67.21Z"/>
      <path class="cls-17" d="M2167.76,541.41c.42,26.01,7.43,41.4,12.51,43.35,5.85,2.24,12.74,4.09,19.92,5.32,2.42,.28,4.74,.2,4.71-1.17-.08-4.1-5.56-9.16-1.49-12.79,4.27-3.81,27.2-5.09,29.05,3.22,.9,4.05-6.49,11.21-1.43,11.37,1.54-.26,3.05-.56,4.49-.93,8.35-2.18,14.9-6.13,17.67-7.79,9.46-5.74,8.84-14.53,10.94-30.54,1.36-10.36,1.36-4.74,0,10.63-1.42,16.09,1.36,26.41-9.34,33.49-5.95,3.94-40.22,19.34-40.22,19.34,.5-8.15-28.72-14.9-36.45-20.98-7.18-5.64-10.78-18.69-10.35-52.5Z"/>
      <path class="cls-18" d="M2328.32,1015.99c.16,4.32-21.32,19.45-57.39,30.88-2.9,.93-5.92,1.82-9.01,2.68-.04,.01-.07,.05-.07,.09-3.36,39.48-12.47,95.25-20.69,149.07h0c-2.13,13.96-4.19,27.78-6.08,41.15-5.01,35.38-8.76,67.62-9.17,90.82v.24c-.18,10.65,8.8,37.21,9.48,43.34,.42,3.75,.76,7.72,1,11.88,.98,16.62,.58,36.26-.76,57.23-5.89,91.51-30.07,208.59-38.7,213.58-17.15,9.92-48.36-.01-64.22-2.33-6.57-.98-11.82-6.57-11.49-13.19,7.75-151.87-14.51-363.37-31.14-493.39-.43-3.39-.87-6.71-1.29-9.97-1.99-15.33-3.31-29.65-4.13-42.56-.76-11.32-1.12-21.6-1.29-30.52-.04-2.78-.07-5.43-.08-7.94-.04-8.14,6.43-61.43,6.73-305.55h0c0-5.64,4.62-10.25,10.26-10.25h149.29c14.43,0,26.03,11.81,25.85,26.23-.23,18.62,.44,44.62,4.48,69.44,5.51,33.9,17.31,65.56,41.66,73.18,.03,0,.05,.02,.06,.05,.11,.25,.78,1.73,1.84,4.2,0,.01,0,.03,0,.04,.23,6.13,.49,12.37,.77,18.73,.05,1.27,.11,2.56,.18,3.85,.03,.76,.07,1.5,.11,2.26,.05,1.29,.12,2.59,.19,3.89,.09,2.14,.2,4.29,.33,6.47,.09,1.71,.19,3.41,.28,5.13,.18,3.31,.38,6.65,.6,10.02,.05,1.08,.12,2.15,.2,3.25,.28,4.36,.58,8.79,.92,13.25,.09,1.37,.2,2.74,.31,4.12,.04,.66,.09,1.33,.15,1.99,.13,1.75,.27,3.49,.42,5.26,.15,1.86,.31,3.72,.47,5.61,.6,6.85-.29,12.96-.11,17.77Z"/>
      <path class="cls-17" d="M2235.63,1443.38c-5.89,91.51-30.07,208.59-38.7,213.58-17.15,9.92-48.36-.01-64.22-2.33-6.57-.98-11.82-6.57-11.49-13.19,7.75-151.87-14.51-363.37-31.14-493.39-.43-3.39-.87-6.71-1.29-9.97-1.99-15.33-3.31-29.65-4.13-42.56,7.91-51.55,52.55-54.31,93.04,52.33-5.01,35.38,59.26,274.57,57.92,295.54Z"/>
      <path class="cls-18" d="M2329.99,1326.38c1.23,10.58,13.61,35.73,15.09,41.72,20.47,82.31,9.16,277.49-.99,285.29-15.7,12.08-47.95,6.34-63.97,6.12-6.64-.09-12.58-4.96-13.12-11.56-12.59-155.51-64.73-369.09-98.27-494.74-16.89-63.29-19.28-109.82-19.28-109.82,0,0,156.74-96.03,173.69-43.57,15,46.42-2.62,245.33,6.84,326.56Z"/>
      <g>
        <path class="cls-8" d="M2170.35,437.51c1.08-1.22,2.23-2.39,3.44-3.54,5.11-4.86,11.27-9.05,18.67-12.14,27.33-11.4,49.99-.88,64.16,9.9,1.4,1.05,2.71,2.12,3.93,3.17,7.7,6.54,12,12.38,12,12.38,0,0,13.27,18.11,12.83,56.27l-136.72,1.46s-2.01-41.22,21.69-67.51Z"/>
        <g>
          <path class="cls-10" d="M2247.01,503.95l-7.51,.08c-.16-2.18,.21-51.8,18.72-71.06,1.4,1.05,1.11,.87,2.33,1.92-17.57,16.96-13.57,68.54-13.53,69.05Z"/>
          <path class="cls-10" d="M2187.6,504.6c-1.56-30.38-13.2-62.3-16.34-67.98,1.08-1.25,1.31-1.48,2.52-2.66,2.18,3.75,20.01,36.81,21.89,70.55l89.7-.96s-45.45,10.19-72.88,10.53c-27.43,.34-63.84-9.07-63.84-9.07l38.94-.42Z"/>
        </g>
      </g>
      <path class="cls-18" d="M2280.23,640.5s-46.2,53.81-48.9,100.77l23.53,1.25s5.93-52.3,40.69-98.8c0,0-5.44-1.32-7.25-1.68-2.42-.48-8.08-1.54-8.08-1.54Z"/>
      <path class="cls-18" d="M2165.06,639.76c-33.09,50.08-36.64,102.52-36.64,102.52l-23.75-.41c1.95-36.91,25.14-77.51,37.94-96.74,0,0,16.44-4.15,22.45-5.37Z"/>
      <path class="cls-9" d="M2317.2,929.38c-1.17,55.1,5.7,164.83,5.7,164.83h32.51c15.35-77.21,20.76-126.88,20.76-153.96,0-5.34-.03-10.31-.07-14.9-.2-23.13-.83-36.57-.83-36.57,6.09-140.18-21.9-215.13-30.69-225.46-8.8-10.32-49.03-19.6-49.03-19.6,0,0-13.29,38.73-18.7,69.88-5.42,31.15,42.61,162.05,40.63,206.79-.12,2.79-.22,5.8-.29,8.99Z"/>
      <path class="cls-2" d="M2322.9,1094.2s-6.87-109.73-5.7-164.83c25.99-8.38,46.96-6.54,58.91-4.04,.04,4.59,.07,9.56,.07,14.9,0,27.09-5.42,76.76-20.76,153.96,6.77,28.44,6.32,59.15-5.42,64.56-11.74,5.42-50.57-14.9-50.12-23.93,.45-9.03,23.03-40.63,23.03-40.63Z"/>
      <path class="cls-2" d="M1878.12,967.33c3.17-11.62,5.52-18.06,13.52-23.7,11.62-8.2,25.42-5.98,35.71-4.18,7.86,1.38,16.1-1.26,19.55-2.58,18.21-12.14,63.94-37.17,86.7-48.39,15.54,9.01,34.62,26.83,43.6,61.62-35.04,15.46-111.73,15.18-126.33,11.81,0,0-13.52,9.83-23.8,10.73-3.9,.34-8.8-.79-13.39-2.33-7.23-2.42-14.98,0-20.18,6.41-5,6.18-10.35,6.17-13.06,6.17-4.19,0-4.31-8.24-2.32-15.56Z"/>
    </g>
    <path class="cls-18" d="M1835.44,1662.39h-242.17c-4.14,0-13.42-3.36-13.42-7.5s31.15-7.5,35.29-7.5h205.29V1012.41c0-25.92,21.09-47.01,47.01-47.01h52.49c4.14,0,7.5,3.36,7.5,7.5s-3.36,7.5-7.5,7.5h-52.49c-17.65,0-32.01,14.36-32.01,32.01v649.99Z"/>
    <path class="cls-18" d="M1625.44,1662.39h-175.67c-4.14,0-7.5-3.36-7.5-7.5s3.36-7.5,7.5-7.5h160.67V1012.41c0-25.92,21.09-47.01,47.01-47.01h52.49c4.14,0,7.5,3.36,7.5,7.5s-3.36,7.5-7.5,7.5h-52.49c-17.65,0-32.01,14.36-32.01,32.01v649.99Z"/>
    <path class="cls-18" d="M1823.11,1076.06h-200.35c-3.95,0-7.16-3.36-7.16-7.5s3.2-7.5,7.16-7.5h200.35c3.95,0,7.16,3.36,7.16,7.5s-3.2,7.5-7.16,7.5Z"/>
    <path class="cls-15" d="M1932.27,985.39h-64.82c-6.9,0-12.5-5.6-12.5-12.5s5.6-12.5,12.5-12.5h64.82c6.9,0,12.5,5.6,12.5,12.5s-5.6,12.5-12.5,12.5Z"/>
    <path class="cls-18" d="M1867.45,965.39c-23.6,0-43.18,17.48-46.51,40.17h15.24c3.14-14.37,15.97-25.17,31.27-25.17,4.14,0,7.5-3.36,7.5-7.5s-3.36-7.5-7.5-7.5Z"/>
    <path class="cls-15" d="M1722.27,985.39h-64.82c-6.9,0-12.5-5.6-12.5-12.5s5.6-12.5,12.5-12.5h64.82c6.9,0,12.5,5.6,12.5,12.5s-5.6,12.5-12.5,12.5Z"/>
    <path class="cls-18" d="M1657.45,965.39c-23.6,0-43.18,17.48-46.51,40.17h15.24c3.14-14.37,15.97-25.17,31.27-25.17,4.14,0,7.5-3.36,7.5-7.5s-3.36-7.5-7.5-7.5Z"/>
    <g>
      <polygon class="cls-7" points="1578.02 1425.62 1827.62 1421.22 1828.32 1647.38 1578.7 1647.38 1578.02 1425.62"/>
      <polygon class="cls-4" points="1503.12 1426 1702.96 1425.23 1703.51 1647.52 1503.67 1647.38 1503.12 1426"/>
      <polygon class="cls-6" points="1702.96 1425.23 1503.12 1426 1503.3 1496.06 1703.51 1647.52 1702.96 1425.23"/>
    </g>
    <g>
      <path class="cls-17" d="M1852.27,1530.06h-30c-35.62,0-64.5,35.37-64.5,79s28.88,79,64.5,79h30c35.62,0,64.5-35.37,64.5-79s-28.88-79-64.5-79Z"/>
      <ellipse class="cls-18" cx="1852.27" cy="1609.06" rx="64.5" ry="79"/>
      <path class="cls-3" d="M1893.09,1609.06c0,27.61-18.28,50-40.82,50s-40.82-22.39-40.82-50,18.28-50,40.82-50,40.82,22.39,40.82,50Z"/>
    </g>
    <g>
      <polygon class="cls-7" points="1622.86 1172.1 1910.1 1171.22 1909.31 1424.58 1623.64 1425.46 1622.86 1172.1"/>
      <polygon class="cls-4" points="1537.15 1172.54 1765.85 1171.66 1766.48 1425.02 1537.78 1425.9 1537.15 1172.54"/>
      <polygon class="cls-6" points="1765.85 1171.66 1537.15 1172.54 1537.35 1253.54 1766.48 1425.02 1765.85 1171.66"/>
    </g>
    <path class="cls-2" d="M1950.87,961.91s-24.33,16.56-30.76,12.48,4.5-13.33-5.83-16.67c-10.33-3.33,36.6,4.18,36.6,4.18Z"/>
    <rect class="cls-5" x="185.1" y="1686.99" width="2629.8" height="6.98" rx="2.98" ry="2.98"/>
  </g>
</svg>