<svg id="Capa_1" data-name="Capa 1" xmlns="http://www.w3.org/2000/svg" viewBox="0 0 593.68 547.79"><defs><style>.cls-1{fill:#ffd910}</style></defs><rect class="cls-1" y="9.91" width="565.79" height="537.88" rx="40.07" ry="40.07"/><rect x="50.93" width="542.75" height="515.98" rx="38.43" ry="38.43" style="fill:#1d1d1b"/><path class="cls-1" d="M368.23 40.49c-4.69.25-8.87 2.56-22.54 12.32-4.97 3.58-19.13 13.52-31.41 22.11-46.57 32.51-65.1 46.36-84.3 62.86-42.77 36.81-82.38 84.44-109.4 131.54-6.42 11.22-10.4 19.31-10.12 20.55.28 1.28 6.21-6.11 16.93-21.08 2.77-3.9 5.25-7.1 5.47-7.1s.35-.25.32-.53c-.07-.28.25-.92.71-1.42.43-.5.6-.67.43-.35-.32.46-.28.46.28.04.35-.28.57-.71.46-.96s0-.57.21-.71c.25-.18.28-.07.11.25-.28.43-.21.43.28 0 .67-.53.82-1.28.18-.89-.25.14-.28.11-.14-.18.14-.21.39-.32.57-.21s.64-.28 1.03-.85c.82-1.14.96-1.63.32-1.24-.25.14-.28.11-.14-.18.14-.21.39-.32.57-.21s2.2-2.41 4.51-5.57c12.25-16.75 20.3-27.3 27.62-36.13 25.59-31.02 55.23-55.9 137.15-115.22 5.5-3.98 13.42-9.73 16.19-11.75 4.12-3.02 9.62-6.6 11.36-7.42 1.85-.89 4.22-1.14 4.61-.5.18.28.43.25.78-.07.32-.25-.28.89-1.31 2.56-3.58 5.71-4.58 7.38-6.5 11.04-7.24 13.63-10.44 28.4-8.2 37.59.35 1.46.64 2.88.6 3.09 0 .25.11.46.32.46.18 0 .25.14.14.32-.32.5 1.14 3.55 2.88 6 3.66 5.15 10.33 9.12 19.45 11.61 4.86 1.31 10.29 2.17 22.18 3.51 12.35 1.42 18.46 2.45 26.27 4.54 3.02.78 6.46 1.67 7.63 1.92 2.52.57 5.64.64 5.32.14-.35-.57 1.88.39 7.95 3.41 11.61 5.79 21.97 12.64 33.05 21.94 6.92 5.82 23.78 23.14 23.25 23.96-.07.18.11.53.46.78.57.46.57.43.07-.21q-.53-.71.28-.04c.43.39.75.89.64 1.14s.18.71.6 1.1q.78.64.25-.07c-.35-.5-.25-.46.28.11.43.46.71.96.6 1.14-.11.14.11.5.46.75q.57.46.07-.21t.11-.21c.35.28.57.71.46.96s.11.64.43.92c.53.39.57.39.25-.07-.21-.32-.07-.25.25.11.35.39.57.82.46.96-.11.18 0 .43.21.57.28.18.35.07.18-.25-.14-.28-.04-.18.28.18.28.35.46.82.32 1.03-.11.21-.04.25.18.11.5-.28 5.18 6.74 7.31 11 3.37 6.78 4.58 12.67 3.83 18.85-.21 1.92-1.06 6.18-1.85 9.48-2.24 9.41-2.59 11.93-2.59 17.43 0 3.55.18 5.79.64 7.81.35 1.56.67 3.19.67 3.62.04.46.11.82.21.82s.21.43.21.99c.07 1.42 2.41 7.52 4.76 12.14 3.05 6.14 7.77 13.45 8.55 13.24.14-.07.21.11.11.39s0 .6.25.78c.28.18.35.11.18-.25-.14-.28-.04-.18.28.18.28.35.46.82.32 1.03-.11.21-.07.28.11.14.43-.25 4.58 6.42 6.5 10.4 1.42 2.91 1.92 5.71 1.14 6.18-.18.14-.25-.14-.14-.57q.18-.82-.35-.11c-.28.39-.46.82-.39.96.39.6-3.12.64-7.92.11-6.28-.75-10.05-.6-11.39.43-.53.39-1.17 1.35-1.46 2.13-.5 1.35-.46 1.74.28 4.61.43 1.7.89 3.62.96 4.26.28 2.06 2.06 5.89 6.32 13.49 5.57 10.01 6.67 12.49 7.31 16.4.28 1.7.25 2.13-.46 3.51-4.29 8.63-34.82 26.41-55.09 32.12-8.77 2.48-15.01 3.27-23.6 2.98-8.87-.28-16.36-1.7-26.44-5.04-5.15-1.67-11.89-4.4-11.82-4.76.04-.11-.07-.64-.25-1.21-.21-.82-.35-.92-.82-.53-1.17.99.35-1.1 7.24-9.83 7.49-9.51 9.51-12.32 9.3-12.96-.43-1.35-12.21 9.41-20.91 19.06l-2.31 2.59-7.24-3.66c-9.76-4.86-14.87-7.92-14.66-8.77.21-.78-.89-2.56-1.42-2.24-.21.11-.25.04-.11-.21.28-.46 10.15-7.06 21.69-14.48 8.23-5.32 11.22-7.45 11.46-8.2.53-1.67-20.48 8.91-34.86 17.57-2.7 1.6-5.04 2.95-5.22 2.95-.14 0-2.73-1.6-5.71-3.55-2.98-1.95-5.64-3.55-5.89-3.55-1.17 0-.07 1.67 4.44 6.6l2.95 3.23-5.57 3.83c-18.28 12.53-30.31 22.36-48.13 39.4-16.08 15.3-40.36 42.52-40.36 45.15 0 1.14 4.54-2.8 21.83-18.92 5.75-5.36 10.58-9.69 10.72-9.65.32.11 10.75-8.63 16.79-14.06.67-.6 3.73-3.27 6.74-5.89 3.02-2.63 5.96-5.22 6.57-5.71 4.01-3.55 8.63-7.49 16.29-13.98 4.86-4.12 9.34-7.92 9.94-8.45l1.1-.99-1.35.92c-2.13 1.56-1.53.78.71-.92 1.14-.82 1.77-1.17 1.42-.78l-.67.75 1.49-.71c3.19-1.6 10.05-1.46 14.34.28.53.21.6.14.39-.21-.18-.32-.14-.39.14-.21.21.14.32.39.21.57-.18.32 4.26 3.83 7.42 5.86 2.8 1.81 4.61 3.48 5.86 5.47l1.03 1.7-3.9 5.29c-10.61 14.41-21.19 31.87-29.78 49.2-3.8 7.7-5.22 11.11-4.79 11.57.43.39 1.77-1.53 14.2-20.2 12.81-19.24 19.24-28.64 24.28-35.46 2.77-3.76 4.05-5.36 3.51-4.44-.11.21 1.03-.25 2.48-.96 3.41-1.63 6.71-2.24 10.93-1.92 1.74.11 3.58.32 4.08.39.57.11.43 0-.35-.32-1.99-.82-1.1-.64 3.76.67 10.75 2.95 25.13 5.32 35.46 5.82 3.83.21 4.58.32 2.66.35l-2.66.11 1.95.5c2.8.75 9.9 1.03 13.84.57 9.94-1.21 19.24-5.61 23.96-11.39.46-.57.53-.78.18-.57-.82.43-.32 0 5.15-4.69 6.25-5.36 7.7-6.28 13.91-8.8 2.77-1.1 6.14-2.66 7.45-3.44 1.31-.82 2.59-1.46 2.84-1.46s.39-.11.32-.21.28-.53.82-.92c.85-.64.89-.64.39 0-.5.6-.5.64.25.25.43-.25.89-.6 1.03-.85s.11-.28-.14-.14c-.71.43-.46 0 .35-.71.67-.53.71-.57.32-.07-.96 1.28.32.57 3.23-1.7 1.6-1.31 3.55-2.95 4.33-3.66 3.27-3.09 8.52-10.51 11.43-16.22 1.81-3.58 3.58-8.13 2.98-7.77-.14.11.04-.82.43-2.06.5-1.53.75-3.23.78-5.57.07-5.25-.78-7.28-7.74-18.24-6.74-10.61-12.17-22.68-16.01-35.64-2.95-9.94-3.87-17.04-4.44-33.97-.6-18.88-2.41-27.72-7.99-39.04-6.42-13.06-16.29-24.03-33.54-37.16-7.1-5.4-12.74-9.37-27.33-19.24-17.89-12.07-22.75-15.62-27.22-19.88-5.96-5.68-8.7-10.22-10.93-18-.53-1.88-.53-2.06.14-3.62 1.35-3.16 4.61-5.64 15.3-11.61 9.02-5.04 36.52-18.81 42.84-21.44 4.58-1.92 8.06-.92 10.22 2.84.6 1.1.6 1.31.04 5.15-1.24 7.99-4.37 18.63-7.88 26.94-2.24 5.18-6.85 14.02-10.93 20.87-1.92 3.19-3.41 5.89-3.3 5.96.57.57 7.38-9.3 11.96-17.25 3.16-5.54 10.72-20.62 14.2-28.47 1.46-3.23 2.77-5.86 2.88-5.75.71.43 5.47-12.21 5.08-13.45-.11-.39-.07-.6.07-.5.18.11.32-.18.35-.57 0-.43.28-2.02.6-3.51 1.14-5.18.5-7.35-2.27-8.09-5.86-1.6-24.17 4.76-69.18 23.92l-12.92 5.5-.57-.89c-.32-.46-.67-.78-.78-.67-.25.25-.32-.28-2.24-16.33-1.99-16.15-2.77-21.62-4.08-28.25-2.24-11.18-5-17.11-8.98-19.13-1.21-.6-1.95-.71-3.98-.6Zm-31.06 358.18c0 .07-.28.35-.64.6-.53.46-.57.43-.11-.14.46-.57.75-.75.75-.46Zm-3.19 2.48c0 .07-.28.35-.64.6-.53.46-.57.43-.11-.14.46-.57.75-.75.75-.46Zm-43.37 37.13c.11 0-.18.39-.64.89s-.92.89-.99.89c-.11 0 .18-.39.64-.89s.92-.89.99-.89Zm-3.51 3.19c.11 0-.75.96-1.92 2.13s-2.2 2.13-2.27 2.13c-.11 0 .75-.96 1.92-2.13s2.2-2.13 2.27-2.13Z"/><path class="cls-1" d="M426.27 243.95c-10.54.11-15.9.6-24.49 2.17-5.57.99-6.85 1.56-4.79 2.06 4.12 1.03 7.42 3.19 7.06 4.61-.53 2.13 4.44 10.15 9.44 15.16 3.37 3.41 6.6 5.68 11.54 7.99 5.71 2.73 10.33 3.51 14.23 2.48 4.44-1.17 7.24-3.94 13.31-13.03 4.47-6.64 4.72-7.06 5.08-8.59.18-.78.14-.96-.21-.75-.25.14.11-.43.82-1.31 2.98-3.66 2.98-5-.07-6.57-3.12-1.56-11.43-3.3-20.02-4.19-.78-.07-6.14-.07-11.89-.04ZM386.09 347.77c-2.06 0-12.1 2.66-19.52 5.18-23.25 7.92-43.73 19.7-67.37 38.69-13.95 11.22-26.83 23.21-24.92 23.21.6 0 7.42-4.61 20.69-14.09 22.54-16.04 35.53-24.81 36.24-24.38.25.18.28.11.11-.21-.21-.35-.14-.43.28-.25.32.11.67.04.82-.18.18-.25.07-.28-.21-.11-.32.21-.39.14-.21-.14.18-.25.5-.35.78-.25s.46 0 .39-.25c-.04-.25.21-.39.53-.39.35.04.57-.04.46-.18-.18-.32 7.74-5 14.66-8.7 6.96-3.73 15.09-7.49 24.7-11.46 9.34-3.83 12.17-5.11 13.17-5.93q.67-.53-.6-.57Z"/></svg>