<?xml version="1.0" encoding="UTF-8"?>
<svg id="Capa_1" data-name="Capa 1" xmlns="http://www.w3.org/2000/svg" viewBox="0 0 1513.39 670.79">
  <defs>
    <style>
      .cls-1 {
        fill: #0019ff;
      }

      .cls-1, .cls-2 {
        font-family: Bungee-Regular, Bungee;
        font-size: 184.32px;
      }

      .cls-3 {
        opacity: .3;
      }

      .cls-3, .cls-4 {
        fill: #061128;
      }

      .cls-5 {
        fill: #0c1314;
      }

      .cls-6 {
        fill: #0e1c30;
      }

      .cls-7 {
        fill: #030d19;
      }

      .cls-2 {
        fill: #fff;
      }

      .cls-8 {
        fill: #000e1c;
      }

      .cls-9 {
        fill: #06121e;
      }

      .cls-10 {
        fill: #277aff;
      }
    </style>
  </defs>
  <g>
    <rect x=".54" y=".5" width="1512.36" height="669.8"/>
    <path d="M1512.4,1V669.8H1.04V1H1512.4m1-1H.04V670.8H1513.4V0h0Z"/>
  </g>
  <path class="cls-5" d="M1465.73,626.83s-1.15,18.7-2.57,32.64l3.24,.26,.15-32.86-.82-.04Z"/>
  <path class="cls-5" d="M1456.58,634.56s.82-6.88,6.69-7.81c.41-.04-5.99-1.6-8.56-.64-.67,.22,2.57-6.58,9.15-2.45,1.12,.75-2.42-4.23-2.42-4.23,0,0,4.65,.59,4.91,4.64,.04,.67,2.56-6.28,8.81-.48,.15,.11-6.55,1.56-6.39,1.82,.11,.26,7.96-1.34,8.18,5.47,0,.15-6.36-2.53-8.36-2.45-.18,0,6.02,3.15,2.71,10.25-.15,.34-4.1-2.93-4.65-7.43-.29-2.09-.26-3.5-.26-3.5,0,0-2.68,5.62-9.81,6.81Z"/>
  <polygon class="cls-9" points="1049.55 400.05 1049.74 400.05 1049.74 396.26 1049.55 396.26 1049.55 394.08 1049.55 391.1 1049.55 390.3 1049.55 390.25 1049.55 387.31 1049.55 385.13 1049.55 382.15 1049.55 381.34 1049.55 378.36 1049.55 376.18 1049.55 373.2 1049.55 372.39 1049.55 369.41 1049.55 367.23 1049.55 364.25 1049.55 363.44 1049.55 360.45 1049.55 358.28 1049.55 355.3 1049.55 354.49 1049.55 351.51 1049.55 350.2 1049.55 346.35 1049.55 342.55 1049.55 337.4 1049.55 333.6 1049.55 328.45 1049.55 324.65 1049.55 319.5 1049.55 315.7 1049.55 309.15 1049.55 297.96 1049.55 294.82 1049.55 291.25 1042.99 291.25 1042.99 294.82 962.61 294.82 962.61 291.46 956.04 291.46 956.04 294.82 956.04 298.18 956.04 309.15 956.04 315.7 956.04 319.5 956.04 324.65 956.04 328.45 956.04 333.6 956.04 337.4 956.04 342.55 956.04 346.35 956.04 351.51 956.04 355.3 956.04 360.45 956.04 364.25 956.04 369.41 956.04 373.2 956.04 378.36 956.04 382.15 956.04 387.31 956.04 391.1 956.04 396.26 956.04 400.05 956.04 405.21 956.04 409 956.04 414.16 956.04 417.95 956.04 423.11 956.04 426.9 956.04 432.06 956.04 435.85 956.04 441.01 956.04 444.8 956.04 449.96 956.04 453.75 956.04 458.91 956.04 462.7 956.04 467.86 956.04 471.66 956.04 476.81 956.04 480.6 956.04 485.77 956.04 489.55 956.04 494.71 956.04 498.51 956.04 503.66 956.04 507.46 956.04 512.62 956.04 516.41 956.04 521.56 956.04 525.36 956.04 530.52 956.04 534.31 956.04 539.47 956.04 543.26 956.04 548.42 956.04 552.21 956.04 557.37 956.04 561.16 956.04 566.32 956.04 570.11 956.04 575.27 956.04 579.06 956.04 584.22 956.04 588.01 956.04 593.17 956.04 596.96 956.04 602.12 956.04 605.91 956.04 611.07 956.04 614.86 956.04 620.02 956.04 623.81 956.04 628.97 956.04 632.77 956.04 637.92 956.04 641.71 956.04 646.88 956.04 650.66 956.04 655.82 956.04 659.62 956.04 662.19 968.62 662.19 981.83 662.19 981.83 662.4 997.96 662.4 1049.55 662.4 1049.74 662.4 1049.74 659.62 1049.74 655.82 1049.74 650.66 1049.74 646.88 1049.74 641.71 1049.74 637.92 1049.74 632.77 1049.74 628.97 1049.74 623.81 1049.74 620.02 1049.74 614.86 1049.74 611.07 1049.74 605.91 1049.74 602.12 1049.74 596.96 1049.74 593.17 1049.74 588.01 1049.74 586.39 1049.74 584.22 1049.55 584.22 1049.55 582.04 1049.55 579.06 1049.74 579.06 1049.74 575.27 1049.55 575.27 1049.55 573.09 1049.55 570.11 1049.74 570.11 1049.74 566.32 1049.55 566.32 1049.55 564.14 1049.55 561.16 1049.74 561.16 1049.74 557.37 1049.55 557.37 1049.55 555.19 1049.55 552.21 1049.74 552.21 1049.74 548.42 1049.55 548.42 1049.55 546.24 1049.55 543.26 1049.74 543.26 1049.74 539.47 1049.55 539.47 1049.55 537.29 1049.55 534.31 1049.74 534.31 1049.74 530.52 1049.55 530.52 1049.55 528.34 1049.55 525.36 1049.74 525.36 1049.74 521.56 1049.55 521.56 1049.55 519.39 1049.55 516.41 1049.74 516.41 1049.74 512.62 1049.55 512.62 1049.55 510.44 1049.55 507.46 1049.74 507.46 1049.74 503.66 1049.55 503.66 1049.55 501.49 1049.55 498.51 1049.74 498.51 1049.74 494.71 1049.55 494.71 1049.55 492.54 1049.55 489.55 1049.74 489.55 1049.74 485.77 1049.55 485.77 1049.55 483.59 1049.55 480.6 1049.74 480.6 1049.74 476.81 1049.55 476.81 1049.55 474.63 1049.55 471.66 1049.74 471.66 1049.74 467.86 1049.55 467.86 1049.55 465.69 1049.55 462.7 1049.74 462.7 1049.74 458.91 1049.55 458.91 1049.55 456.73 1049.55 453.75 1049.74 453.75 1049.74 449.96 1049.55 449.96 1049.55 447.79 1049.55 444.8 1049.74 444.8 1049.74 441.01 1049.55 441.01 1049.55 438.83 1049.55 435.85 1049.74 435.85 1049.74 432.06 1049.55 432.06 1049.55 429.88 1049.55 426.9 1049.74 426.9 1049.74 423.11 1049.55 423.11 1049.55 420.94 1049.55 417.95 1049.74 417.95 1049.74 414.16 1049.55 414.16 1049.55 411.98 1049.55 409 1049.74 409 1049.74 405.21 1049.55 405.21 1049.55 403.03 1049.55 400.05"/>
  <polygon class="cls-6" points="1126.75 381.24 1115.11 381.24 1107.15 381.24 1107.15 379.35 1107.15 377.07 1107.15 371.11 1107.15 368.82 1107.15 362.87 1107.15 360.58 1107.15 355.64 1107.15 355.6 1107.15 352.91 1078.87 352.91 1069.75 352.91 1041.39 352.91 1041.39 355.6 1041.39 355.64 1041.39 360.58 1041.39 362.87 1041.39 368.82 1041.39 371.11 1041.39 377.07 1041.39 379.35 1041.39 381.24 1031.53 381.24 1021.76 381.24 1021.76 383.98 1021.76 388.06 1021.76 390.35 1021.76 396.3 1021.76 398.59 1021.76 404.54 1021.76 406.83 1021.76 412.78 1021.76 415.07 1021.76 421.03 1021.76 423.31 1021.76 429.27 1021.76 431.56 1021.76 437.51 1021.76 439.8 1021.76 445.75 1021.76 448.04 1021.76 453.99 1021.76 456.28 1021.76 462.23 1021.76 464.52 1021.76 472.19 1021.76 474.48 1021.76 480.44 1021.76 482.73 1021.76 488.68 1021.76 490.96 1021.76 496.92 1021.76 499.21 1021.76 505.16 1021.76 507.45 1021.76 513.41 1021.76 515.69 1021.76 521.65 1021.76 523.94 1021.76 529.89 1021.76 532.18 1021.76 538.13 1021.76 540.42 1021.76 546.37 1021.76 548.66 1021.76 554.62 1021.76 556.91 1021.76 562.86 1021.76 565.15 1021.76 571.1 1021.76 573.39 1021.76 579.34 1021.76 581.63 1021.76 587.58 1021.76 589.87 1021.76 595.83 1021.76 598.12 1021.76 604.07 1021.76 606.36 1021.76 612.31 1021.76 614.6 1021.76 620.55 1021.76 622.84 1021.76 628.8 1021.76 631.09 1021.76 637.03 1021.76 639.32 1021.76 645.28 1021.76 647.56 1021.76 653.52 1021.76 655.81 1021.76 659.99 1031.53 659.99 1043.15 659.99 1048.36 659.99 1058.13 659.99 1069.75 659.99 1069.75 659.92 1071.93 659.92 1072.77 659.92 1075.77 659.92 1076.61 659.92 1078.79 659.92 1078.79 659.99 1088.55 659.99 1100.18 659.99 1105.39 659.99 1115.14 659.99 1126.77 659.99 1126.77 655.81 1126.77 653.52 1126.77 647.56 1126.77 645.28 1126.77 639.32 1126.77 637.03 1126.77 631.09 1126.77 628.8 1126.77 622.84 1126.77 620.55 1126.77 614.6 1126.77 612.31 1126.77 606.36 1126.77 604.07 1126.77 598.12 1126.77 595.83 1126.77 589.87 1126.77 587.58 1126.77 581.63 1126.77 579.34 1126.77 573.39 1126.77 571.1 1126.77 565.15 1126.77 562.86 1126.77 556.91 1126.77 554.62 1126.77 548.66 1126.77 546.37 1126.77 540.42 1126.77 538.13 1126.77 532.18 1126.77 529.89 1126.77 523.94 1126.77 521.65 1126.77 515.69 1126.77 513.41 1126.77 507.45 1126.77 505.16 1126.77 499.21 1126.77 496.92 1126.77 490.96 1126.77 488.68 1126.77 482.73 1126.77 480.44 1126.77 474.48 1126.77 472.19 1126.77 464.52 1126.77 462.23 1126.77 456.28 1126.77 453.99 1126.77 448.04 1126.77 445.75 1126.77 439.8 1126.77 437.51 1126.77 431.56 1126.77 429.27 1126.77 423.31 1126.77 421.03 1126.77 415.07 1126.77 412.78 1126.77 406.83 1126.77 404.54 1126.77 398.59 1126.77 396.3 1126.77 390.35 1126.77 388.06 1126.77 383.98 1126.77 381.24 1126.75 381.24"/>
  <polygon class="cls-9" points="1308.76 385.13 1308.76 385.97 1308.76 388.4 1308.76 388.73 1308.76 391.56 1308.76 391.89 1308.76 392.05 1308.76 392.38 1308.76 395.21 1308.76 395.55 1308.76 398.38 1308.76 398.69 1305.34 398.69 1305.34 399.02 1305.36 399.02 1305.36 400.88 1305.36 401.22 1305.36 403.77 1305.36 404.1 1305.36 406.93 1305.36 407.26 1305.36 410.09 1305.36 410.25 1305.2 410.25 1305 410.25 1304.33 410.25 1304.13 410.25 1303.47 410.25 1303.27 410.25 1302.6 410.25 1302.4 410.25 1301.74 410.25 1301.53 410.25 1301.32 410.25 1301.32 410.42 1301.32 410.42 1301.32 653.78 1301.32 653.79 1301.32 654.12 1301.32 654.63 1301.32 655.47 1301.32 658 1301.32 658.83 1301.32 643.4 1301.32 643.64 1301.32 650.09 1301.32 650.12 1301.32 650.94 1301.32 650.94 1301.32 651.77 1301.32 655.99 1301.32 656.83 1301.32 657.67 1301.32 660.24 1301.32 660.24 1301.98 660.24 1303.9 660.24 1304.56 660.24 1308.1 660.24 1308.43 660.24 1308.76 660.24 1310.98 660.24 1312.29 660.24 1312.95 660.24 1316.93 660.24 1317.58 660.24 1321.12 660.24 1321.77 660.24 1325.12 660.24 1325.77 660.24 1329.31 660.24 1329.96 660.24 1333.51 660.24 1334.16 660.24 1337.59 660.24 1338.25 660.24 1341.79 660.24 1342.44 660.24 1345.78 660.24 1346.43 660.24 1349.97 660.24 1350.63 660.24 1354.17 660.24 1354.82 660.24 1355.05 660.24 1355.05 660.4 1355.25 660.4 1355.25 660.24 1355.71 660.24 1355.71 660.4 1355.91 660.4 1355.91 660.24 1356.35 660.24 1356.35 660.4 1356.55 660.4 1356.55 660.24 1357 660.24 1357 660.4 1357.2 660.4 1357.2 660.24 1357.65 660.24 1357.65 660.4 1357.85 660.4 1357.85 660.24 1358.29 660.24 1358.29 660.4 1358.5 660.4 1358.5 660.24 1358.95 660.24 1358.95 660.4 1359.15 660.4 1359.15 660.24 1359.59 660.24 1359.59 660.4 1359.79 660.4 1359.79 660.24 1360.25 660.24 1360.25 660.4 1360.44 660.4 1360.44 660.24 1360.89 660.24 1360.89 660.4 1361.09 660.4 1361.09 660.24 1361.54 660.24 1361.54 660.4 1361.74 660.4 1361.74 660.24 1362.2 660.24 1362.2 660.4 1362.39 660.4 1362.39 660.24 1362.83 660.24 1362.83 660.4 1363.03 660.4 1363.03 660.24 1363.49 660.24 1363.49 660.4 1363.69 660.4 1363.69 660.24 1363.69 385.97 1363.69 385.13 1308.76 385.13"/>
  <polygon class="cls-9" points="1203.77 460.53 1203.92 460.53 1203.92 457.61 1203.77 457.61 1203.77 455.94 1203.77 453.64 1203.77 453.03 1203.77 452.99 1203.77 450.72 1203.77 449.05 1203.77 446.76 1203.77 446.14 1203.77 443.84 1203.77 442.16 1203.77 439.87 1203.77 439.25 1203.77 436.95 1203.77 435.28 1203.77 432.98 1203.77 432.36 1203.77 430.07 1203.77 428.39 1203.77 426.1 1203.77 425.47 1203.77 423.18 1203.77 422.18 1203.77 419.21 1203.77 416.29 1203.77 412.33 1203.77 409.4 1203.77 405.44 1203.77 402.52 1203.77 398.55 1203.77 395.63 1203.77 390.58 1203.77 381.97 1203.77 379.56 1203.77 376.81 1198.24 376.81 1198.24 379.56 1130.53 379.56 1130.53 376.98 1124.99 376.98 1124.99 379.56 1124.99 382.14 1124.99 390.58 1124.99 395.63 1124.99 398.55 1124.99 402.52 1124.99 405.44 1124.99 409.4 1124.99 412.33 1124.99 416.29 1124.99 419.21 1124.99 423.18 1124.99 426.1 1124.99 430.07 1124.99 432.98 1124.99 436.95 1124.99 439.87 1124.99 443.84 1124.99 446.76 1124.99 450.72 1124.99 453.64 1124.99 457.61 1124.99 460.53 1124.99 464.5 1124.99 467.42 1124.99 471.39 1124.99 474.3 1124.99 478.28 1124.99 481.19 1124.99 485.17 1124.99 488.08 1124.99 492.05 1124.99 494.97 1124.99 498.94 1124.99 501.85 1124.99 505.82 1124.99 508.74 1124.99 512.71 1124.99 515.63 1124.99 519.6 1124.99 522.51 1124.99 526.49 1124.99 529.4 1124.99 533.37 1124.99 536.29 1124.99 540.26 1124.99 543.18 1124.99 547.14 1124.99 550.06 1124.99 554.03 1124.99 556.95 1124.99 560.93 1124.99 563.84 1124.99 567.81 1124.99 570.72 1124.99 574.7 1124.99 577.61 1124.99 581.59 1124.99 584.5 1124.99 588.47 1124.99 591.39 1124.99 595.36 1124.99 598.28 1124.99 602.24 1124.99 605.16 1124.99 609.13 1124.99 612.05 1124.99 616.02 1124.99 618.93 1124.99 622.91 1124.99 625.82 1124.99 629.8 1124.99 632.71 1124.99 636.68 1124.99 639.6 1124.99 643.57 1124.99 646.48 1124.99 650.46 1124.99 653.37 1124.99 657.34 1124.99 660.26 1124.99 662.24 1135.59 662.24 1146.72 662.24 1146.72 662.4 1160.32 662.4 1203.77 662.4 1203.92 662.4 1203.92 660.26 1203.92 657.34 1203.92 653.37 1203.92 650.46 1203.92 646.48 1203.92 643.57 1203.92 639.6 1203.92 636.68 1203.92 632.71 1203.92 629.8 1203.92 625.82 1203.92 622.91 1203.92 618.93 1203.92 616.02 1203.92 612.05 1203.92 609.13 1203.92 605.16 1203.92 603.91 1203.92 602.24 1203.77 602.24 1203.77 600.57 1203.77 598.28 1203.92 598.28 1203.92 595.36 1203.77 595.36 1203.77 593.69 1203.77 591.39 1203.92 591.39 1203.92 588.47 1203.77 588.47 1203.77 586.79 1203.77 584.5 1203.92 584.5 1203.92 581.59 1203.77 581.59 1203.77 579.91 1203.77 577.61 1203.92 577.61 1203.92 574.7 1203.77 574.7 1203.77 573.02 1203.77 570.72 1203.92 570.72 1203.92 567.81 1203.77 567.81 1203.77 566.14 1203.77 563.84 1203.92 563.84 1203.92 560.93 1203.77 560.93 1203.77 559.24 1203.77 556.95 1203.92 556.95 1203.92 554.03 1203.77 554.03 1203.77 552.36 1203.77 550.06 1203.92 550.06 1203.92 547.14 1203.77 547.14 1203.77 545.48 1203.77 543.18 1203.92 543.18 1203.92 540.26 1203.77 540.26 1203.77 538.59 1203.77 536.29 1203.92 536.29 1203.92 533.37 1203.77 533.37 1203.77 531.7 1203.77 529.4 1203.92 529.4 1203.92 526.49 1203.77 526.49 1203.77 524.81 1203.77 522.51 1203.92 522.51 1203.92 519.6 1203.77 519.6 1203.77 517.92 1203.77 515.63 1203.92 515.63 1203.92 512.71 1203.77 512.71 1203.77 511.03 1203.77 508.74 1203.92 508.74 1203.92 505.82 1203.77 505.82 1203.77 504.15 1203.77 501.85 1203.92 501.85 1203.92 498.94 1203.77 498.94 1203.77 497.26 1203.77 494.97 1203.92 494.97 1203.92 492.05 1203.77 492.05 1203.77 490.38 1203.77 488.08 1203.92 488.08 1203.92 485.17 1203.77 485.17 1203.77 483.49 1203.77 481.19 1203.92 481.19 1203.92 478.28 1203.77 478.28 1203.77 476.6 1203.77 474.3 1203.92 474.3 1203.92 471.39 1203.77 471.39 1203.77 469.71 1203.77 467.42 1203.92 467.42 1203.92 464.5 1203.77 464.5 1203.77 462.83 1203.77 460.53"/>
  <polygon class="cls-9" points="120.67 622.45 120.67 582.06 122.55 582.06 122.55 580.38 120.67 580.38 120.67 570.57 120.67 570.57 118.9 570.57 118.78 570.57 118.78 520.33 117.43 520.33 116.3 520.33 115.7 520.33 114.68 520.33 114.68 492.8 114.69 492.8 114.69 488.46 114.42 488.46 113.49 488.46 109.35 485.39 109.34 485.39 90.8 471.67 72.25 485.39 72.25 485.39 72.22 485.41 68.11 488.46 67.13 488.46 67.13 492.8 67.13 520.33 66.24 520.33 65.78 520.33 65.51 520.33 64.43 520.33 63.03 520.33 63.03 570.57 62.92 570.57 61.15 570.57 61.15 580.38 59.43 580.38 59.43 582.06 61.15 582.06 61.15 583.75 61.15 584.75 61.15 585.99 61.15 587.47 61.15 588.72 61.15 590.19 61.15 591.44 61.15 592.91 61.15 594.16 61.15 595.63 61.15 596.88 61.15 598.36 61.15 599.6 61.15 601.08 61.15 602.32 61.15 603.8 61.15 605.05 61.15 606.53 61.15 607.77 61.15 609.25 61.15 610.49 61.15 611.97 61.15 613.21 61.15 614.69 61.15 615.94 61.15 617.42 61.15 618.66 61.15 620.13 61.15 621.38 61.15 622.45 54.57 622.45 54.57 660.64 126.66 660.64 126.66 622.45 120.67 622.45"/>
  <polygon class="cls-9" points="395.81 381.96 381.11 381.96 381.11 362.52 363.05 362.52 363.05 333.99 357.16 333.99 357.16 332.57 338.1 332.57 338.1 321.55 337.64 321.55 337.64 312.29 336.66 312.29 336.66 321.55 336.2 321.55 336.2 332.57 335.03 332.57 335.03 333.99 321.65 333.99 321.65 331.15 299.53 331.15 299.53 333.99 296.32 333.99 296.32 660.71 363.05 660.71 363.05 660.6 395.81 660.6 395.81 381.96"/>
  <polygon class="cls-9" points="526.46 612.26 526.46 523.59 540.5 523.59 540.5 442.04 555.15 442.04 555.15 282.64 566.49 282.64 566.49 268.51 584.92 268.51 584.92 259.26 631.32 259.26 631.32 268.51 637.26 268.51 637.26 282.64 637.26 296.76 637.26 442.04 637.26 459.29 637.26 523.59 637.26 530.36 637.26 612.26 637.26 618.69 637.26 660.75 453.16 660.75 453.16 612.26 526.46 612.26"/>
  <polygon class="cls-9" points="715.81 384.82 715.81 378.98 658.8 378.98 658.8 384.82 656.15 384.82 656.15 660.27 718.47 660.27 718.47 384.82 715.81 384.82"/>
  <polygon class="cls-9" points="864.69 347.99 805.57 347.99 805.57 353.76 798.17 353.76 798.17 662.57 873.45 662.57 873.45 353.76 864.69 353.76 864.69 347.99"/>
  <polygon class="cls-8" points="1033.37 326.16 1033.37 323.82 962.27 323.82 962.27 324.36 953.95 324.36 953.95 323.82 882.85 323.82 882.85 326.16 953.95 326.16 953.95 326.16 951.23 326.16 950.2 326.16 943.4 326.16 942.37 326.16 935.56 326.16 934.52 326.16 927.72 326.16 926.68 326.16 919.88 326.16 918.84 326.16 912.04 326.16 911.01 326.16 904.2 326.16 903.17 326.16 896.36 326.16 895.33 326.16 888.53 326.16 887.49 326.16 882.85 326.16 882.85 328.04 882.85 328.89 882.85 330.76 882.85 331.61 882.85 333.48 882.85 334.33 882.85 336.2 882.85 337.05 882.85 338.92 882.85 339.77 882.85 341.64 882.85 342.49 882.85 344.36 882.85 345.21 882.85 347.09 882.85 347.94 882.85 349.81 882.85 350.66 882.85 352.53 882.85 353.38 882.85 355.25 882.85 356.1 882.85 357.97 882.85 358.82 882.85 360.69 882.85 361.54 882.85 363.41 882.85 364.27 882.85 366.14 882.85 366.98 882.85 368.86 882.85 369.71 882.85 371.58 882.85 372.43 882.85 374.3 882.85 375.15 882.85 377.02 882.85 377.87 882.85 379.74 882.85 380.59 882.85 382.46 882.85 383.31 882.85 385.18 882.85 386.03 882.85 387.91 882.85 388.76 882.85 390.63 882.85 391.48 882.85 393.35 882.85 394.2 882.85 396.07 882.85 396.92 882.85 398.79 882.85 399.64 882.85 401.51 882.85 402.36 882.85 404.23 882.85 405.08 882.85 406.96 882.85 407.8 882.85 409.68 882.85 410.53 882.85 412.4 882.85 413.25 882.85 415.12 882.85 415.97 882.85 417.84 882.85 418.69 882.85 420.56 882.85 421.42 882.85 423.28 882.85 424.13 882.85 426 882.85 426.86 882.85 428.73 882.85 429.58 882.85 431.45 882.85 432.3 882.85 434.17 882.85 435.02 882.85 436.89 882.85 437.74 882.85 439.61 882.85 440.46 882.85 442.33 882.85 443.19 882.85 445.06 882.85 445.91 882.85 447.78 882.85 448.63 882.85 450.5 882.85 451.35 882.85 453.22 882.85 454.07 882.85 455.94 882.85 456.79 882.85 458.66 882.85 459.51 882.85 461.38 882.85 462.24 882.85 464.11 882.85 464.96 882.85 466.83 882.85 467.68 882.85 469.55 882.85 470.4 882.85 472.27 882.85 473.12 882.85 474.99 882.85 475.84 882.85 477.71 882.85 478.56 882.85 480.43 882.85 481.29 882.85 483.16 882.85 484 882.85 485.88 882.85 486.73 882.85 488.6 882.85 489.45 882.85 491.32 882.85 492.17 882.85 494.04 882.85 494.89 882.85 496.76 882.85 497.61 882.85 499.48 882.85 500.34 882.85 502.2 882.85 503.06 882.85 504.93 882.85 505.78 882.85 507.65 882.85 508.5 882.85 510.37 882.85 511.22 882.85 513.09 882.85 513.94 882.85 515.81 882.85 516.66 882.85 518.54 882.85 519.38 882.85 521.25 882.85 522.11 882.85 523.98 882.85 524.83 882.85 526.7 882.85 527.55 882.85 529.42 882.85 530.27 882.85 532.14 882.85 532.99 882.85 534.87 882.85 535.71 882.85 537.59 882.85 538.44 882.85 540.31 882.85 541.15 882.85 543.03 882.85 543.88 882.85 545.74 882.85 546.6 882.85 548.47 882.85 549.32 882.85 551.19 882.85 552.04 882.85 553.91 882.85 554.76 882.85 556.64 882.85 557.48 882.85 559.36 882.85 560.21 882.85 562.08 882.85 562.92 882.85 564.8 882.85 565.65 882.85 567.51 882.85 568.37 882.85 570.24 882.85 571.09 882.85 572.96 882.85 573.81 882.85 575.68 882.85 576.53 882.85 578.4 882.85 579.25 882.85 581.13 882.85 581.97 882.85 583.85 882.85 584.7 882.85 586.57 882.85 587.42 882.85 589.28 882.85 590.14 882.85 592.02 882.85 592.87 882.85 594.73 882.85 595.58 882.85 597.46 882.85 598.3 882.85 600.17 882.85 601.03 882.85 602.9 882.85 603.75 882.85 605.62 882.85 606.47 882.85 608.34 882.85 609.19 882.85 611.06 882.85 611.91 882.85 613.79 882.85 614.64 882.85 616.5 882.85 617.35 882.85 619.23 882.85 620.07 882.85 621.95 882.85 622.8 882.85 624.66 882.85 625.52 882.85 627.39 882.85 628.24 882.85 630.11 882.85 630.96 882.85 632.84 882.85 633.68 882.85 635.56 882.85 636.41 882.85 638.28 882.85 639.13 882.85 641 882.85 641.84 882.85 643.72 882.85 644.57 882.85 646.44 882.85 647.29 882.85 649.16 882.85 650.01 882.85 651.88 882.85 652.73 882.85 654.6 882.85 655.45 882.85 657.32 882.85 658.18 882.85 660.05 882.85 661.21 887.49 661.21 887.49 661.54 888.53 661.54 888.53 661.21 895.33 661.21 895.33 661.54 896.36 661.54 896.36 661.21 903.17 661.21 903.17 661.54 904.2 661.54 904.2 661.21 911.01 661.21 911.01 661.54 912.04 661.54 912.04 661.21 918.84 661.21 918.84 661.54 919.88 661.54 919.88 661.21 926.68 661.21 926.68 661.54 927.72 661.54 927.72 661.21 933.26 661.21 933.26 661.54 934.52 661.54 935.56 661.54 937.02 661.54 939.32 661.54 940.77 661.54 942.37 661.54 943.4 661.54 950.2 661.54 951.23 661.54 965.88 661.54 966.92 661.54 973.72 661.54 974.76 661.54 977.68 661.54 979.98 661.54 981.44 661.54 981.56 661.54 982.6 661.54 982.62 661.54 983.74 661.54 985.2 661.54 985.2 661.21 989.4 661.21 989.4 661.54 990.43 661.54 990.43 661.21 997.24 661.21 997.24 661.54 998.27 661.54 998.27 661.21 1005.08 661.21 1005.08 661.54 1006.12 661.54 1006.12 661.21 1012.92 661.21 1012.92 661.54 1013.96 661.54 1013.96 661.21 1020.76 661.21 1020.76 661.54 1021.8 661.54 1021.8 661.21 1028.6 661.21 1028.6 661.54 1029.63 661.54 1029.63 661.21 1033.37 661.21 1033.37 660.05 1033.37 658.18 1033.37 657.32 1033.37 655.45 1033.37 654.6 1033.37 652.73 1033.37 651.88 1033.37 650.01 1033.37 649.16 1033.37 647.29 1033.37 646.44 1033.37 644.57 1033.37 643.72 1033.37 641.84 1033.37 641 1033.37 639.13 1033.37 638.28 1033.37 636.41 1033.37 635.56 1033.37 633.68 1033.37 632.84 1033.37 630.96 1033.37 630.11 1033.37 628.24 1033.37 627.39 1033.37 625.52 1033.37 624.66 1033.37 622.8 1033.37 621.95 1033.37 620.07 1033.37 619.23 1033.37 617.35 1033.37 616.5 1033.37 614.64 1033.37 613.79 1033.37 611.91 1033.37 611.06 1033.37 609.19 1033.37 608.34 1033.37 606.47 1033.37 605.62 1033.37 603.75 1033.37 602.9 1033.37 601.03 1033.37 600.17 1033.37 598.3 1033.37 597.46 1033.37 595.58 1033.37 594.73 1033.37 592.87 1033.37 592.02 1033.37 590.14 1033.37 589.28 1033.37 587.42 1033.37 586.57 1033.37 584.7 1033.37 583.85 1033.37 581.97 1033.37 581.13 1033.37 579.25 1033.37 578.4 1033.37 576.53 1033.37 575.68 1033.37 573.81 1033.37 572.96 1033.37 571.09 1033.37 570.24 1033.37 568.37 1033.37 567.51 1033.37 565.65 1033.37 564.8 1033.37 562.92 1033.37 562.08 1033.37 560.21 1033.37 559.36 1033.37 557.48 1033.37 556.64 1033.37 554.76 1033.37 553.91 1033.37 552.04 1033.37 551.19 1033.37 549.32 1033.37 548.47 1033.37 546.6 1033.37 545.74 1033.37 543.88 1033.37 543.03 1033.37 541.15 1033.37 540.31 1033.37 538.44 1033.37 537.59 1033.37 535.71 1033.37 534.87 1033.37 532.99 1033.37 532.14 1033.37 530.27 1033.37 529.42 1033.37 527.55 1033.37 526.7 1033.37 524.83 1033.37 523.98 1033.37 522.11 1033.37 521.25 1033.37 519.38 1033.37 518.54 1033.37 516.66 1033.37 515.81 1033.37 513.94 1033.37 513.09 1033.37 511.22 1033.37 510.37 1033.37 508.5 1033.37 507.65 1033.37 505.78 1033.37 504.93 1033.37 503.06 1033.37 502.2 1033.37 500.34 1033.37 499.48 1033.37 497.61 1033.37 496.76 1033.37 494.89 1033.37 494.04 1033.37 492.17 1033.37 491.32 1033.37 489.45 1033.37 488.6 1033.37 486.73 1033.37 485.88 1033.37 484 1033.37 483.16 1033.37 481.29 1033.37 480.43 1033.37 478.56 1033.37 477.71 1033.37 475.84 1033.37 474.99 1033.37 473.12 1033.37 472.27 1033.37 470.4 1033.37 469.55 1033.37 467.68 1033.37 466.83 1033.37 464.96 1033.37 464.11 1033.37 462.24 1033.37 461.38 1033.37 459.51 1033.37 458.66 1033.37 456.79 1033.37 455.94 1033.37 454.07 1033.37 453.22 1033.37 451.35 1033.37 450.5 1033.37 448.63 1033.37 447.78 1033.37 445.91 1033.37 445.06 1033.37 443.19 1033.37 442.33 1033.37 440.46 1033.37 439.61 1033.37 437.74 1033.37 436.89 1033.37 435.02 1033.37 434.17 1033.37 432.3 1033.37 431.45 1033.37 429.58 1033.37 428.73 1033.37 426.86 1033.37 426 1033.37 424.13 1033.37 423.28 1033.37 421.42 1033.37 420.56 1033.37 418.69 1033.37 417.84 1033.37 415.97 1033.37 415.12 1033.37 413.25 1033.37 412.4 1033.37 410.53 1033.37 409.68 1033.37 407.8 1033.37 406.96 1033.37 405.08 1033.37 404.23 1033.37 402.36 1033.37 401.51 1033.37 399.64 1033.37 398.79 1033.37 396.92 1033.37 396.07 1033.37 394.2 1033.37 393.35 1033.37 391.48 1033.37 390.63 1033.37 388.76 1033.37 387.91 1033.37 386.03 1033.37 385.18 1033.37 383.31 1033.37 382.46 1033.37 380.59 1033.37 379.74 1033.37 377.87 1033.37 377.02 1033.37 375.15 1033.37 374.3 1033.37 372.43 1033.37 371.58 1033.37 369.71 1033.37 368.86 1033.37 366.98 1033.37 366.14 1033.37 364.27 1033.37 363.41 1033.37 361.54 1033.37 360.69 1033.37 358.82 1033.37 357.97 1033.37 356.1 1033.37 355.25 1033.37 353.38 1033.37 352.53 1033.37 350.66 1033.37 349.81 1033.37 347.94 1033.37 347.09 1033.37 345.21 1033.37 344.36 1033.37 342.49 1033.37 341.64 1033.37 339.77 1033.37 338.92 1033.37 337.05 1033.37 336.2 1033.37 334.33 1033.37 333.48 1033.37 331.61 1033.37 330.76 1033.37 328.89 1033.37 328.04 1033.37 326.16 1029.63 326.16 1028.6 326.16 1021.8 326.16 1020.76 326.16 1013.96 326.16 1012.92 326.16 1006.12 326.16 1005.08 326.16 998.27 326.16 997.24 326.16 990.43 326.16 989.4 326.16 982.6 326.16 981.56 326.16 974.76 326.16 973.72 326.16 966.92 326.16 965.88 326.16 962.27 326.16 962.27 326.16 1033.37 326.16"/>
  <polygon class="cls-6" points="1406.87 418.93 1406.23 418.93 1404.59 418.93 1403.94 418.93 1402.31 418.93 1401.66 418.93 1400.03 418.93 1399.39 418.93 1397.74 418.93 1397.74 416.49 1397.74 415.83 1397.74 411.81 1397.74 411.15 1397.74 409.46 1397.74 408.81 1397.74 406.79 1397.1 406.79 1395.47 406.79 1394.82 406.79 1393.19 406.79 1392.54 406.79 1390.91 406.79 1390.26 406.79 1388.62 406.79 1387.98 406.79 1386.35 406.79 1385.7 406.79 1384.07 406.79 1383.42 406.79 1381.78 406.79 1381.14 406.79 1379.5 406.79 1378.86 406.79 1377.22 406.79 1376.58 406.79 1374.94 406.79 1374.3 406.79 1372.66 406.79 1372.01 406.79 1370.38 406.79 1369.74 406.79 1368.09 406.79 1367.46 406.79 1365.82 406.79 1365.18 406.79 1363.54 406.79 1362.89 406.79 1361.26 406.79 1360.61 406.79 1358.98 406.79 1358.34 406.79 1356.7 406.79 1356.05 406.79 1354.41 406.79 1353.77 406.79 1352.93 406.79 1352.93 418.93 1352.13 418.93 1351.49 418.93 1349.85 418.93 1349.22 418.93 1348.57 418.93 1346.51 418.93 1346.51 420.51 1346.51 421.18 1346.51 423.22 1346.51 424.54 1346.51 425.15 1346.51 425.19 1346.51 425.85 1346.51 427.91 1346.51 429.87 1346.51 430.53 1346.51 432.59 1346.51 433.9 1346.51 434.51 1346.51 434.55 1346.51 435.21 1346.51 437.27 1346.51 439.23 1346.51 439.89 1346.51 441.95 1346.51 443.27 1346.51 443.88 1346.51 443.91 1346.51 444.58 1346.51 446.63 1346.51 448.6 1346.51 449.25 1346.51 451.31 1346.51 452.63 1346.51 453.24 1346.51 453.28 1346.51 453.94 1346.51 455.99 1346.51 457.96 1346.51 458.62 1346.51 460.68 1346.51 461.99 1346.51 462.61 1346.51 462.64 1346.51 463.3 1346.51 465.36 1346.51 467.32 1346.51 467.98 1346.51 470.04 1346.51 471.35 1346.51 471.96 1346.51 472.01 1346.51 472.67 1346.51 474.72 1346.51 476.69 1346.51 477.34 1346.51 479.4 1346.51 480.71 1346.51 481.33 1346.51 481.37 1346.51 482.02 1346.51 484.09 1346.51 486.04 1346.51 486.71 1346.51 488.77 1346.51 490.08 1346.51 490.69 1346.51 490.73 1346.51 491.39 1346.51 493.45 1346.51 495.41 1346.51 496.07 1346.51 498.13 1346.51 499.44 1346.51 500.06 1346.51 500.09 1346.51 500.75 1346.51 502.8 1346.51 504.77 1346.51 505.43 1346.51 507.49 1346.51 508.8 1346.51 509.42 1346.51 509.45 1346.51 510.12 1346.51 512.17 1346.51 514.14 1346.51 514.79 1346.51 516.85 1346.51 518.16 1346.51 518.78 1346.51 518.81 1346.51 519.47 1346.51 521.53 1346.51 523.5 1346.51 524.16 1346.51 526.22 1346.51 527.52 1346.51 528.14 1346.51 528.17 1346.51 528.84 1346.51 530.9 1346.51 532.86 1346.51 533.52 1346.51 535.58 1346.51 536.9 1346.51 537.51 1346.51 537.54 1346.51 538.2 1346.51 540.25 1346.51 542.22 1346.51 542.88 1346.51 544.94 1346.51 546.25 1346.51 546.87 1346.51 546.9 1346.51 547.56 1346.51 549.62 1346.51 551.58 1346.51 552.25 1346.51 554.3 1346.51 555.62 1346.51 556.23 1346.51 556.26 1346.51 556.93 1346.51 558.98 1346.51 560.95 1346.51 561.6 1346.51 563.67 1346.51 564.98 1346.51 565.59 1346.51 565.63 1346.51 566.29 1346.51 568.35 1346.51 570.31 1346.51 570.97 1346.51 573.03 1346.51 574.34 1346.51 574.95 1346.51 574.99 1346.51 575.66 1346.51 577.71 1346.51 579.67 1346.51 580.33 1346.51 581.37 1346.51 581.98 1346.51 582.39 1346.51 584.35 1346.51 585.02 1346.51 587.06 1343.6 587.06 1342.78 587.06 1340.14 587.06 1339.33 587.06 1336.69 587.06 1335.88 587.06 1333.23 587.06 1332.42 587.06 1329.78 587.06 1328.98 587.06 1326.02 587.06 1326.02 586.93 1326.02 584.96 1326.02 582.95 1326.02 582.3 1326.02 580.33 1326.02 578.33 1326.02 577.67 1326.02 575.71 1326.02 573.71 1326.02 573.05 1326.02 571.09 1326.02 569.08 1326.02 568.42 1326.02 568.35 1326.02 566.46 1326.02 564.46 1326.02 563.88 1326.02 563.8 1326.02 563.26 1326.02 561.84 1326.02 559.84 1326.02 559.17 1326.02 557.21 1326.02 555.21 1326.02 554.63 1326.02 554.55 1326.02 554.01 1326.02 552.59 1326.02 550.59 1326.02 549.92 1326.02 547.96 1326.02 545.96 1326.02 545.38 1326.02 545.3 1326.02 544.76 1326.02 543.34 1326.02 541.34 1326.02 540.68 1326.02 538.72 1326.02 536.72 1326.02 536.13 1326.02 536.05 1326.02 535.52 1326.02 534.09 1326.02 532.1 1326.02 531.44 1326.02 529.46 1326.02 527.47 1326.02 526.88 1326.02 526.81 1326.02 526.27 1326.02 524.84 1326.02 522.84 1326.02 522.18 1326.02 520.22 1326.02 518.22 1326.02 517.64 1326.02 517.56 1326.02 517.02 1326.02 515.6 1326.02 513.59 1326.02 512.94 1326.02 510.97 1326.02 508.98 1326.02 508.39 1326.02 508.31 1326.02 507.77 1326.02 506.35 1326.02 504.35 1326.02 503.81 1326.02 503.69 1326.02 501.72 1326.02 499.72 1326.02 499.14 1326.02 499.06 1326.02 498.52 1326.02 497.1 1326.02 495.1 1326.02 494.44 1326.02 492.48 1326.02 490.47 1326.02 489.89 1326.02 489.82 1326.02 489.27 1326.02 487.85 1326.02 485.86 1326.02 485.19 1326.02 483.23 1326.02 481.23 1326.02 480.64 1326.02 480.57 1326.02 480.03 1326.02 478.6 1326.02 476.6 1326.02 475.94 1326.02 473.98 1326.02 471.98 1326.02 471.39 1326.02 471.32 1326.02 470.78 1326.02 469.36 1326.02 467.35 1326.02 466.69 1326.02 464.73 1326.02 462.73 1326.02 462.15 1326.02 462.07 1326.02 461.53 1326.02 460.11 1326.02 458.11 1326.02 457.45 1326.02 455.48 1326.02 453.48 1326.02 452.9 1326.02 452.82 1326.02 452.28 1326.02 450.86 1326.02 448.86 1326.02 448.2 1326.02 446.24 1326.02 444.23 1326.02 443.65 1326.02 443.58 1326.02 443.03 1326.02 441.61 1326.02 439.61 1326.02 438.95 1326.02 437.27 1326.02 436.99 1326.02 434.99 1326.02 434.4 1326.02 434.33 1326.02 433.79 1326.02 432.36 1326.02 430.37 1326.02 429.71 1326.02 427.74 1326.02 425.74 1326.02 425.15 1326.02 425.08 1326.02 424.54 1326.02 423.11 1326.02 421.11 1326.02 420.51 1326.02 420.46 1326.02 418.93 1326.02 418.49 1326.02 416.49 1326.02 415.91 1326.02 415.83 1326.02 415.29 1326.02 413.87 1326.02 411.87 1326.02 411.2 1326.02 409.24 1326.02 407.24 1326.02 406.66 1326.02 406.58 1326.02 406.04 1326.02 404.62 1326.02 402.62 1326.02 401.96 1326.02 399.99 1326.02 397.99 1326.02 397.41 1326.02 397.34 1326.02 396.79 1326.02 395.37 1326.02 393.37 1326.02 392.71 1326.02 390.75 1326.02 388.75 1326.02 388.16 1326.02 388.09 1326.02 387.55 1326.02 386.12 1326.02 384.12 1326.02 383.46 1326.02 381.5 1326.02 379.5 1326.02 378.91 1326.02 378.84 1326.02 378.3 1326.02 376.88 1322.8 376.88 1322.16 376.88 1318.97 376.88 1318.97 374.87 1319 374.87 1319 374.21 1319 372.25 1318.97 372.25 1318.97 370.25 1319 370.25 1319 369.67 1319 369.59 1319 369.05 1319 367.63 1318.97 367.63 1318.97 365.63 1319 365.63 1319 364.97 1319 363 1318.97 363 1318.97 361.01 1319 361.01 1319 360.41 1319 360.34 1319 359.8 1319 358.38 1318.97 358.38 1318.97 356.37 1319 356.37 1319 355.72 1319 353.75 1319 351.76 1319 351.17 1319 351.09 1319 350.55 1319 349.13 1319 348.79 1318.97 348.79 1318.28 348.79 1317.63 348.79 1313.77 348.79 1313.13 348.79 1309.27 348.79 1308.63 348.79 1304.76 348.79 1304.11 348.79 1300.25 348.79 1299.61 348.79 1295.75 348.79 1295.11 348.79 1291.25 348.79 1290.6 348.79 1289.59 348.79 1286.74 348.79 1286.1 348.79 1282.24 348.79 1281.59 348.79 1277.73 348.79 1277.09 348.79 1274.24 348.79 1273.22 348.79 1272.59 348.79 1268.72 348.79 1268.08 348.79 1264.21 348.79 1263.58 348.79 1260.21 348.79 1260.21 349.13 1260.21 350.55 1260.21 351.09 1260.21 351.17 1260.21 351.76 1260.21 353.75 1260.21 355.72 1260.21 356.37 1260.21 358.38 1260.21 359.8 1260.21 360.34 1260.21 360.41 1260.21 361.01 1260.21 363 1260.21 364.97 1260.21 365.63 1260.21 367.63 1260.21 369.05 1260.21 369.59 1260.21 369.67 1260.21 370.25 1260.21 372.25 1260.21 374.21 1260.21 374.87 1260.21 376.88 1260.21 378.3 1260.21 378.84 1260.21 378.91 1260.21 379.5 1260.21 381.5 1260.21 383.46 1260.21 384.12 1260.21 386.12 1260.21 387.55 1260.21 388.09 1260.21 388.16 1260.21 388.75 1260.21 390.75 1260.21 392.71 1260.21 393.37 1260.21 395.37 1260.21 396.79 1260.21 397.34 1260.21 397.41 1260.21 397.99 1260.21 399.99 1260.21 401.96 1260.21 402.62 1260.21 404.62 1260.21 406.04 1260.21 406.58 1260.21 406.66 1260.21 406.79 1259.75 406.79 1259.75 406.66 1259.11 406.66 1259.11 406.79 1255.25 406.79 1255.25 406.66 1254.61 406.66 1254.61 406.79 1251.73 406.79 1251.73 409.24 1251.73 411.2 1251.73 411.87 1251.73 413.87 1251.73 415.29 1251.73 415.83 1251.73 415.91 1251.73 416.49 1251.73 418.49 1251.73 420.46 1251.73 421.11 1251.73 423.11 1251.73 425.08 1251.73 425.74 1251.73 427.74 1251.73 429.71 1251.73 430.37 1251.73 432.36 1251.73 434.33 1251.73 434.99 1251.73 436.99 1251.73 437.27 1251.73 438.95 1251.73 439.61 1251.73 441.61 1251.73 443.58 1251.73 444.23 1251.73 446.24 1251.73 448.2 1251.73 448.86 1251.73 450.86 1251.73 452.82 1251.73 453.48 1251.73 455.48 1251.73 457.45 1251.73 458.11 1251.73 460.11 1251.73 462.07 1251.73 462.73 1251.73 464.73 1251.73 466.69 1251.73 467.35 1251.73 469.36 1251.73 471.32 1251.73 471.98 1251.73 473.98 1251.73 475.94 1251.73 476.6 1251.73 478.6 1251.73 480.57 1251.73 481.23 1251.73 483.23 1251.73 485.19 1251.73 485.86 1251.73 487.85 1251.73 489.82 1251.73 490.47 1251.73 492.48 1251.73 494.44 1251.73 495.1 1251.73 497.1 1251.73 499.06 1251.73 499.72 1251.73 501.72 1251.73 503.69 1251.73 503.81 1251.73 504.35 1251.73 506.35 1251.73 508.31 1251.73 508.98 1251.73 510.97 1251.73 512.94 1251.73 513.59 1251.73 515.6 1251.73 517.56 1251.73 518.22 1251.73 520.22 1251.73 522.18 1251.73 522.84 1251.73 524.84 1251.73 526.81 1251.73 527.47 1251.73 529.46 1251.73 531.44 1251.73 532.1 1251.73 534.09 1251.73 536.05 1251.73 536.72 1251.73 538.72 1251.73 540.68 1251.73 541.34 1251.73 543.34 1251.73 545.3 1251.73 545.96 1251.73 547.96 1251.73 549.92 1251.73 550.59 1251.73 552.59 1251.73 554.55 1251.73 555.21 1251.73 557.21 1251.73 559.17 1251.73 559.84 1251.73 561.84 1251.73 563.8 1251.73 564.46 1251.73 566.46 1251.73 568.35 1251.73 568.42 1251.73 569.08 1251.73 571.09 1251.73 573.05 1251.73 573.71 1251.73 575.71 1251.73 577.67 1251.73 578.33 1251.73 580.33 1251.73 582.3 1251.73 582.95 1251.73 584.96 1251.73 586.93 1251.73 587.58 1251.73 589.57 1251.73 591.55 1251.73 592.2 1251.73 594.21 1251.73 596.17 1251.73 596.82 1251.73 598.82 1251.73 600.79 1251.73 601.46 1251.73 657.09 1251.73 659.06 1251.73 659.72 1251.73 661.64 1251.73 661.67 1299.26 661.67 1326.02 661.67 1326.02 661.76 1346.51 661.76 1397.48 661.76 1408.85 661.76 1408.85 659.09 1408.85 658.81 1408.85 658.15 1408.85 602.82 1408.85 600.76 1408.85 600.48 1408.85 599.82 1408.85 598.14 1408.85 595.79 1408.85 595.13 1408.85 593.18 1408.85 589.7 1408.85 589.03 1408.85 587.06 1408.85 585.02 1408.85 584.35 1408.85 582.39 1408.85 580.33 1408.85 579.67 1408.85 577.71 1408.85 575.66 1408.85 574.99 1408.85 573.03 1408.85 570.97 1408.85 570.31 1408.85 568.35 1408.85 566.29 1408.85 565.63 1408.85 563.67 1408.85 561.6 1408.85 560.95 1408.85 558.98 1408.85 556.93 1408.85 556.26 1408.85 554.3 1408.85 552.25 1408.85 551.58 1408.85 549.62 1408.85 547.56 1408.85 546.9 1408.85 544.94 1408.85 542.88 1408.85 542.22 1408.85 540.25 1408.85 538.2 1408.85 537.54 1408.85 535.58 1408.85 533.52 1408.85 532.86 1408.85 530.9 1408.85 528.84 1408.85 528.17 1408.85 526.22 1408.85 524.16 1408.85 523.5 1408.85 521.53 1408.85 519.47 1408.85 518.81 1408.85 516.85 1408.85 514.79 1408.85 514.14 1408.85 512.17 1408.85 510.12 1408.85 509.45 1408.85 507.49 1408.85 505.43 1408.85 504.77 1408.85 502.8 1408.85 500.75 1408.85 500.09 1408.85 498.13 1408.85 496.07 1408.85 495.41 1408.85 493.45 1408.85 491.39 1408.85 490.73 1408.85 488.77 1408.85 486.71 1408.85 486.04 1408.85 484.09 1408.85 482.02 1408.85 481.37 1408.85 479.4 1408.85 477.34 1408.85 476.69 1408.85 474.72 1408.85 472.67 1408.85 472.01 1408.85 471.75 1408.85 470.04 1408.85 467.98 1408.85 467.32 1408.85 465.36 1408.85 463.3 1408.85 462.64 1408.85 460.68 1408.85 458.62 1408.85 457.96 1408.85 455.99 1408.85 453.94 1408.85 453.28 1408.85 451.49 1408.85 451.31 1408.85 449.25 1408.85 448.6 1408.85 446.63 1408.85 444.58 1408.85 443.91 1408.85 441.95 1408.85 439.89 1408.85 439.23 1408.85 437.27 1408.85 436.96 1408.85 435.21 1408.85 434.55 1408.85 432.59 1408.85 430.53 1408.85 429.87 1408.85 427.91 1408.85 425.85 1408.85 425.19 1408.85 423.22 1408.85 421.18 1408.85 420.51 1408.85 418.93 1406.87 418.93"/>
  <polygon class="cls-8" points="75.04 554.99 75.04 554.17 90.86 545.22 106.68 554.17 106.68 554.99 109.91 554.99 109.91 555.77 116.87 555.77 116.87 659.01 109.91 659.01 78.77 659.01 71.81 659.01 71.81 554.99 75.04 554.99"/>
  <polygon class="cls-6" points="294.13 612.62 294.13 560.69 290.06 560.69 290.06 474.04 287.01 474.04 287.01 449.6 284.58 449.6 284.58 435.49 280.11 435.49 280.11 432.04 277.68 432.04 277.68 429.63 276.12 429.63 276.12 427.91 253 427.91 253 429.63 251.44 429.63 251.44 432.04 249.01 432.04 249.01 435.49 244.54 435.49 244.54 449.6 242.11 449.6 242.11 474.04 239.06 474.04 239.06 512.26 234.99 512.26 234.99 612.62 230.99 612.62 230.99 659.09 298.13 659.09 298.13 612.62 294.13 612.62"/>
  <path class="cls-6" d="M1219.1,413.81v-3.77h-3.67c-2.04-2.35-13.39-4.15-27.14-4.15s-25.09,1.8-27.14,4.15h-3.66v3.77h-15.45v247.77h94.03v-247.77h-16.99Z"/>
  <polygon class="cls-6" points="537.29 498.23 537.29 494.8 490.56 494.8 490.56 498.23 488.39 498.23 488.39 660.55 539.47 660.55 539.47 498.23 537.29 498.23"/>
  <polygon class="cls-10" points="834.01 498.23 834.01 494.8 787.28 494.8 787.28 498.23 785.1 498.23 785.1 660.55 836.19 660.55 836.19 498.23 834.01 498.23"/>
  <polygon class="cls-8" points="596.49 543.72 596.49 540.27 549.76 540.27 549.76 543.72 547.59 543.72 547.59 666.83 598.67 666.83 598.67 543.72 596.49 543.72"/>
  <path class="cls-6" d="M803.43,456v-3.14h-3.67c-2.04-1.95-13.39-3.45-27.14-3.45s-25.1,1.5-27.14,3.45h-3.66v3.14h-15.46v206.16h94.04v-206.16h-16.98Z"/>
  <polygon class="cls-6" points="428.77 464.66 428.77 462 423.83 462 423.83 455.87 423.13 455.87 423.13 455.61 414.83 455.61 414.83 454.91 413.29 454.91 413.29 453.98 409.14 453.98 409.14 454.91 398.13 454.91 398.13 455.61 394.21 455.61 394.21 422.31 391.79 422.31 391.79 455.61 385.48 455.61 385.48 455.87 385.05 455.87 385.05 462 383.44 462 383.44 467.04 375.48 467.04 375.48 662.4 393.2 662.4 420.79 662.4 438.52 662.4 438.52 464.66 428.77 464.66"/>
  <path class="cls-8" d="M870.58,589.9v-.18h-11.89v-173.66h11.89v-6.2h-47.58v-5.85h-61.44v5.85h-57.63v-5.85h-61.44v5.85h-29.72v253.6h273.62v-73.56h-15.82Zm-109.02-173.84v173.66h-44.29v-173.66h44.29Zm-143.32,0h24.25v7.92h-24.25v-7.92Z"/>
  <path class="cls-7" d="M692.04,610.51c-.14-1.52-1.39-2.72-2.95-2.72-.8,0-1.53,.31-2.07,.83-.54-.51-1.26-.83-2.06-.83s-1.51,.31-2.05,.81c-.32-.3-.72-.5-1.14-.64-1.26-3.74-4.75-6.46-8.92-6.46-5.07,0-9.2,3.99-9.44,9h-5.27c-.13-1.52-1.39-2.72-2.95-2.72-.8,0-1.53,.31-2.07,.83-.54-.51-1.26-.83-2.06-.83s-1.51,.31-2.04,.81c-.32-.3-.72-.5-1.14-.64-1.26-3.74-4.75-6.46-8.92-6.46-3.06,0-5.76,1.47-7.49,3.73-1.32-1.13-3.03-1.84-4.91-1.84-2.05,0-3.9,.8-5.27,2.13-1.36-1.33-3.22-2.13-5.27-2.13s-3.84,.78-5.19,2.06c-1.36-1.29-3.18-2.06-5.2-2.06-3.16,0-5.85,1.94-6.99,4.69-.38-.18-.8-.3-1.26-.3-.79,0-1.51,.31-2.04,.81-.32-.3-.72-.5-1.14-.64-1.26-3.74-4.75-6.46-8.92-6.46s-7.84,2.84-9.01,6.73c-.44-.26-.93-.45-1.48-.45-.22,0-.42,.08-.63,.12-1.18-2.65-3.83-4.51-6.93-4.51-2.05,0-3.9,.8-5.27,2.13-1.36-1.33-3.22-2.13-5.27-2.13s-3.84,.78-5.19,2.06c-1.36-1.29-3.18-2.06-5.2-2.06-3.17,0-5.85,1.94-6.99,4.69-.38-.18-.8-.3-1.25-.3-.81,0-1.53,.31-2.07,.83-.53-.52-1.26-.83-2.07-.83s-1.51,.3-2.04,.81c-.53-.51-1.25-.81-2.04-.81-1.56,0-2.81,1.2-2.95,2.72h-4.17v-7.06h-21.89V232.81h-1.06v-5.62h-6.48v-7.44h-80.98v7.44h-6.47v5.62h-1.06v291.48h-37.25v8.53h-6.94v1.61h0v130.22h42.06v.18h2.13v2.97h96.05v-2.95h220.33v-54.35h-29.14ZM419.28,226.57h.03v.61h-.03v-.61Z"/>
  <polygon class="cls-8" points="1150.54 270.61 1150.54 270.56 1150.54 262.4 1150.54 251.64 1150.54 250.74 1132.78 250.74 1132.78 242.38 1107.83 242.38 1093.33 242.38 1093.33 250.74 1070.08 250.74 1070.08 251.64 1070.08 270.56 1070.08 270.65 1070.08 289.58 1070.08 304.97 1070.08 308.58 1070.08 326.5 1070.08 346.52 1070.08 346.6 1070.08 365.53 1070.08 661.45 1071.52 661.45 1075.96 661.45 1077.39 661.45 1078.83 661.45 1083.27 661.45 1084.71 661.45 1086.15 661.45 1090.59 661.45 1092.02 661.45 1093.46 661.45 1097.91 661.45 1099.34 661.45 1100.77 661.45 1105.22 661.45 1106.66 661.45 1107.83 661.45 1112.27 661.45 1115.41 661.45 1119.85 661.45 1121.29 661.45 1122.72 661.45 1127.16 661.45 1128.6 661.45 1130.04 661.45 1134.48 661.45 1135.91 661.45 1137.35 661.45 1141.79 661.45 1143.23 661.45 1144.54 661.45 1148.98 661.45 1150.54 661.45 1151.98 661.45 1156.42 661.45 1157.86 661.45 1157.86 375.74 1157.86 375.72 1157.86 364.91 1157.86 354.21 1157.86 354.18 1157.86 354.16 1157.86 343.38 1157.86 332.66 1157.86 332.64 1157.86 332.63 1157.86 321.83 1157.86 311.1 1157.86 311.08 1157.86 311.05 1157.86 300.22 1157.86 289.59 1157.86 289.53 1157.86 281.37 1157.86 270.65 1157.86 270.61 1150.54 270.61"/>
  <path class="cls-8" d="M1280.55,288.96h-36.19v8.82h-3.46v.02h-14.61v-.02h-3.68v.02h-17.22v-.02h-3.69v.02h-14.99v372.08h91.61v-6.51h2.42v-2.25h-.74v-2.88h.74v-1.03h-2.42v-3.94h2.42v-2.25h-.74v-1.26h.74v-1.03h-2.42v-5.56h2.42v-2.26h-.74v-1.34h.74v-1.03h-2.42v-5.48h2.42v-2.26h-.74v-1.4h.74v-1.03h-2.42v-5.42h2.42v-2.25h-.74v-1.75h.74v-1.03h-2.42v-5.08h2.42v-2.26h-.74v-2.08h.74v-1.03h-2.42v-4.73h2.42v-2.26h-.74v-2.42h.74v-1.03h-2.42v-4.39h2.42v-2.26h-.74v-1.19h.74v-1.03h-2.42v-5.63h2.42v-2.25h-.74v-1.23h.74v-1.04h-2.42v-5.59h2.42v-2.25h-.74v-1.58h.74v-1.03h-2.42v-5.24h2.42v-2.26h-.74v-1.91h.74v-1.03h-2.42v-4.9h2.42v-2.26h-.74v-1.37h.74v-1.03h-2.42v-5.45h2.42v-2.26h-.74v-1.71h.74v-1.03h-2.42v-5.11h2.42v-2.25h-.74v-2.05h.74v-1.04h-2.42v-4.77h2.42v-2.26h-.74v-2.39h.74v-1.03h-2.42v-4.43h2.42v-2.25h-.74v-2.79h.74v-1.03h-2.42v-3.38h2.42v-2.25h-.74v-1.17h.74v-1.04h-2.42v-5.65h2.42v-2.26h-.74v-1.51h.74v-1.03h-2.42v-5.31h2.42v-2.25h-.74v-1.85h.74v-1.03h-2.42v-4.97h2.42v-2.25h-.74v-2.19h.74v-1.03h-2.42v-4.63h2.42v-2.25h-.74v-2.54h.74v-1.03h-2.42v-4.28h2.42v-2.26h-.74v-2.88h.74v-1.03h-2.42v-3.94h2.42v-2.26h-.74v-3.22h.74v-1.03h-2.42v-3.6h2.42v-2.26h-.74v-3.04h.74v-1.03h-2.42v-3.77h2.42v-2.26h-.74v-3.39h.74v-1.03h-2.42v-3.43h2.42v-2.26h-.74v-1.63h.74v-1.03h-2.42v-5.18h2.42v-112.2h-.2Zm-1.57,369.28v2.88h-.65v-2.88h.65Zm0-7.23h-.65v-1.26h.65v1.26Zm0-11.45v1.34h-.65v-1.34h.65Zm0-10.18v1.4h-.65v-1.4h.65Zm0-10.45v1.75h-.65v-1.75h.65Zm0-10.45v2.08h-.65v-2.08h.65Zm0-10.45v2.42h-.65v-2.42h.65Zm0-7.68h-.65v-1.19h.65v1.19Zm0-11.34v1.23h-.65v-1.23h.65Zm0-10.46v1.58h-.65v-1.58h.65Zm0-10.45v1.91h-.65v-1.91h.65Zm0-9.56v1.37h-.65v-1.37h.65Zm0-10.45v1.71h-.65v-1.71h.65Zm0-10.45v2.05h-.65v-2.05h.65Zm0-10.45v2.39h-.65v-2.39h.65Zm0-10.51v2.79h-.65v-2.79h.65Zm0-7.83v1.17h-.65v-1.17h.65Zm0-10.46v1.51h-.65v-1.51h.65Zm0-10.45v1.85h-.65v-1.85h.65Zm0-10.45v2.19h-.65v-2.19h.65Zm0-10.45v2.54h-.65v-2.54h.65Zm0-10.45v2.88h-.65v-2.88h.65Zm0-10.45v3.22h-.65v-3.22h.65Zm0-9.94v3.04h-.65v-3.04h.65Zm0-10.45v3.39h-.65v-3.39h.65Zm0-8.35v1.63h-.65v-1.63h.65Z"/>
  <polygon class="cls-7" points="1049.79 400.54 1049.79 400.54 1030.12 400.54 1030.12 400.54 1030.12 398.58 1015.22 398.58 1015.22 394.66 1006.05 394.66 1006.05 390.09 994.16 390.09 994.13 387.47 994.16 387.47 994.16 375.72 993.98 375.72 993.71 353.43 993.71 346.97 993.63 346.97 993.35 324.19 993.35 318.23 993.28 318.23 993 295.39 993 289.48 992.93 289.48 992.84 282.3 991.18 282.3 991.09 289.48 991.02 289.48 991.02 295.39 990.74 318.23 990.67 318.23 990.67 323.75 990.39 346.97 990.31 346.97 990.31 352.99 990.03 375.72 989.86 375.72 989.86 387.47 989.89 387.47 989.86 390.09 984.27 390.09 984.27 398.58 966.97 398.58 966.97 400.54 966.97 400.54 947.43 400.54 947.43 400.54 945.89 400.54 945.89 659.89 947.43 659.89 947.43 660.85 957.51 660.85 967.11 660.85 1008.23 660.85 1010.09 661.04 1038.13 660.85 1040.1 660.85 1048.11 660.85 1049.79 660.85 1049.79 660.85 1051.33 660.85 1051.33 659.89 1051.33 426.67 1051.33 400.54 1049.79 400.54"/>
  <path class="cls-7" d="M1206.3,634.42v-3.8h-.74v-1.41h.42v-.54h-.42v-.05h.26l-1.06-4.3-1.06,4.3h.27v.05h-.29v.54h.29v1.41h-1.24v-1.41h.41v-.54h-.41v-.05h.26l-1.06-4.3-1.07,4.3h.27v.05h-.3v.54h.3v1.41h-22.11v-89.65h.7v-.88h-.7v-.36h-.71v-2.3h.71v-.89h-.71v-4.96h.85v-.62h-.47c0-1.01-1.06-1.83-2.5-2.13-.03-.46-.32-.83-.73-.98v-.51c.14-.12,.25-.28,.25-.48,0-.27-.19-.47-.43-.56v-1.48h-.4v1.47c-.26,.09-.47,.29-.47,.57,0,.2,.1,.36,.25,.48v.52c-.39,.16-.66,.53-.69,.97-.83,.17-1.5,.51-1.95,.97v-18.01h2.14v-1.13h-1.09v-.47h-3.16v-1.57h.42v-.54h-.42v-.06h.26l-1.06-4.3-1.06,4.3h.27v.06h-.3v.54h.3v.24h-2.84v-5.75h.64v-1.21h-.39v-.93h-.25v-1.9h.18v-.93h-.18v-10.03h.08v-1.3h-.08v-3.6h1.4v-2.25h-.97v-2.83h-.49v-1.04h.24v-.41h.39v-.59h-.39v-.18h-.81v-5.88h.84v-.51h.32v-.38h-1.58v-2.18h.36v-.55h-.39c-.16-3.25-1.63-6.07-3.9-7.56h0l-.1-.07c-.05-.03-.09-.07-.15-.11l-.3-.21h.33v-.53h.2v-.64h-.66v-.46h-.63v-4.42h.63v-.49h.14v-.46h.43v-.55h-.25v-.43h.25v-.63h-.3c-.13-1.46-1.27-2.6-2.74-2.72v-.91h.27v-.43h-.27v-.71c.51-.11,.91-.55,.91-1.1h.64v.34h.16v-.34h1.1c.04,.06,.06,.14,.14,.14s.1-.08,.14-.14h.02v-.02s.06-.03,.06-.07c0-.13-.1-.23-.23-.23-.12,0-.19,.1-.21,.21h-1.03v-.34h-.16v.34h-.66c-.05-.5-.41-.89-.89-.99v-.52h.27v-.43h-.27v-.25h-.12v-1.31c.69-.1,1.21-.48,1.37-.98h.39v-.17h.25v-.11h.72v-.12h0l-2.52-5.97h.11l-.55-1.04-.09-.21v-.02h.06v-.17h-.24v.17h.06v4.1l-.65-1.22h.05v-.17h-.24v.17h.06v.08h-.05l-1.49,4.28h-.58v.12h.55v.06h.61v.65h.41c.32,.35,.83,.6,1.45,.6,.04,0,.07-.01,.11-.02v1.28h-.11v.25h-.28v.43h.28v.52c-.49,.1-.85,.49-.91,.99h-1.48v-.34h-.16v.34h-.1v-.34h-.16v.34h-.15c-.03-.17-.17-.31-.34-.31-.2,0-.36,.16-.36,.36s.16,.36,.36,.36c.18,0,.31-.14,.34-.31h.15v.34h.16v-.34h.1v.34h.16v-.34h1.46c0,.55,.4,.99,.93,1.1v.71h-.28v.43h.28v.9c-1.47,.11-2.62,1.25-2.74,2.72h-.3v.63h.25v.43h-.25v.55h.43v.46h.15v.49h.63v4.42h-.63v.46h-.66v.64h.2v.53h.43l-.3,.18c-.05,.03-.1,.06-.15,.09l-.19,.12h.03c-2.27,1.49-3.74,4.31-3.9,7.56h-.58v.55h.54v2.18h-1.76v.38h.33v.51h1.02v5.88h-.76v.18h-.39v.59h.39v.41h.23v1.04h-.49v2.83h-.87v2.25h1.57v3.6h-.1v1.3h.1v10.03h-.24v.93h.24v1.9h-.24v.93h-.46v1.21h.7v5.75h-2.99v-.24h.41v-.54h-.41v-.06h.27l-1.07-4.3-1.06,4.3h.27v.06h-.3v.54h.3v1.57h-3.16v.47h-1.09v1.13h2.21v18.19c-.43-.55-1.18-.95-2.12-1.15-.03-.46-.31-.83-.72-.98v-.51c.14-.12,.25-.28,.25-.48,0-.27-.2-.47-.43-.56v-1.48h-.4v1.47c-.26,.09-.47,.29-.47,.57,0,.2,.1,.36,.25,.48v.52c-.39,.16-.66,.53-.69,.97-1.47,.29-2.55,1.12-2.55,2.14h-.2v.62h.62v4.96h-.62v.89h.62v2.3h-.62v.36h-.7v.88h.7v89.65h-22.38v-1.41h.42v-.54h-.42v-.05h.26l-1.06-4.3-1.08,4.3h.27v.05h-.29v.54h.29v1.41h-1.24v-1.41h.41v-.54h-.41v-.05h.26l-1.06-4.3-1.06,4.3h.27v.05h-.29v.54h.29v1.41h-.47v3.8h-2.26v3.07h2.26v28.54h98.16v-28.54h2.27v-3.07h-2.27Zm-46.44-195.46h-2.95v-.62h1.23l-.43-.81h1.53l-2.33-4.35v-.19h.43l2.52,5.97Zm-3.06,0h-.65v-.62h.65v.62Zm-.78-4.13v4.13h-1.43l1.43-4.13Zm-.27,18.93c0-.3,.1-.51,.22-.61,.15,.1,.27,.31,.27,.61v3.04h-.49v-3.04Zm.8,0c0-.38,.26-.7,.58-.7s.57,.31,.57,.7v3.04h-1.15v-3.04Zm1.51,0c0-.29,.12-.5,.26-.6,.12,.1,.22,.31,.22,.6v3.04h-.48v-3.04Zm-2.38,37.57c0-.95,.77-1.73,1.73-1.73s1.73,.77,1.73,1.73-.77,1.73-1.73,1.73-1.73-.77-1.73-1.73Zm-1.4,18.84h0v-.53h0v.53Zm12.65,0v-.53h.53v.53h-.53Zm-.53,0h-.53v-.53h.53v.53Zm-12.12-1.33h0v-4.54h0v4.54Zm-5.6,1.33h-.54v-.53h.54v.53Zm-1.06,0h-.54v-.53h.54v.53Zm28.28,23.67v2.69h-1.65v-2.69c0-.85,.33-1.52,.76-1.59h.12c.43,.06,.76,.74,.76,1.59Zm-7.58-23.67h-.32v-.53h.32v.53Zm-14.04-26.98h0v3.6h0v-3.6Zm-8.13,26.45h.41v.53h-.41v-.53Zm-7.69,24.2c0-.85,.33-1.52,.76-1.59h.12c.43,.06,.76,.74,.76,1.59v2.69h-1.64v-2.69Z"/>
  <polygon class="cls-8" points="1441.17 645.11 1441.17 645.07 1441.74 645.07 1441.74 642.56 1442.78 642.56 1442.78 532.48 1433.04 532.48 1433.04 529.55 1410.78 529.55 1410.78 532.48 1401.05 532.48 1401.05 642.56 1402.65 642.56 1402.65 643.59 1402.65 645.11 1392.66 645.11 1392.66 659.97 1451.89 659.97 1451.89 645.11 1441.17 645.11"/>
  <path class="cls-8" d="M1374.86,494.03v1.27h-14.24v-4.65h-44.75v4.65h-14.24v-1.27h-3.94v170.68h81.11v-170.68h-3.94Zm0,2.26v.09h-11.45v-.09h11.45Zm-27.34,0v.09h-18.28v-.09h18.28Zm13.67,.09h-11.44v-.09h11.44v.09Zm-34.18-.09v.09h-11.44v-.09h11.44Zm-25.37,0h11.7v.09h-11.7v-.09Z"/>
  <polygon class="cls-4" points="1373.19 657.05 1373.19 647.28 1373.19 646.63 1373.19 633.68 1373.19 631.58 1373.19 630.11 1373.19 628.03 1373.19 625.92 1373.19 624.46 1373.19 611.15 1373.19 609.25 1373.19 606.79 1373.19 606.79 1286.11 603.55 1287.41 610.01 1283.13 610.17 1283.5 607.96 1283.49 607.96 1283.5 607.93 1260.59 607.2 1260.62 606.79 1259.09 606.79 1259.32 604.12 1247.89 604.12 1247.89 643.39 1247.89 643.39 1247.89 645.32 1247.89 646.63 1247.89 646.63 1247.89 647.28 1247.89 647.28 1247.89 650.52 1247.89 656.36 1247.89 657.05 1242.51 657.05 1242.51 658.11 1243.8 658.11 1243.8 659.17 1243.8 661.81 1246.05 661.81 1247.2 661.81 1248.87 661.81 1250.02 661.81 1251.7 661.81 1252.84 661.81 1254.52 661.81 1255.67 661.81 1257.35 661.81 1258.5 661.81 1260.18 661.81 1261.33 661.81 1263 661.81 1264.15 661.81 1265.82 661.81 1266.98 661.81 1268.66 661.81 1269.8 661.81 1271.48 661.81 1272.63 661.81 1274.31 661.81 1275.45 661.81 1277.13 661.81 1278.27 661.81 1279.95 661.81 1281.11 661.81 1282.78 661.81 1283.93 661.81 1285.61 661.81 1286.76 661.81 1288.44 661.81 1289.58 661.81 1291.26 661.81 1292.41 661.81 1294.09 661.81 1295.23 661.81 1296.91 661.81 1298.06 661.81 1299.74 661.81 1300.88 661.81 1302.56 661.81 1303.71 661.81 1305.38 661.81 1306.54 661.81 1308.21 661.81 1309.36 661.81 1311.04 661.81 1312.19 661.81 1313.87 661.81 1329.4 661.81 1330.81 661.81 1331.97 661.81 1333.65 661.81 1334.79 661.81 1336.47 661.81 1337.62 661.81 1339.3 661.81 1340.44 661.81 1342.12 661.81 1343.27 661.81 1344.95 661.81 1346.1 661.81 1347.77 661.81 1348.92 661.81 1350.6 661.81 1351.75 661.81 1353.42 661.81 1354.57 661.81 1356.25 661.81 1357.4 661.81 1359.08 661.81 1360.23 661.81 1361.9 661.81 1363.05 661.81 1364.73 661.81 1365.87 661.81 1367.55 661.81 1368.7 661.81 1370.38 661.81 1371.53 661.81 1373.2 661.81 1374.35 661.81 1376.03 661.81 1377.18 661.81 1377.92 661.81 1377.92 659.17 1377.92 658.11 1379.2 658.11 1379.2 657.05 1373.19 657.05"/>
  <polygon class="cls-7" points="249.64 403.48 249.64 402.72 249.64 401.96 249.75 401.96 249.75 399.68 249.64 399.68 249.64 387.54 249.64 386.71 249.64 384.5 249.64 383.68 249.64 382.98 249.64 382.98 249.64 380.7 249.64 380.7 249.64 379.94 249.64 379.76 249.64 379.19 249.64 379.19 249.64 376.91 249.64 376.91 249.64 376.09 249.64 375.39 249.64 375.39 249.64 373.11 249.64 373.11 249.64 372.35 249.64 371.59 249.64 371.59 249.64 369.32 249.64 369.32 249.64 368.49 249.64 367.8 249.64 367.8 249.64 365.52 249.64 365.52 249.64 364.76 249.64 364 249.64 363.94 249.64 361.73 249.64 360.9 249.64 360.21 249.64 357.93 249.64 357.17 249.67 357.17 249.67 356.35 249.64 356.35 249.64 354.13 249.64 353.44 248.68 353.31 248.55 353.31 242.58 352.61 242.59 352.61 236.8 351.94 217.12 349.64 216.59 353.31 216.58 353.31 216.46 354.13 216.14 356.35 216.13 356.35 216.03 357.17 216.03 357.17 215.92 357.93 215.91 357.93 215.58 360.21 215.58 360.21 215.48 360.91 215.34 361.73 215.36 361.73 215.21 362.77 214.39 362.77 212.43 362.77 210.88 362.77 208.92 362.77 207.21 362.77 205.25 362.77 203.7 362.77 201.73 362.77 200.02 362.77 198.06 362.77 197.52 362.77 197.52 363.05 197.51 363.05 197.15 367.23 184.96 367.23 160.16 367.23 160.16 371.41 158.06 371.41 156.41 371.41 150.25 371.41 150.25 373.17 150.25 374.57 150.25 378.05 150.25 379.76 149.82 379.76 148.07 379.76 147.2 379.76 145.46 379.76 144.59 379.76 142.85 379.76 141.98 379.76 140.24 379.76 139.36 379.76 137.62 379.76 136.75 379.76 135.01 379.76 134.14 379.76 132.39 379.76 131.52 379.76 129.78 379.76 128.91 379.76 127.17 379.76 126.29 379.76 124.55 379.76 123.68 379.76 121.94 379.76 121.07 379.76 119.33 379.76 118.45 379.76 116.71 379.76 115.84 379.76 114.97 379.76 114.97 380.7 114.97 382.98 114.97 383.68 114.97 384.5 114.97 386.71 114.97 386.78 114.97 387.54 114.97 388.29 114.97 390.57 114.97 391.27 114.97 392.09 114.97 394.3 114.97 394.37 114.97 395.13 114.97 395.89 114.97 398.17 114.97 398.86 114.97 399.68 114.97 401.9 114.97 401.96 114.97 402.72 114.97 403.48 114.97 405.75 114.97 406.45 114.97 407.27 114.97 409.49 114.97 409.55 114.97 410.31 114.97 411.07 114.97 413.35 114.97 414.04 114.97 414.87 114.97 417.08 114.97 417.14 114.97 417.9 114.97 418.66 114.97 420.94 114.97 421.64 114.97 422.46 114.97 424.67 114.97 424.73 114.97 425.49 114.97 426.25 114.97 428.53 114.97 429.22 114.97 430.05 114.97 432.26 114.97 432.32 114.97 433.08 114.97 433.84 114.97 436.12 114.97 436.82 114.97 437.64 114.97 439.85 114.97 439.92 114.97 440.67 114.97 441.44 114.97 443.71 114.97 444.41 114.97 445.23 114.97 447.44 114.97 447.51 114.97 448.27 114.97 449.03 114.97 451.3 114.97 452 114.97 452.82 114.97 455.04 114.97 455.1 114.97 455.86 114.97 456.62 114.97 458.9 114.97 459.59 114.97 460.41 114.97 462.63 114.97 462.69 114.97 463.45 114.97 464.21 114.97 466.49 114.97 467.18 114.97 468 114.97 470.22 114.97 470.28 114.97 471.04 114.97 471.8 114.97 474.08 114.97 474.77 114.97 475.6 114.97 477.81 114.97 477.87 114.97 478.63 114.97 479.39 114.97 481.67 114.97 482.37 114.97 483.19 114.97 485.4 114.97 485.47 114.97 486.23 114.97 486.98 114.97 489.26 114.97 489.96 114.97 490.78 114.97 493 114.97 493.06 114.97 493.81 114.97 495 114.97 497.28 114.97 498.31 114.97 499.13 114.97 501.34 114.97 501.4 114.97 502.17 114.97 502.93 114.97 505.2 114.97 505.9 114.97 506.72 114.97 508.93 114.97 509 114.97 509.76 114.97 510.52 114.97 512.79 114.97 513.49 114.97 514.31 114.97 516.52 114.97 516.59 114.97 517.35 114.97 518.11 114.97 520.39 114.97 521.08 114.97 521.9 114.97 524.12 114.97 524.18 114.97 524.94 114.97 525.7 114.97 527.98 114.97 528.67 114.97 529.49 114.97 531.71 114.97 531.77 114.97 532.53 114.97 533.29 114.97 535.57 114.97 537.09 114.97 539.3 114.97 539.37 114.97 540.13 114.97 540.88 114.97 543.16 114.97 543.86 114.97 544.68 114.97 546.89 114.97 546.96 114.97 547.72 114.97 548.47 114.97 550.75 114.97 551.44 114.97 552.27 114.97 554.48 114.97 554.55 114.97 555.3 114.97 556.07 114.97 558.34 114.97 559.04 114.97 559.86 114.97 562.08 114.97 562.14 114.97 562.9 114.97 563.66 114.97 565.94 114.97 566.63 114.97 567.46 114.97 569.67 114.97 569.73 114.97 570.49 114.97 571.25 114.97 573.52 114.97 574.22 114.97 575.04 114.97 577.26 114.97 577.33 114.97 578.08 114.97 578.84 114.97 581.12 114.97 581.81 114.97 582.64 114.97 584.85 114.97 584.91 114.97 585.67 114.97 586.43 114.97 588.7 114.97 589.41 114.97 590.23 114.97 592.45 114.97 592.5 114.97 593.26 114.97 594.02 114.97 596.3 114.97 597 114.97 597.82 114.97 600.03 114.97 600.09 114.97 600.86 114.97 601.61 114.97 603.89 114.97 604.58 114.97 605.41 114.97 607.63 114.97 607.69 114.97 608.44 114.97 609.2 114.97 611.49 114.97 612.18 114.97 613.01 114.97 615.22 114.97 615.28 114.97 616.04 114.97 616.79 114.97 619.07 114.97 619.77 114.97 620.59 114.97 622.81 114.97 622.87 114.97 623.63 114.97 624.39 114.97 626.67 114.97 627.36 114.97 628.18 114.97 630.4 114.97 630.46 114.97 631.22 114.97 631.98 114.97 634.26 114.97 634.95 114.97 635.78 114.97 637.99 114.97 638.05 114.97 638.81 114.97 639.57 114.97 641.85 114.97 642.55 114.97 643.37 114.97 645.58 114.97 645.64 114.97 646.4 114.97 647.16 114.97 649.44 114.97 650.14 114.97 650.96 114.97 653.18 114.97 653.23 114.97 654 114.97 654.76 114.97 657.03 114.97 657.73 114.97 658.55 114.97 660.76 114.97 660.83 114.97 661.59 114.97 662.16 115.84 662.16 116.71 662.16 118.45 662.16 119.33 662.16 121.07 662.16 121.94 662.16 123.68 662.16 124.55 662.16 126.29 662.16 127.17 662.16 128.91 662.16 129.78 662.16 131.52 662.16 132.39 662.16 134.14 662.16 135.01 662.16 136.75 662.16 137.62 662.16 139.36 662.16 140.24 662.16 141.98 662.16 142.85 662.16 144.59 662.16 145.46 662.16 147.2 662.16 148.07 662.16 149.82 662.16 150.69 662.16 152.43 662.16 153.3 662.16 155.04 662.16 155.92 662.16 157.65 662.16 158.53 662.16 160.27 662.16 161.14 662.16 162.89 662.16 163.76 662.16 165.5 662.16 166.37 662.16 168.11 662.16 168.98 662.16 170.72 662.16 171.6 662.16 171.78 662.16 175.3 662.16 176.17 662.16 182.48 662.16 183.36 662.16 189.67 662.16 190.54 662.16 196.86 662.16 197.73 662.16 211.63 662.16 243.11 662.16 243.23 659.69 243.24 659.69 243.36 657.41 243.35 657.41 243.38 656.71 243.43 656.71 243.45 655.89 243.42 655.89 243.43 655.79 243.46 655.79 243.57 653.52 243.56 653.52 243.57 652.96 243.62 652 243.63 652 243.75 649.72 243.73 649.72 244 644.4 244.01 644.4 244.12 642.13 244.12 642.13 244.53 633.93 244.58 633.93 244.59 633.11 244.6 633.11 244.72 630.83 244.7 630.83 244.71 630.43 244.92 626.35 245 626.35 245.01 625.52 244.96 625.52 245.07 623.25 245.12 623.25 245.14 622.43 245.11 622.43 245.3 618.66 245.36 618.66 245.38 617.84 245.35 617.84 245.46 615.55 245.49 615.55 245.5 614.83 245.71 610.73 245.71 610.73 245.71 610.66 246.13 602.31 246.14 602.31 246.14 602.13 246.17 601.49 246.22 601.49 246.34 599.21 246.29 599.21 246.61 592.85 246.65 592.85 246.76 590.57 246.73 590.57 246.97 585.74 246.99 585.74 247 585.04 247.01 584.91 247.02 584.91 247.13 582.64 247.13 582.64 247.59 573.52 247.62 573.52 247.73 571.25 247.7 571.25 248.12 562.96 248.14 562.96 248.15 562.29 248.5 555.37 248.51 555.37 248.52 555.1 249.12 543.16 249.13 543.16 249.24 540.88 249.24 540.88 249.31 539.37 249.33 539.37 249.44 537.09 249.43 537.09 249.64 532.91 249.64 532.53 249.64 532.29 249.64 531.77 249.64 531.71 249.64 529.49 249.64 528.67 249.64 527.98 249.64 525.7 249.64 524.94 249.64 524.18 249.64 524.12 249.64 521.9 249.64 521.08 249.64 520.39 249.64 518.11 249.64 517.35 249.64 516.59 249.64 516.52 249.64 514.31 249.64 513.49 249.64 512.79 249.64 510.52 249.64 509.76 249.64 509 249.64 508.93 249.64 506.72 249.64 505.9 249.64 505.2 249.64 502.93 249.64 502.17 249.64 501.4 249.64 501.34 249.64 499.13 249.64 498.31 249.64 497.28 249.64 495 249.64 493.06 249.64 490.78 249.64 489.26 249.64 486.98 249.64 485.47 249.64 483.19 249.64 481.67 249.64 479.39 249.64 477.87 249.64 475.6 249.64 474.08 249.64 471.8 249.64 470.28 249.64 468 249.64 466.49 249.64 464.21 249.64 462.69 249.64 460.41 249.64 458.9 249.64 456.62 249.64 455.1 249.64 452.82 249.64 451.3 249.64 449.03 249.64 447.51 249.64 445.23 249.64 443.71 249.64 441.44 249.64 433.08 249.64 432.26 249.64 420.94 249.65 420.94 249.65 418.66 249.64 418.66 249.64 417.9 249.65 417.9 249.65 417.08 249.64 417.08 249.64 414.87 249.65 414.87 249.65 414.04 249.64 414.04 249.64 413.35 249.64 411.07 249.64 410.31 249.64 409.55 249.65 409.55 249.65 407.27 249.64 407.27 249.64 405.75 249.64 403.48"/>
  <polygon class="cls-8" points="325.71 540.79 325.71 532.62 325.7 532.62 325.7 530.79 319 530.79 316.39 522.55 316.11 521.67 316.94 521.67 316.94 519.45 290.9 519.45 290.9 521.67 291.22 521.67 290.93 522.6 288.33 530.79 281.54 530.79 281.54 532.62 281.54 533.49 281.54 540.82 277.04 540.82 277.04 658.87 280.69 658.87 280.69 659.09 283.03 659.09 298.57 659.09 324.28 659.09 324.28 658.98 325.7 658.98 325.7 658.87 325.71 658.87 330.2 658.85 330.2 553.59 330.2 540.79 325.71 540.79"/>
  <g>
    <polygon class="cls-4" points="397.55 644.03 397.55 604.34 397.55 567.36 361.3 567.36 361.3 561.87 361.3 558.61 361.3 551.6 361.3 548.35 361.3 541.33 361.3 538.08 361.3 531.06 361.3 527.81 361.3 520.79 361.3 517.54 361.3 510.51 361.3 507.26 361.3 500.24 361.3 496.99 361.3 489.98 361.3 486.72 361.3 479.71 361.3 476.45 359.23 476.45 357.16 476.45 348.23 476.45 344.09 476.45 335.16 476.45 331.03 476.45 322.1 476.45 317.96 476.45 317.96 479.71 317.96 486.72 317.96 489.98 317.96 496.99 317.96 500.24 317.96 507.26 317.96 510.51 317.96 517.54 317.96 520.79 317.96 527.81 317.96 531.06 317.96 538.08 317.96 541.33 317.96 548.35 317.96 551.6 317.96 558.61 317.96 561.87 317.96 567.36 306.58 567.36 306.58 574.04 296.96 574.04 296.96 579.73 282.22 579.73 282.22 585.78 267.8 585.78 267.8 590.94 262.99 590.94 262.99 596.66 253.38 596.66 253.38 602.38 248.53 602.38 248.53 608.09 234.1 608.09 234.1 613.73 224.49 613.73 224.49 619.54 214.03 619.54 214.03 625.26 203.6 625.26 203.6 630.98 193.55 630.98 193.55 636.7 188.33 636.7 188.33 642.42 183.1 642.42 183.1 648.06 172.7 648.06 172.7 662.44 183.1 662.44 188.33 662.44 190.35 662.44 193.55 662.44 197.95 662.44 205.72 662.44 209.23 662.44 214.03 662.44 406.37 662.44 406.37 644.03 397.55 644.03"/>
    <rect class="cls-3" x="325.86" y="469.87" width="27.54" height="6.5"/>
  </g>
  <polygon class="cls-4" points="888 545.83 888 544.67 887.89 544.67 887.89 543.15 887.03 543.15 886.15 543.15 883 543.15 882.12 543.15 878.98 543.15 878.1 543.15 874.95 543.15 874.08 543.15 870.93 543.15 870.05 543.15 866.9 543.15 866.02 543.15 862.88 543.15 862 543.15 858.86 543.15 857.98 543.15 854.84 543.15 853.95 543.15 850.81 543.15 849.93 543.15 846.79 543.15 845.91 543.15 842.76 543.15 841.88 543.15 838.74 543.15 837.86 543.15 834.71 543.15 833.83 543.15 830.69 543.15 829.81 543.15 825.37 543.15 824.45 543.15 821.16 543.15 820.23 543.15 818.9 543.15 818.9 544.67 818.8 544.67 818.8 545.83 818.9 545.83 818.9 547.29 818.8 547.29 818.8 548.45 818.9 548.45 818.9 551.94 818.8 551.94 818.8 553.11 818.9 553.11 818.9 554.56 818.8 554.56 818.8 555.73 818.9 555.73 818.9 558.64 818.8 558.64 818.8 559.8 818.9 559.8 818.9 563.29 818.8 563.29 818.8 564.46 818.9 564.46 818.9 567.95 818.8 567.95 818.8 569.11 818.9 569.11 818.9 572.61 818.8 572.61 818.8 573.77 818.9 573.77 818.9 577.26 818.9 578.43 818.9 581.92 818.8 581.92 818.8 583.09 818.9 583.09 818.9 586.58 818.8 586.58 818.8 587.75 818.9 587.75 818.9 591.24 818.8 591.24 818.8 592.4 818.9 592.4 818.9 595.9 818.8 595.9 818.8 597.06 818.9 597.06 818.9 600.55 818.8 600.55 818.8 601.72 818.9 601.72 818.9 605.21 818.8 605.21 818.8 606.37 818.9 606.37 818.9 609.87 818.8 609.87 818.8 611.03 818.9 611.03 818.9 614.52 818.8 614.52 818.8 615.69 818.9 615.69 818.9 619.18 818.8 619.18 818.8 620.35 818.9 620.35 818.9 623.84 818.8 623.84 818.8 625 818.9 625 818.9 628.49 818.8 628.49 818.8 629.66 818.9 629.66 818.9 633.15 818.8 633.15 818.8 634.32 818.9 634.32 818.9 637.81 818.8 637.81 818.8 638.97 818.9 638.97 818.9 642.46 818.8 642.46 818.8 643.63 818.9 643.63 818.9 647.12 818.8 647.12 818.8 648.29 818.9 648.29 818.9 651.78 818.8 651.78 818.8 652.95 818.9 652.95 818.9 656.44 818.8 656.44 818.8 657.6 818.9 657.6 818.9 661.09 818.8 661.09 818.8 662.26 818.9 662.26 818.9 663.95 820.23 663.95 820.23 663.95 821.16 663.95 821.16 663.95 824.45 663.95 824.45 663.95 825.37 663.95 825.37 663.95 828.46 663.95 828.46 663.95 829.81 663.95 830.69 663.95 833.83 663.95 834.71 663.95 837.86 663.95 838.74 663.95 841.88 663.95 842.76 663.95 845.91 663.95 846.79 663.95 849.93 663.95 850.81 663.95 853.95 663.95 854.84 663.95 857.98 663.95 858.86 663.95 862 663.95 862.88 663.95 866.02 663.95 866.9 663.95 870.05 663.95 870.93 663.95 874.08 663.95 874.95 663.95 878.1 663.95 878.98 663.95 878.98 663.95 882.12 663.95 882.12 663.95 883 663.95 883 663.95 886.15 663.95 886.15 663.95 887.03 663.95 887.03 663.95 887.89 663.95 887.89 662.26 888 662.26 888 661.09 887.89 661.09 887.89 657.6 888 657.6 888 656.44 887.89 656.44 887.89 652.95 888 652.95 888 651.78 887.89 651.78 887.89 648.29 888 648.29 888 647.12 887.89 647.12 887.89 643.63 888 643.63 888 642.46 887.89 642.46 887.89 638.97 888 638.97 888 637.81 887.89 637.81 887.89 634.32 888 634.32 888 633.15 887.89 633.15 887.89 629.66 888 629.66 888 628.49 887.89 628.49 887.89 625 888 625 888 623.84 887.89 623.84 887.89 620.35 888 620.35 888 619.18 887.89 619.18 887.89 615.69 888 615.69 888 614.52 887.89 614.52 887.89 611.03 888 611.03 888 609.87 887.89 609.87 887.89 606.37 888 606.37 888 605.21 887.89 605.21 887.89 601.72 888 601.72 888 600.55 887.89 600.55 887.89 597.06 888 597.06 888 595.9 887.89 595.9 887.89 592.4 888 592.4 888 591.24 887.89 591.24 887.89 587.75 888 587.75 888 586.58 887.89 586.58 887.89 583.09 888 583.09 888 581.92 887.89 581.92 887.89 578.43 887.89 577.26 887.89 573.77 888 573.77 888 572.61 887.89 572.61 887.89 569.11 888 569.11 888 567.95 887.89 567.95 887.89 564.46 888 564.46 888 563.29 887.89 563.29 887.89 559.8 888 559.8 888 558.64 887.89 558.64 887.89 555.73 888 555.73 888 554.56 887.89 554.56 887.89 553.11 888 553.11 888 551.94 887.89 551.94 887.89 548.45 888 548.45 888 547.29 887.89 547.29 887.89 545.83 888 545.83"/>
  <path class="cls-5" d="M148.02,657.61c-.76-15.82-13.79-28.42-29.79-28.42s-29.03,12.59-29.8,28.42h59.58Z"/>
  <path class="cls-5" d="M154.53,658.3c-.46-9.58-8.35-17.21-18.04-17.21s-17.58,7.63-18.03,17.21h36.07Z"/>
  <path class="cls-5" d="M80.44,658.3c-.46-9.58-8.35-17.21-18.04-17.21s-17.58,7.63-18.03,17.21h36.08Z"/>
  <path class="cls-5" d="M118.3,648.96c-2.64,0-5.03,1.04-6.79,2.75-1.75-1.71-4.15-2.75-6.79-2.75s-4.95,1.01-6.7,2.67c-1.75-1.66-4.11-2.67-6.7-2.67-5.25,0-9.52,4.13-9.77,9.32h46.54c-.25-5.19-4.52-9.32-9.78-9.32Z"/>
  <path class="cls-5" d="M50.02,650.68c-2.13,0-4.07,.84-5.49,2.22-1.42-1.38-3.36-2.22-5.49-2.22s-4,.82-5.42,2.16c-1.41-1.34-3.32-2.16-5.42-2.16-4.24,0-7.7,3.33-7.9,7.53H57.92c-.21-4.2-3.66-7.53-7.9-7.53Z"/>
  <path class="cls-5" d="M75.2,654.63c-1.04,0-1.98,.4-2.67,1.06-.69-.66-1.62-1.06-2.66-1.06s-1.95,.39-2.64,1.04c-.69-.65-1.61-1.04-2.64-1.04-2.06,0-3.73,1.61-3.84,3.65h18.27c-.1-2.04-1.78-3.65-3.84-3.65Z"/>
  <path class="cls-5" d="M27.93,654.63c-1.04,0-1.98,.4-2.67,1.06-.69-.66-1.62-1.06-2.66-1.06s-1.95,.39-2.64,1.04c-.69-.65-1.61-1.04-2.63-1.04-2.06,0-3.73,1.61-3.84,3.65H31.77c-.1-2.04-1.78-3.65-3.84-3.65Z"/>
  <path class="cls-5" d="M121.14,605.54c1.13,.53-3.46-11.92-15.58-5.69-2.15,1.08,4.83-7.1,4.83-7.1,0,0-8.22,.32-9.31,7.37-.18,1.18-3.5-11.4-15.37-2.25-.21,.15,11.19,3.79,10.96,4.25-.23,.4-13.73-3.65-15.21,8.25-.02,.21,11.55-3.45,15.02-3.05,.29,.06-11.06,4.69-6.38,17.57,.27,.65,7.35-4.25,9.21-11.69l-5.07,46.64,5.67,.26c.23-18.06,1.19-40.55,1.69-51.26,1.87,3.21,6.28,8.94,14.91,11.17,0,0-.3-12.19-10.48-14.69-.67-.15,10.81-1.89,15.11,.21Z"/>
  <path class="cls-5" d="M155.72,623.51c1.36,.56-4.96-13.94-18.94-5.72-2.5,1.49,5.27-8.74,5.27-8.74,0,0-9.76,.94-10.62,9.37-.13,1.4-4.94-13.3-18.46-1.58-.21,.17,13.62,3.71,13.37,4.23-.25,.51-16.6-3.33-17.55,11,0,.17,13.49-4.95,17.67-4.73,.36,.04-12.83,6.35-6.35,21.35,.34,.77,8.8-5.84,10.29-15.17,.04-.29,.08-.55,.12-.83l.35,27.95,5.25-1.11c-.67-11.29-1.93-22.68-2.81-29.8,2.74,3.75,8.29,9.39,17.87,11.3,0,0-1.21-14.45-13.47-16.71-.84-.17,12.7-3.03,18-.81Z"/>
  <path class="cls-5" d="M523.78,657.99c-.52-10.74-9.36-19.3-20.23-19.3s-19.72,8.55-20.24,19.3h40.47Z"/>
  <path class="cls-5" d="M238.15,658.3c-.66-13.8-12.03-24.79-25.98-24.79s-25.32,10.99-25.99,24.79h51.97Z"/>
  <path class="cls-5" d="M457.34,657.49c-.66-13.8-12.02-24.79-25.98-24.79s-25.32,10.99-25.99,24.79h51.97Z"/>
  <path class="cls-5" d="M185.95,654.97c-.9,0-1.72,.34-2.33,.93-.6-.58-1.41-.93-2.32-.93s-1.7,.34-2.3,.91c-.6-.57-1.4-.91-2.29-.91-1.8,0-3.26,1.41-3.35,3.18h15.94c-.09-1.77-1.55-3.18-3.35-3.18Z"/>
  <path class="cls-5" d="M237.3,649.94c-2.3,0-4.39,.91-5.92,2.4-1.53-1.49-3.62-2.4-5.92-2.4s-4.32,.88-5.85,2.33c-1.52-1.45-3.58-2.33-5.85-2.33-4.58,0-8.31,3.6-8.52,8.13h40.6c-.22-4.53-3.94-8.13-8.53-8.13Z"/>
  <path class="cls-5" d="M212.19,654.97c-.9,0-1.72,.34-2.33,.93-.6-.58-1.42-.93-2.32-.93s-1.7,.34-2.3,.91c-.6-.57-1.4-.91-2.29-.91-1.8,0-3.26,1.41-3.35,3.18h15.94c-.09-1.77-1.55-3.18-3.35-3.18Z"/>
  <path class="cls-5" d="M250.16,654.97c-.9,0-1.72,.34-2.33,.93-.6-.58-1.42-.93-2.32-.93s-1.7,.34-2.3,.91c-.6-.57-1.4-.91-2.29-.91-1.8,0-3.26,1.41-3.35,3.18h15.94c-.09-1.77-1.55-3.18-3.35-3.18Z"/>
  <path class="cls-5" d="M295.07,658.09c-.4-8.35-7.29-15.01-15.74-15.01s-15.33,6.66-15.73,15.01h31.47Z"/>
  <path class="cls-5" d="M412.61,658.09c-.4-8.35-7.28-15.01-15.73-15.01s-15.33,6.66-15.73,15.01h31.47Z"/>
  <path class="cls-5" d="M322.84,649.94c-2.3,0-4.39,.91-5.92,2.4-1.53-1.49-3.62-2.4-5.93-2.4s-4.32,.88-5.84,2.33c-1.52-1.45-3.58-2.33-5.85-2.33-4.58,0-8.31,3.6-8.52,8.13h40.6c-.22-4.53-3.95-8.13-8.53-8.13Z"/>
  <path class="cls-5" d="M297.9,654.89c-.9,0-1.72,.35-2.33,.93-.6-.58-1.42-.93-2.32-.93s-1.7,.34-2.3,.91c-.59-.57-1.4-.91-2.29-.91-1.8,0-3.26,1.41-3.35,3.18h15.94c-.09-1.77-1.55-3.18-3.35-3.18Z"/>
  <path class="cls-5" d="M443.13,649.94c-2.3,0-4.39,.91-5.92,2.4-1.53-1.49-3.62-2.4-5.92-2.4s-4.32,.88-5.85,2.33c-1.53-1.45-3.58-2.33-5.85-2.33-4.58,0-8.31,3.6-8.52,8.13h40.59c-.22-4.53-3.95-8.13-8.53-8.13Z"/>
  <path class="cls-5" d="M418.33,654.89c-.9,0-1.72,.35-2.33,.93-.6-.58-1.41-.93-2.32-.93s-1.7,.34-2.3,.91c-.6-.57-1.41-.91-2.29-.91-1.8,0-3.26,1.41-3.35,3.18h15.94c-.09-1.77-1.55-3.18-3.35-3.18Z"/>
  <path class="cls-5" d="M554.54,655.04c-.9,0-1.72,.35-2.33,.93-.6-.58-1.42-.93-2.32-.93s-1.7,.34-2.3,.91c-.6-.56-1.41-.91-2.29-.91-1.8,0-3.26,1.42-3.35,3.18h15.94c-.09-1.77-1.55-3.18-3.35-3.18Z"/>
  <path class="cls-5" d="M485.04,655.04c-.9,0-1.72,.35-2.33,.93-.6-.58-1.42-.93-2.32-.93s-1.7,.34-2.3,.91c-.6-.56-1.4-.91-2.29-.91-1.8,0-3.26,1.42-3.35,3.18h15.94c-.09-1.77-1.55-3.18-3.35-3.18Z"/>
  <path class="cls-5" d="M945.05,650.59c-2.3,0-4.39,.91-5.92,2.39-1.53-1.49-3.62-2.39-5.92-2.39s-4.33,.88-5.85,2.33c-1.52-1.45-3.58-2.33-5.84-2.33-4.58,0-8.31,3.6-8.53,8.13h40.6c-.22-4.53-3.94-8.13-8.53-8.13Z"/>
  <path class="cls-5" d="M1161.92,650.59c-2.3,0-4.39,.91-5.92,2.39-1.53-1.49-3.62-2.39-5.92-2.39s-4.33,.88-5.85,2.33c-1.52-1.45-3.58-2.33-5.84-2.33-4.58,0-8.31,3.6-8.53,8.13h40.6c-.22-4.53-3.94-8.13-8.53-8.13Z"/>
  <path class="cls-5" d="M388.92,654.89c-.9,0-1.72,.35-2.33,.93-.6-.58-1.41-.93-2.32-.93s-1.7,.34-2.3,.91c-.6-.57-1.4-.91-2.29-.91-1.8,0-3.26,1.41-3.35,3.18h15.94c-.09-1.77-1.56-3.18-3.35-3.18Z"/>
  <path class="cls-5" d="M461.1,654.89c-.9,0-1.72,.35-2.33,.93-.6-.58-1.42-.93-2.32-.93s-1.7,.34-2.3,.91c-.6-.57-1.4-.91-2.29-.91-1.8,0-3.26,1.41-3.35,3.18h15.94c-.09-1.77-1.55-3.18-3.35-3.18Z"/>
  <path class="cls-5" d="M686.38,649.94c-2.3,0-4.39,.91-5.92,2.4-1.53-1.49-3.62-2.4-5.93-2.4s-4.32,.88-5.85,2.33c-1.52-1.45-3.58-2.33-5.85-2.33-4.58,0-8.31,3.6-8.53,8.13h40.6c-.22-4.53-3.95-8.13-8.53-8.13Z"/>
  <path class="cls-5" d="M704.22,654.54c-.9,0-1.72,.35-2.33,.93-.6-.58-1.41-.93-2.32-.93s-1.7,.34-2.3,.91c-.59-.57-1.4-.91-2.29-.91-1.8,0-3.26,1.42-3.35,3.19h15.94c-.09-1.77-1.55-3.19-3.35-3.19Z"/>
  <path class="cls-5" d="M212.58,597.93c-2.65,.31,7.69-5.33,7.69-5.33,0,0-8.52-2.9-12.38,3.89-.66,1.14,.84-13-14.9-8.24-.25,.09,10.03,8.21,9.62,8.54-.44,.32-12.67-9.03-18.82,2.62-.09,.17,13.17,.95,16.57,2.69,.27,.16-13.11,.5-13.31,15.48-.02,.77,9.56-1.59,14.29-8.85,.81-1.25,1.47-2.37,2-3.29l-12.87,54.91,6.11,1.08c2.64-20.04,6.81-45.26,8.51-55.35,.78,4.12,3.22,11.33,10.88,16.74,0,0,4.41-12.56-5.04-19.04-.64-.44,11.8,2.2,15.4,6.06,.94,1,1.06-13.53-13.74-11.9Z"/>
  <path class="cls-5" d="M791.77,658.49c-.66-13.8-12.03-24.78-25.99-24.78s-25.32,10.99-25.98,24.78h51.98Z"/>
  <path class="cls-5" d="M742.8,650.23c-2.3,0-4.39,.91-5.92,2.4-1.53-1.49-3.62-2.4-5.92-2.4s-4.32,.88-5.84,2.33c-1.53-1.45-3.58-2.33-5.85-2.33-4.58,0-8.31,3.6-8.53,8.13h40.6c-.23-4.53-3.95-8.13-8.53-8.13Z"/>
  <path class="cls-5" d="M857.75,650.23c-2.31,0-4.4,.91-5.93,2.4-1.53-1.49-3.62-2.4-5.92-2.4s-4.32,.88-5.84,2.33c-1.53-1.45-3.59-2.33-5.85-2.33-4.58,0-8.31,3.6-8.53,8.13h40.59c-.22-4.53-3.95-8.13-8.52-8.13Z"/>
  <path class="cls-5" d="M800.57,658.39c-.4-8.35-7.28-15.01-15.73-15.01s-15.33,6.66-15.73,15.01h31.46Z"/>
  <path class="cls-5" d="M752.67,655.12c-.91,0-1.72,.35-2.33,.93-.6-.58-1.41-.93-2.32-.93s-1.7,.34-2.3,.91c-.6-.57-1.41-.91-2.29-.91-1.8,0-3.26,1.41-3.35,3.18h15.94c-.09-1.77-1.55-3.18-3.35-3.18Z"/>
  <path class="cls-5" d="M774.05,655.12c-.9,0-1.72,.35-2.32,.93-.61-.58-1.42-.93-2.32-.93s-1.7,.34-2.3,.91c-.6-.57-1.4-.91-2.29-.91-1.8,0-3.26,1.41-3.35,3.18h15.94c-.09-1.77-1.55-3.18-3.36-3.18Z"/>
  <path class="cls-5" d="M827.46,655.12c-.91,0-1.72,.35-2.33,.93-.61-.58-1.42-.93-2.32-.93s-1.7,.34-2.3,.91c-.6-.57-1.41-.91-2.29-.91-1.8,0-3.26,1.41-3.36,3.18h15.94c-.09-1.77-1.55-3.18-3.35-3.18Z"/>
  <path class="cls-5" d="M883.6,655.22c-.9,0-1.72,.35-2.33,.93-.6-.58-1.42-.93-2.32-.93s-1.7,.34-2.3,.91c-.6-.57-1.4-.91-2.29-.91-1.8,0-3.26,1.42-3.35,3.19h15.94c-.08-1.77-1.55-3.19-3.35-3.19Z"/>
  <path class="cls-5" d="M915.68,655.22c-.9,0-1.72,.35-2.33,.93-.61-.58-1.42-.93-2.32-.93s-1.69,.34-2.3,.91c-.6-.57-1.4-.91-2.29-.91-1.8,0-3.26,1.42-3.35,3.19h15.94c-.1-1.77-1.56-3.19-3.36-3.19Z"/>
  <path class="cls-5" d="M814.73,628.29c.72,.29-2.78-7.04-9.82-2.59-1.24,.82,2.54-4.54,2.54-4.54,0,0-4.98,.62-5.27,4.93,0,.77-2.73-6.7-9.48-.48-.09,.1,7.03,1.72,6.9,1.96-.06,.15-3.12-.4-5.61,.72-2.02-4.98-9.05-3.58-9.18-3.82-.14-.34,7.75-2.06,7.67-2.21-7.47-6.84-10.46,1.39-10.54,.58-.28-4.79-5.79-5.51-5.79-5.51,0,0,4.21,5.94,2.82,5.07-7.78-4.93-11.63,3.16-10.84,2.87,3.04-1.15,10.65,.72,10.17,.77-6.99,1.1-7.92,9.24-7.92,9.24,5.95-.99,9.25-4.55,10.71-6.59-.32,7.24-1.03,22.43-2,34.58l3.85,.2-.58-31.63c.84,5.06,5.25,8.79,5.46,8.33,3.97-8.38-3.42-12.16-3.21-12.21,1.45,0,4.84,1.18,7.24,2.07-.58,.84-.97,1.95-1.02,3.44,0,.09,6.8-2.73,8.95-2.69,.19,0-6.47,3.45-2.92,11.01,.22,.4,3.8-2.61,4.8-6.89l-.49,27.95,3.5-.14c-.89-11.13-1.57-25.08-1.86-31.54,1.2,1.77,4.23,5.27,9.85,6.22,0,0-.81-7.41-7.14-8.37-.48-.05,6.42-1.72,9.2-.71Z"/>
  <path class="cls-5" d="M798.81,638.25c-1.57,.25,4.44-3.54,4.44-3.54,0,0-5.25-1.37-7.28,2.82-.35,.71-.04-7.83-9.27-4.29-.18,.05,6.37,4.5,6.14,4.7-.25,.2-7.99-4.9-11.17,2.38-.05,.1,7.88,0,10.04,.9,.14,.11-7.87,.81-7.36,9.8,.04,.46,5.68-1.31,8.21-5.91,.73-1.3,1.21-2.31,1.49-2.95l.05,18.87,3.27-.06c-.83-5.23-1.56-11.54-2.01-15.68,.97,2.37,2.85,5.38,6.57,7.65,0,0,2.07-7.68-3.84-11.22-.41-.2,7.13,.86,9.45,3.03,.61,.51,.05-8.18-8.74-6.51Z"/>
  <path class="cls-5" d="M1083.22,657.31c-.66-13.8-12.02-24.79-25.98-24.79s-25.32,10.99-25.98,24.79h51.97Z"/>
  <path class="cls-5" d="M1123.32,657.31c-.66-13.8-12.02-24.79-25.98-24.79s-25.32,10.99-25.99,24.79h51.97Z"/>
  <path class="cls-5" d="M1259.65,657.31c-.66-13.8-12.03-24.79-25.99-24.79s-25.31,10.99-25.98,24.79h51.98Z"/>
  <path class="cls-5" d="M1271.43,658.78c-.46-9.66-8.42-17.36-18.19-17.36s-17.73,7.7-18.2,17.36h36.39Z"/>
  <path class="cls-5" d="M1427.46,658.66c-.4-8.35-7.29-15.01-15.74-15.01s-15.33,6.66-15.73,15.01h31.47Z"/>
  <path class="cls-5" d="M1461.65,650.59c-2.3,0-4.4,.91-5.93,2.39-1.52-1.49-3.61-2.39-5.92-2.39s-4.32,.88-5.84,2.33c-1.52-1.45-3.58-2.33-5.85-2.33-4.58,0-8.31,3.6-8.53,8.13h40.59c-.22-4.53-3.95-8.13-8.52-8.13Z"/>
  <path class="cls-5" d="M1395.68,650.59c-2.3,0-4.39,.91-5.92,2.39-1.53-1.49-3.62-2.39-5.92-2.39s-4.32,.88-5.84,2.33c-1.52-1.45-3.58-2.33-5.84-2.33-4.59,0-8.31,3.6-8.54,8.13h40.6c-.23-4.53-3.95-8.13-8.53-8.13Z"/>
  <path class="cls-5" d="M1125.13,658.66c-.4-8.35-7.29-15.01-15.74-15.01s-15.33,6.66-15.73,15.01h31.47Z"/>
  <path class="cls-5" d="M1028.93,658.66c-.39-8.35-7.28-15.01-15.73-15.01s-15.33,6.66-15.73,15.01h31.46Z"/>
  <path class="cls-5" d="M1093.35,650.59c-2.3,0-4.39,.91-5.93,2.39-1.52-1.49-3.61-2.39-5.92-2.39s-4.32,.88-5.84,2.33c-1.52-1.45-3.59-2.33-5.85-2.33-4.58,0-8.31,3.6-8.53,8.13h40.6c-.23-4.53-3.95-8.13-8.53-8.13Z"/>
  <path class="cls-5" d="M1041.13,650.59c-2.3,0-4.39,.91-5.92,2.39-1.53-1.49-3.62-2.39-5.92-2.39s-4.33,.88-5.85,2.33c-1.52-1.45-3.58-2.33-5.84-2.33-4.58,0-8.31,3.6-8.53,8.13h40.6c-.22-4.53-3.94-8.13-8.53-8.13Z"/>
  <path class="cls-5" d="M1233.53,650.59c-2.31,0-4.4,.91-5.93,2.39-1.52-1.49-3.61-2.39-5.92-2.39s-4.32,.88-5.84,2.33c-1.52-1.45-3.59-2.33-5.85-2.33-4.58,0-8.31,3.6-8.53,8.13h40.59c-.22-4.53-3.95-8.13-8.53-8.13Z"/>
  <path class="cls-5" d="M1054.24,654.75c-.9,0-1.72,.35-2.33,.93-.61-.58-1.41-.93-2.32-.93s-1.7,.34-2.29,.91c-.6-.57-1.41-.91-2.29-.91-1.8,0-3.25,1.42-3.35,3.19h15.94c-.09-1.77-1.55-3.19-3.35-3.19Z"/>
  <path class="cls-5" d="M1131.2,654.75c-.9,0-1.72,.35-2.32,.93-.61-.58-1.42-.93-2.33-.93s-1.7,.34-2.29,.91c-.6-.57-1.41-.91-2.29-.91-1.8,0-3.25,1.42-3.35,3.19h15.94c-.09-1.77-1.55-3.19-3.35-3.19Z"/>
  <path class="cls-5" d="M1208.15,654.75c-.91,0-1.72,.35-2.33,.93-.61-.58-1.42-.93-2.32-.93s-1.7,.34-2.3,.91c-.6-.57-1.4-.91-2.29-.91-1.8,0-3.25,1.42-3.35,3.19h15.94c-.08-1.77-1.55-3.19-3.35-3.19Z"/>
  <path class="cls-5" d="M1070.73,654.75c-.91,0-1.73,.35-2.33,.93-.61-.58-1.42-.93-2.32-.93s-1.7,.34-2.3,.91c-.6-.57-1.4-.91-2.29-.91-1.8,0-3.25,1.42-3.34,3.19h15.93c-.09-1.77-1.55-3.19-3.35-3.19Z"/>
  <path class="cls-5" d="M1423.09,622.75s4.07,23.5,6.39,41.1l4.22-.69-9.54-40.56-1.08,.15Z"/>
  <path class="cls-5" d="M1413.85,637.15s-.93-9.14,6.39-11.94c.54-.19-8.16-.4-11.26,1.57-.74,.49,1.53-9.24,11.11-5.7,1.72,.64-4.23-4.82-4.23-4.82,0,0,6.15-.54,7.62,4.57,.24,.89,1.57-8.8,11.26-3.05,.2,.1-8.01,3.84-7.76,4.18,.24,.3,9.88-4.03,12.14,4.77,0,.1-8.95-1.53-11.56-.89-.19,.05,8.71,2.46,6.44,12.53-.2,.49-6.19-2.61-8.16-8.26-.89-2.66-1.28-4.47-1.28-4.47,0,0-1.92,8.01-10.72,11.5Z"/>
  <path class="cls-5" d="M1440.99,634.84s-2.02,14.06-2.85,27.88l3.93,.83,.4-28.02-1.47-.69Z"/>
  <path class="cls-5" d="M1426.82,648.81s.89-10.87,10.13-12.58c.6-.1-9.58-2.26-13.57-.59-1.03,.44,3.73-10.47,14.25-4.28,1.87,1.09-3.93-6.63-3.93-6.63,0,0,7.28,.73,7.96,7.08,.05,1.08,3.69-9.98,13.87-1.18,.2,.15-10.23,2.8-10.02,3.2,.2,.39,12.49-2.51,13.17,8.26,0,.15-10.13-3.69-13.27-3.49-.3,0,9.63,4.72,4.77,15.98-.25,.58-6.64-4.37-7.72-11.4-.54-3.29-.6-5.51-.6-5.51,0,0-3.93,8.95-15.04,11.16Z"/>
  <path class="cls-5" d="M1121.35,637.09c.83,.37-3.15-8.77-11.97-3.57-1.6,.93,3.27-5.54,3.27-5.54,0,0-6.1,.6-6.62,5.91-.15,.93-3.16-8.37-11.68-.97-.15,.11,8.59,2.35,8.41,2.64-.15,.37-10.45-2.09-11.08,6.95,0,.11,8.56-3.13,11.16-2.97,.23,.03-8.06,3.98-3.98,13.46,.19,.48,5.54-3.64,6.47-9.55,.03-.2,.06-.38,.08-.57l.25,17.66,3.31-.71c-.43-7.11-1.25-14.32-1.81-18.81,1.72,2.38,5.22,5.96,11.3,7.14,0,0-.75-9.11-8.48-10.56-.56-.07,7.99-1.9,11.37-.52Z"/>
  <path class="cls-5" d="M980.37,613.95s.76,26.19,1.94,45.65l-3.91,.24,.99-45.85,.98-.04Z"/>
  <path class="cls-5" d="M997.75,629.49s-1.46-12.72-12.32-14.35c-.73-.12,11.07-3,15.82-1.19,1.19,.39-4.8-12.14-16.83-4.46-2.09,1.35,4.4-7.85,4.4-7.85,0,0-8.59,1.08-9.03,8.53-.12,1.24-4.76-11.52-16.27-.86-.17,.17,12.09,2.88,11.85,3.34-.22,.45-14.68-2.49-15.02,10.1-.11,.17,11.63-4.69,15.31-4.63,.28,0-11.01,5.94-4.98,18.92,.35,.68,7.57-5.37,8.59-13.62,.51-3.9,.51-6.44,.51-6.44,0,0,4.86,10.28,17.96,12.49Z"/>
  <path class="cls-5" d="M1015.76,634.79c3.79-.67,16.85,2.71,16.81,2.53-2.3-13.2-17.09-7.95-17.36-8.36-.31-.45,12.2-5.15,11.94-5.29-13.69-9.54-16.68,4.61-16.95,3.29-1.58-7.73-10.71-7.59-10.71-7.59,0,0,8.22,8.68,5.74,7.55-13.84-6.24-18.22,7.86-16.95,7.23,4.65-2.58,17.44-1.31,16.72-1.09-11.12,3.35-10.75,16.86-10.75,16.86,9.01-2.83,13.62-9,15.68-12.73-.63,6.76-1.59,16.29-2.66,24.29l4.79,.04-.13-24.06c.2,.97,.46,2.11,.81,3.4,2.3,8.5,10.8,13.74,11.07,12.97,4.43-14.55-8.41-19.03-8.04-19.07Z"/>
  <path class="cls-5" d="M1002.87,654.29c-.9,0-1.73,.35-2.33,.93-.6-.58-1.42-.93-2.32-.93s-1.71,.34-2.3,.91c-.6-.57-1.41-.91-2.3-.91-1.8,0-3.25,1.41-3.35,3.18h15.94c-.09-1.77-1.55-3.18-3.35-3.18Z"/>
  <path class="cls-5" d="M1100.41,654.34c-.9,0-1.72,.35-2.32,.93-.6-.58-1.42-.93-2.32-.93s-1.71,.34-2.31,.91c-.6-.56-1.4-.91-2.29-.91-1.8,0-3.25,1.41-3.35,3.19h15.94c-.09-1.77-1.55-3.19-3.36-3.19Z"/>
  <path class="cls-5" d="M1435.43,655.48c-.9,0-1.72,.35-2.33,.93-.6-.58-1.42-.93-2.32-.93s-1.7,.34-2.31,.91c-.59-.57-1.4-.91-2.29-.91-1.8,0-3.26,1.41-3.35,3.18h15.94c-.09-1.77-1.55-3.18-3.35-3.18Z"/>
  <path class="cls-5" d="M1362.11,655.48c-.9,0-1.72,.35-2.33,.93-.6-.58-1.42-.93-2.32-.93s-1.7,.34-2.31,.91c-.6-.57-1.4-.91-2.29-.91-1.8,0-3.26,1.41-3.35,3.18h15.94c-.09-1.77-1.55-3.18-3.35-3.18Z"/>
  <rect class="cls-7" x=".01" y="657.9" width="1513.38" height="12.9"/>
  <text class="cls-1" transform="translate(338.4 303.54) scale(.97 1)"><tspan x="0" y="0">U SHOES</tspan></text>
  <text class="cls-2" transform="translate(355.18 277.93) scale(.97 1)"><tspan x="0" y="0">U SHOES</tspan></text>
</svg>