<?xml version="1.0" encoding="UTF-8"?>
<svg id="Capa_2" data-name="Capa 2" xmlns="http://www.w3.org/2000/svg" viewBox="0 0 454.12 201.28">
  <defs>
    <style>
      .cls-1 {
        opacity: .3;
      }

      .cls-1, .cls-2 {
        fill: #061128;
      }

      .cls-3 {
        fill: #0c1314;
      }

      .cls-4 {
        fill: #0e1c30;
      }

      .cls-5 {
        fill: #030d19;
      }

      .cls-6 {
        fill: #000e1c;
      }

      .cls-7 {
        fill: #06121e;
      }

      .cls-8 {
        fill: #277aff;
      }
    </style>
  </defs>
  <g>
    <rect x=".5" y=".5" width="453.12" height="200.29"/>
    <path d="M453.12,1V200.29H1V1H453.12M454.12,0H0V201.29H454.12V0h0Z"/>
  </g>
  <path class="cls-3" d="M439.82,188.1s-.35,5.61-.77,9.8l.97,.08,.05-9.86h-.25Z"/>
  <path class="cls-3" d="M437.07,190.42s.24-2.07,2.01-2.34c.12-.01-1.8-.48-2.57-.19-.2,.07,.77-1.97,2.74-.74,.33,.22-.73-1.27-.73-1.27,0,0,1.39,.18,1.47,1.39,.01,.2,.77-1.89,2.64-.14,.04,.03-1.96,.47-1.92,.55,.03,.08,2.39-.4,2.45,1.64,0,.04-1.91-.76-2.51-.74-.05,0,1.81,.95,.81,3.08-.05,.1-1.23-.88-1.39-2.23-.09-.63-.08-1.05-.08-1.05,0,0-.8,1.69-2.94,2.04Z"/>
  <polygon class="cls-7" points="314.93 120.05 314.99 120.05 314.99 118.91 314.93 118.91 314.93 118.26 314.93 117.36 314.93 117.12 314.93 117.11 314.93 116.22 314.93 115.57 314.93 114.68 314.93 114.43 314.93 113.54 314.93 112.88 314.93 111.99 314.93 111.75 314.93 110.85 314.93 110.2 314.93 109.3 314.93 109.06 314.93 108.16 314.93 107.51 314.93 106.62 314.93 106.37 314.93 105.48 314.93 105.09 314.93 103.93 314.93 102.79 314.93 101.25 314.93 100.11 314.93 98.56 314.93 97.42 314.93 95.87 314.93 94.74 314.93 92.77 314.93 89.41 314.93 88.47 314.93 87.4 312.96 87.4 312.96 88.47 288.84 88.47 288.84 87.46 286.87 87.46 286.87 88.47 286.87 89.48 286.87 92.77 286.87 94.74 286.87 95.87 286.87 97.42 286.87 98.56 286.87 100.11 286.87 101.25 286.87 102.79 286.87 103.93 286.87 105.48 286.87 106.62 286.87 108.16 286.87 109.3 286.87 110.85 286.87 111.99 286.87 113.54 286.87 114.68 286.87 116.22 286.87 117.36 286.87 118.91 286.87 120.05 286.87 121.59 286.87 122.73 286.87 124.28 286.87 125.42 286.87 126.97 286.87 128.1 286.87 129.65 286.87 130.79 286.87 132.34 286.87 133.47 286.87 135.02 286.87 136.16 286.87 137.71 286.87 138.85 286.87 140.4 286.87 141.53 286.87 143.08 286.87 144.22 286.87 145.77 286.87 146.9 286.87 148.45 286.87 149.59 286.87 151.14 286.87 152.28 286.87 153.82 286.87 154.96 286.87 156.51 286.87 157.65 286.87 159.2 286.87 160.33 286.87 161.88 286.87 163.02 286.87 164.57 286.87 165.71 286.87 167.25 286.87 168.39 286.87 169.94 286.87 171.08 286.87 172.62 286.87 173.76 286.87 175.31 286.87 176.45 286.87 178 286.87 179.13 286.87 180.68 286.87 181.82 286.87 183.37 286.87 184.51 286.87 186.05 286.87 187.19 286.87 188.74 286.87 189.88 286.87 191.43 286.87 192.56 286.87 194.11 286.87 195.25 286.87 196.8 286.87 197.94 286.87 198.71 290.65 198.71 294.61 198.71 294.61 198.77 299.45 198.77 314.93 198.77 314.99 198.77 314.99 197.94 314.99 196.8 314.99 195.25 314.99 194.11 314.99 192.56 314.99 191.43 314.99 189.88 314.99 188.74 314.99 187.19 314.99 186.05 314.99 184.51 314.99 183.37 314.99 181.82 314.99 180.68 314.99 179.13 314.99 178 314.99 176.45 314.99 175.96 314.99 175.31 314.93 175.31 314.93 174.66 314.93 173.76 314.99 173.76 314.99 172.62 314.93 172.62 314.93 171.97 314.93 171.08 314.99 171.08 314.99 169.94 314.93 169.94 314.93 169.29 314.93 168.39 314.99 168.39 314.99 167.25 314.93 167.25 314.93 166.6 314.93 165.71 314.99 165.71 314.99 164.57 314.93 164.57 314.93 163.92 314.93 163.02 314.99 163.02 314.99 161.88 314.93 161.88 314.93 161.23 314.93 160.33 314.99 160.33 314.99 159.2 314.93 159.2 314.93 158.54 314.93 157.65 314.99 157.65 314.99 156.51 314.93 156.51 314.93 155.86 314.93 154.96 314.99 154.96 314.99 153.82 314.93 153.82 314.93 153.17 314.93 152.28 314.99 152.28 314.99 151.14 314.93 151.14 314.93 150.49 314.93 149.59 314.99 149.59 314.99 148.45 314.93 148.45 314.93 147.8 314.93 146.9 314.99 146.9 314.99 145.77 314.93 145.77 314.93 145.11 314.93 144.22 314.99 144.22 314.99 143.08 314.93 143.08 314.93 142.43 314.93 141.53 314.99 141.53 314.99 140.4 314.93 140.4 314.93 139.74 314.93 138.85 314.99 138.85 314.99 137.71 314.93 137.71 314.93 137.06 314.93 136.16 314.99 136.16 314.99 135.02 314.93 135.02 314.93 134.37 314.93 133.47 314.99 133.47 314.99 132.34 314.93 132.34 314.93 131.68 314.93 130.79 314.99 130.79 314.99 129.65 314.93 129.65 314.93 129 314.93 128.1 314.99 128.1 314.99 126.97 314.93 126.97 314.93 126.31 314.93 125.42 314.99 125.42 314.99 124.28 314.93 124.28 314.93 123.63 314.93 122.73 314.99 122.73 314.99 121.59 314.93 121.59 314.93 120.94 314.93 120.05"/>
  <polygon class="cls-4" points="338.1 114.4 334.61 114.4 332.22 114.4 332.22 113.84 332.22 113.15 332.22 111.36 332.22 110.68 332.22 108.89 332.22 108.2 332.22 106.72 332.22 106.71 332.22 105.9 323.73 105.9 320.99 105.9 312.48 105.9 312.48 106.71 312.48 106.72 312.48 108.2 312.48 108.89 312.48 110.68 312.48 111.36 312.48 113.15 312.48 113.84 312.48 114.4 309.53 114.4 306.59 114.4 306.59 115.22 306.59 116.45 306.59 117.13 306.59 118.92 306.59 119.61 306.59 121.39 306.59 122.08 306.59 123.87 306.59 124.55 306.59 126.34 306.59 127.03 306.59 128.81 306.59 129.5 306.59 131.29 306.59 131.97 306.59 133.76 306.59 134.45 306.59 136.23 306.59 136.92 306.59 138.71 306.59 139.39 306.59 141.69 306.59 142.38 306.59 144.17 306.59 144.86 306.59 146.64 306.59 147.33 306.59 149.12 306.59 149.8 306.59 151.59 306.59 152.27 306.59 154.06 306.59 154.75 306.59 156.53 306.59 157.22 306.59 159.01 306.59 159.69 306.59 161.48 306.59 162.17 306.59 163.95 306.59 164.64 306.59 166.43 306.59 167.11 306.59 168.9 306.59 169.59 306.59 171.37 306.59 172.06 306.59 173.85 306.59 174.53 306.59 176.32 306.59 177.01 306.59 178.79 306.59 179.48 306.59 181.27 306.59 181.95 306.59 183.74 306.59 184.43 306.59 186.21 306.59 186.9 306.59 188.69 306.59 189.37 306.59 191.16 306.59 191.85 306.59 193.63 306.59 194.32 306.59 196.11 306.59 196.79 306.59 198.05 309.53 198.05 313.01 198.05 314.58 198.05 317.51 198.05 320.99 198.05 320.99 198.03 321.65 198.03 321.9 198.03 322.8 198.03 323.05 198.03 323.71 198.03 323.71 198.05 326.64 198.05 330.12 198.05 331.69 198.05 334.61 198.05 338.1 198.05 338.1 196.79 338.1 196.11 338.1 194.32 338.1 193.63 338.1 191.85 338.1 191.16 338.1 189.37 338.1 188.69 338.1 186.9 338.1 186.21 338.1 184.43 338.1 183.74 338.1 181.95 338.1 181.27 338.1 179.48 338.1 178.79 338.1 177.01 338.1 176.32 338.1 174.53 338.1 173.85 338.1 172.06 338.1 171.37 338.1 169.59 338.1 168.9 338.1 167.11 338.1 166.43 338.1 164.64 338.1 163.95 338.1 162.17 338.1 161.48 338.1 159.69 338.1 159.01 338.1 157.22 338.1 156.53 338.1 154.75 338.1 154.06 338.1 152.27 338.1 151.59 338.1 149.8 338.1 149.12 338.1 147.33 338.1 146.64 338.1 144.86 338.1 144.17 338.1 142.38 338.1 141.69 338.1 139.39 338.1 138.71 338.1 136.92 338.1 136.23 338.1 134.45 338.1 133.76 338.1 131.97 338.1 131.29 338.1 129.5 338.1 128.81 338.1 127.03 338.1 126.34 338.1 124.55 338.1 123.87 338.1 122.08 338.1 121.39 338.1 119.61 338.1 118.92 338.1 117.13 338.1 116.45 338.1 115.22 338.1 114.4 338.1 114.4"/>
  <polygon class="cls-7" points="392.71 115.57 392.71 115.82 392.71 116.55 392.71 116.65 392.71 117.5 392.71 117.6 392.71 117.65 392.71 117.75 392.71 118.59 392.71 118.7 392.71 119.55 392.71 119.64 391.69 119.64 391.69 119.74 391.69 119.74 391.69 120.3 391.69 120.4 391.69 121.16 391.69 121.26 391.69 122.11 391.69 122.21 391.69 123.06 391.69 123.11 391.64 123.11 391.59 123.11 391.38 123.11 391.33 123.11 391.13 123.11 391.07 123.11 390.87 123.11 390.81 123.11 390.61 123.11 390.55 123.11 390.48 123.11 390.48 123.16 390.48 123.16 390.48 196.18 390.48 196.19 390.48 196.29 390.48 196.44 390.48 196.69 390.48 197.45 390.48 197.7 390.48 193.07 390.48 193.14 390.48 195.08 390.48 195.09 390.48 195.33 390.48 195.33 390.48 195.58 390.48 196.85 390.48 197.1 390.48 197.35 390.48 198.12 390.48 198.12 390.68 198.12 391.26 198.12 391.45 198.12 392.52 198.12 392.62 198.12 392.71 198.12 393.38 198.12 393.78 198.12 393.97 198.12 395.17 198.12 395.36 198.12 396.42 198.12 396.62 198.12 397.62 198.12 397.82 198.12 398.88 198.12 399.08 198.12 400.14 198.12 400.34 198.12 401.37 198.12 401.56 198.12 402.63 198.12 402.82 198.12 403.82 198.12 404.02 198.12 405.08 198.12 405.28 198.12 406.34 198.12 406.54 198.12 406.61 198.12 406.61 198.17 406.67 198.17 406.67 198.12 406.8 198.12 406.8 198.17 406.86 198.17 406.86 198.12 407 198.12 407 198.17 407.06 198.17 407.06 198.12 407.19 198.12 407.19 198.17 407.25 198.17 407.25 198.12 407.38 198.12 407.38 198.17 407.44 198.17 407.44 198.12 407.58 198.12 407.58 198.17 407.64 198.17 407.64 198.12 407.77 198.12 407.77 198.17 407.84 198.17 407.84 198.12 407.97 198.12 407.97 198.17 408.03 198.17 408.03 198.12 408.16 198.12 408.16 198.17 408.22 198.17 408.22 198.12 408.36 198.12 408.36 198.17 408.42 198.17 408.42 198.12 408.55 198.12 408.55 198.17 408.61 198.17 408.61 198.12 408.75 198.12 408.75 198.17 408.81 198.17 408.81 198.12 408.94 198.12 408.94 198.17 409 198.17 409 198.12 409.14 198.12 409.14 198.17 409.2 198.17 409.2 198.12 409.2 115.82 409.2 115.57 392.71 115.57"/>
  <polygon class="cls-7" points="361.21 138.2 361.26 138.2 361.26 137.32 361.21 137.32 361.21 136.82 361.21 136.13 361.21 135.94 361.21 135.93 361.21 135.25 361.21 134.75 361.21 134.06 361.21 133.88 361.21 133.19 361.21 132.68 361.21 131.99 361.21 131.81 361.21 131.12 361.21 130.62 361.21 129.93 361.21 129.74 361.21 129.05 361.21 128.55 361.21 127.86 361.21 127.67 361.21 126.99 361.21 126.69 361.21 125.79 361.21 124.92 361.21 123.73 361.21 122.85 361.21 121.66 361.21 120.79 361.21 119.6 361.21 118.72 361.21 117.21 361.21 114.62 361.21 113.9 361.21 113.07 359.55 113.07 359.55 113.9 339.23 113.9 339.23 113.12 337.57 113.12 337.57 113.9 337.57 114.67 337.57 117.21 337.57 118.72 337.57 119.6 337.57 120.79 337.57 121.66 337.57 122.85 337.57 123.73 337.57 124.92 337.57 125.79 337.57 126.99 337.57 127.86 337.57 129.05 337.57 129.93 337.57 131.12 337.57 131.99 337.57 133.19 337.57 134.06 337.57 135.25 337.57 136.13 337.57 137.32 337.57 138.2 337.57 139.39 337.57 140.26 337.57 141.45 337.57 142.33 337.57 143.52 337.57 144.39 337.57 145.59 337.57 146.46 337.57 147.65 337.57 148.53 337.57 149.72 337.57 150.59 337.57 151.79 337.57 152.66 337.57 153.85 337.57 154.73 337.57 155.92 337.57 156.79 337.57 157.99 337.57 158.86 337.57 160.05 337.57 160.93 337.57 162.12 337.57 162.99 337.57 164.19 337.57 165.06 337.57 166.25 337.57 167.13 337.57 168.32 337.57 169.19 337.57 170.39 337.57 171.26 337.57 172.45 337.57 173.33 337.57 174.52 337.57 175.39 337.57 176.59 337.57 177.46 337.57 178.65 337.57 179.53 337.57 180.72 337.57 181.59 337.57 182.79 337.57 183.66 337.57 184.85 337.57 185.73 337.57 186.92 337.57 187.79 337.57 188.99 337.57 189.86 337.57 191.05 337.57 191.93 337.57 193.12 337.57 193.99 337.57 195.19 337.57 196.06 337.57 197.25 337.57 198.13 337.57 198.72 340.75 198.72 344.09 198.72 344.09 198.77 348.17 198.77 361.21 198.77 361.26 198.77 361.26 198.13 361.26 197.25 361.26 196.06 361.26 195.19 361.26 193.99 361.26 193.12 361.26 191.93 361.26 191.05 361.26 189.86 361.26 188.99 361.26 187.79 361.26 186.92 361.26 185.73 361.26 184.85 361.26 183.66 361.26 182.79 361.26 181.59 361.26 181.22 361.26 180.72 361.21 180.72 361.21 180.22 361.21 179.53 361.26 179.53 361.26 178.65 361.21 178.65 361.21 178.15 361.21 177.46 361.26 177.46 361.26 176.59 361.21 176.59 361.21 176.08 361.21 175.39 361.26 175.39 361.26 174.52 361.21 174.52 361.21 174.02 361.21 173.33 361.26 173.33 361.26 172.45 361.21 172.45 361.21 171.95 361.21 171.26 361.26 171.26 361.26 170.39 361.21 170.39 361.21 169.88 361.21 169.19 361.26 169.19 361.26 168.32 361.21 168.32 361.21 167.82 361.21 167.13 361.26 167.13 361.26 166.25 361.21 166.25 361.21 165.75 361.21 165.06 361.26 165.06 361.26 164.19 361.21 164.19 361.21 163.69 361.21 162.99 361.26 162.99 361.26 162.12 361.21 162.12 361.21 161.62 361.21 160.93 361.26 160.93 361.26 160.05 361.21 160.05 361.21 159.55 361.21 158.86 361.26 158.86 361.26 157.99 361.21 157.99 361.21 157.48 361.21 156.79 361.26 156.79 361.26 155.92 361.21 155.92 361.21 155.42 361.21 154.73 361.26 154.73 361.26 153.85 361.21 153.85 361.21 153.35 361.21 152.66 361.26 152.66 361.26 151.79 361.21 151.79 361.21 151.29 361.21 150.59 361.26 150.59 361.26 149.72 361.21 149.72 361.21 149.22 361.21 148.53 361.26 148.53 361.26 147.65 361.21 147.65 361.21 147.15 361.21 146.46 361.26 146.46 361.26 145.59 361.21 145.59 361.21 145.08 361.21 144.39 361.26 144.39 361.26 143.52 361.21 143.52 361.21 143.02 361.21 142.33 361.26 142.33 361.26 141.45 361.21 141.45 361.21 140.95 361.21 140.26 361.26 140.26 361.26 139.39 361.21 139.39 361.21 138.88 361.21 138.2"/>
  <polygon class="cls-7" points="36.2 186.78 36.2 174.66 36.76 174.66 36.76 174.16 36.2 174.16 36.2 171.21 36.2 171.21 35.67 171.21 35.63 171.21 35.63 156.14 35.23 156.14 34.89 156.14 34.71 156.14 34.4 156.14 34.4 147.88 34.4 147.88 34.4 146.57 34.32 146.57 34.04 146.57 32.8 145.65 32.8 145.65 27.23 141.54 21.67 145.65 21.67 145.65 21.66 145.66 20.43 146.57 20.13 146.57 20.13 147.88 20.13 156.14 19.86 156.14 19.73 156.14 19.65 156.14 19.32 156.14 18.9 156.14 18.9 171.21 18.87 171.21 18.34 171.21 18.34 174.16 17.82 174.16 17.82 174.66 18.34 174.66 18.34 175.17 18.34 175.47 18.34 175.84 18.34 176.29 18.34 176.66 18.34 177.1 18.34 177.48 18.34 177.92 18.34 178.29 18.34 178.74 18.34 179.11 18.34 179.55 18.34 179.93 18.34 180.37 18.34 180.74 18.34 181.19 18.34 181.56 18.34 182 18.34 182.38 18.34 182.82 18.34 183.19 18.34 183.64 18.34 184.01 18.34 184.45 18.34 184.83 18.34 185.27 18.34 185.65 18.34 186.09 18.34 186.46 18.34 186.78 16.36 186.78 16.36 198.24 38 198.24 38 186.78 36.2 186.78"/>
  <polygon class="cls-7" points="118.76 114.62 114.35 114.62 114.35 108.78 108.93 108.78 108.93 100.22 107.16 100.22 107.16 99.8 101.44 99.8 101.44 96.49 101.31 96.49 101.31 93.71 101.01 93.71 101.01 96.49 100.87 96.49 100.87 99.8 100.52 99.8 100.52 100.22 96.51 100.22 96.51 99.37 89.87 99.37 89.87 100.22 88.91 100.22 88.91 198.26 108.93 198.26 108.93 198.23 118.76 198.23 118.76 114.62"/>
  <polygon class="cls-7" points="157.97 183.72 157.97 157.12 162.18 157.12 162.18 132.65 166.57 132.65 166.57 84.81 169.98 84.81 169.98 80.57 175.51 80.57 175.51 77.8 189.43 77.8 189.43 80.57 191.22 80.57 191.22 84.81 191.22 89.05 191.22 132.65 191.22 137.82 191.22 157.12 191.22 159.15 191.22 183.72 191.22 185.65 191.22 198.28 135.97 198.28 135.97 183.72 157.97 183.72"/>
  <polygon class="cls-7" points="214.79 115.48 214.79 113.73 197.68 113.73 197.68 115.48 196.88 115.48 196.88 198.13 215.58 198.13 215.58 115.48 214.79 115.48"/>
  <polygon class="cls-7" points="259.46 104.42 241.72 104.42 241.72 106.16 239.5 106.16 239.5 198.82 262.09 198.82 262.09 106.16 259.46 106.16 259.46 104.42"/>
  <polygon class="cls-6" points="310.08 97.87 310.08 97.17 288.74 97.17 288.74 97.33 286.25 97.33 286.25 97.17 264.91 97.17 264.91 97.87 286.25 97.87 286.25 97.87 285.43 97.87 285.12 97.87 283.08 97.87 282.77 97.87 280.73 97.87 280.42 97.87 278.37 97.87 278.06 97.87 276.02 97.87 275.71 97.87 273.67 97.87 273.36 97.87 271.32 97.87 271.01 97.87 268.96 97.87 268.65 97.87 266.61 97.87 266.3 97.87 264.91 97.87 264.91 98.44 264.91 98.69 264.91 99.25 264.91 99.51 264.91 100.07 264.91 100.33 264.91 100.89 264.91 101.14 264.91 101.7 264.91 101.96 264.91 102.52 264.91 102.78 264.91 103.34 264.91 103.59 264.91 104.15 264.91 104.41 264.91 104.97 264.91 105.23 264.91 105.79 264.91 106.04 264.91 106.6 264.91 106.86 264.91 107.42 264.91 107.67 264.91 108.24 264.91 108.49 264.91 109.05 264.91 109.31 264.91 109.87 264.91 110.12 264.91 110.69 264.91 110.94 264.91 111.5 264.91 111.76 264.91 112.32 264.91 112.57 264.91 113.14 264.91 113.39 264.91 113.95 264.91 114.21 264.91 114.77 264.91 115.02 264.91 115.59 264.91 115.84 264.91 116.4 264.91 116.66 264.91 117.22 264.91 117.47 264.91 118.04 264.91 118.29 264.91 118.85 264.91 119.11 264.91 119.67 264.91 119.92 264.91 120.49 264.91 120.74 264.91 121.3 264.91 121.56 264.91 122.12 264.91 122.37 264.91 122.93 264.91 123.19 264.91 123.75 264.91 124.01 264.91 124.57 264.91 124.82 264.91 125.39 264.91 125.64 264.91 126.2 264.91 126.46 264.91 127.02 264.91 127.27 264.91 127.83 264.91 128.09 264.91 128.65 264.91 128.91 264.91 129.47 264.91 129.72 264.91 130.28 264.91 130.54 264.91 131.1 264.91 131.36 264.91 131.92 264.91 132.17 264.91 132.73 264.91 132.99 264.91 133.55 264.91 133.81 264.91 134.37 264.91 134.62 264.91 135.18 264.91 135.44 264.91 136 264.91 136.26 264.91 136.82 264.91 137.07 264.91 137.63 264.91 137.89 264.91 138.45 264.91 138.71 264.91 139.27 264.91 139.52 264.91 140.08 264.91 140.34 264.91 140.9 264.91 141.16 264.91 141.72 264.91 141.97 264.91 142.53 264.91 142.79 264.91 143.35 264.91 143.61 264.91 144.17 264.91 144.42 264.91 144.98 264.91 145.24 264.91 145.8 264.91 146.06 264.91 146.62 264.91 146.87 264.91 147.43 264.91 147.69 264.91 148.25 264.91 148.51 264.91 149.07 264.91 149.32 264.91 149.88 264.91 150.14 264.91 150.7 264.91 150.96 264.91 151.52 264.91 151.77 264.91 152.33 264.91 152.59 264.91 153.15 264.91 153.41 264.91 153.97 264.91 154.22 264.91 154.78 264.91 155.04 264.91 155.6 264.91 155.85 264.91 156.42 264.91 156.67 264.91 157.23 264.91 157.49 264.91 158.05 264.91 158.3 264.91 158.87 264.91 159.12 264.91 159.68 264.91 159.94 264.91 160.5 264.91 160.76 264.91 161.32 264.91 161.57 264.91 162.13 264.91 162.39 264.91 162.95 264.91 163.21 264.91 163.77 264.91 164.02 264.91 164.58 264.91 164.84 264.91 165.4 264.91 165.65 264.91 166.22 264.91 166.47 264.91 167.03 264.91 167.29 264.91 167.85 264.91 168.1 264.91 168.67 264.91 168.92 264.91 169.48 264.91 169.74 264.91 170.3 264.91 170.56 264.91 171.12 264.91 171.37 264.91 171.93 264.91 172.19 264.91 172.75 264.91 173 264.91 173.57 264.91 173.82 264.91 174.38 264.91 174.64 264.91 175.2 264.91 175.45 264.91 176.02 264.91 176.27 264.91 176.83 264.91 177.09 264.91 177.65 264.91 177.91 264.91 178.47 264.91 178.72 264.91 179.28 264.91 179.54 264.91 180.1 264.91 180.36 264.91 180.91 264.91 181.17 264.91 181.73 264.91 181.99 264.91 182.55 264.91 182.8 264.91 183.36 264.91 183.62 264.91 184.18 264.91 184.44 264.91 185 264.91 185.25 264.91 185.82 264.91 186.07 264.91 186.63 264.91 186.89 264.91 187.45 264.91 187.7 264.91 188.27 264.91 188.52 264.91 189.08 264.91 189.34 264.91 189.9 264.91 190.15 264.91 190.72 264.91 190.97 264.91 191.53 264.91 191.79 264.91 192.35 264.91 192.6 264.91 193.16 264.91 193.42 264.91 193.98 264.91 194.24 264.91 194.8 264.91 195.05 264.91 195.61 264.91 195.87 264.91 196.43 264.91 196.69 264.91 197.25 264.91 197.5 264.91 198.07 264.91 198.41 266.3 198.41 266.3 198.51 266.61 198.51 266.61 198.41 268.65 198.41 268.65 198.51 268.96 198.51 268.96 198.41 271.01 198.41 271.01 198.51 271.32 198.51 271.32 198.41 273.36 198.41 273.36 198.51 273.67 198.51 273.67 198.41 275.71 198.41 275.71 198.51 276.02 198.51 276.02 198.41 278.06 198.41 278.06 198.51 278.37 198.51 278.37 198.41 280.04 198.41 280.04 198.51 280.42 198.51 280.73 198.51 281.16 198.51 281.86 198.51 282.29 198.51 282.77 198.51 283.08 198.51 285.12 198.51 285.43 198.51 289.83 198.51 290.14 198.51 292.18 198.51 292.49 198.51 293.37 198.51 294.06 198.51 294.49 198.51 294.53 198.51 294.84 198.51 294.85 198.51 295.19 198.51 295.62 198.51 295.62 198.41 296.88 198.41 296.88 198.51 297.19 198.51 297.19 198.41 299.23 198.41 299.23 198.51 299.55 198.51 299.55 198.41 301.59 198.41 301.59 198.51 301.9 198.51 301.9 198.41 303.94 198.41 303.94 198.51 304.25 198.51 304.25 198.41 306.29 198.41 306.29 198.51 306.6 198.51 306.6 198.41 308.65 198.41 308.65 198.51 308.96 198.51 308.96 198.41 310.08 198.41 310.08 198.07 310.08 197.5 310.08 197.25 310.08 196.69 310.08 196.43 310.08 195.87 310.08 195.61 310.08 195.05 310.08 194.8 310.08 194.24 310.08 193.98 310.08 193.42 310.08 193.16 310.08 192.6 310.08 192.35 310.08 191.79 310.08 191.53 310.08 190.97 310.08 190.72 310.08 190.15 310.08 189.9 310.08 189.34 310.08 189.08 310.08 188.52 310.08 188.27 310.08 187.7 310.08 187.45 310.08 186.89 310.08 186.63 310.08 186.07 310.08 185.82 310.08 185.25 310.08 185 310.08 184.44 310.08 184.18 310.08 183.62 310.08 183.36 310.08 182.8 310.08 182.55 310.08 181.99 310.08 181.73 310.08 181.17 310.08 180.91 310.08 180.36 310.08 180.1 310.08 179.54 310.08 179.28 310.08 178.72 310.08 178.47 310.08 177.91 310.08 177.65 310.08 177.09 310.08 176.83 310.08 176.27 310.08 176.02 310.08 175.45 310.08 175.2 310.08 174.64 310.08 174.38 310.08 173.82 310.08 173.57 310.08 173 310.08 172.75 310.08 172.19 310.08 171.93 310.08 171.37 310.08 171.12 310.08 170.56 310.08 170.3 310.08 169.74 310.08 169.48 310.08 168.92 310.08 168.67 310.08 168.1 310.08 167.85 310.08 167.29 310.08 167.03 310.08 166.47 310.08 166.22 310.08 165.65 310.08 165.4 310.08 164.84 310.08 164.58 310.08 164.02 310.08 163.77 310.08 163.21 310.08 162.95 310.08 162.39 310.08 162.13 310.08 161.57 310.08 161.32 310.08 160.76 310.08 160.5 310.08 159.94 310.08 159.68 310.08 159.12 310.08 158.87 310.08 158.3 310.08 158.05 310.08 157.49 310.08 157.23 310.08 156.67 310.08 156.42 310.08 155.85 310.08 155.6 310.08 155.04 310.08 154.78 310.08 154.22 310.08 153.97 310.08 153.41 310.08 153.15 310.08 152.59 310.08 152.33 310.08 151.77 310.08 151.52 310.08 150.96 310.08 150.7 310.08 150.14 310.08 149.88 310.08 149.32 310.08 149.07 310.08 148.51 310.08 148.25 310.08 147.69 310.08 147.43 310.08 146.87 310.08 146.62 310.08 146.06 310.08 145.8 310.08 145.24 310.08 144.98 310.08 144.42 310.08 144.17 310.08 143.61 310.08 143.35 310.08 142.79 310.08 142.53 310.08 141.97 310.08 141.72 310.08 141.16 310.08 140.9 310.08 140.34 310.08 140.08 310.08 139.52 310.08 139.27 310.08 138.71 310.08 138.45 310.08 137.89 310.08 137.63 310.08 137.07 310.08 136.82 310.08 136.26 310.08 136 310.08 135.44 310.08 135.18 310.08 134.62 310.08 134.37 310.08 133.81 310.08 133.55 310.08 132.99 310.08 132.73 310.08 132.17 310.08 131.92 310.08 131.36 310.08 131.1 310.08 130.54 310.08 130.28 310.08 129.72 310.08 129.47 310.08 128.91 310.08 128.65 310.08 128.09 310.08 127.83 310.08 127.27 310.08 127.02 310.08 126.46 310.08 126.2 310.08 125.64 310.08 125.39 310.08 124.82 310.08 124.57 310.08 124.01 310.08 123.75 310.08 123.19 310.08 122.93 310.08 122.37 310.08 122.12 310.08 121.56 310.08 121.3 310.08 120.74 310.08 120.49 310.08 119.92 310.08 119.67 310.08 119.11 310.08 118.85 310.08 118.29 310.08 118.04 310.08 117.47 310.08 117.22 310.08 116.66 310.08 116.4 310.08 115.84 310.08 115.59 310.08 115.02 310.08 114.77 310.08 114.21 310.08 113.95 310.08 113.39 310.08 113.14 310.08 112.57 310.08 112.32 310.08 111.76 310.08 111.5 310.08 110.94 310.08 110.69 310.08 110.12 310.08 109.87 310.08 109.31 310.08 109.05 310.08 108.49 310.08 108.24 310.08 107.67 310.08 107.42 310.08 106.86 310.08 106.6 310.08 106.04 310.08 105.79 310.08 105.23 310.08 104.97 310.08 104.41 310.08 104.15 310.08 103.59 310.08 103.34 310.08 102.78 310.08 102.52 310.08 101.96 310.08 101.7 310.08 101.14 310.08 100.89 310.08 100.33 310.08 100.07 310.08 99.51 310.08 99.25 310.08 98.69 310.08 98.44 310.08 97.87 308.96 97.87 308.65 97.87 306.6 97.87 306.29 97.87 304.25 97.87 303.94 97.87 301.9 97.87 301.59 97.87 299.55 97.87 299.23 97.87 297.19 97.87 296.88 97.87 294.84 97.87 294.53 97.87 292.49 97.87 292.18 97.87 290.14 97.87 289.83 97.87 288.74 97.87 288.74 97.87 310.08 97.87"/>
  <polygon class="cls-4" points="422.15 125.71 421.96 125.71 421.47 125.71 421.28 125.71 420.79 125.71 420.59 125.71 420.1 125.71 419.91 125.71 419.42 125.71 419.42 124.98 419.42 124.78 419.42 123.57 419.42 123.38 419.42 122.87 419.42 122.67 419.42 122.07 419.22 122.07 418.73 122.07 418.54 122.07 418.05 122.07 417.86 122.07 417.37 122.07 417.17 122.07 416.68 122.07 416.48 122.07 416 122.07 415.8 122.07 415.31 122.07 415.12 122.07 414.63 122.07 414.43 122.07 413.94 122.07 413.75 122.07 413.26 122.07 413.06 122.07 412.57 122.07 412.38 122.07 411.89 122.07 411.7 122.07 411.2 122.07 411.01 122.07 410.52 122.07 410.33 122.07 409.84 122.07 409.64 122.07 409.15 122.07 408.96 122.07 408.47 122.07 408.27 122.07 407.78 122.07 407.59 122.07 407.1 122.07 406.91 122.07 406.41 122.07 406.22 122.07 405.97 122.07 405.97 125.71 405.73 125.71 405.54 125.71 405.05 125.71 404.85 125.71 404.66 125.71 404.04 125.71 404.04 126.19 404.04 126.39 404.04 127 404.04 127.39 404.04 127.58 404.04 127.59 404.04 127.79 404.04 128.4 404.04 129 404.04 129.19 404.04 129.81 404.04 130.2 404.04 130.39 404.04 130.4 404.04 130.6 404.04 131.22 404.04 131.8 404.04 132 404.04 132.62 404.04 133.01 404.04 133.2 404.04 133.21 404.04 133.41 404.04 134.02 404.04 134.62 404.04 134.81 404.04 135.43 404.04 135.82 404.04 136.01 404.04 136.02 404.04 136.22 404.04 136.83 404.04 137.42 404.04 137.62 404.04 138.24 404.04 138.63 404.04 138.82 404.04 138.83 404.04 139.03 404.04 139.64 404.04 140.23 404.04 140.43 404.04 141.05 404.04 141.44 404.04 141.63 404.04 141.64 404.04 141.84 404.04 142.45 404.04 143.04 404.04 143.24 404.04 143.86 404.04 144.25 404.04 144.44 404.04 144.45 404.04 144.64 404.04 145.26 404.04 145.85 404.04 146.05 404.04 146.67 404.04 147.06 404.04 147.25 404.04 147.26 404.04 147.45 404.04 148.07 404.04 148.66 404.04 148.86 404.04 149.48 404.04 149.87 404.04 150.06 404.04 150.06 404.04 150.26 404.04 150.88 404.04 151.47 404.04 151.67 404.04 152.29 404.04 152.68 404.04 152.87 404.04 152.87 404.04 153.07 404.04 153.69 404.04 154.28 404.04 154.48 404.04 155.1 404.04 155.49 404.04 155.67 404.04 155.68 404.04 155.88 404.04 156.5 404.04 157.09 404.04 157.29 404.04 157.91 404.04 158.3 404.04 158.48 404.04 158.49 404.04 158.69 404.04 159.31 404.04 159.9 404.04 160.1 404.04 160.71 404.04 161.11 404.04 161.29 404.04 161.3 404.04 161.5 404.04 162.12 404.04 162.71 404.04 162.91 404.04 163.52 404.04 163.92 404.04 164.1 404.04 164.11 404.04 164.31 404.04 164.93 404.04 165.52 404.04 165.72 404.04 166.33 404.04 166.73 404.04 166.91 404.04 166.92 404.04 167.12 404.04 167.74 404.04 168.33 404.04 168.52 404.04 169.14 404.04 169.54 404.04 169.72 404.04 169.73 404.04 169.93 404.04 170.55 404.04 171.14 404.04 171.33 404.04 171.95 404.04 172.35 404.04 172.53 404.04 172.54 404.04 172.74 404.04 173.36 404.04 173.95 404.04 174.14 404.04 174.45 404.04 174.64 404.04 174.76 404.04 175.35 404.04 175.55 404.04 176.16 403.17 176.16 402.92 176.16 402.13 176.16 401.89 176.16 401.09 176.16 400.85 176.16 400.06 176.16 399.81 176.16 399.02 176.16 398.78 176.16 397.89 176.16 397.89 176.12 397.89 175.53 397.89 174.93 397.89 174.73 397.89 174.14 397.89 173.54 397.89 173.35 397.89 172.76 397.89 172.16 397.89 171.96 397.89 171.37 397.89 170.77 397.89 170.57 397.89 170.55 397.89 169.98 397.89 169.38 397.89 169.21 397.89 169.18 397.89 169.02 397.89 168.59 397.89 167.99 397.89 167.79 397.89 167.21 397.89 166.61 397.89 166.43 397.89 166.41 397.89 166.25 397.89 165.82 397.89 165.22 397.89 165.02 397.89 164.43 397.89 163.83 397.89 163.66 397.89 163.63 397.89 163.47 397.89 163.04 397.89 162.44 397.89 162.25 397.89 161.66 397.89 161.06 397.89 160.88 397.89 160.86 397.89 160.7 397.89 160.27 397.89 159.67 397.89 159.47 397.89 158.88 397.89 158.28 397.89 158.11 397.89 158.08 397.89 157.92 397.89 157.49 397.89 156.89 397.89 156.7 397.89 156.1 397.89 155.51 397.89 155.33 397.89 155.31 397.89 155.15 397.89 154.72 397.89 154.12 397.89 153.92 397.89 153.33 397.89 152.73 397.89 152.56 397.89 152.53 397.89 152.37 397.89 151.94 397.89 151.34 397.89 151.18 397.89 151.15 397.89 150.56 397.89 149.96 397.89 149.78 397.89 149.76 397.89 149.6 397.89 149.17 397.89 148.57 397.89 148.37 397.89 147.78 397.89 147.18 397.89 147.01 397.89 146.98 397.89 146.82 397.89 146.39 397.89 145.79 397.89 145.59 397.89 145.01 397.89 144.41 397.89 144.23 397.89 144.21 397.89 144.04 397.89 143.62 397.89 143.02 397.89 142.82 397.89 142.23 397.89 141.63 397.89 141.45 397.89 141.43 397.89 141.27 397.89 140.84 397.89 140.24 397.89 140.04 397.89 139.46 397.89 138.86 397.89 138.68 397.89 138.66 397.89 138.5 397.89 138.07 397.89 137.47 397.89 137.27 397.89 136.68 397.89 136.08 397.89 135.91 397.89 135.88 397.89 135.72 397.89 135.29 397.89 134.69 397.89 134.49 397.89 133.91 397.89 133.3 397.89 133.13 397.89 133.11 397.89 132.94 397.89 132.52 397.89 131.92 397.89 131.72 397.89 131.22 397.89 131.13 397.89 130.53 397.89 130.35 397.89 130.33 397.89 130.17 397.89 129.74 397.89 129.14 397.89 128.95 397.89 128.36 397.89 127.75 397.89 127.58 397.89 127.56 397.89 127.39 397.89 126.97 397.89 126.37 397.89 126.19 397.89 126.17 397.89 125.71 397.89 125.58 397.89 124.98 397.89 124.8 397.89 124.78 397.89 124.62 397.89 124.19 397.89 123.59 397.89 123.39 397.89 122.8 397.89 122.2 397.89 122.03 397.89 122.01 397.89 121.84 397.89 121.42 397.89 120.82 397.89 120.62 397.89 120.03 397.89 119.43 397.89 119.25 397.89 119.23 397.89 119.07 397.89 118.64 397.89 118.04 397.89 117.84 397.89 117.25 397.89 116.65 397.89 116.48 397.89 116.46 397.89 116.29 397.89 115.87 397.89 115.27 397.89 115.07 397.89 114.48 397.89 113.88 397.89 113.7 397.89 113.68 397.89 113.52 397.89 113.09 396.93 113.09 396.74 113.09 395.78 113.09 395.78 112.49 395.79 112.49 395.79 112.29 395.79 111.7 395.78 111.7 395.78 111.1 395.79 111.1 395.79 110.93 395.79 110.91 395.79 110.74 395.79 110.32 395.78 110.32 395.78 109.72 395.79 109.72 395.79 109.52 395.79 108.93 395.78 108.93 395.78 108.33 395.79 108.33 395.79 108.15 395.79 108.13 395.79 107.97 395.79 107.54 395.78 107.54 395.78 106.94 395.79 106.94 395.79 106.74 395.79 106.15 395.79 105.56 395.79 105.38 395.79 105.36 395.79 105.19 395.79 104.77 395.79 104.67 395.78 104.67 395.57 104.67 395.38 104.67 394.22 104.67 394.03 104.67 392.87 104.67 392.67 104.67 391.51 104.67 391.32 104.67 390.16 104.67 389.97 104.67 388.81 104.67 388.62 104.67 387.46 104.67 387.27 104.67 386.96 104.67 386.11 104.67 385.91 104.67 384.76 104.67 384.56 104.67 383.4 104.67 383.21 104.67 382.36 104.67 382.05 104.67 381.86 104.67 380.7 104.67 380.51 104.67 379.35 104.67 379.16 104.67 378.15 104.67 378.15 104.77 378.15 105.19 378.15 105.36 378.15 105.38 378.15 105.56 378.15 106.15 378.15 106.74 378.15 106.94 378.15 107.54 378.15 107.97 378.15 108.13 378.15 108.15 378.15 108.33 378.15 108.93 378.15 109.52 378.15 109.72 378.15 110.32 378.15 110.74 378.15 110.91 378.15 110.93 378.15 111.1 378.15 111.7 378.15 112.29 378.15 112.49 378.15 113.09 378.15 113.52 378.15 113.68 378.15 113.7 378.15 113.88 378.15 114.48 378.15 115.07 378.15 115.27 378.15 115.87 378.15 116.29 378.15 116.46 378.15 116.48 378.15 116.65 378.15 117.25 378.15 117.84 378.15 118.04 378.15 118.64 378.15 119.07 378.15 119.23 378.15 119.25 378.15 119.43 378.15 120.03 378.15 120.62 378.15 120.82 378.15 121.42 378.15 121.84 378.15 122.01 378.15 122.03 378.15 122.07 378.01 122.07 378.01 122.03 377.82 122.03 377.82 122.07 376.66 122.07 376.66 122.03 376.46 122.03 376.46 122.07 375.6 122.07 375.6 122.8 375.6 123.39 375.6 123.59 375.6 124.19 375.6 124.62 375.6 124.78 375.6 124.8 375.6 124.98 375.6 125.58 375.6 126.17 375.6 126.37 375.6 126.97 375.6 127.56 375.6 127.75 375.6 128.36 375.6 128.95 375.6 129.14 375.6 129.74 375.6 130.33 375.6 130.53 375.6 131.13 375.6 131.22 375.6 131.72 375.6 131.92 375.6 132.52 375.6 133.11 375.6 133.3 375.6 133.91 375.6 134.49 375.6 134.69 375.6 135.29 375.6 135.88 375.6 136.08 375.6 136.68 375.6 137.27 375.6 137.47 375.6 138.07 375.6 138.66 375.6 138.86 375.6 139.46 375.6 140.04 375.6 140.24 375.6 140.84 375.6 141.43 375.6 141.63 375.6 142.23 375.6 142.82 375.6 143.02 375.6 143.62 375.6 144.21 375.6 144.41 375.6 145.01 375.6 145.59 375.6 145.79 375.6 146.39 375.6 146.98 375.6 147.18 375.6 147.78 375.6 148.37 375.6 148.57 375.6 149.17 375.6 149.76 375.6 149.96 375.6 150.56 375.6 151.15 375.6 151.18 375.6 151.34 375.6 151.94 375.6 152.53 375.6 152.73 375.6 153.33 375.6 153.92 375.6 154.12 375.6 154.72 375.6 155.31 375.6 155.51 375.6 156.1 375.6 156.7 375.6 156.89 375.6 157.49 375.6 158.08 375.6 158.28 375.6 158.88 375.6 159.47 375.6 159.67 375.6 160.27 375.6 160.86 375.6 161.06 375.6 161.66 375.6 162.25 375.6 162.44 375.6 163.04 375.6 163.63 375.6 163.83 375.6 164.43 375.6 165.02 375.6 165.22 375.6 165.82 375.6 166.41 375.6 166.61 375.6 167.21 375.6 167.79 375.6 167.99 375.6 168.59 375.6 169.18 375.6 169.38 375.6 169.98 375.6 170.55 375.6 170.57 375.6 170.77 375.6 171.37 375.6 171.96 375.6 172.16 375.6 172.76 375.6 173.35 375.6 173.54 375.6 174.14 375.6 174.73 375.6 174.93 375.6 175.53 375.6 176.12 375.6 176.32 375.6 176.92 375.6 177.51 375.6 177.71 375.6 178.31 375.6 178.9 375.6 179.09 375.6 179.69 375.6 180.28 375.6 180.48 375.6 197.18 375.6 197.77 375.6 197.97 375.6 198.54 375.6 198.55 389.86 198.55 397.89 198.55 397.89 198.58 404.04 198.58 419.34 198.58 422.75 198.58 422.75 197.78 422.75 197.69 422.75 197.49 422.75 180.89 422.75 180.28 422.75 180.19 422.75 179.99 422.75 179.49 422.75 178.78 422.75 178.59 422.75 178 422.75 176.95 422.75 176.76 422.75 176.16 422.75 175.55 422.75 175.35 422.75 174.76 422.75 174.14 422.75 173.95 422.75 173.36 422.75 172.74 422.75 172.54 422.75 171.95 422.75 171.33 422.75 171.14 422.75 170.55 422.75 169.93 422.75 169.73 422.75 169.14 422.75 168.52 422.75 168.33 422.75 167.74 422.75 167.12 422.75 166.92 422.75 166.33 422.75 165.72 422.75 165.52 422.75 164.93 422.75 164.31 422.75 164.11 422.75 163.52 422.75 162.91 422.75 162.71 422.75 162.12 422.75 161.5 422.75 161.3 422.75 160.71 422.75 160.1 422.75 159.9 422.75 159.31 422.75 158.69 422.75 158.49 422.75 157.91 422.75 157.29 422.75 157.09 422.75 156.5 422.75 155.88 422.75 155.68 422.75 155.1 422.75 154.48 422.75 154.28 422.75 153.69 422.75 153.07 422.75 152.87 422.75 152.29 422.75 151.67 422.75 151.47 422.75 150.88 422.75 150.26 422.75 150.06 422.75 149.48 422.75 148.86 422.75 148.66 422.75 148.07 422.75 147.45 422.75 147.26 422.75 146.67 422.75 146.05 422.75 145.85 422.75 145.26 422.75 144.64 422.75 144.45 422.75 143.86 422.75 143.24 422.75 143.04 422.75 142.45 422.75 141.84 422.75 141.64 422.75 141.56 422.75 141.05 422.75 140.43 422.75 140.23 422.75 139.64 422.75 139.03 422.75 138.83 422.75 138.24 422.75 137.62 422.75 137.42 422.75 136.83 422.75 136.22 422.75 136.02 422.75 135.48 422.75 135.43 422.75 134.81 422.75 134.62 422.75 134.02 422.75 133.41 422.75 133.21 422.75 132.62 422.75 132 422.75 131.8 422.75 131.22 422.75 131.12 422.75 130.6 422.75 130.4 422.75 129.81 422.75 129.19 422.75 129 422.75 128.4 422.75 127.79 422.75 127.59 422.75 127 422.75 126.39 422.75 126.19 422.75 125.71 422.15 125.71"/>
  <polygon class="cls-6" points="22.51 166.54 22.51 166.29 27.25 163.61 32 166.29 32 166.54 32.97 166.54 32.97 166.77 35.06 166.77 35.06 197.75 32.97 197.75 23.63 197.75 21.54 197.75 21.54 166.54 22.51 166.54"/>
  <polygon class="cls-4" points="88.25 183.83 88.25 168.25 87.03 168.25 87.03 142.25 86.11 142.25 86.11 134.92 85.39 134.92 85.39 130.68 84.04 130.68 84.04 129.65 83.31 129.65 83.31 128.92 82.84 128.92 82.84 128.41 75.91 128.41 75.91 128.92 75.44 128.92 75.44 129.65 74.71 129.65 74.71 130.68 73.37 130.68 73.37 134.92 72.64 134.92 72.64 142.25 71.72 142.25 71.72 153.72 70.5 153.72 70.5 183.83 69.3 183.83 69.3 197.78 89.45 197.78 89.45 183.83 88.25 183.83"/>
  <path class="cls-4" d="M365.81,124.18v-1.13h-1.1c-.61-.71-4.02-1.24-8.14-1.24s-7.53,.54-8.14,1.24h-1.1v1.13h-4.64v74.35h28.22V124.18h-5.1Z"/>
  <polygon class="cls-4" points="161.22 149.51 161.22 148.48 147.19 148.48 147.19 149.51 146.54 149.51 146.54 198.21 161.87 198.21 161.87 149.51 161.22 149.51"/>
  <polygon class="cls-8" points="250.25 149.51 250.25 148.48 236.23 148.48 236.23 149.51 235.58 149.51 235.58 198.21 250.91 198.21 250.91 149.51 250.25 149.51"/>
  <polygon class="cls-6" points="178.98 163.16 178.98 162.12 164.96 162.12 164.96 163.16 164.31 163.16 164.31 200.1 179.63 200.1 179.63 163.16 178.98 163.16"/>
  <path class="cls-4" d="M241.08,136.84v-.94h-1.1c-.61-.59-4.02-1.04-8.14-1.04s-7.53,.45-8.14,1.04h-1.1v.94h-4.64v61.86h28.22v-61.86h-5.1Z"/>
  <polygon class="cls-4" points="128.65 139.43 128.65 138.64 127.17 138.64 127.17 136.8 126.96 136.8 126.96 136.72 124.47 136.72 124.47 136.51 124.01 136.51 124.01 136.23 122.76 136.23 122.76 136.51 119.46 136.51 119.46 136.72 118.28 136.72 118.28 126.72 117.56 126.72 117.56 136.72 115.66 136.72 115.66 136.8 115.53 136.8 115.53 138.64 115.05 138.64 115.05 140.15 112.66 140.15 112.66 198.77 117.98 198.77 126.26 198.77 131.58 198.77 131.58 139.43 128.65 139.43"/>
  <path class="cls-6" d="M261.23,177.02v-.05h-3.57v-52.11h3.57v-1.86h-14.28v-1.75h-18.44v1.75h-17.29v-1.75h-18.44v1.75h-8.92v76.1h82.11v-22.07h-4.75Zm-32.71-52.16v52.11h-13.29v-52.11h13.29Zm-43.01,0h7.28v2.38h-7.28v-2.38Z"/>
  <path class="cls-5" d="M207.65,183.2c-.04-.46-.42-.82-.89-.82-.24,0-.46,.09-.62,.25-.16-.15-.38-.25-.62-.25s-.45,.09-.61,.24c-.1-.09-.21-.15-.34-.19-.38-1.12-1.43-1.94-2.68-1.94-1.52,0-2.76,1.2-2.83,2.7h-1.58c-.04-.46-.42-.82-.89-.82-.24,0-.46,.09-.62,.25-.16-.15-.38-.25-.62-.25s-.45,.09-.61,.24c-.1-.09-.21-.15-.34-.19-.38-1.12-1.43-1.94-2.68-1.94-.92,0-1.73,.44-2.25,1.12-.4-.34-.91-.55-1.47-.55-.61,0-1.17,.24-1.58,.64-.41-.4-.97-.64-1.58-.64s-1.15,.23-1.56,.62c-.41-.39-.96-.62-1.56-.62-.95,0-1.75,.58-2.1,1.41-.11-.05-.24-.09-.38-.09-.24,0-.45,.09-.61,.24-.1-.09-.22-.15-.34-.19-.38-1.12-1.43-1.94-2.68-1.94s-2.35,.85-2.7,2.02c-.13-.08-.28-.13-.44-.13-.07,0-.13,.02-.19,.04-.35-.8-1.15-1.35-2.08-1.35-.61,0-1.17,.24-1.58,.64-.41-.4-.96-.64-1.58-.64s-1.15,.23-1.56,.62c-.41-.39-.96-.62-1.56-.62-.95,0-1.76,.58-2.1,1.41-.12-.05-.24-.09-.38-.09-.24,0-.46,.09-.62,.25-.16-.16-.38-.25-.62-.25s-.45,.09-.61,.24c-.16-.15-.38-.24-.61-.24-.47,0-.84,.36-.88,.82h-1.25v-2.12h-6.57V69.86h-.32v-1.69h-1.94v-2.23h-24.3v2.23h-1.94v1.69h-.32v87.47h-11.18v2.56h-2.08v.48h0v39.08h12.62v.05h.64v.89h28.82v-.89h66.12v-16.31h-8.74ZM125.8,67.99h0v.18h0v-.18Z"/>
  <polygon class="cls-6" points="345.24 81.2 345.24 81.19 345.24 78.74 345.24 75.51 345.24 75.24 339.91 75.24 339.91 72.73 332.42 72.73 328.07 72.73 328.07 75.24 321.09 75.24 321.09 75.51 321.09 81.19 321.09 81.22 321.09 86.9 321.09 91.51 321.09 92.6 321.09 97.97 321.09 103.98 321.09 104.01 321.09 109.69 321.09 198.49 321.52 198.49 322.86 198.49 323.29 198.49 323.72 198.49 325.05 198.49 325.48 198.49 325.91 198.49 327.25 198.49 327.68 198.49 328.11 198.49 329.44 198.49 329.87 198.49 330.3 198.49 331.64 198.49 332.07 198.49 332.42 198.49 333.75 198.49 334.69 198.49 336.03 198.49 336.46 198.49 336.89 198.49 338.22 198.49 338.65 198.49 339.08 198.49 340.42 198.49 340.85 198.49 341.28 198.49 342.61 198.49 343.04 198.49 343.44 198.49 344.77 198.49 345.24 198.49 345.67 198.49 347 198.49 347.43 198.49 347.43 112.75 347.43 112.74 347.43 109.5 347.43 106.29 347.43 106.28 347.43 106.28 347.43 103.04 347.43 99.82 347.43 99.82 347.43 99.82 347.43 96.58 347.43 93.35 347.43 93.35 347.43 93.34 347.43 90.09 347.43 86.9 347.43 86.88 347.43 84.43 347.43 81.22 347.43 81.2 345.24 81.2"/>
  <path class="cls-6" d="M384.25,86.71h-10.86v2.65h-1.04s-4.38,0-4.38,0h0s-1.11,0-1.11,0h0s-5.17,0-5.17,0h0s-1.11,0-1.11,0h0s-4.5,0-4.5,0v35.39h0v3.14h0v19.79h0v53.33h27.49v-1.95h.73v-.68h-.22v-.86h.22v-.31h-.73v-1.18h.73v-.68h-.22v-.38h.22v-.31h-.73v-1.67h.73v-.68h-.22v-.4h.22v-.31h-.73v-1.64h.73v-.68h-.22v-.42h.22v-.31h-.73v-1.63h.73v-.68h-.22v-.52h.22v-.31h-.73v-1.52h.73v-.68h-.22v-.63h.22v-.31h-.73v-1.42h.73v-.68h-.22v-.73h.22v-.31h-.73v-1.32h.73v-.68h-.22v-.36h.22v-.31h-.73v-1.69h.73v-.68h-.22v-.37h.22v-.31h-.73v-1.68h.73v-.68h-.22v-.47h.22v-.31h-.73v-1.57h.73v-.68h-.22v-.57h.22v-.31h-.73v-1.47h.73v-.68h-.22v-.41h.22v-.31h-.73v-1.64h.73v-.68h-.22v-.51h.22v-.31h-.73v-1.53h.73v-.68h-.22v-.62h.22v-.31h-.73v-1.43h.73v-.68h-.22v-.72h.22v-.31h-.73v-1.33h.73v-.68h-.22v-.84h.22v-.31h-.73v-1.02h.73v-.67h-.22v-.35h.22v-.31h-.73v-1.68h0s.73-.01,.73-.01v-.68h-.22v-.45h.22v-.31h-.73v-1.59h.73v-.68h-.22v-.56h.22v-.31h-.73v-1.49h.73v-.68h-.22v-.66h.22v-.31h-.73v-1.39h.73v-.68h-.22v-.76h.22v-.31h-.73v-1.29h.73v-.68h-.22v-.86h.22v-.31h-.73v-1.18h.73v-.68h-.22v-.97h.22v-.31h-.73v-1.08h.73v-.68h-.22v-.91h.22v-.31h-.73v-1.13h.73v-.68h-.22v-1.02h.22v-.31h-.73v-1.03h.73v-.68h-.22v-.49h.22v-.31h-.73v-1.56h.73v-33.67h-.06Zm-.47,110.81v.86h-.19v-.86h.19Zm0-2.17h-.19v-.38h.19v.38Zm0-3.44v.4h-.19v-.4h.19Zm0-3.05v.42h-.19v-.42h.19Zm0-3.14v.52h-.19v-.52h.19Zm0-3.14v.63h-.19v-.63h.19Zm0-3.14v.73h-.19v-.73h.19Zm0-2.31h-.19v-.36h.19v.36Zm0-3.4v.37h-.19v-.37h.19Zm0-3.14v.47h-.19v-.47h.19Zm0-3.14v.57h-.19v-.57h.19Zm0-2.87v.41h-.19v-.41h.19Zm0-3.14v.51h-.19v-.51h.19Zm0-3.14v.62h-.19v-.62h.19Zm0-3.14v.72h-.19v-.72h.19Zm0-3.15v.84h-.19v-.84h.19Zm0-2.35v.35h-.19v-.35h.19Zm0-3.14v.45h-.19v-.45h.19Zm0-3.14v.56h-.19v-.56h.19Zm0-3.14v.66h-.19v-.66h.19Zm0-3.14v.76h-.19v-.76h.19Zm0-3.14v.86h-.19v-.86h.19Zm0-3.14v.97h-.19v-.97h.19Zm0-2.98v.91h-.19v-.91h0s.19,0,.19,0Zm0-3.14v1.02h-.19v-1.01h0s.19,0,.19,0Zm0-2.51v.49h-.19v-.49h.19Z"/>
  <polygon class="cls-5" points="315.01 120.19 315.01 120.19 309.1 120.19 309.1 120.19 309.1 119.61 304.63 119.61 304.63 118.43 301.88 118.43 301.88 117.06 298.31 117.06 298.3 116.27 298.31 116.27 298.31 112.74 298.26 112.74 298.18 106.06 298.18 104.12 298.15 104.12 298.07 97.28 298.07 95.49 298.05 95.49 297.96 88.64 297.96 86.87 297.94 86.87 297.91 84.71 297.42 84.71 297.39 86.87 297.37 86.87 297.37 88.64 297.28 95.49 297.26 95.49 297.26 97.15 297.18 104.12 297.16 104.12 297.16 105.93 297.07 112.74 297.02 112.74 297.02 116.27 297.03 116.27 297.02 117.06 295.34 117.06 295.34 119.61 290.15 119.61 290.15 120.19 290.15 120.19 284.29 120.19 284.29 120.19 283.83 120.19 283.83 198.02 284.29 198.02 284.29 198.31 287.31 198.31 290.19 198.31 302.53 198.31 303.09 198.36 311.51 198.31 312.09 198.31 314.5 198.31 315.01 198.31 315.01 198.31 315.47 198.31 315.47 198.02 315.47 128.04 315.47 120.19 315.01 120.19"/>
  <path class="cls-5" d="M361.97,190.37v-1.14h-.22v-.42h.13v-.16h-.13v-.02h.08l-.32-1.29-.32,1.29h.08v.02h-.09v.16h.09v.42h-.37v-.42h.12v-.16h-.12v-.02h.08l-.32-1.29-.32,1.29h.08v.02h-.09v.16h.09v.42h-6.64v-26.9h.21v-.27h-.21v-.11h-.21v-.69h.21v-.27h-.21v-1.49h.25v-.19h-.14c0-.3-.32-.55-.75-.64,0-.14-.1-.25-.22-.29v-.15s.07-.08,.07-.14c0-.08-.06-.14-.13-.17v-.44h-.12v.44c-.08,.03-.14,.09-.14,.17,0,.06,.03,.11,.07,.14v.16c-.12,.05-.2,.16-.21,.29-.25,.05-.45,.15-.58,.29v-5.4h.64v-.34h-.33v-.14h-.95v-.47h.13v-.16h-.13v-.02h.08l-.32-1.29-.32,1.29h.08v.02h-.09v.16h.09v.07h-.85v-1.72h.19v-.36h-.12v-.28h-.08v-.57h.05v-.28h-.05v-3.01h.02v-.39h-.02v-1.08h.42v-.67h-.29v-.85h-.15v-.31h.07v-.12h.12v-.18h-.12v-.05h-.24v-1.77h.25v-.15h.1v-.11h-.47v-.65h.11v-.17h-.12c-.05-.98-.49-1.82-1.17-2.27h0l-.03-.02s-.03-.02-.04-.03l-.09-.06h.1v-.16h.06v-.19h-.2v-.14h-.19v-1.33h.19v-.15h.04v-.14h.13v-.17h-.08v-.13h.08v-.19h-.09c-.04-.44-.38-.78-.82-.81v-.27h.08v-.13h-.08v-.21c.15-.03,.27-.16,.27-.33h.19v.1h.05v-.1h.33s.02,.04,.04,.04,.03-.02,.04-.04h0s.02-.02,.02-.03c0-.04-.03-.07-.07-.07-.03,0-.06,.03-.06,.06h-.31v-.1h-.05v.1h-.2c-.02-.15-.12-.27-.27-.3v-.16h.08v-.13h-.08v-.08h-.04v-.39c.21-.03,.36-.14,.41-.29h.12v-.05h.07v-.03h.22v-.04h0l-.76-1.79h.03l-.16-.31-.03-.06h0s.02,0,.02,0v-.05h-.07v.05h.02v1.23l-.19-.36h.01v-.05h-.07v.05h.02v.02h-.02l-.45,1.28h-.17v.04h.16v.02h.18v.19h.12c.1,.11,.25,.18,.43,.18,.01,0,.02,0,.03,0v.38h-.03v.08h-.08v.13h.08v.16c-.15,.03-.26,.15-.27,.3h-.44v-.1h-.05v.1h-.03v-.1h-.05v.1h-.05c0-.05-.05-.09-.1-.09-.06,0-.11,.05-.11,.11s.05,.11,.11,.11c.05,0,.09-.04,.1-.09h.05v.1h.05v-.1h.03v.1h.05v-.1h.44c0,.17,.12,.3,.28,.33v.21h-.08v.13h.08v.27c-.44,.03-.79,.38-.82,.82h-.09v.19h.08v.13h-.08v.17h.13v.14h.05v.15h.19v1.33h-.19v.14h-.2v.19h.06v.16h.13l-.09,.05s-.03,.02-.05,.03l-.06,.04h0c-.68,.45-1.12,1.29-1.17,2.27h-.17v.17h.16v.65h-.53v.11h.1v.15h.31v1.77h-.23v.05h-.12v.18h.12v.12h.07v.31h-.15v.85h-.26v.67h.47v1.08h-.03v.39h.03v3.01h-.07v.28h.07v.57h-.07v.28h-.14v.36h.21v1.72h-.9v-.07h.12v-.16h-.12v-.02h.08l-.32-1.29-.32,1.29h.08v.02h-.09v.16h.09v.47h-.95v.14h-.33v.34h.66v5.46c-.13-.16-.36-.29-.64-.34,0-.14-.09-.25-.22-.29v-.15s.07-.08,.07-.14c0-.08-.06-.14-.13-.17v-.44h-.12v.44c-.08,.03-.14,.09-.14,.17,0,.06,.03,.11,.08,.14v.15c-.12,.05-.2,.16-.21,.29-.44,.09-.77,.34-.77,.64h-.06v.19h.19v1.49h-.19v.27h.19v.69h-.19v.11h-.21v.27h.21v26.9h-6.72v-.42h.13v-.16h-.13v-.02h.08l-.32-1.29-.32,1.29h.08v.02h-.09v.16h.09v.42h-.37v-.42h.12v-.16h-.12v-.02h.08l-.32-1.29-.32,1.29h.08v.02h-.09v.16h.09v.42h-.14v1.14h-.68v.92h.68v8.56h29.45v-8.56h.68v-.92h-.68Zm-13.94-58.65h-.88v-.19h.37l-.13-.24h.46l-.7-1.31v-.06h.13l.76,1.79Zm-.92,0h-.2v-.19h.2v.19Zm-.23-1.24v1.24h-.43l.43-1.24Zm-.08,5.68c0-.09,.03-.15,.07-.18,.04,.03,.08,.09,.08,.18v.91h-.15v-.91Zm.24,0c0-.11,.08-.21,.17-.21s.17,.09,.17,.21v.91h-.35v-.91Zm.45,0c0-.09,.03-.15,.08-.18,.04,.03,.07,.09,.07,.18v.91h-.14v-.91Zm-.71,11.27c0-.29,.23-.52,.52-.52s.52,.23,.52,.52-.23,.52-.52,.52-.52-.23-.52-.52Zm-.42,5.65h0v-.16h0v.16Zm3.8,0v-.16h.16v.16h-.16Zm-.16,0h-.16v-.16h.16v.16Zm-3.64-.4h0v-1.36h0v1.36Zm-1.68,.4h-.16v-.16h.16v.16Zm-.32,0h-.16v-.16h.16v.16Zm8.49,7.1v.81h-.49v-.81c0-.25,.1-.46,.23-.48h.04c.13,.02,.23,.22,.23,.48Zm-2.28-7.1h-.1v-.16h.1v.16Zm-4.21-8.1h0v1.08h0v-1.08Zm-2.44,7.94h.12v.16h-.12v-.16Zm-2.31,7.26c0-.25,.1-.46,.23-.48h.04c.13,.02,.23,.22,.23,.48v.81h-.49v-.81Z"/>
  <polygon class="cls-6" points="432.45 193.58 432.45 193.57 432.62 193.57 432.62 192.82 432.93 192.82 432.93 159.79 430.01 159.79 430.01 158.91 423.33 158.91 423.33 159.79 420.41 159.79 420.41 192.82 420.89 192.82 420.89 193.13 420.89 193.58 417.89 193.58 417.89 198.04 435.66 198.04 435.66 193.58 432.45 193.58"/>
  <path class="cls-6" d="M412.55,148.25v.38h-4.27v-1.4h-13.43v1.4h-4.27v-.38h-1.18v51.22h24.34v-51.22h-1.18Zm0,.68v.03h-3.44v-.03h3.44Zm-8.21,0v.03h-5.49v-.03h5.49Zm4.1,.03h-3.43v-.03h3.43v.03Zm-10.26-.03v.03h-3.43v-.03h3.43Zm-7.61,0h3.51v.03h-3.51v-.03Z"/>
  <polygon class="cls-2" points="412.05 197.17 412.05 194.23 412.05 194.04 412.05 190.15 412.05 189.52 412.05 189.08 412.05 188.46 412.05 187.83 412.05 187.39 412.05 183.39 412.05 182.82 412.05 182.08 412.05 182.08 385.92 181.11 386.31 183.05 385.02 183.1 385.13 182.43 385.13 182.43 385.13 182.43 378.26 182.21 378.27 182.08 377.81 182.08 377.88 181.28 374.45 181.28 374.45 193.07 374.45 193.07 374.45 193.65 374.45 194.04 374.45 194.04 374.45 194.23 374.45 194.23 374.45 195.2 374.45 196.96 374.45 197.17 372.83 197.17 372.83 197.48 373.22 197.48 373.22 197.8 373.22 198.59 373.9 198.59 374.24 198.59 374.74 198.59 375.09 198.59 375.59 198.59 375.94 198.59 376.44 198.59 376.78 198.59 377.29 198.59 377.63 198.59 378.14 198.59 378.48 198.59 378.98 198.59 379.33 198.59 379.83 198.59 380.18 198.59 380.68 198.59 381.02 198.59 381.53 198.59 381.87 198.59 382.38 198.59 382.72 198.59 383.22 198.59 383.57 198.59 384.07 198.59 384.42 198.59 384.92 198.59 385.26 198.59 385.77 198.59 386.11 198.59 386.62 198.59 386.96 198.59 387.46 198.59 387.81 198.59 388.31 198.59 388.66 198.59 389.16 198.59 389.5 198.59 390.01 198.59 390.35 198.59 390.85 198.59 391.2 198.59 391.7 198.59 392.05 198.59 392.55 198.59 392.89 198.59 393.4 198.59 393.74 198.59 394.25 198.59 398.91 198.59 399.33 198.59 399.68 198.59 400.18 198.59 400.53 198.59 401.03 198.59 401.37 198.59 401.88 198.59 402.22 198.59 402.73 198.59 403.07 198.59 403.57 198.59 403.92 198.59 404.42 198.59 404.77 198.59 405.27 198.59 405.61 198.59 406.12 198.59 406.46 198.59 406.97 198.59 407.31 198.59 407.81 198.59 408.16 198.59 408.66 198.59 409.01 198.59 409.51 198.59 409.85 198.59 410.36 198.59 410.7 198.59 411.2 198.59 411.55 198.59 412.05 198.59 412.4 198.59 412.9 198.59 413.24 198.59 413.47 198.59 413.47 197.8 413.47 197.48 413.85 197.48 413.85 197.17 412.05 197.17"/>
  <polygon class="cls-5" points="74.9 121.07 74.9 120.85 74.9 120.62 74.93 120.62 74.93 119.94 74.9 119.94 74.9 116.29 74.9 116.04 74.9 115.38 74.9 115.13 74.9 114.93 74.9 114.93 74.9 114.24 74.9 114.24 74.9 114.01 74.9 113.96 74.9 113.79 74.9 113.79 74.9 113.1 74.9 113.1 74.9 112.86 74.9 112.65 74.9 112.65 74.9 111.96 74.9 111.96 74.9 111.74 74.9 111.51 74.9 111.51 74.9 110.82 74.9 110.82 74.9 110.58 74.9 110.37 74.9 110.37 74.9 109.68 74.9 109.68 74.9 109.46 74.9 109.23 74.9 109.21 74.9 108.55 74.9 108.3 74.9 108.09 74.9 107.41 74.9 107.18 74.91 107.18 74.91 106.93 74.9 106.93 74.9 106.27 74.9 106.06 74.61 106.02 74.57 106.02 72.78 105.81 72.78 105.81 71.05 105.61 65.14 104.92 64.98 106.02 64.98 106.02 64.94 106.27 64.85 106.93 64.85 106.93 64.81 107.18 64.81 107.18 64.78 107.41 64.78 107.41 64.68 108.09 64.68 108.09 64.65 108.3 64.61 108.55 64.61 108.55 64.57 108.86 64.32 108.86 63.73 108.86 63.27 108.86 62.68 108.86 62.17 108.86 61.58 108.86 61.11 108.86 60.52 108.86 60.01 108.86 59.42 108.86 59.26 108.86 59.26 108.94 59.26 108.94 59.15 110.2 55.49 110.2 48.05 110.2 48.05 111.45 47.42 111.45 46.92 111.45 45.08 111.45 45.08 111.98 45.08 112.4 45.08 113.44 45.08 113.96 44.95 113.96 44.42 113.96 44.16 113.96 43.64 113.96 43.38 113.96 42.85 113.96 42.59 113.96 42.07 113.96 41.81 113.96 41.29 113.96 41.02 113.96 40.5 113.96 40.24 113.96 39.72 113.96 39.46 113.96 38.93 113.96 38.67 113.96 38.15 113.96 37.89 113.96 37.36 113.96 37.1 113.96 36.58 113.96 36.32 113.96 35.8 113.96 35.53 113.96 35.01 113.96 34.75 113.96 34.49 113.96 34.49 114.24 34.49 114.93 34.49 115.13 34.49 115.38 34.49 116.04 34.49 116.06 34.49 116.29 34.49 116.52 34.49 117.2 34.49 117.41 34.49 117.66 34.49 118.32 34.49 118.34 34.49 118.57 34.49 118.8 34.49 119.48 34.49 119.69 34.49 119.94 34.49 120.6 34.49 120.62 34.49 120.85 34.49 121.07 34.49 121.76 34.49 121.97 34.49 122.21 34.49 122.88 34.49 122.9 34.49 123.13 34.49 123.35 34.49 124.04 34.49 124.24 34.49 124.49 34.49 125.16 34.49 125.17 34.49 125.4 34.49 125.63 34.49 126.31 34.49 126.52 34.49 126.77 34.49 127.43 34.49 127.45 34.49 127.68 34.49 127.91 34.49 128.59 34.49 128.8 34.49 129.05 34.49 129.71 34.49 129.73 34.49 129.96 34.49 130.19 34.49 130.87 34.49 131.08 34.49 131.33 34.49 131.99 34.49 132.01 34.49 132.24 34.49 132.47 34.49 133.15 34.49 133.36 34.49 133.6 34.49 134.27 34.49 134.29 34.49 134.51 34.49 134.74 34.49 135.43 34.49 135.63 34.49 135.88 34.49 136.55 34.49 136.56 34.49 136.79 34.49 137.02 34.49 137.7 34.49 137.91 34.49 138.16 34.49 138.82 34.49 138.84 34.49 139.07 34.49 139.3 34.49 139.98 34.49 140.19 34.49 140.44 34.49 141.1 34.49 141.12 34.49 141.35 34.49 141.58 34.49 142.26 34.49 142.47 34.49 142.72 34.49 143.38 34.49 143.4 34.49 143.63 34.49 143.85 34.49 144.54 34.49 144.75 34.49 144.99 34.49 145.66 34.49 145.68 34.49 145.91 34.49 146.13 34.49 146.82 34.49 147.03 34.49 147.27 34.49 147.94 34.49 147.96 34.49 148.18 34.49 148.54 34.49 149.22 34.49 149.53 34.49 149.78 34.49 150.44 34.49 150.46 34.49 150.69 34.49 150.92 34.49 151.6 34.49 151.81 34.49 152.06 34.49 152.72 34.49 152.74 34.49 152.97 34.49 153.2 34.49 153.88 34.49 154.09 34.49 154.33 34.49 155 34.49 155.02 34.49 155.25 34.49 155.47 34.49 156.16 34.49 156.36 34.49 156.61 34.49 157.28 34.49 157.29 34.49 157.52 34.49 157.75 34.49 158.43 34.49 158.64 34.49 158.89 34.49 159.55 34.49 159.57 34.49 159.8 34.49 160.03 34.49 160.71 34.49 161.17 34.49 161.83 34.49 161.85 34.49 162.08 34.49 162.31 34.49 162.99 34.49 163.2 34.49 163.45 34.49 164.11 34.49 164.13 34.49 164.36 34.49 164.58 34.49 165.27 34.49 165.48 34.49 165.72 34.49 166.39 34.49 166.41 34.49 166.63 34.49 166.86 34.49 167.55 34.49 167.76 34.49 168 34.49 168.67 34.49 168.69 34.49 168.91 34.49 169.14 34.49 169.82 34.49 170.03 34.49 170.28 34.49 170.95 34.49 170.96 34.49 171.19 34.49 171.42 34.49 172.1 34.49 172.31 34.49 172.56 34.49 173.22 34.49 173.24 34.49 173.47 34.49 173.7 34.49 174.38 34.49 174.59 34.49 174.84 34.49 175.5 34.49 175.52 34.49 175.75 34.49 175.97 34.49 176.66 34.49 176.87 34.49 177.11 34.49 177.78 34.49 177.8 34.49 178.02 34.49 178.25 34.49 178.94 34.49 179.15 34.49 179.39 34.49 180.06 34.49 180.07 34.49 180.3 34.49 180.53 34.49 181.21 34.49 181.42 34.49 181.67 34.49 182.33 34.49 182.35 34.49 182.58 34.49 182.81 34.49 183.49 34.49 183.7 34.49 183.95 34.49 184.61 34.49 184.63 34.49 184.86 34.49 185.09 34.49 185.77 34.49 185.98 34.49 186.23 34.49 186.89 34.49 186.91 34.49 187.14 34.49 187.36 34.49 188.05 34.49 188.26 34.49 188.5 34.49 189.17 34.49 189.19 34.49 189.41 34.49 189.64 34.49 190.33 34.49 190.53 34.49 190.78 34.49 191.45 34.49 191.46 34.49 191.69 34.49 191.92 34.49 192.6 34.49 192.81 34.49 193.06 34.49 193.72 34.49 193.74 34.49 193.97 34.49 194.2 34.49 194.88 34.49 195.09 34.49 195.34 34.49 196 34.49 196.02 34.49 196.25 34.49 196.48 34.49 197.16 34.49 197.37 34.49 197.62 34.49 198.28 34.49 198.3 34.49 198.53 34.49 198.7 34.75 198.7 35.01 198.7 35.53 198.7 35.8 198.7 36.32 198.7 36.58 198.7 37.1 198.7 37.36 198.7 37.89 198.7 38.15 198.7 38.67 198.7 38.93 198.7 39.46 198.7 39.72 198.7 40.24 198.7 40.5 198.7 41.02 198.7 41.29 198.7 41.81 198.7 42.07 198.7 42.59 198.7 42.85 198.7 43.38 198.7 43.64 198.7 44.16 198.7 44.42 198.7 44.95 198.7 45.21 198.7 45.73 198.7 45.99 198.7 46.51 198.7 46.78 198.7 47.3 198.7 47.56 198.7 48.08 198.7 48.34 198.7 48.87 198.7 49.13 198.7 49.65 198.7 49.91 198.7 50.43 198.7 50.7 198.7 51.22 198.7 51.48 198.7 51.53 198.7 52.59 198.7 52.85 198.7 54.75 198.7 55.01 198.7 56.9 198.7 57.17 198.7 59.06 198.7 59.32 198.7 63.49 198.7 72.94 198.7 72.98 197.96 72.98 197.96 73.01 197.27 73.01 197.27 73.02 197.06 73.04 197.06 73.04 196.82 73.03 196.82 73.04 196.79 73.05 196.79 73.08 196.1 73.08 196.1 73.08 195.94 73.09 195.65 73.1 195.65 73.13 194.97 73.13 194.97 73.21 193.37 73.21 193.37 73.24 192.69 73.24 192.69 73.37 190.23 73.38 190.23 73.38 189.98 73.39 189.98 73.42 189.3 73.42 189.3 73.42 189.18 73.48 187.95 73.51 187.95 73.51 187.71 73.49 187.71 73.53 187.02 73.54 187.02 73.55 186.78 73.54 186.78 73.6 185.65 73.62 185.65 73.62 185.4 73.61 185.4 73.65 184.71 73.65 184.71 73.66 184.49 73.72 183.26 73.72 183.26 73.72 183.25 73.85 180.74 73.85 180.74 73.85 180.69 73.86 180.49 73.87 180.49 73.91 179.81 73.89 179.81 73.99 177.9 74 177.9 74.04 177.22 74.02 177.22 74.1 175.77 74.1 175.77 74.11 175.56 74.11 175.52 74.11 175.52 74.15 174.84 74.15 174.84 74.28 172.1 74.29 172.1 74.33 171.42 74.32 171.42 74.44 168.93 74.45 168.93 74.45 168.73 74.56 166.65 74.56 166.65 74.56 166.57 74.74 162.99 74.75 162.99 74.78 162.31 74.78 162.31 74.8 161.85 74.81 161.85 74.84 161.17 74.84 161.17 74.9 159.92 74.9 159.8 74.9 159.73 74.9 159.57 74.9 159.55 74.9 158.89 74.9 158.64 74.9 158.43 74.9 157.75 74.9 157.52 74.9 157.29 74.9 157.28 74.9 156.61 74.9 156.36 74.9 156.16 74.9 155.47 74.9 155.25 74.9 155.02 74.9 155 74.9 154.33 74.9 154.09 74.9 153.88 74.9 153.2 74.9 152.97 74.9 152.74 74.9 152.72 74.9 152.06 74.9 151.81 74.9 151.6 74.9 150.92 74.9 150.69 74.9 150.46 74.9 150.44 74.9 149.78 74.9 149.53 74.9 149.22 74.9 148.54 74.9 147.96 74.9 147.27 74.9 146.82 74.9 146.13 74.9 145.68 74.9 144.99 74.9 144.54 74.9 143.85 74.9 143.4 74.9 142.72 74.9 142.26 74.9 141.58 74.9 141.12 74.9 140.44 74.9 139.98 74.9 139.3 74.9 138.84 74.9 138.16 74.9 137.7 74.9 137.02 74.9 136.56 74.9 135.88 74.9 135.43 74.9 134.74 74.9 134.29 74.9 133.6 74.9 133.15 74.9 132.47 74.9 129.96 74.9 129.71 74.9 126.31 74.9 126.31 74.9 125.63 74.9 125.63 74.9 125.4 74.9 125.4 74.9 125.16 74.9 125.16 74.9 124.49 74.9 124.49 74.9 124.24 74.9 124.24 74.9 124.04 74.9 123.35 74.9 123.13 74.9 122.9 74.9 122.9 74.9 122.21 74.9 122.21 74.9 121.76 74.9 121.07"/>
  <polygon class="cls-6" points="97.72 162.28 97.72 159.83 97.72 159.83 97.72 159.28 95.71 159.28 94.93 156.8 94.85 156.54 95.09 156.54 95.09 155.88 87.28 155.88 87.28 156.54 87.38 156.54 87.29 156.82 86.51 159.28 84.47 159.28 84.47 159.83 84.47 160.09 84.47 162.29 83.12 162.29 83.12 197.71 84.22 197.71 84.22 197.78 84.92 197.78 89.58 197.78 97.3 197.78 97.3 197.75 97.72 197.75 97.72 197.71 97.72 197.71 99.07 197.7 99.07 166.12 99.07 162.28 97.72 162.28"/>
  <g>
    <polygon class="cls-2" points="119.28 193.26 119.28 181.35 119.28 170.25 108.4 170.25 108.4 168.6 108.4 167.63 108.4 165.52 108.4 164.55 108.4 162.44 108.4 161.46 108.4 159.36 108.4 158.38 108.4 156.28 108.4 155.3 108.4 153.19 108.4 152.22 108.4 150.11 108.4 149.14 108.4 147.03 108.4 146.05 108.4 143.95 108.4 142.97 107.78 142.97 107.16 142.97 104.48 142.97 103.24 142.97 100.56 142.97 99.32 142.97 96.64 142.97 95.4 142.97 95.4 143.95 95.4 146.05 95.4 147.03 95.4 149.14 95.4 150.11 95.4 152.22 95.4 153.19 95.4 155.3 95.4 156.28 95.4 158.38 95.4 159.36 95.4 161.46 95.4 162.44 95.4 164.55 95.4 165.52 95.4 167.63 95.4 168.6 95.4 170.25 91.99 170.25 91.99 172.26 89.1 172.26 89.1 173.96 84.68 173.96 84.68 175.78 80.35 175.78 80.35 177.33 78.91 177.33 78.91 179.04 76.02 179.04 76.02 180.76 74.57 180.76 74.57 182.47 70.24 182.47 70.24 184.17 67.35 184.17 67.35 185.91 64.22 185.91 64.22 187.63 61.08 187.63 61.08 189.34 58.07 189.34 58.07 191.06 56.5 191.06 56.5 192.77 54.93 192.77 54.93 194.47 51.81 194.47 51.81 198.78 54.93 198.78 56.5 198.78 57.11 198.78 58.07 198.78 59.39 198.78 61.72 198.78 62.77 198.78 64.22 198.78 121.93 198.78 121.93 193.26 119.28 193.26"/>
    <rect class="cls-1" x="97.77" y="141" width="8.27" height="1.95"/>
  </g>
  <polygon class="cls-2" points="266.46 163.79 266.46 163.44 266.42 163.44 266.42 162.99 266.16 162.99 265.9 162.99 264.96 162.99 264.69 162.99 263.75 162.99 263.48 162.99 262.54 162.99 262.28 162.99 261.33 162.99 261.07 162.99 260.12 162.99 259.86 162.99 258.92 162.99 258.65 162.99 257.71 162.99 257.45 162.99 256.5 162.99 256.24 162.99 255.29 162.99 255.03 162.99 254.09 162.99 253.82 162.99 252.88 162.99 252.62 162.99 251.67 162.99 251.41 162.99 250.46 162.99 250.2 162.99 249.26 162.99 248.99 162.99 247.66 162.99 247.39 162.99 246.4 162.99 246.12 162.99 245.72 162.99 245.72 163.44 245.69 163.44 245.69 163.79 245.72 163.79 245.72 164.23 245.69 164.23 245.69 164.58 245.72 164.58 245.72 165.63 245.69 165.63 245.69 165.97 245.72 165.97 245.72 166.41 245.69 166.41 245.69 166.76 245.72 166.76 245.72 167.63 245.69 167.63 245.69 167.98 245.72 167.98 245.72 169.03 245.69 169.03 245.69 169.38 245.72 169.38 245.72 170.43 245.69 170.43 245.69 170.78 245.72 170.78 245.72 171.83 245.69 171.83 245.69 172.18 245.72 172.18 245.72 173.22 245.72 173.57 245.72 174.62 245.69 174.62 245.69 174.97 245.72 174.97 245.72 176.02 245.69 176.02 245.69 176.37 245.72 176.37 245.72 177.42 245.69 177.42 245.69 177.76 245.72 177.76 245.72 178.81 245.69 178.81 245.69 179.16 245.72 179.16 245.72 180.21 245.69 180.21 245.69 180.56 245.72 180.56 245.72 181.61 245.69 181.61 245.69 181.96 245.72 181.96 245.72 183.01 245.69 183.01 245.69 183.36 245.72 183.36 245.72 184.4 245.69 184.4 245.69 184.75 245.72 184.75 245.72 185.8 245.69 185.8 245.69 186.15 245.72 186.15 245.72 187.2 245.69 187.2 245.69 187.55 245.72 187.55 245.72 188.6 245.69 188.6 245.69 188.95 245.72 188.95 245.72 189.99 245.69 189.99 245.69 190.34 245.72 190.34 245.72 191.39 245.69 191.39 245.69 191.74 245.72 191.74 245.72 192.79 245.69 192.79 245.69 193.14 245.72 193.14 245.72 194.19 245.69 194.19 245.69 194.54 245.72 194.54 245.72 195.58 245.69 195.58 245.69 195.94 245.72 195.94 245.72 196.98 245.69 196.98 245.69 197.33 245.72 197.33 245.72 198.38 245.69 198.38 245.69 198.73 245.72 198.73 245.72 199.24 246.12 199.24 246.12 199.24 246.4 199.24 246.4 199.24 247.39 199.24 247.39 199.24 247.66 199.24 247.66 199.24 248.59 199.24 248.59 199.24 248.99 199.24 249.26 199.24 250.2 199.24 250.46 199.24 251.41 199.24 251.67 199.24 252.62 199.24 252.88 199.24 253.82 199.24 254.09 199.24 255.03 199.24 255.29 199.24 256.24 199.24 256.5 199.24 257.45 199.24 257.71 199.24 258.65 199.24 258.92 199.24 259.86 199.24 260.12 199.24 261.07 199.24 261.33 199.24 262.28 199.24 262.54 199.24 263.48 199.24 263.75 199.24 263.75 199.24 264.69 199.24 264.69 199.24 264.96 199.24 264.96 199.24 265.9 199.24 265.9 199.24 266.16 199.24 266.16 199.24 266.42 199.24 266.42 198.73 266.46 198.73 266.46 198.38 266.42 198.38 266.42 197.33 266.46 197.33 266.46 196.98 266.42 196.98 266.42 195.94 266.46 195.94 266.46 195.58 266.42 195.58 266.42 194.54 266.46 194.54 266.46 194.19 266.42 194.19 266.42 193.14 266.46 193.14 266.46 192.79 266.42 192.79 266.42 191.74 266.46 191.74 266.46 191.39 266.42 191.39 266.42 190.34 266.46 190.34 266.46 189.99 266.42 189.99 266.42 188.95 266.46 188.95 266.46 188.6 266.42 188.6 266.42 187.55 266.46 187.55 266.46 187.2 266.42 187.2 266.42 186.15 266.46 186.15 266.46 185.8 266.42 185.8 266.42 184.75 266.46 184.75 266.46 184.4 266.42 184.4 266.42 183.36 266.46 183.36 266.46 183.01 266.42 183.01 266.42 181.96 266.46 181.96 266.46 181.61 266.42 181.61 266.42 180.56 266.46 180.56 266.46 180.21 266.42 180.21 266.42 179.16 266.46 179.16 266.46 178.81 266.42 178.81 266.42 177.76 266.46 177.76 266.46 177.42 266.42 177.42 266.42 176.37 266.46 176.37 266.46 176.02 266.42 176.02 266.42 174.97 266.46 174.97 266.46 174.62 266.42 174.62 266.42 173.57 266.42 173.22 266.42 172.18 266.46 172.18 266.46 171.83 266.42 171.83 266.42 170.78 266.46 170.78 266.46 170.43 266.42 170.43 266.42 169.38 266.46 169.38 266.46 169.03 266.42 169.03 266.42 167.98 266.46 167.98 266.46 167.63 266.42 167.63 266.42 166.76 266.46 166.76 266.46 166.41 266.42 166.41 266.42 165.97 266.46 165.97 266.46 165.63 266.42 165.63 266.42 164.58 266.46 164.58 266.46 164.23 266.42 164.23 266.42 163.79 266.46 163.79"/>
  <path class="cls-3" d="M44.41,197.33c-.23-4.75-4.14-8.53-8.94-8.53s-8.71,3.78-8.94,8.53h17.88Z"/>
  <path class="cls-3" d="M46.36,197.54c-.14-2.87-2.51-5.16-5.41-5.16s-5.28,2.29-5.41,5.16h10.82Z"/>
  <path class="cls-3" d="M24.13,197.54c-.14-2.87-2.51-5.16-5.41-5.16s-5.28,2.29-5.41,5.16h10.83Z"/>
  <path class="cls-3" d="M35.49,194.74c-.79,0-1.51,.31-2.04,.82-.53-.51-1.24-.82-2.04-.82s-1.48,.3-2.01,.8c-.52-.5-1.23-.8-2.01-.8-1.58,0-2.86,1.24-2.93,2.8h13.97c-.08-1.56-1.36-2.8-2.93-2.8Z"/>
  <path class="cls-3" d="M15,195.25c-.64,0-1.22,.25-1.65,.67-.43-.41-1.01-.67-1.65-.67s-1.2,.25-1.62,.65c-.42-.4-1-.65-1.63-.65-1.27,0-2.31,1-2.37,2.26h11.29c-.06-1.26-1.1-2.26-2.37-2.26Z"/>
  <path class="cls-3" d="M22.55,196.44c-.31,0-.59,.12-.8,.32-.21-.2-.49-.32-.8-.32s-.59,.12-.79,.31c-.21-.19-.48-.31-.79-.31-.62,0-1.12,.48-1.15,1.1h5.48c-.03-.61-.53-1.1-1.15-1.1Z"/>
  <path class="cls-3" d="M8.37,196.44c-.31,0-.59,.12-.8,.32-.21-.2-.49-.32-.8-.32s-.59,.12-.79,.31c-.21-.19-.48-.31-.79-.31-.62,0-1.12,.48-1.15,1.1h5.48c-.03-.61-.53-1.1-1.15-1.1Z"/>
  <path class="cls-3" d="M36.34,181.71c.34,.16-1.04-3.58-4.67-1.71-.65,.33,1.45-2.13,1.45-2.13,0,0-2.47,.1-2.79,2.21-.05,.35-1.05-3.42-4.61-.67-.06,.05,3.36,1.14,3.29,1.27-.07,.12-4.12-1.09-4.56,2.47,0,.06,3.46-1.04,4.51-.91,.09,.02-3.32,1.41-1.92,5.27,.08,.2,2.2-1.27,2.76-3.51l-1.52,14,1.7,.08c.07-5.42,.36-12.17,.51-15.38,.56,.96,1.89,2.68,4.48,3.35,0,0-.09-3.66-3.14-4.41-.2-.04,3.24-.57,4.53,.06Z"/>
  <path class="cls-3" d="M46.72,187.1c.41,.17-1.49-4.18-5.68-1.72-.75,.45,1.58-2.62,1.58-2.62,0,0-2.93,.28-3.19,2.81-.04,.42-1.48-3.99-5.54-.47-.06,.05,4.09,1.11,4.01,1.27-.08,.15-4.98-1-5.26,3.3,0,.05,4.05-1.49,5.3-1.42,.11,.01-3.85,1.91-1.91,6.41,.1,.23,2.64-1.75,3.09-4.55,.01-.09,.02-.17,.04-.25l.1,8.39,1.57-.33c-.2-3.39-.58-6.81-.84-8.94,.82,1.13,2.49,2.82,5.36,3.39,0,0-.36-4.34-4.04-5.02-.25-.05,3.81-.91,5.4-.24Z"/>
  <path class="cls-3" d="M157.16,197.45c-.15-3.22-2.81-5.79-6.07-5.79s-5.92,2.57-6.07,5.79h12.14Z"/>
  <path class="cls-3" d="M71.45,197.54c-.2-4.14-3.61-7.44-7.8-7.44s-7.6,3.3-7.8,7.44h15.6Z"/>
  <path class="cls-3" d="M137.23,197.3c-.2-4.14-3.61-7.44-7.8-7.44s-7.6,3.3-7.8,7.44h15.59Z"/>
  <path class="cls-3" d="M55.79,196.54c-.27,0-.52,.1-.7,.28-.18-.18-.42-.28-.7-.28s-.51,.1-.69,.27c-.18-.17-.42-.27-.69-.27-.54,0-.98,.42-1,.96h4.78c-.03-.53-.47-.96-1.01-.96Z"/>
  <path class="cls-3" d="M71.2,195.03c-.69,0-1.32,.27-1.78,.72-.46-.45-1.09-.72-1.78-.72s-1.3,.26-1.75,.7c-.46-.43-1.07-.7-1.75-.7-1.37,0-2.49,1.08-2.56,2.44h12.18c-.07-1.36-1.18-2.44-2.56-2.44Z"/>
  <path class="cls-3" d="M63.66,196.54c-.27,0-.52,.1-.7,.28-.18-.18-.43-.28-.7-.28s-.51,.1-.69,.27c-.18-.17-.42-.27-.69-.27-.54,0-.98,.42-1.01,.96h4.78c-.03-.53-.47-.96-1.01-.96Z"/>
  <path class="cls-3" d="M75.06,196.54c-.27,0-.52,.1-.7,.28-.18-.18-.42-.28-.7-.28s-.51,.1-.69,.27c-.18-.17-.42-.27-.69-.27-.54,0-.98,.42-1.01,.96h4.78c-.03-.53-.47-.96-1.01-.96Z"/>
  <path class="cls-3" d="M88.53,197.48c-.12-2.51-2.19-4.5-4.72-4.5s-4.6,2-4.72,4.5h9.44Z"/>
  <path class="cls-3" d="M123.8,197.48c-.12-2.51-2.19-4.5-4.72-4.5s-4.6,2-4.72,4.5h9.44Z"/>
  <path class="cls-3" d="M96.86,195.03c-.69,0-1.32,.27-1.78,.72-.46-.45-1.09-.72-1.78-.72s-1.3,.26-1.75,.7c-.46-.43-1.07-.7-1.75-.7-1.37,0-2.49,1.08-2.56,2.44h12.18c-.07-1.36-1.18-2.44-2.56-2.44Z"/>
  <path class="cls-3" d="M89.38,196.52c-.27,0-.52,.1-.7,.28-.18-.17-.42-.28-.7-.28s-.51,.1-.69,.27c-.18-.17-.42-.27-.69-.27-.54,0-.98,.42-1,.96h4.78c-.03-.53-.47-.96-1.01-.96Z"/>
  <path class="cls-3" d="M132.96,195.03c-.69,0-1.32,.27-1.78,.72-.46-.45-1.09-.72-1.78-.72s-1.3,.26-1.75,.7c-.46-.43-1.08-.7-1.76-.7-1.37,0-2.49,1.08-2.56,2.44h12.18c-.07-1.36-1.18-2.44-2.56-2.44Z"/>
  <path class="cls-3" d="M125.52,196.52c-.27,0-.52,.1-.7,.28-.18-.17-.42-.28-.7-.28s-.51,.1-.69,.27c-.18-.17-.42-.27-.69-.27-.54,0-.98,.42-1.01,.96h4.78c-.03-.53-.47-.96-1.01-.96Z"/>
  <path class="cls-3" d="M166.39,196.56c-.27,0-.52,.1-.7,.28-.18-.18-.42-.28-.7-.28s-.51,.1-.69,.27c-.18-.17-.42-.27-.69-.27-.54,0-.98,.42-1,.96h4.78c-.03-.53-.47-.96-1-.96Z"/>
  <path class="cls-3" d="M145.54,196.56c-.27,0-.52,.1-.7,.28-.18-.18-.42-.28-.7-.28s-.51,.1-.69,.27c-.18-.17-.42-.27-.69-.27-.54,0-.98,.42-1,.96h4.78c-.03-.53-.47-.96-1.01-.96Z"/>
  <path class="cls-3" d="M283.57,195.23c-.69,0-1.32,.27-1.78,.72-.46-.45-1.09-.72-1.78-.72s-1.3,.26-1.76,.7c-.46-.43-1.07-.7-1.75-.7-1.38,0-2.49,1.08-2.56,2.44h12.18c-.07-1.36-1.18-2.44-2.56-2.44Z"/>
  <path class="cls-3" d="M348.65,195.23c-.69,0-1.32,.27-1.78,.72-.46-.45-1.09-.72-1.78-.72s-1.3,.26-1.76,.7c-.46-.43-1.07-.7-1.75-.7-1.38,0-2.49,1.08-2.56,2.44h12.18c-.07-1.36-1.18-2.44-2.56-2.44Z"/>
  <path class="cls-3" d="M116.69,196.52c-.27,0-.52,.1-.7,.28-.18-.17-.42-.28-.7-.28s-.51,.1-.69,.27c-.18-.17-.42-.27-.69-.27-.54,0-.98,.42-1,.96h4.78c-.03-.53-.47-.96-1.01-.96Z"/>
  <path class="cls-3" d="M138.35,196.52c-.27,0-.52,.1-.7,.28-.18-.17-.43-.28-.7-.28s-.51,.1-.69,.27c-.18-.17-.42-.27-.69-.27-.54,0-.98,.42-1.01,.96h4.78c-.03-.53-.47-.96-1.01-.96Z"/>
  <path class="cls-3" d="M205.95,195.03c-.69,0-1.32,.27-1.78,.72-.46-.45-1.09-.72-1.78-.72s-1.3,.26-1.75,.7c-.46-.43-1.07-.7-1.75-.7-1.37,0-2.49,1.08-2.56,2.44h12.18c-.07-1.36-1.18-2.44-2.56-2.44Z"/>
  <path class="cls-3" d="M211.31,196.41c-.27,0-.52,.11-.7,.28-.18-.17-.42-.28-.7-.28s-.51,.1-.69,.27c-.18-.17-.42-.27-.69-.27-.54,0-.98,.42-1.01,.96h4.78c-.03-.53-.47-.96-1.01-.96Z"/>
  <path class="cls-3" d="M63.78,179.42c-.79,.09,2.31-1.6,2.31-1.6,0,0-2.56-.87-3.72,1.17-.2,.34,.25-3.9-4.47-2.47-.08,.03,3.01,2.46,2.89,2.56-.13,.1-3.8-2.71-5.65,.79-.03,.05,3.95,.29,4.97,.81,.08,.05-3.94,.15-3.99,4.64,0,.23,2.87-.48,4.29-2.66,.24-.38,.44-.71,.6-.99l-3.86,16.48,1.83,.32c.79-6.01,2.04-13.58,2.55-16.61,.23,1.24,.96,3.4,3.26,5.02,0,0,1.32-3.77-1.51-5.71-.19-.13,3.54,.66,4.62,1.82,.28,.3,.32-4.06-4.12-3.57Z"/>
  <path class="cls-3" d="M237.58,197.6c-.2-4.14-3.61-7.44-7.8-7.44s-7.6,3.3-7.8,7.44h15.6Z"/>
  <path class="cls-3" d="M222.88,195.12c-.69,0-1.32,.27-1.78,.72-.46-.45-1.09-.72-1.78-.72s-1.3,.26-1.75,.7c-.46-.43-1.08-.7-1.75-.7-1.38,0-2.49,1.08-2.56,2.44h12.18c-.07-1.36-1.18-2.44-2.56-2.44Z"/>
  <path class="cls-3" d="M257.38,195.12c-.69,0-1.32,.27-1.78,.72-.46-.45-1.09-.72-1.78-.72s-1.3,.26-1.75,.7c-.46-.43-1.08-.7-1.76-.7-1.38,0-2.49,1.08-2.56,2.44h12.18c-.07-1.36-1.18-2.44-2.56-2.44Z"/>
  <path class="cls-3" d="M240.22,197.57c-.12-2.51-2.18-4.51-4.72-4.51s-4.6,2-4.72,4.51h9.44Z"/>
  <path class="cls-3" d="M225.85,196.59c-.27,0-.52,.1-.7,.28-.18-.18-.42-.28-.7-.28s-.51,.1-.69,.27c-.18-.17-.42-.27-.69-.27-.54,0-.98,.42-1.01,.96h4.78c-.03-.53-.47-.96-1-.96Z"/>
  <path class="cls-3" d="M232.26,196.59c-.27,0-.51,.1-.7,.28-.18-.18-.42-.28-.7-.28s-.51,.1-.69,.27c-.18-.17-.42-.27-.69-.27-.54,0-.98,.42-1,.96h4.78c-.03-.53-.46-.96-1.01-.96Z"/>
  <path class="cls-3" d="M248.29,196.59c-.27,0-.52,.1-.7,.28-.18-.18-.42-.28-.7-.28s-.51,.1-.69,.27c-.18-.17-.42-.27-.69-.27-.54,0-.98,.42-1.01,.96h4.78c-.03-.53-.47-.96-1-.96Z"/>
  <path class="cls-3" d="M265.13,196.62c-.27,0-.51,.11-.7,.28-.18-.17-.42-.28-.7-.28s-.51,.1-.69,.27c-.18-.17-.42-.27-.69-.27-.54,0-.98,.42-1,.96h4.78c-.02-.53-.47-.96-1.01-.96Z"/>
  <path class="cls-3" d="M274.76,196.62c-.27,0-.52,.11-.7,.28-.18-.17-.42-.28-.7-.28s-.51,.1-.69,.27c-.18-.17-.42-.27-.69-.27-.54,0-.98,.42-1,.96h4.78c-.03-.53-.47-.96-1.01-.96Z"/>
  <path class="cls-3" d="M244.47,188.53c.22,.09-.83-2.11-2.95-.78-.37,.24,.76-1.36,.76-1.36,0,0-1.49,.19-1.58,1.48,0,.23-.82-2.01-2.84-.14-.03,.03,2.11,.52,2.07,.59-.02,.05-.94-.12-1.68,.21-.6-1.5-2.72-1.07-2.76-1.15-.04-.1,2.33-.62,2.3-.66-2.24-2.05-3.14,.42-3.16,.17-.08-1.44-1.74-1.65-1.74-1.65,0,0,1.26,1.78,.85,1.52-2.33-1.48-3.49,.95-3.25,.86,.91-.35,3.2,.22,3.05,.23-2.1,.33-2.38,2.77-2.38,2.77,1.79-.3,2.78-1.37,3.21-1.98-.1,2.17-.31,6.73-.6,10.38l1.16,.06-.17-9.49c.25,1.52,1.58,2.64,1.64,2.5,1.19-2.51-1.03-3.65-.96-3.67,.44,0,1.45,.35,2.17,.62-.18,.25-.29,.58-.31,1.03,0,.03,2.04-.82,2.69-.81,.06,0-1.94,1.04-.88,3.3,.07,.12,1.14-.78,1.44-2.07l-.15,8.39,1.05-.04c-.27-3.34-.47-7.53-.56-9.46,.36,.53,1.27,1.58,2.95,1.87,0,0-.24-2.22-2.14-2.51-.14-.01,1.93-.52,2.76-.21Z"/>
  <path class="cls-3" d="M239.69,191.53c-.47,.07,1.33-1.06,1.33-1.06,0,0-1.58-.41-2.18,.85-.1,.21-.01-2.35-2.78-1.29-.05,.01,1.91,1.35,1.84,1.41-.08,.06-2.4-1.47-3.35,.71-.01,.03,2.36,0,3.01,.27,.04,.03-2.36,.24-2.21,2.94,.01,.14,1.71-.39,2.46-1.77,.22-.39,.36-.69,.45-.88l.02,5.66,.98-.02c-.25-1.57-.47-3.46-.6-4.71,.29,.71,.85,1.61,1.97,2.3,0,0,.62-2.31-1.15-3.37-.12-.06,2.14,.26,2.84,.91,.18,.15,.02-2.46-2.62-1.95Z"/>
  <path class="cls-3" d="M325.04,197.24c-.2-4.14-3.61-7.44-7.8-7.44s-7.6,3.3-7.8,7.44h15.59Z"/>
  <path class="cls-3" d="M337.07,197.24c-.2-4.14-3.61-7.44-7.8-7.44s-7.6,3.3-7.8,7.44h15.6Z"/>
  <path class="cls-3" d="M377.98,197.24c-.2-4.14-3.61-7.44-7.8-7.44s-7.6,3.3-7.8,7.44h15.6Z"/>
  <path class="cls-3" d="M381.51,197.68c-.14-2.9-2.53-5.21-5.46-5.21s-5.32,2.31-5.46,5.21h10.92Z"/>
  <path class="cls-3" d="M428.33,197.65c-.12-2.51-2.19-4.5-4.72-4.5s-4.6,2-4.72,4.5h9.44Z"/>
  <path class="cls-3" d="M438.59,195.23c-.69,0-1.32,.27-1.78,.72-.46-.45-1.08-.72-1.78-.72s-1.3,.26-1.75,.7c-.46-.43-1.07-.7-1.76-.7-1.37,0-2.49,1.08-2.56,2.44h12.18c-.07-1.36-1.18-2.44-2.56-2.44Z"/>
  <path class="cls-3" d="M418.8,195.23c-.69,0-1.32,.27-1.78,.72-.46-.45-1.09-.72-1.78-.72s-1.3,.26-1.75,.7c-.46-.43-1.07-.7-1.75-.7-1.38,0-2.49,1.08-2.56,2.44h12.18c-.07-1.36-1.18-2.44-2.56-2.44Z"/>
  <path class="cls-3" d="M337.61,197.65c-.12-2.51-2.19-4.5-4.72-4.5s-4.6,2-4.72,4.5h9.44Z"/>
  <path class="cls-3" d="M308.74,197.65c-.12-2.51-2.18-4.5-4.72-4.5s-4.6,2-4.72,4.5h9.44Z"/>
  <path class="cls-3" d="M328.08,195.23c-.69,0-1.32,.27-1.78,.72-.46-.45-1.08-.72-1.78-.72s-1.3,.26-1.75,.7c-.46-.43-1.08-.7-1.76-.7-1.37,0-2.49,1.08-2.56,2.44h12.18c-.07-1.36-1.19-2.44-2.56-2.44Z"/>
  <path class="cls-3" d="M312.41,195.23c-.69,0-1.32,.27-1.78,.72-.46-.45-1.09-.72-1.78-.72s-1.3,.26-1.76,.7c-.46-.43-1.07-.7-1.75-.7-1.38,0-2.49,1.08-2.56,2.44h12.18c-.07-1.36-1.18-2.44-2.56-2.44Z"/>
  <path class="cls-3" d="M370.14,195.23c-.69,0-1.32,.27-1.78,.72-.46-.45-1.08-.72-1.78-.72s-1.3,.26-1.75,.7c-.46-.43-1.08-.7-1.76-.7-1.38,0-2.49,1.08-2.56,2.44h12.18c-.07-1.36-1.18-2.44-2.56-2.44Z"/>
  <path class="cls-3" d="M316.34,196.48c-.27,0-.52,.11-.7,.28-.18-.17-.42-.28-.7-.28s-.51,.1-.69,.27c-.18-.17-.42-.27-.69-.27-.54,0-.98,.42-1.01,.96h4.78c-.03-.53-.47-.96-1.01-.96Z"/>
  <path class="cls-3" d="M339.43,196.48c-.27,0-.52,.11-.7,.28-.18-.17-.43-.28-.7-.28s-.51,.1-.69,.27c-.18-.17-.42-.27-.69-.27-.54,0-.98,.42-1.01,.96h4.78c-.03-.53-.47-.96-1.01-.96Z"/>
  <path class="cls-3" d="M362.52,196.48c-.27,0-.52,.11-.7,.28-.18-.17-.42-.28-.7-.28s-.51,.1-.69,.27c-.18-.17-.42-.27-.69-.27-.54,0-.98,.42-1.01,.96h4.78c-.02-.53-.47-.96-1-.96Z"/>
  <path class="cls-3" d="M321.29,196.48c-.27,0-.52,.11-.7,.28-.18-.17-.42-.28-.7-.28s-.51,.1-.69,.27c-.18-.17-.42-.27-.69-.27-.54,0-.98,.42-1,.96h4.78c-.03-.53-.47-.96-1.01-.96Z"/>
  <path class="cls-3" d="M427.02,186.87s1.22,7.05,1.92,12.33l1.27-.21-2.86-12.17-.32,.05Z"/>
  <path class="cls-3" d="M424.25,191.19s-.28-2.74,1.92-3.58c.16-.06-2.45-.12-3.38,.47-.22,.15,.46-2.77,3.34-1.71,.51,.19-1.27-1.45-1.27-1.45,0,0,1.84-.16,2.29,1.37,.07,.27,.47-2.64,3.38-.92,.06,.03-2.4,1.15-2.33,1.25,.07,.09,2.96-1.21,3.64,1.43,0,.03-2.69-.46-3.47-.27-.06,.01,2.61,.74,1.93,3.76-.06,.15-1.86-.78-2.45-2.48-.27-.8-.38-1.34-.38-1.34,0,0-.58,2.4-3.22,3.45Z"/>
  <path class="cls-3" d="M432.39,190.5s-.61,4.22-.86,8.37l1.18,.25,.12-8.41-.44-.21Z"/>
  <path class="cls-3" d="M428.14,194.69s.27-3.26,3.04-3.78c.18-.03-2.88-.68-4.07-.18-.31,.13,1.12-3.14,4.28-1.28,.56,.33-1.18-1.99-1.18-1.99,0,0,2.18,.22,2.39,2.12,.01,.32,1.11-2.99,4.16-.36,.06,.05-3.07,.84-3.01,.96,.06,.12,3.75-.75,3.95,2.48,0,.04-3.04-1.11-3.98-1.05-.09,0,2.89,1.42,1.43,4.8-.08,.18-1.99-1.31-2.32-3.42-.16-.99-.18-1.65-.18-1.65,0,0-1.18,2.69-4.51,3.35Z"/>
  <path class="cls-3" d="M336.48,191.18c.25,.11-.95-2.63-3.59-1.07-.48,.28,.98-1.66,.98-1.66,0,0-1.83,.18-1.99,1.77-.05,.28-.95-2.51-3.5-.29-.05,.03,2.58,.7,2.52,.79-.05,.11-3.14-.63-3.33,2.09,0,.03,2.57-.94,3.35-.89,.07,.01-2.42,1.19-1.2,4.04,.06,.14,1.66-1.09,1.94-2.87,0-.06,.02-.11,.02-.17l.08,5.3,.99-.21c-.13-2.13-.37-4.3-.54-5.64,.52,.71,1.57,1.79,3.39,2.14,0,0-.22-2.73-2.55-3.17-.17-.02,2.4-.57,3.41-.16Z"/>
  <path class="cls-3" d="M294.17,184.23s.23,7.86,.58,13.7l-1.17,.07,.3-13.76h.29Z"/>
  <path class="cls-3" d="M299.39,188.89s-.44-3.82-3.7-4.31c-.22-.03,3.32-.9,4.75-.36,.36,.12-1.44-3.64-5.05-1.34-.63,.41,1.32-2.35,1.32-2.35,0,0-2.58,.32-2.71,2.56-.04,.37-1.43-3.46-4.88-.26-.05,.05,3.63,.86,3.56,1-.07,.14-4.4-.75-4.51,3.03-.03,.05,3.49-1.41,4.6-1.39,.08,0-3.3,1.78-1.49,5.68,.1,.2,2.27-1.61,2.58-4.09,.15-1.17,.15-1.93,.15-1.93,0,0,1.46,3.08,5.39,3.75Z"/>
  <path class="cls-3" d="M304.79,190.48c1.14-.2,5.06,.81,5.04,.76-.69-3.96-5.13-2.39-5.21-2.51-.09-.14,3.66-1.55,3.58-1.59-4.11-2.86-5.01,1.38-5.09,.99-.48-2.32-3.21-2.28-3.21-2.28,0,0,2.47,2.6,1.72,2.27-4.15-1.87-5.47,2.36-5.09,2.17,1.39-.77,5.23-.39,5.02-.33-3.34,1.01-3.23,5.06-3.23,5.06,2.7-.85,4.09-2.7,4.7-3.82-.19,2.03-.48,4.89-.8,7.29h1.44s-.04-7.21-.04-7.21c.06,.29,.14,.63,.24,1.02,.69,2.55,3.24,4.12,3.32,3.89,1.33-4.37-2.52-5.71-2.41-5.72Z"/>
  <path class="cls-3" d="M300.92,196.34c-.27,0-.52,.1-.7,.28-.18-.17-.42-.28-.7-.28s-.51,.1-.69,.27c-.18-.17-.42-.27-.69-.27-.54,0-.98,.42-1,.96h4.78c-.03-.53-.47-.96-1.01-.96Z"/>
  <path class="cls-3" d="M330.19,196.35c-.27,0-.52,.11-.7,.28-.18-.17-.42-.28-.7-.28s-.51,.1-.69,.27c-.18-.17-.42-.27-.69-.27-.54,0-.98,.42-1,.96h4.78c-.03-.53-.46-.96-1.01-.96Z"/>
  <path class="cls-3" d="M430.72,196.69c-.27,0-.52,.1-.7,.28-.18-.17-.42-.28-.7-.28s-.51,.1-.69,.27c-.18-.17-.42-.27-.69-.27-.54,0-.98,.42-1,.96h4.78c-.03-.53-.47-.96-1.01-.96Z"/>
  <path class="cls-3" d="M408.72,196.69c-.27,0-.52,.1-.7,.28-.18-.17-.42-.28-.7-.28s-.51,.1-.69,.27c-.18-.17-.42-.27-.69-.27-.54,0-.98,.42-1,.96h4.78c-.03-.53-.47-.96-1.01-.96Z"/>
  <rect class="cls-5" x="0" y="197.42" width="454.13" height="3.87"/>
</svg>