<?xml version="1.0" encoding="UTF-8"?>
<svg xmlns="http://www.w3.org/2000/svg" viewBox="0 0 2438.67 1080">
  <defs>
    <style>
      .cls-1 {
        opacity: .3;
      }

      .cls-1, .cls-2 {
        fill: #061128;
      }

      .cls-3 {
        fill: #0c1314;
      }

      .cls-4 {
        fill: #0e1c30;
      }

      .cls-5 {
        fill: #030d19;
      }

      .cls-6 {
        fill: #000e1c;
      }

      .cls-7 {
        fill: #06121e;
      }

      .cls-8 {
        fill: #277aff;
      }
    </style>
  </defs>
  <g id="Capa_1" data-name="Capa 1">
    <g>
      <rect x=".49" y="-.45" width="2437.69" height="1079.96"/>
      <path d="M2437.69,.05V1079.01H.99V.05H2437.69m1-1H0V1080.01H2438.69V-.95h0Z"/>
    </g>
  </g>
  <g id="Capa_2" data-name="Capa 2">
    <path class="cls-3" d="M2361.87,1009.15s-1.86,30.13-4.14,52.61l5.22,.41,.24-52.96-1.32-.06Z"/>
    <path class="cls-3" d="M2347.14,1021.62s1.31-11.09,10.78-12.58c.66-.06-9.65-2.58-13.79-1.02-1.08,.36,4.14-10.6,14.74-3.95,1.8,1.21-3.9-6.82-3.9-6.82,0,0,7.49,.95,7.91,7.48,.06,1.08,4.13-10.13,14.2-.78,.24,.18-10.55,2.51-10.3,2.93,.18,.42,12.82-2.16,13.18,8.81,0,.24-10.25-4.07-13.48-3.95-.29,0,9.7,5.08,4.37,16.52-.24,.54-6.6-4.72-7.49-11.97-.48-3.36-.41-5.64-.41-5.64,0,0-4.32,9.05-15.81,10.97Z"/>
    <polygon class="cls-7" points="1691.23 643.71 1691.53 643.71 1691.53 637.6 1691.23 637.6 1691.23 634.09 1691.23 629.29 1691.23 628 1691.23 627.92 1691.23 623.18 1691.23 619.67 1691.23 614.87 1691.23 613.56 1691.23 608.75 1691.23 605.25 1691.23 600.44 1691.23 599.14 1691.23 594.33 1691.23 590.83 1691.23 586.02 1691.23 584.72 1691.23 579.91 1691.23 576.4 1691.23 571.59 1691.23 570.29 1691.23 565.49 1691.23 563.39 1691.23 557.17 1691.23 551.06 1691.23 542.76 1691.23 536.64 1691.23 528.33 1691.23 522.22 1691.23 513.91 1691.23 507.79 1691.23 497.23 1691.23 479.19 1691.23 474.14 1691.23 468.38 1680.66 468.38 1680.66 474.14 1551.12 474.14 1551.12 468.73 1540.54 468.73 1540.54 474.14 1540.54 479.55 1540.54 497.23 1540.54 507.79 1540.54 513.91 1540.54 522.22 1540.54 528.33 1540.54 536.64 1540.54 542.76 1540.54 551.06 1540.54 557.17 1540.54 565.49 1540.54 571.59 1540.54 579.91 1540.54 586.02 1540.54 594.33 1540.54 600.44 1540.54 608.75 1540.54 614.87 1540.54 623.18 1540.54 629.29 1540.54 637.6 1540.54 643.71 1540.54 652.02 1540.54 658.14 1540.54 666.45 1540.54 672.55 1540.54 680.88 1540.54 686.98 1540.54 695.3 1540.54 701.4 1540.54 709.72 1540.54 715.82 1540.54 724.15 1540.54 730.25 1540.54 738.57 1540.54 744.68 1540.54 752.99 1540.54 759.1 1540.54 767.41 1540.54 773.52 1540.54 781.84 1540.54 787.94 1540.54 796.25 1540.54 802.37 1540.54 810.68 1540.54 816.79 1540.54 825.11 1540.54 831.21 1540.54 839.53 1540.54 845.64 1540.54 853.95 1540.54 860.06 1540.54 868.38 1540.54 874.49 1540.54 882.8 1540.54 888.91 1540.54 897.23 1540.54 903.33 1540.54 911.64 1540.54 917.76 1540.54 926.07 1540.54 932.18 1540.54 940.49 1540.54 946.6 1540.54 954.91 1540.54 961.03 1540.54 969.34 1540.54 975.45 1540.54 983.76 1540.54 989.87 1540.54 998.18 1540.54 1004.29 1540.54 1012.6 1540.54 1018.72 1540.54 1027.03 1540.54 1033.14 1540.54 1041.46 1540.54 1047.56 1540.54 1055.88 1540.54 1061.99 1540.54 1066.14 1560.81 1066.14 1582.11 1066.14 1582.11 1066.47 1608.1 1066.47 1691.23 1066.47 1691.53 1066.47 1691.53 1061.99 1691.53 1055.88 1691.53 1047.56 1691.53 1041.46 1691.53 1033.14 1691.53 1027.03 1691.53 1018.72 1691.53 1012.6 1691.53 1004.29 1691.53 998.18 1691.53 989.87 1691.53 983.76 1691.53 975.45 1691.53 969.34 1691.53 961.03 1691.53 954.91 1691.53 946.6 1691.53 944 1691.53 940.49 1691.23 940.49 1691.23 936.98 1691.23 932.18 1691.53 932.18 1691.53 926.07 1691.23 926.07 1691.23 922.56 1691.23 917.76 1691.53 917.76 1691.53 911.64 1691.23 911.64 1691.23 908.13 1691.23 903.33 1691.53 903.33 1691.53 897.23 1691.23 897.23 1691.23 893.71 1691.23 888.91 1691.53 888.91 1691.53 882.8 1691.23 882.8 1691.23 879.29 1691.23 874.49 1691.53 874.49 1691.53 868.38 1691.23 868.38 1691.23 864.87 1691.23 860.06 1691.53 860.06 1691.53 853.95 1691.23 853.95 1691.23 850.44 1691.23 845.64 1691.53 845.64 1691.53 839.53 1691.23 839.53 1691.23 836.02 1691.23 831.21 1691.53 831.21 1691.53 825.11 1691.23 825.11 1691.23 821.61 1691.23 816.79 1691.53 816.79 1691.53 810.68 1691.23 810.68 1691.23 807.18 1691.23 802.37 1691.53 802.37 1691.53 796.25 1691.23 796.25 1691.23 792.76 1691.23 787.94 1691.53 787.94 1691.53 781.84 1691.23 781.84 1691.23 778.33 1691.23 773.52 1691.53 773.52 1691.53 767.41 1691.23 767.41 1691.23 763.9 1691.23 759.1 1691.53 759.1 1691.53 752.99 1691.23 752.99 1691.23 749.48 1691.23 744.68 1691.53 744.68 1691.53 738.57 1691.23 738.57 1691.23 735.05 1691.23 730.25 1691.53 730.25 1691.53 724.15 1691.23 724.15 1691.23 720.63 1691.23 715.82 1691.53 715.82 1691.53 709.72 1691.23 709.72 1691.23 706.21 1691.23 701.4 1691.53 701.4 1691.53 695.3 1691.23 695.3 1691.23 691.79 1691.23 686.98 1691.53 686.98 1691.53 680.88 1691.23 680.88 1691.23 677.37 1691.23 672.55 1691.53 672.55 1691.53 666.45 1691.23 666.45 1691.23 662.94 1691.23 658.14 1691.53 658.14 1691.53 652.02 1691.23 652.02 1691.23 648.52 1691.23 643.71"/>
    <polygon class="cls-4" points="1815.62 613.41 1796.87 613.41 1784.04 613.41 1784.04 610.36 1784.04 606.67 1784.04 597.08 1784.04 593.39 1784.04 583.8 1784.04 580.11 1784.04 572.15 1784.04 572.09 1784.04 567.75 1738.48 567.75 1723.78 567.75 1678.08 567.75 1678.08 572.09 1678.08 572.15 1678.08 580.11 1678.08 583.8 1678.08 593.39 1678.08 597.08 1678.08 606.67 1678.08 610.36 1678.08 613.41 1662.19 613.41 1646.45 613.41 1646.45 617.81 1646.45 624.38 1646.45 628.08 1646.45 637.67 1646.45 641.35 1646.45 650.95 1646.45 654.64 1646.45 664.23 1646.45 667.92 1646.45 677.51 1646.45 681.2 1646.45 690.79 1646.45 694.48 1646.45 704.08 1646.45 707.76 1646.45 717.36 1646.45 721.05 1646.45 730.64 1646.45 734.33 1646.45 743.92 1646.45 747.61 1646.45 759.97 1646.45 763.66 1646.45 773.25 1646.45 776.94 1646.45 786.54 1646.45 790.22 1646.45 799.82 1646.45 803.5 1646.45 813.1 1646.45 816.78 1646.45 826.38 1646.45 830.07 1646.45 839.66 1646.45 843.35 1646.45 852.94 1646.45 856.63 1646.45 866.23 1646.45 869.91 1646.45 879.5 1646.45 883.2 1646.45 892.79 1646.45 896.48 1646.45 906.07 1646.45 909.76 1646.45 919.35 1646.45 923.04 1646.45 932.63 1646.45 936.32 1646.45 945.91 1646.45 949.6 1646.45 959.19 1646.45 962.88 1646.45 972.47 1646.45 976.17 1646.45 985.75 1646.45 989.45 1646.45 999.04 1646.45 1002.73 1646.45 1012.33 1646.45 1016.01 1646.45 1025.6 1646.45 1029.29 1646.45 1038.88 1646.45 1042.57 1646.45 1052.17 1646.45 1055.85 1646.45 1062.59 1662.19 1062.59 1680.92 1062.59 1689.31 1062.59 1705.05 1062.59 1723.78 1062.59 1723.78 1062.48 1727.3 1062.48 1728.64 1062.48 1733.48 1062.48 1734.84 1062.48 1738.35 1062.48 1738.35 1062.59 1754.08 1062.59 1772.81 1062.59 1781.21 1062.59 1796.93 1062.59 1815.67 1062.59 1815.67 1055.85 1815.67 1052.17 1815.67 1042.57 1815.67 1038.88 1815.67 1029.29 1815.67 1025.6 1815.67 1016.01 1815.67 1012.33 1815.67 1002.73 1815.67 999.04 1815.67 989.45 1815.67 985.75 1815.67 976.17 1815.67 972.47 1815.67 962.88 1815.67 959.19 1815.67 949.6 1815.67 945.91 1815.67 936.32 1815.67 932.63 1815.67 923.04 1815.67 919.35 1815.67 909.76 1815.67 906.07 1815.67 896.48 1815.67 892.79 1815.67 883.2 1815.67 879.5 1815.67 869.91 1815.67 866.23 1815.67 856.63 1815.67 852.94 1815.67 843.35 1815.67 839.66 1815.67 830.07 1815.67 826.38 1815.67 816.78 1815.67 813.1 1815.67 803.5 1815.67 799.82 1815.67 790.22 1815.67 786.54 1815.67 776.94 1815.67 773.25 1815.67 763.66 1815.67 759.97 1815.67 747.61 1815.67 743.92 1815.67 734.33 1815.67 730.64 1815.67 721.05 1815.67 717.36 1815.67 707.76 1815.67 704.08 1815.67 694.48 1815.67 690.79 1815.67 681.2 1815.67 677.51 1815.67 667.92 1815.67 664.23 1815.67 654.64 1815.67 650.95 1815.67 641.35 1815.67 637.67 1815.67 628.08 1815.67 624.38 1815.67 617.81 1815.67 613.41 1815.62 613.41"/>
    <polygon class="cls-7" points="2108.92 619.67 2108.92 621.02 2108.92 624.93 2108.92 625.47 2108.92 630.04 2108.92 630.56 2108.92 630.83 2108.92 631.36 2108.92 635.91 2108.92 636.46 2108.92 641.02 2108.92 641.53 2103.42 641.53 2103.42 642.06 2103.44 642.06 2103.44 645.06 2103.44 645.6 2103.44 649.7 2103.44 650.23 2103.44 654.81 2103.44 655.33 2103.44 659.9 2103.44 660.16 2103.19 660.16 2102.87 660.16 2101.79 660.16 2101.47 660.16 2100.4 660.16 2100.08 660.16 2099 660.16 2098.68 660.16 2097.61 660.16 2097.28 660.16 2096.94 660.16 2096.94 660.42 2096.94 660.42 2096.94 1052.59 2096.94 1052.6 2096.94 1053.13 2096.94 1053.95 2096.94 1055.31 2096.94 1059.39 2096.94 1060.73 2096.94 1035.86 2096.94 1036.24 2096.94 1046.64 2096.94 1046.68 2096.94 1048.01 2096.94 1048.02 2096.94 1049.35 2096.94 1056.15 2096.94 1057.5 2096.94 1058.85 2096.94 1062.99 2096.94 1062.99 2098 1062.99 2101.1 1062.99 2102.16 1062.99 2107.87 1062.99 2108.4 1062.99 2108.92 1062.99 2112.5 1062.99 2114.63 1062.99 2115.68 1062.99 2122.09 1062.99 2123.14 1062.99 2128.85 1062.99 2129.9 1062.99 2135.29 1062.99 2136.35 1062.99 2142.05 1062.99 2143.09 1062.99 2148.81 1062.99 2149.86 1062.99 2155.39 1062.99 2156.44 1062.99 2162.15 1062.99 2163.2 1062.99 2168.58 1062.99 2169.64 1062.99 2175.34 1062.99 2176.39 1062.99 2182.1 1062.99 2183.15 1062.99 2183.53 1062.99 2183.53 1063.25 2183.85 1063.25 2183.85 1062.99 2184.58 1062.99 2184.58 1063.25 2184.9 1063.25 2184.9 1062.99 2185.62 1062.99 2185.62 1063.25 2185.94 1063.25 2185.94 1062.99 2186.67 1062.99 2186.67 1063.25 2187 1063.25 2187 1062.99 2187.71 1062.99 2187.71 1063.25 2188.03 1063.25 2188.03 1062.99 2188.75 1062.99 2188.75 1063.25 2189.08 1063.25 2189.08 1062.99 2189.8 1062.99 2189.8 1063.25 2190.13 1063.25 2190.13 1062.99 2190.84 1062.99 2190.84 1063.25 2191.17 1063.25 2191.17 1062.99 2191.89 1062.99 2191.89 1063.25 2192.21 1063.25 2192.21 1062.99 2192.94 1062.99 2192.94 1063.25 2193.25 1063.25 2193.25 1062.99 2193.98 1062.99 2193.98 1063.25 2194.3 1063.25 2194.3 1062.99 2195.04 1062.99 2195.04 1063.25 2195.35 1063.25 2195.35 1062.99 2196.07 1062.99 2196.07 1063.25 2196.39 1063.25 2196.39 1062.99 2197.12 1062.99 2197.12 1063.25 2197.44 1063.25 2197.44 1062.99 2197.44 621.02 2197.44 619.67 2108.92 619.67"/>
    <polygon class="cls-7" points="1939.74 741.17 1939.99 741.17 1939.99 736.47 1939.74 736.47 1939.74 733.77 1939.74 730.07 1939.74 729.08 1939.74 729.02 1939.74 725.37 1939.74 722.67 1939.74 718.98 1939.74 717.98 1939.74 714.28 1939.74 711.58 1939.74 707.88 1939.74 706.88 1939.74 703.18 1939.74 700.48 1939.74 696.78 1939.74 695.78 1939.74 692.08 1939.74 689.39 1939.74 685.69 1939.74 684.68 1939.74 680.98 1939.74 679.37 1939.74 674.58 1939.74 669.89 1939.74 663.5 1939.74 658.78 1939.74 652.39 1939.74 647.69 1939.74 641.3 1939.74 636.59 1939.74 628.46 1939.74 614.58 1939.74 610.7 1939.74 606.26 1930.83 606.26 1930.83 610.7 1821.72 610.7 1821.72 606.53 1812.8 606.53 1812.8 610.7 1812.8 614.86 1812.8 628.46 1812.8 636.59 1812.8 641.3 1812.8 647.69 1812.8 652.39 1812.8 658.78 1812.8 663.5 1812.8 669.89 1812.8 674.58 1812.8 680.98 1812.8 685.69 1812.8 692.08 1812.8 696.78 1812.8 703.18 1812.8 707.88 1812.8 714.28 1812.8 718.98 1812.8 725.37 1812.8 730.07 1812.8 736.47 1812.8 741.17 1812.8 747.57 1812.8 752.27 1812.8 758.67 1812.8 763.37 1812.8 769.77 1812.8 774.47 1812.8 780.87 1812.8 785.57 1812.8 791.96 1812.8 796.66 1812.8 803.06 1812.8 807.76 1812.8 814.16 1812.8 818.86 1812.8 825.27 1812.8 829.96 1812.8 836.36 1812.8 841.05 1812.8 847.46 1812.8 852.15 1812.8 858.55 1812.8 863.25 1812.8 869.66 1812.8 874.35 1812.8 880.75 1812.8 885.44 1812.8 891.85 1812.8 896.54 1812.8 902.96 1812.8 907.64 1812.8 914.05 1812.8 918.74 1812.8 925.14 1812.8 929.85 1812.8 936.25 1812.8 940.94 1812.8 947.34 1812.8 952.04 1812.8 958.44 1812.8 963.14 1812.8 969.54 1812.8 974.23 1812.8 980.64 1812.8 985.33 1812.8 991.73 1812.8 996.43 1812.8 1002.83 1812.8 1007.53 1812.8 1013.93 1812.8 1018.63 1812.8 1025.02 1812.8 1029.73 1812.8 1036.13 1812.8 1040.82 1812.8 1047.23 1812.8 1051.92 1812.8 1058.32 1812.8 1063.02 1812.8 1066.22 1829.88 1066.22 1847.82 1066.22 1847.82 1066.47 1869.72 1066.47 1939.74 1066.47 1939.99 1066.47 1939.99 1063.02 1939.99 1058.32 1939.99 1051.92 1939.99 1047.23 1939.99 1040.82 1939.99 1036.13 1939.99 1029.73 1939.99 1025.02 1939.99 1018.63 1939.99 1013.93 1939.99 1007.53 1939.99 1002.83 1939.99 996.43 1939.99 991.73 1939.99 985.33 1939.99 980.64 1939.99 974.23 1939.99 972.23 1939.99 969.54 1939.74 969.54 1939.74 966.84 1939.74 963.14 1939.99 963.14 1939.99 958.44 1939.74 958.44 1939.74 955.75 1939.74 952.04 1939.99 952.04 1939.99 947.34 1939.74 947.34 1939.74 944.64 1939.74 940.94 1939.99 940.94 1939.99 936.25 1939.74 936.25 1939.74 933.54 1939.74 929.85 1939.99 929.85 1939.99 925.14 1939.74 925.14 1939.74 922.44 1939.74 918.74 1939.99 918.74 1939.99 914.05 1939.74 914.05 1939.74 911.35 1939.74 907.64 1939.99 907.64 1939.99 902.96 1939.74 902.96 1939.74 900.24 1939.74 896.54 1939.99 896.54 1939.99 891.85 1939.74 891.85 1939.74 889.15 1939.74 885.44 1939.99 885.44 1939.99 880.75 1939.74 880.75 1939.74 878.06 1939.74 874.35 1939.99 874.35 1939.99 869.66 1939.74 869.66 1939.74 866.96 1939.74 863.25 1939.99 863.25 1939.99 858.55 1939.74 858.55 1939.74 855.86 1939.74 852.15 1939.99 852.15 1939.99 847.46 1939.74 847.46 1939.74 844.76 1939.74 841.05 1939.99 841.05 1939.99 836.36 1939.74 836.36 1939.74 833.66 1939.74 829.96 1939.99 829.96 1939.99 825.27 1939.74 825.27 1939.74 822.55 1939.74 818.86 1939.99 818.86 1939.99 814.16 1939.74 814.16 1939.74 811.47 1939.74 807.76 1939.99 807.76 1939.99 803.06 1939.74 803.06 1939.74 800.36 1939.74 796.66 1939.99 796.66 1939.99 791.96 1939.74 791.96 1939.74 789.27 1939.74 785.57 1939.99 785.57 1939.99 780.87 1939.74 780.87 1939.74 778.17 1939.74 774.47 1939.99 774.47 1939.99 769.77 1939.74 769.77 1939.74 767.06 1939.74 763.37 1939.99 763.37 1939.99 758.67 1939.74 758.67 1939.74 755.97 1939.74 752.27 1939.99 752.27 1939.99 747.57 1939.74 747.57 1939.74 744.88 1939.74 741.17"/>
    <polygon class="cls-7" points="194.39 1002.1 194.39 937.01 197.42 937.01 197.42 934.3 194.39 934.3 194.39 918.49 194.38 918.49 191.53 918.49 191.34 918.49 191.34 837.54 189.17 837.54 187.34 837.54 186.37 837.54 184.74 837.54 184.74 793.18 184.74 793.18 184.74 786.18 184.32 786.18 182.81 786.18 176.14 781.23 176.14 781.23 146.25 759.13 116.36 781.23 116.36 781.23 116.32 781.27 109.69 786.18 108.1 786.18 108.1 793.18 108.1 837.54 106.67 837.54 105.93 837.54 105.5 837.54 103.76 837.54 101.51 837.54 101.51 918.49 101.33 918.49 98.47 918.49 98.47 934.3 95.7 934.3 95.7 937.01 98.47 937.01 98.47 939.73 98.47 941.34 98.47 943.35 98.47 945.72 98.47 947.74 98.47 950.11 98.47 952.12 98.47 954.5 98.47 956.51 98.47 958.88 98.47 960.9 98.47 963.27 98.47 965.28 98.47 967.65 98.47 969.65 98.47 972.04 98.47 974.06 98.47 976.44 98.47 978.44 98.47 980.82 98.47 982.82 98.47 985.21 98.47 987.21 98.47 989.59 98.47 991.6 98.47 993.98 98.47 995.99 98.47 998.36 98.47 1000.37 98.47 1002.1 87.87 1002.1 87.87 1063.63 204.05 1063.63 204.05 1002.1 194.39 1002.1"/>
    <polygon class="cls-7" points="637.76 614.56 614.07 614.56 614.07 583.23 584.97 583.23 584.97 537.26 575.48 537.26 575.48 534.98 544.76 534.98 544.76 517.22 544.03 517.22 544.03 502.29 542.44 502.29 542.44 517.22 541.7 517.22 541.7 534.98 539.82 534.98 539.82 537.26 518.26 537.26 518.26 532.69 482.61 532.69 482.61 537.26 477.44 537.26 477.44 1063.74 584.97 1063.74 584.97 1063.58 637.76 1063.58 637.76 614.56"/>
    <polygon class="cls-7" points="848.29 985.67 848.29 842.79 870.91 842.79 870.91 711.37 894.52 711.37 894.52 454.51 912.8 454.51 912.8 431.74 942.51 431.74 942.51 416.83 1017.27 416.83 1017.27 431.74 1026.85 431.74 1026.85 454.51 1026.85 477.27 1026.85 711.37 1026.85 739.17 1026.85 842.79 1026.85 853.7 1026.85 985.67 1026.85 996.04 1026.85 1063.82 730.18 1063.82 730.18 985.67 848.29 985.67"/>
    <polygon class="cls-7" points="1153.43 619.17 1153.43 609.77 1061.55 609.77 1061.55 619.17 1057.28 619.17 1057.28 1063.04 1157.71 1063.04 1157.71 619.17 1153.43 619.17"/>
    <polygon class="cls-7" points="1393.34 559.82 1298.06 559.82 1298.06 569.12 1286.14 569.12 1286.14 1066.75 1407.45 1066.75 1407.45 569.12 1393.34 569.12 1393.34 559.82"/>
    <polygon class="cls-6" points="1665.16 524.65 1665.16 520.87 1550.58 520.87 1550.58 521.75 1537.18 521.75 1537.18 520.87 1422.6 520.87 1422.6 524.65 1537.18 524.65 1537.18 524.65 1532.8 524.65 1531.13 524.65 1520.17 524.65 1518.51 524.65 1507.53 524.65 1505.87 524.65 1494.9 524.65 1493.23 524.65 1482.27 524.65 1480.6 524.65 1469.64 524.65 1467.97 524.65 1457.01 524.65 1455.34 524.65 1444.37 524.65 1442.71 524.65 1431.75 524.65 1430.07 524.65 1422.6 524.65 1422.6 527.66 1422.6 529.04 1422.6 532.05 1422.6 533.42 1422.6 536.43 1422.6 537.81 1422.6 540.82 1422.6 542.19 1422.6 545.21 1422.6 546.57 1422.6 549.59 1422.6 550.96 1422.6 553.97 1422.6 555.34 1422.6 558.36 1422.6 559.73 1422.6 562.75 1422.6 564.12 1422.6 567.13 1422.6 568.5 1422.6 571.52 1422.6 572.89 1422.6 575.9 1422.6 577.27 1422.6 580.29 1422.6 581.66 1422.6 584.67 1422.6 586.05 1422.6 589.06 1422.6 590.43 1422.6 593.44 1422.6 594.81 1422.6 597.83 1422.6 599.2 1422.6 602.22 1422.6 603.59 1422.6 606.6 1422.6 607.97 1422.6 610.99 1422.6 612.36 1422.6 615.37 1422.6 616.74 1422.6 619.76 1422.6 621.13 1422.6 624.14 1422.6 625.51 1422.6 628.53 1422.6 629.9 1422.6 632.91 1422.6 634.28 1422.6 637.3 1422.6 638.67 1422.6 641.69 1422.6 643.05 1422.6 646.07 1422.6 647.44 1422.6 650.45 1422.6 651.83 1422.6 654.84 1422.6 656.21 1422.6 659.22 1422.6 660.6 1422.6 663.61 1422.6 664.98 1422.6 667.99 1422.6 669.37 1422.6 672.38 1422.6 673.75 1422.6 676.77 1422.6 678.14 1422.6 681.15 1422.6 682.52 1422.6 685.53 1422.6 686.91 1422.6 689.93 1422.6 691.29 1422.6 694.31 1422.6 695.68 1422.6 698.69 1422.6 700.07 1422.6 703.08 1422.6 704.45 1422.6 707.47 1422.6 708.84 1422.6 711.85 1422.6 713.22 1422.6 716.24 1422.6 717.61 1422.6 720.62 1422.6 721.99 1422.6 725 1422.6 726.38 1422.6 729.39 1422.6 730.76 1422.6 733.78 1422.6 735.15 1422.6 738.16 1422.6 739.54 1422.6 742.55 1422.6 743.92 1422.6 746.94 1422.6 748.3 1422.6 751.32 1422.6 752.69 1422.6 755.71 1422.6 757.07 1422.6 760.09 1422.6 761.46 1422.6 764.47 1422.6 765.84 1422.6 768.86 1422.6 770.23 1422.6 773.24 1422.6 774.62 1422.6 777.64 1422.6 779 1422.6 782.01 1422.6 783.39 1422.6 786.4 1422.6 787.78 1422.6 790.79 1422.6 792.16 1422.6 795.17 1422.6 796.54 1422.6 799.55 1422.6 800.93 1422.6 803.94 1422.6 805.32 1422.6 808.32 1422.6 809.7 1422.6 812.72 1422.6 814.09 1422.6 817.11 1422.6 818.47 1422.6 821.48 1422.6 822.85 1422.6 825.87 1422.6 827.24 1422.6 830.25 1422.6 831.62 1422.6 834.64 1422.6 836.01 1422.6 839.02 1422.6 840.4 1422.6 843.41 1422.6 844.79 1422.6 847.8 1422.6 849.17 1422.6 852.18 1422.6 853.56 1422.6 856.57 1422.6 857.94 1422.6 860.96 1422.6 862.33 1422.6 865.35 1422.6 866.71 1422.6 869.73 1422.6 871.09 1422.6 874.11 1422.6 875.48 1422.6 878.49 1422.6 879.87 1422.6 882.88 1422.6 884.25 1422.6 887.27 1422.6 888.63 1422.6 891.65 1422.6 893.02 1422.6 896.04 1422.6 897.41 1422.6 900.43 1422.6 901.79 1422.6 904.81 1422.6 906.17 1422.6 909.2 1422.6 910.57 1422.6 913.57 1422.6 914.95 1422.6 917.96 1422.6 919.34 1422.6 922.35 1422.6 923.72 1422.6 926.73 1422.6 928.1 1422.6 931.12 1422.6 932.49 1422.6 935.51 1422.6 936.87 1422.6 939.9 1422.6 941.26 1422.6 944.27 1422.6 945.65 1422.6 948.65 1422.6 950.03 1422.6 953.06 1422.6 954.43 1422.6 957.43 1422.6 958.8 1422.6 961.82 1422.6 963.18 1422.6 966.2 1422.6 967.58 1422.6 970.59 1422.6 971.96 1422.6 974.98 1422.6 976.34 1422.6 979.36 1422.6 980.73 1422.6 983.74 1422.6 985.11 1422.6 988.14 1422.6 989.5 1422.6 992.51 1422.6 993.88 1422.6 996.91 1422.6 998.26 1422.6 1001.29 1422.6 1002.66 1422.6 1005.67 1422.6 1007.04 1422.6 1010.06 1422.6 1011.43 1422.6 1014.44 1422.6 1015.82 1422.6 1018.83 1422.6 1020.2 1422.6 1023.22 1422.6 1024.59 1422.6 1027.6 1422.6 1028.97 1422.6 1032 1422.6 1033.34 1422.6 1036.37 1422.6 1037.74 1422.6 1040.75 1422.6 1042.12 1422.6 1045.14 1422.6 1046.52 1422.6 1049.52 1422.6 1050.89 1422.6 1053.91 1422.6 1055.28 1422.6 1058.29 1422.6 1059.67 1422.6 1062.69 1422.6 1064.56 1430.07 1064.56 1430.07 1065.09 1431.75 1065.09 1431.75 1064.56 1442.71 1064.56 1442.71 1065.09 1444.37 1065.09 1444.37 1064.56 1455.34 1064.56 1455.34 1065.09 1457.01 1065.09 1457.01 1064.56 1467.97 1064.56 1467.97 1065.09 1469.64 1065.09 1469.64 1064.56 1480.6 1064.56 1480.6 1065.09 1482.27 1065.09 1482.27 1064.56 1493.23 1064.56 1493.23 1065.09 1494.9 1065.09 1494.9 1064.56 1503.83 1064.56 1503.83 1065.09 1505.87 1065.09 1507.53 1065.09 1509.88 1065.09 1513.6 1065.09 1515.93 1065.09 1518.51 1065.09 1520.17 1065.09 1531.13 1065.09 1532.8 1065.09 1556.4 1065.09 1558.07 1065.09 1569.03 1065.09 1570.7 1065.09 1575.42 1065.09 1579.13 1065.09 1581.48 1065.09 1581.67 1065.09 1583.33 1065.09 1583.38 1065.09 1585.18 1065.09 1587.52 1065.09 1587.52 1064.56 1594.31 1064.56 1594.31 1065.09 1595.96 1065.09 1595.96 1064.56 1606.93 1064.56 1606.93 1065.09 1608.6 1065.09 1608.6 1064.56 1619.57 1064.56 1619.57 1065.09 1621.24 1065.09 1621.24 1064.56 1632.2 1064.56 1632.2 1065.09 1633.87 1065.09 1633.87 1064.56 1644.83 1064.56 1644.83 1065.09 1646.5 1065.09 1646.5 1064.56 1657.47 1064.56 1657.47 1065.09 1659.13 1065.09 1659.13 1064.56 1665.15 1064.56 1665.15 1062.69 1665.15 1059.67 1665.15 1058.29 1665.15 1055.28 1665.15 1053.91 1665.15 1050.89 1665.15 1049.52 1665.15 1046.52 1665.15 1045.14 1665.15 1042.12 1665.15 1040.75 1665.15 1037.74 1665.15 1036.37 1665.15 1033.34 1665.15 1032 1665.15 1028.97 1665.15 1027.6 1665.15 1024.59 1665.15 1023.22 1665.15 1020.2 1665.15 1018.83 1665.15 1015.82 1665.15 1014.44 1665.15 1011.43 1665.15 1010.06 1665.15 1007.04 1665.15 1005.67 1665.15 1002.66 1665.15 1001.29 1665.15 998.26 1665.15 996.91 1665.15 993.88 1665.15 992.51 1665.15 989.5 1665.15 988.14 1665.15 985.11 1665.15 983.74 1665.15 980.73 1665.15 979.36 1665.15 976.34 1665.15 974.98 1665.15 971.96 1665.15 970.59 1665.15 967.58 1665.15 966.2 1665.15 963.18 1665.15 961.82 1665.15 958.8 1665.15 957.43 1665.15 954.43 1665.15 953.06 1665.15 950.03 1665.15 948.65 1665.15 945.65 1665.15 944.27 1665.15 941.26 1665.15 939.9 1665.15 936.87 1665.15 935.51 1665.15 932.49 1665.15 931.12 1665.15 928.1 1665.15 926.73 1665.15 923.72 1665.15 922.35 1665.15 919.34 1665.15 917.96 1665.15 914.95 1665.15 913.57 1665.15 910.57 1665.15 909.2 1665.15 906.17 1665.15 904.81 1665.15 901.79 1665.15 900.43 1665.15 897.41 1665.15 896.04 1665.15 893.02 1665.15 891.65 1665.15 888.63 1665.15 887.27 1665.15 884.25 1665.15 882.88 1665.15 879.87 1665.15 878.49 1665.15 875.48 1665.15 874.11 1665.15 871.09 1665.15 869.73 1665.15 866.71 1665.15 865.35 1665.15 862.33 1665.15 860.96 1665.15 857.94 1665.15 856.57 1665.15 853.56 1665.15 852.18 1665.15 849.17 1665.15 847.8 1665.15 844.79 1665.15 843.41 1665.15 840.4 1665.15 839.02 1665.15 836.01 1665.15 834.64 1665.15 831.62 1665.15 830.25 1665.15 827.24 1665.15 825.87 1665.15 822.85 1665.15 821.48 1665.15 818.47 1665.15 817.11 1665.15 814.09 1665.15 812.72 1665.15 809.7 1665.15 808.32 1665.15 805.32 1665.15 803.94 1665.15 800.93 1665.15 799.55 1665.15 796.54 1665.15 795.17 1665.15 792.16 1665.15 790.79 1665.15 787.78 1665.15 786.4 1665.15 783.39 1665.15 782.01 1665.15 779 1665.15 777.64 1665.15 774.62 1665.15 773.24 1665.15 770.23 1665.15 768.86 1665.15 765.84 1665.15 764.47 1665.15 761.46 1665.15 760.09 1665.15 757.07 1665.15 755.71 1665.15 752.69 1665.15 751.32 1665.15 748.3 1665.15 746.94 1665.15 743.92 1665.15 742.55 1665.15 739.54 1665.15 738.16 1665.15 735.15 1665.15 733.78 1665.15 730.76 1665.15 729.39 1665.15 726.38 1665.15 725 1665.15 721.99 1665.15 720.62 1665.15 717.61 1665.15 716.24 1665.15 713.22 1665.15 711.85 1665.15 708.84 1665.15 707.47 1665.15 704.45 1665.15 703.08 1665.15 700.07 1665.15 698.69 1665.15 695.68 1665.15 694.31 1665.15 691.29 1665.15 689.93 1665.15 686.91 1665.15 685.53 1665.15 682.52 1665.15 681.15 1665.15 678.14 1665.15 676.77 1665.15 673.75 1665.15 672.38 1665.15 669.37 1665.15 667.99 1665.15 664.98 1665.15 663.61 1665.15 660.6 1665.15 659.22 1665.15 656.21 1665.15 654.84 1665.15 651.83 1665.15 650.45 1665.15 647.44 1665.15 646.07 1665.15 643.05 1665.15 641.69 1665.15 638.67 1665.15 637.3 1665.15 634.28 1665.15 632.91 1665.15 629.9 1665.15 628.53 1665.15 625.51 1665.15 624.14 1665.15 621.13 1665.15 619.76 1665.15 616.74 1665.15 615.37 1665.15 612.36 1665.15 610.99 1665.15 607.97 1665.15 606.6 1665.15 603.59 1665.15 602.22 1665.15 599.2 1665.15 597.83 1665.15 594.81 1665.15 593.44 1665.15 590.43 1665.15 589.06 1665.15 586.05 1665.15 584.67 1665.15 581.66 1665.15 580.29 1665.15 577.27 1665.15 575.9 1665.15 572.89 1665.15 571.52 1665.15 568.5 1665.15 567.13 1665.15 564.12 1665.15 562.75 1665.15 559.73 1665.15 558.36 1665.15 555.34 1665.15 553.97 1665.15 550.96 1665.15 549.59 1665.15 546.57 1665.15 545.21 1665.15 542.19 1665.15 540.82 1665.15 537.81 1665.15 536.43 1665.15 533.42 1665.15 532.05 1665.15 529.04 1665.15 527.66 1665.15 524.65 1659.13 524.65 1657.47 524.65 1646.5 524.65 1644.83 524.65 1633.87 524.65 1632.2 524.65 1621.24 524.65 1619.57 524.65 1608.6 524.65 1606.93 524.65 1595.96 524.65 1594.31 524.65 1583.33 524.65 1581.67 524.65 1570.7 524.65 1569.03 524.65 1558.07 524.65 1556.4 524.65 1550.58 524.65 1550.58 524.65 1665.16 524.65"/>
    <polygon class="cls-4" points="2267.02 674.14 2265.99 674.14 2263.35 674.14 2262.31 674.14 2259.68 674.14 2258.63 674.14 2256.01 674.14 2254.97 674.14 2252.32 674.14 2252.32 670.2 2252.32 669.14 2252.32 662.66 2252.32 661.59 2252.32 658.88 2252.32 657.82 2252.32 654.57 2251.29 654.57 2248.65 654.57 2247.61 654.57 2244.98 654.57 2243.94 654.57 2241.31 654.57 2240.26 654.57 2237.62 654.57 2236.58 654.57 2233.96 654.57 2232.91 654.57 2230.28 654.57 2229.25 654.57 2226.6 654.57 2225.56 654.57 2222.92 654.57 2221.89 654.57 2219.25 654.57 2218.21 654.57 2215.58 654.57 2214.54 654.57 2211.9 654.57 2210.86 654.57 2208.22 654.57 2207.19 654.57 2204.54 654.57 2203.52 654.57 2200.88 654.57 2199.84 654.57 2197.21 654.57 2196.15 654.57 2193.53 654.57 2192.48 654.57 2189.85 654.57 2188.82 654.57 2186.18 654.57 2185.14 654.57 2182.49 654.57 2181.47 654.57 2180.1 654.57 2180.1 674.14 2178.82 674.14 2177.79 674.14 2175.15 674.14 2174.12 674.14 2173.08 674.14 2169.77 674.14 2169.77 676.68 2169.77 677.75 2169.77 681.06 2169.77 683.18 2169.77 684.16 2169.77 684.22 2169.77 685.29 2169.77 688.6 2169.77 691.77 2169.77 692.83 2169.77 696.15 2169.77 698.26 2169.77 699.25 2169.77 699.31 2169.77 700.38 2169.77 703.69 2169.77 706.85 2169.77 707.92 2169.77 711.24 2169.77 713.36 2169.77 714.34 2169.77 714.39 2169.77 715.46 2169.77 718.77 2169.77 721.95 2169.77 723 2169.77 726.32 2169.77 728.44 2169.77 729.42 2169.77 729.49 2169.77 730.55 2169.77 733.86 2169.77 737.03 2169.77 738.1 2169.77 741.42 2169.77 743.53 2169.77 744.52 2169.77 744.57 2169.77 745.64 2169.77 748.95 2169.77 752.11 2169.77 753.18 2169.77 756.49 2169.77 758.61 2169.77 759.6 2169.77 759.66 2169.77 760.73 2169.77 764.04 2169.77 767.21 2169.77 768.27 2169.77 771.59 2169.77 773.7 2169.77 774.69 2169.77 774.75 2169.77 775.81 2169.77 779.13 2169.77 782.29 2169.77 783.36 2169.77 786.67 2169.77 788.79 2169.77 789.78 2169.77 789.84 2169.77 790.9 2169.77 794.22 2169.77 797.38 2169.77 798.45 2169.77 801.76 2169.77 803.87 2169.77 804.87 2169.77 804.92 2169.77 805.99 2169.77 809.3 2169.77 812.46 2169.77 813.53 2169.77 816.84 2169.77 818.95 2169.77 819.96 2169.77 820 2169.77 821.08 2169.77 824.39 2169.77 827.56 2169.77 828.61 2169.77 831.93 2169.77 834.05 2169.77 835.04 2169.77 835.09 2169.77 836.15 2169.77 839.48 2169.77 842.64 2169.77 843.71 2169.77 847.03 2169.77 849.13 2169.77 850.13 2169.77 850.17 2169.77 851.25 2169.77 854.57 2169.77 857.73 2169.77 858.8 2169.77 862.11 2169.77 864.23 2169.77 865.22 2169.77 865.28 2169.77 866.33 2169.77 869.64 2169.77 872.82 2169.77 873.87 2169.77 877.19 2169.77 879.31 2169.77 880.3 2169.77 880.35 2169.77 881.41 2169.77 884.74 2169.77 887.9 2169.77 888.97 2169.77 892.28 2169.77 894.4 2169.77 895.38 2169.77 895.44 2169.77 896.51 2169.77 899.82 2169.77 902.99 2169.77 904.05 2169.77 907.37 2169.77 909.48 2169.77 910.46 2169.77 910.53 2169.77 911.6 2169.77 914.91 2169.77 918.08 2169.77 919.14 2169.77 922.46 2169.77 924.57 2169.77 925.55 2169.77 925.62 2169.77 926.69 2169.77 930 2169.77 933.16 2169.77 934.22 2169.77 935.89 2169.77 936.88 2169.77 937.54 2169.77 940.71 2169.77 941.78 2169.77 945.08 2165.07 945.08 2163.75 945.08 2159.5 945.08 2158.19 945.08 2153.93 945.08 2152.63 945.08 2148.36 945.08 2147.06 945.08 2142.81 945.08 2141.5 945.08 2136.74 945.08 2136.74 944.85 2136.74 941.68 2136.74 938.45 2136.74 937.39 2136.74 934.22 2136.74 931 2136.74 929.94 2136.74 926.78 2136.74 923.55 2136.74 922.49 2136.74 919.33 2136.74 916.1 2136.74 915.04 2136.74 914.91 2136.74 911.88 2136.74 908.64 2136.74 907.72 2136.74 907.59 2136.74 906.71 2136.74 904.42 2136.74 901.2 2136.74 900.13 2136.74 896.97 2136.74 893.75 2136.74 892.81 2136.74 892.68 2136.74 891.81 2136.74 889.52 2136.74 886.3 2136.74 885.23 2136.74 882.06 2136.74 878.84 2136.74 877.91 2136.74 877.77 2136.74 876.91 2136.74 874.62 2136.74 871.39 2136.74 870.33 2136.74 867.16 2136.74 863.94 2136.74 863 2136.74 862.87 2136.74 862.01 2136.74 859.71 2136.74 856.5 2136.74 855.43 2136.74 852.26 2136.74 849.04 2136.74 848.09 2136.74 847.98 2136.74 847.11 2136.74 844.81 2136.74 841.59 2136.74 840.52 2136.74 837.35 2136.74 834.13 2136.74 833.19 2136.74 833.07 2136.74 832.2 2136.74 829.91 2136.74 826.68 2136.74 825.62 2136.74 822.45 2136.74 819.24 2136.74 818.29 2136.74 818.17 2136.74 817.29 2136.74 815 2136.74 811.78 2136.74 810.92 2136.74 810.72 2136.74 807.55 2136.74 804.33 2136.74 803.39 2136.74 803.26 2136.74 802.39 2136.74 800.11 2136.74 796.88 2136.74 795.82 2136.74 792.66 2136.74 789.43 2136.74 788.49 2136.74 788.37 2136.74 787.48 2136.74 785.19 2136.74 781.98 2136.74 780.91 2136.74 777.75 2136.74 774.53 2136.74 773.58 2136.74 773.46 2136.74 772.59 2136.74 770.29 2136.74 767.08 2136.74 766.01 2136.74 762.85 2136.74 759.62 2136.74 758.68 2136.74 758.56 2136.74 757.69 2136.74 755.39 2136.74 752.17 2136.74 751.11 2136.74 747.94 2136.74 744.72 2136.74 743.78 2136.74 743.65 2136.74 742.79 2136.74 740.49 2136.74 737.27 2136.74 736.2 2136.74 733.04 2136.74 729.82 2136.74 728.88 2136.74 728.75 2136.74 727.88 2136.74 725.59 2136.74 722.36 2136.74 721.3 2136.74 718.14 2136.74 714.91 2136.74 713.97 2136.74 713.85 2136.74 712.98 2136.74 710.68 2136.74 707.47 2136.74 706.4 2136.74 703.69 2136.74 703.23 2136.74 700.01 2136.74 699.07 2136.74 698.95 2136.74 698.08 2136.74 695.78 2136.74 692.56 2136.74 691.5 2136.74 688.33 2136.74 685.11 2136.74 684.16 2136.74 684.05 2136.74 683.18 2136.74 680.87 2136.74 677.66 2136.74 676.68 2136.74 676.6 2136.74 674.14 2136.74 673.43 2136.74 670.2 2136.74 669.26 2136.74 669.14 2136.74 668.27 2136.74 665.98 2136.74 662.76 2136.74 661.69 2136.74 658.52 2136.74 655.3 2136.74 654.37 2136.74 654.24 2136.74 653.36 2136.74 651.07 2136.74 647.85 2136.74 646.78 2136.74 643.62 2136.74 640.4 2136.74 639.46 2136.74 639.34 2136.74 638.46 2136.74 636.18 2136.74 632.95 2136.74 631.89 2136.74 628.72 2136.74 625.5 2136.74 624.56 2136.74 624.44 2136.74 623.56 2136.74 621.27 2136.74 618.05 2136.74 616.98 2136.74 613.81 2136.74 610.59 2136.74 609.65 2136.74 609.53 2136.74 608.66 2136.74 606.37 2131.55 606.37 2130.52 606.37 2125.38 606.37 2125.38 603.14 2125.43 603.14 2125.43 602.08 2125.43 598.91 2125.38 598.91 2125.38 595.69 2125.43 595.69 2125.43 594.75 2125.43 594.63 2125.43 593.76 2125.43 591.46 2125.38 591.46 2125.38 588.24 2125.43 588.24 2125.43 587.18 2125.43 584.01 2125.38 584.01 2125.38 580.8 2125.43 580.8 2125.43 579.84 2125.43 579.72 2125.43 578.85 2125.43 576.56 2125.38 576.56 2125.38 573.33 2125.43 573.33 2125.43 572.27 2125.43 569.1 2125.43 565.89 2125.43 564.94 2125.43 564.82 2125.43 563.95 2125.43 561.65 2125.43 561.12 2125.38 561.12 2124.27 561.12 2123.22 561.12 2117 561.12 2115.97 561.12 2109.75 561.12 2108.72 561.12 2102.49 561.12 2101.43 561.12 2095.22 561.12 2094.18 561.12 2087.97 561.12 2086.92 561.12 2080.71 561.12 2079.67 561.12 2078.03 561.12 2073.45 561.12 2072.41 561.12 2066.19 561.12 2065.14 561.12 2058.92 561.12 2057.89 561.12 2053.31 561.12 2051.66 561.12 2050.64 561.12 2044.41 561.12 2043.37 561.12 2037.14 561.12 2036.12 561.12 2030.69 561.12 2030.69 561.65 2030.69 563.95 2030.69 564.82 2030.69 564.94 2030.69 565.89 2030.69 569.1 2030.69 572.27 2030.69 573.33 2030.69 576.56 2030.69 578.85 2030.69 579.72 2030.69 579.84 2030.69 580.8 2030.69 584.01 2030.69 587.18 2030.69 588.24 2030.69 591.46 2030.69 593.76 2030.69 594.63 2030.69 594.75 2030.69 595.69 2030.69 598.91 2030.69 602.08 2030.69 603.14 2030.69 606.37 2030.69 608.66 2030.69 609.53 2030.69 609.65 2030.69 610.59 2030.69 613.81 2030.69 616.98 2030.69 618.05 2030.69 621.27 2030.69 623.56 2030.69 624.44 2030.69 624.56 2030.69 625.5 2030.69 628.72 2030.69 631.89 2030.69 632.95 2030.69 636.18 2030.69 638.46 2030.69 639.34 2030.69 639.46 2030.69 640.4 2030.69 643.62 2030.69 646.78 2030.69 647.85 2030.69 651.07 2030.69 653.36 2030.69 654.24 2030.69 654.37 2030.69 654.57 2029.95 654.57 2029.95 654.37 2028.92 654.37 2028.92 654.57 2022.69 654.57 2022.69 654.37 2021.67 654.37 2021.67 654.57 2017.03 654.57 2017.03 658.52 2017.03 661.69 2017.03 662.76 2017.03 665.98 2017.03 668.27 2017.03 669.14 2017.03 669.26 2017.03 670.2 2017.03 673.43 2017.03 676.6 2017.03 677.66 2017.03 680.87 2017.03 684.05 2017.03 685.11 2017.03 688.33 2017.03 691.5 2017.03 692.56 2017.03 695.78 2017.03 698.95 2017.03 700.01 2017.03 703.23 2017.03 703.69 2017.03 706.4 2017.03 707.47 2017.03 710.68 2017.03 713.85 2017.03 714.91 2017.03 718.14 2017.03 721.3 2017.03 722.36 2017.03 725.59 2017.03 728.75 2017.03 729.82 2017.03 733.04 2017.03 736.2 2017.03 737.27 2017.03 740.49 2017.03 743.65 2017.03 744.72 2017.03 747.94 2017.03 751.11 2017.03 752.17 2017.03 755.39 2017.03 758.56 2017.03 759.62 2017.03 762.85 2017.03 766.01 2017.03 767.08 2017.03 770.29 2017.03 773.46 2017.03 774.53 2017.03 777.75 2017.03 780.91 2017.03 781.98 2017.03 785.19 2017.03 788.37 2017.03 789.43 2017.03 792.66 2017.03 795.82 2017.03 796.88 2017.03 800.11 2017.03 803.26 2017.03 804.33 2017.03 807.55 2017.03 810.72 2017.03 810.92 2017.03 811.78 2017.03 815 2017.03 818.17 2017.03 819.24 2017.03 822.45 2017.03 825.62 2017.03 826.68 2017.03 829.91 2017.03 833.07 2017.03 834.13 2017.03 837.35 2017.03 840.52 2017.03 841.59 2017.03 844.81 2017.03 847.98 2017.03 849.04 2017.03 852.26 2017.03 855.43 2017.03 856.5 2017.03 859.71 2017.03 862.87 2017.03 863.94 2017.03 867.16 2017.03 870.33 2017.03 871.39 2017.03 874.62 2017.03 877.77 2017.03 878.84 2017.03 882.06 2017.03 885.23 2017.03 886.3 2017.03 889.52 2017.03 892.68 2017.03 893.75 2017.03 896.97 2017.03 900.13 2017.03 901.2 2017.03 904.42 2017.03 907.59 2017.03 908.64 2017.03 911.88 2017.03 914.91 2017.03 915.04 2017.03 916.1 2017.03 919.33 2017.03 922.49 2017.03 923.55 2017.03 926.78 2017.03 929.94 2017.03 931 2017.03 934.22 2017.03 937.39 2017.03 938.45 2017.03 941.68 2017.03 944.85 2017.03 945.91 2017.03 949.12 2017.03 952.3 2017.03 953.36 2017.03 956.59 2017.03 959.75 2017.03 960.8 2017.03 964.02 2017.03 967.2 2017.03 968.27 2017.03 1057.92 2017.03 1061.09 2017.03 1062.15 2017.03 1065.25 2017.03 1065.3 2093.62 1065.3 2136.74 1065.3 2136.74 1065.45 2169.77 1065.45 2251.89 1065.45 2270.23 1065.45 2270.23 1061.14 2270.23 1060.68 2270.23 1059.62 2270.23 970.47 2270.23 967.15 2270.23 966.69 2270.23 965.63 2270.23 962.92 2270.23 959.14 2270.23 958.08 2270.23 954.93 2270.23 949.32 2270.23 948.25 2270.23 945.08 2270.23 941.78 2270.23 940.71 2270.23 937.54 2270.23 934.22 2270.23 933.16 2270.23 930 2270.23 926.69 2270.23 925.62 2270.23 922.46 2270.23 919.14 2270.23 918.08 2270.23 914.91 2270.23 911.6 2270.23 910.53 2270.23 907.37 2270.23 904.05 2270.23 902.99 2270.23 899.82 2270.23 896.51 2270.23 895.44 2270.23 892.28 2270.23 888.97 2270.23 887.9 2270.23 884.74 2270.23 881.41 2270.23 880.35 2270.23 877.19 2270.23 873.87 2270.23 872.82 2270.23 869.64 2270.23 866.33 2270.23 865.28 2270.23 862.11 2270.23 858.8 2270.23 857.73 2270.23 854.57 2270.23 851.25 2270.23 850.17 2270.23 847.03 2270.23 843.71 2270.23 842.64 2270.23 839.48 2270.23 836.15 2270.23 835.09 2270.23 831.93 2270.23 828.61 2270.23 827.56 2270.23 824.39 2270.23 821.08 2270.23 820 2270.23 816.84 2270.23 813.53 2270.23 812.46 2270.23 809.3 2270.23 805.99 2270.23 804.92 2270.23 801.76 2270.23 798.45 2270.23 797.38 2270.23 794.22 2270.23 790.9 2270.23 789.84 2270.23 786.67 2270.23 783.36 2270.23 782.29 2270.23 779.13 2270.23 775.81 2270.23 774.75 2270.23 771.59 2270.23 768.27 2270.23 767.21 2270.23 764.04 2270.23 760.73 2270.23 759.66 2270.23 759.26 2270.23 756.49 2270.23 753.18 2270.23 752.11 2270.23 748.95 2270.23 745.64 2270.23 744.57 2270.23 741.42 2270.23 738.1 2270.23 737.03 2270.23 733.86 2270.23 730.55 2270.23 729.49 2270.23 726.6 2270.23 726.32 2270.23 723 2270.23 721.95 2270.23 718.77 2270.23 715.46 2270.23 714.39 2270.23 711.24 2270.23 707.92 2270.23 706.85 2270.23 703.69 2270.23 703.18 2270.23 700.38 2270.23 699.31 2270.23 696.15 2270.23 692.83 2270.23 691.77 2270.23 688.6 2270.23 685.29 2270.23 684.22 2270.23 681.06 2270.23 677.75 2270.23 676.68 2270.23 674.14 2267.02 674.14"/>
    <polygon class="cls-6" points="120.86 893.39 120.86 892.07 146.35 877.65 171.84 892.07 171.84 893.39 177.05 893.39 177.05 894.64 188.27 894.64 188.27 1061.01 177.05 1061.01 126.87 1061.01 115.66 1061.01 115.66 893.39 120.86 893.39"/>
    <polygon class="cls-4" points="473.9 986.26 473.9 902.58 467.35 902.58 467.35 762.95 462.43 762.95 462.43 723.56 458.53 723.56 458.53 700.81 451.31 700.81 451.31 695.27 447.39 695.27 447.39 691.39 444.88 691.39 444.88 688.61 407.63 688.61 407.63 691.39 405.12 691.39 405.12 695.27 401.2 695.27 401.2 700.81 393.99 700.81 393.99 723.56 390.08 723.56 390.08 762.95 385.16 762.95 385.16 824.53 378.61 824.53 378.61 986.26 372.16 986.26 372.16 1061.15 480.35 1061.15 480.35 986.26 473.9 986.26"/>
    <path class="cls-4" d="M1964.45,665.89v-6.07h-5.91c-3.28-3.79-21.57-6.69-43.73-6.69s-40.44,2.9-43.73,6.69h-5.9v6.07h-24.89v399.27h151.53v-399.27h-27.37Z"/>
    <polygon class="cls-4" points="865.75 801.93 865.75 796.39 790.45 796.39 790.45 801.93 786.94 801.93 786.94 1063.49 869.26 1063.49 869.26 801.93 865.75 801.93"/>
    <polygon class="cls-8" points="1343.9 801.93 1343.9 796.39 1268.59 796.39 1268.59 801.93 1265.08 801.93 1265.08 1063.49 1347.4 1063.49 1347.4 801.93 1343.9 801.93"/>
    <polygon class="cls-6" points="961.15 875.23 961.15 869.68 885.85 869.68 885.85 875.23 882.34 875.23 882.34 1073.62 964.66 1073.62 964.66 875.23 961.15 875.23"/>
    <path class="cls-4" d="M1294.61,733.87v-5.05h-5.91c-3.28-3.15-21.58-5.56-43.73-5.56s-40.45,2.41-43.73,5.56h-5.9v5.05h-24.91v332.21h151.54v-332.21h-27.36Z"/>
    <polygon class="cls-4" points="690.87 747.83 690.87 743.54 682.92 743.54 682.92 733.66 681.78 733.66 681.78 733.24 668.41 733.24 668.41 732.12 665.92 732.12 665.92 730.61 659.24 730.61 659.24 732.12 641.51 732.12 641.51 733.24 635.19 733.24 635.19 679.58 631.28 679.58 631.28 733.24 621.11 733.24 621.11 733.66 620.42 733.66 620.42 743.54 617.83 743.54 617.83 751.67 604.99 751.67 604.99 1066.47 633.55 1066.47 678.01 1066.47 706.59 1066.47 706.59 747.83 690.87 747.83"/>
    <path class="cls-6" d="M1402.82,949.65v-.29h-19.16v-279.84h19.16v-10h-76.67v-9.42h-99v9.42h-92.88v-9.42h-99v9.42h-47.89v408.67h440.93v-118.54h-25.49Zm-175.67-280.13v279.84h-71.36v-279.84h71.36Zm-230.95,0h39.08v12.77h-39.08v-12.77Z"/>
    <path class="cls-5" d="M1115.11,982.86c-.22-2.45-2.25-4.39-4.76-4.39-1.3,0-2.47,.51-3.33,1.34-.87-.83-2.03-1.34-3.32-1.34s-2.44,.5-3.3,1.31c-.51-.48-1.15-.8-1.84-1.02-2.03-6.03-7.66-10.4-14.37-10.4-8.17,0-14.83,6.44-15.21,14.51h-8.5c-.22-2.45-2.24-4.39-4.76-4.39-1.29,0-2.47,.51-3.33,1.34-.86-.83-2.03-1.34-3.33-1.34s-2.43,.5-3.29,1.31c-.51-.48-1.15-.8-1.84-1.02-2.03-6.03-7.66-10.4-14.37-10.4-4.93,0-9.29,2.37-12.07,6.01-2.13-1.82-4.88-2.96-7.91-2.96-3.3,0-6.29,1.29-8.48,3.43-2.19-2.14-5.19-3.43-8.49-3.43s-6.18,1.25-8.37,3.33c-2.19-2.07-5.13-3.33-8.38-3.33-5.09,0-9.42,3.13-11.26,7.56-.62-.29-1.29-.48-2.02-.48-1.27,0-2.43,.5-3.29,1.31-.51-.48-1.16-.8-1.84-1.02-2.03-6.03-7.66-10.4-14.38-10.4s-12.63,4.58-14.52,10.84c-.71-.42-1.49-.72-2.38-.72-.36,0-.67,.12-1.01,.19-1.9-4.28-6.17-7.27-11.16-7.27-3.3,0-6.29,1.29-8.49,3.43-2.19-2.14-5.18-3.43-8.49-3.43s-6.18,1.25-8.37,3.33c-2.19-2.07-5.13-3.33-8.38-3.33-5.1,0-9.43,3.13-11.26,7.56-.62-.29-1.29-.49-2.02-.49-1.3,0-2.47,.5-3.34,1.34-.86-.84-2.03-1.34-3.33-1.34s-2.43,.49-3.29,1.31c-.86-.82-2.02-1.31-3.29-1.31-2.51,0-4.54,1.94-4.75,4.39h-6.71v-11.38h-35.27V374.21h-1.71v-9.06h-10.44v-11.99h-130.49v11.99h-10.43v9.06h-1.71v469.71h-60.03v13.75h-11.19v2.6h0v209.85h67.78v.29h3.44v4.79h154.77v-4.76h355.05v-87.59h-46.95ZM675.58,364.16h.05v.99h-.05v-.99Z"/>
    <polygon class="cls-6" points="1853.96 435.13 1853.96 435.05 1853.96 421.9 1853.96 404.55 1853.96 403.11 1825.34 403.11 1825.34 389.64 1785.14 389.64 1761.77 389.64 1761.77 403.11 1724.31 403.11 1724.31 404.55 1724.31 435.05 1724.31 435.18 1724.31 465.69 1724.31 490.49 1724.31 496.32 1724.31 525.19 1724.31 557.45 1724.31 557.58 1724.31 588.09 1724.31 1064.94 1726.63 1064.94 1733.78 1064.94 1736.09 1064.94 1738.42 1064.94 1745.57 1064.94 1747.88 1064.94 1750.2 1064.94 1757.35 1064.94 1759.67 1064.94 1761.99 1064.94 1769.15 1064.94 1771.46 1064.94 1773.77 1064.94 1780.93 1064.94 1783.25 1064.94 1785.14 1064.94 1792.3 1064.94 1797.35 1064.94 1804.5 1064.94 1806.83 1064.94 1809.13 1064.94 1816.3 1064.94 1818.6 1064.94 1820.93 1064.94 1828.08 1064.94 1830.39 1064.94 1832.71 1064.94 1839.86 1064.94 1842.18 1064.94 1844.29 1064.94 1851.45 1064.94 1853.96 1064.94 1856.28 1064.94 1863.44 1064.94 1865.76 1064.94 1865.76 604.54 1865.76 604.5 1865.76 587.09 1865.76 569.84 1865.76 569.8 1865.76 569.77 1865.76 552.39 1865.76 535.12 1865.76 535.08 1865.76 535.07 1865.76 517.67 1865.76 500.37 1865.76 500.35 1865.76 500.3 1865.76 482.84 1865.76 465.72 1865.76 465.61 1865.76 452.47 1865.76 435.18 1865.76 435.13 1853.96 435.13"/>
    <path class="cls-6" d="M2063.47,464.7h-58.31v14.22h-5.57v.03h-23.54v-.03h-5.94v.03h-27.74v-.03h-5.94v.03h-24.15v599.59h147.63v-10.5h3.9v-3.63h-1.19v-4.64h1.19v-1.67h-3.9v-6.35h3.9v-3.63h-1.19v-2.03h1.19v-1.67h-3.9v-8.96h3.9v-3.64h-1.19v-2.15h1.19v-1.67h-3.9v-8.83h3.9v-3.65h-1.19v-2.26h1.19v-1.67h-3.9v-8.73h3.9v-3.63h-1.19v-2.81h1.19v-1.66h-3.9v-8.18h3.9v-3.64h-1.19v-3.36h1.19v-1.67h-3.9v-7.62h3.9v-3.64h-1.19v-3.91h1.19v-1.67h-3.9v-7.08h3.9v-3.64h-1.19v-1.92h1.19v-1.66h-3.9v-9.07h3.9v-3.63h-1.19v-1.99h1.19v-1.67h-3.9v-9.01h3.9v-3.63h-1.19v-2.54h1.19v-1.67h-3.9v-8.45h3.9v-3.65h-1.19v-3.08h1.19v-1.67h-3.9v-7.9h3.9v-3.64h-1.19v-2.21h1.19v-1.66h-3.9v-8.78h3.9v-3.64h-1.19v-2.75h1.19v-1.67h-3.9v-8.24h3.9v-3.63h-1.19v-3.31h1.19v-1.67h-3.9v-7.68h3.9v-3.64h-1.19v-3.86h1.19v-1.67h-3.9v-7.13h3.9v-3.63h-1.19v-4.5h1.19v-1.66h-3.9v-5.45h3.9v-3.62h-1.19v-1.89h1.19v-1.67h-3.9v-9.11h3.9v-3.64h-1.19v-2.43h1.19v-1.66h-3.9v-8.56h3.9v-3.63h-1.19v-2.99h1.19v-1.67h-3.9v-8.01h3.9v-3.63h-1.19v-3.53h1.19v-1.67h-3.9v-7.46h3.9v-3.63h-1.19v-4.09h1.19v-1.67h-3.9v-6.9h3.9v-3.64h-1.19v-4.64h1.19v-1.66h-3.9v-6.36h3.9v-3.64h-1.19v-5.19h1.19v-1.67h-3.9v-5.8h3.9v-3.64h-1.19v-4.91h1.19v-1.67h-3.9v-6.08h3.9v-3.64h-1.19v-5.46h1.19v-1.66h-3.9v-5.53h3.9v-3.64h-1.19v-2.63h1.19v-1.67h-3.9v-8.35h3.9v-180.81h-.33Zm-2.52,595.08v4.64h-1.05v-4.64h1.05Zm0-11.66h-1.05v-2.03h1.05v2.03Zm0-18.45v2.15h-1.05v-2.15h1.05Zm0-16.4v2.26h-1.05v-2.26h1.05Zm0-16.84v2.81h-1.05v-2.81h1.05Zm0-16.84v3.36h-1.05v-3.36h1.05Zm0-16.84v3.91h-1.05v-3.91h1.05Zm0-12.38h-1.05v-1.92h1.05v1.92Zm0-18.27v1.99h-1.05v-1.99h1.05Zm0-16.85v2.54h-1.05v-2.54h1.05Zm0-16.84v3.08h-1.05v-3.08h1.05Zm0-15.41v2.21h-1.05v-2.21h1.05Zm0-16.84v2.75h-1.05v-2.75h1.05Zm0-16.84v3.31h-1.05v-3.31h1.05Zm0-16.84v3.86h-1.05v-3.86h1.05Zm0-16.93v4.5h-1.05v-4.5h1.05Zm0-12.62v1.89h-1.05v-1.89h1.05Zm0-16.85v2.43h-1.05v-2.43h1.05Zm0-16.84v2.99h-1.05v-2.99h1.05Zm0-16.84v3.53h-1.05v-3.53h1.05Zm0-16.85v4.09h-1.05v-4.09h1.05Zm0-16.84v4.64h-1.05v-4.64h1.05Zm0-16.85v5.19h-1.05v-5.19h1.05Zm0-16.01v4.91h-1.05v-4.91h1.05Zm0-16.84v5.46h-1.05v-5.46h1.05Zm0-13.46v2.63h-1.05v-2.63h1.05Z"/>
    <polygon class="cls-5" points="1691.62 644.51 1691.62 644.51 1659.92 644.51 1659.92 644.51 1659.92 641.35 1635.91 641.35 1635.91 635.03 1621.12 635.03 1621.12 627.66 1601.97 627.66 1601.92 623.45 1601.97 623.45 1601.97 604.5 1601.68 604.5 1601.24 568.59 1601.24 558.18 1601.11 558.18 1600.66 521.47 1600.66 511.86 1600.55 511.86 1600.09 475.06 1600.09 465.54 1599.98 465.54 1599.84 453.96 1597.17 453.96 1597.02 465.54 1596.91 465.54 1596.91 475.06 1596.45 511.86 1596.35 511.86 1596.35 520.77 1595.89 558.18 1595.77 558.18 1595.77 567.88 1595.32 604.5 1595.03 604.5 1595.03 623.45 1595.08 623.45 1595.03 627.66 1586.04 627.66 1586.04 641.35 1558.16 641.35 1558.16 644.51 1558.16 644.51 1526.66 644.51 1526.66 644.51 1524.19 644.51 1524.19 1062.43 1526.66 1062.43 1526.66 1063.98 1542.91 1063.98 1558.37 1063.98 1624.64 1063.98 1627.63 1064.29 1672.83 1063.98 1675.99 1063.98 1688.91 1063.98 1691.62 1063.98 1691.62 1063.98 1694.09 1063.98 1694.09 1062.43 1694.09 686.62 1694.09 644.51 1691.62 644.51"/>
    <path class="cls-5" d="M1943.83,1021.39v-6.13h-1.19v-2.27h.67v-.86h-.67v-.09h.42l-1.71-6.93-1.71,6.93h.43v.09h-.48v.86h.48v2.27h-2v-2.27h.67v-.86h-.67v-.09h.42l-1.71-6.93-1.72,6.93h.44v.09h-.48v.86h.48v2.27h-35.63v-144.47h1.13v-1.43h-1.13v-.58h-1.14v-3.71h1.14v-1.43h-1.14v-8h1.37v-1h-.76c0-1.62-1.7-2.95-4.03-3.43-.04-.73-.51-1.34-1.17-1.58v-.82c.23-.19,.4-.45,.4-.78,0-.44-.31-.75-.69-.9v-2.39h-.65v2.37c-.42,.14-.75,.46-.75,.92,0,.32,.16,.58,.4,.77v.83c-.63,.25-1.07,.85-1.12,1.57-1.34,.27-2.41,.82-3.14,1.56v-29.02h3.46v-1.83h-1.75v-.76h-5.09v-2.54h.67v-.87h-.67v-.09h.42l-1.71-6.93-1.71,6.93h.43v.09h-.48v.87h.48v.39h-4.57v-9.26h1.03v-1.95h-.62v-1.5h-.41v-3.07h.29v-1.5h-.29v-16.16h.12v-2.09h-.12v-5.8h2.26v-3.62h-1.56v-4.57h-.79v-1.67h.38v-.66h.62v-.95h-.62v-.28h-1.3v-9.48h1.35v-.81h.52v-.62h-2.54v-3.51h.58v-.89h-.63c-.25-5.24-2.63-9.79-6.28-12.18h0l-.16-.12c-.08-.05-.15-.12-.24-.17l-.48-.34h.54v-.86h.32v-1.03h-1.06v-.75h-1.02v-7.12h1.02v-.79h.23v-.73h.69v-.89h-.41v-.7h.41v-1.02h-.49c-.2-2.36-2.05-4.19-4.41-4.38v-1.46h.44v-.7h-.44v-1.14c.83-.17,1.47-.89,1.47-1.77h1.03v.55h.26v-.55h1.77c.07,.09,.1,.22,.22,.22s.16-.13,.22-.22h.04v-.04s.1-.05,.1-.11c0-.21-.16-.38-.36-.38-.19,0-.31,.16-.34,.34h-1.66v-.55h-.26v.55h-1.06c-.08-.8-.67-1.43-1.43-1.59v-.84h.44v-.7h-.44v-.41h-.2v-2.11c1.11-.16,1.95-.77,2.21-1.58h.62v-.28h.4v-.17h1.17v-.19h0l-4.06-9.63h.18l-.88-1.67-.15-.35v-.03h.1v-.28h-.39v.28h.1v6.61l-1.05-1.96h.08v-.28h-.39v.28h.1v.12h-.09l-2.4,6.9h-.93v.19h.88v.1h.98v1.04h.67c.52,.57,1.34,.96,2.33,.96,.06,0,.12-.02,.18-.03v2.06h-.18v.41h-.45v.7h.45v.83c-.79,.16-1.37,.79-1.46,1.59h-2.38v-.55h-.26v.55h-.16v-.55h-.25v.55h-.24c-.05-.27-.27-.5-.55-.5-.32,0-.58,.26-.58,.59s.26,.59,.58,.59c.29,0,.5-.22,.55-.49h.25v.55h.25v-.55h.16v.55h.26v-.55h2.35c0,.89,.64,1.6,1.49,1.77v1.14h-.45v.7h.45v1.46c-2.37,.18-4.22,2.02-4.42,4.38h-.49v1.02h.41v.7h-.41v.89h.69v.73h.24v.79h1.02v7.12h-1.02v.75h-1.07v1.03h.32v.86h.7l-.48,.29c-.08,.05-.16,.1-.25,.15l-.31,.19h.05c-3.65,2.4-6.03,6.95-6.28,12.18h-.93v.89h.87v3.51h-2.83v.62h.53v.81h1.64v9.48h-1.22v.28h-.62v.95h.62v.66h.37v1.67h-.79v4.57h-1.41v3.62h2.53v5.8h-.16v2.09h.16v16.16h-.39v1.5h.39v3.07h-.39v1.5h-.73v1.95h1.12v9.26h-4.81v-.39h.66v-.87h-.66v-.09h.43l-1.73-6.93-1.71,6.93h.43v.09h-.48v.87h.48v2.54h-5.09v.76h-1.76v1.83h3.56v29.32c-.69-.88-1.91-1.54-3.42-1.85-.04-.73-.51-1.34-1.16-1.58v-.83c.23-.19,.4-.45,.4-.77,0-.44-.32-.75-.7-.9v-2.39h-.65v2.37c-.41,.14-.75,.46-.75,.92,0,.33,.17,.59,.41,.78v.83c-.63,.25-1.06,.85-1.11,1.56-2.36,.47-4.11,1.81-4.11,3.44h-.32v1h.99v8h-.99v1.43h.99v3.71h-.99v.58h-1.13v1.43h1.13v144.47h-36.06v-2.27h.67v-.86h-.67v-.09h.42l-1.7-6.93-1.74,6.93h.44v.09h-.48v.86h.48v2.27h-2v-2.27h.67v-.86h-.67v-.09h.41l-1.71-6.93-1.71,6.93h.44v.09h-.48v.86h.48v2.27h-.76v6.13h-3.65v4.95h3.65v45.99h158.18v-45.99h3.66v-4.95h-3.66Zm-74.84-314.97h-4.75v-1h1.98l-.7-1.31h2.47l-3.75-7.02v-.31h.69l4.06,9.63Zm-4.94,0h-1.05v-1h1.05v1Zm-1.25-6.65v6.65h-2.31l2.31-6.65Zm-.43,30.5c0-.48,.16-.82,.36-.98,.24,.16,.43,.5,.43,.98v4.89h-.79v-4.89Zm1.3,0c0-.62,.42-1.12,.93-1.12s.92,.51,.92,1.12v4.89h-1.86v-4.89Zm2.43,0c0-.47,.19-.81,.42-.97,.2,.16,.35,.5,.35,.97v4.89h-.78v-4.89Zm-3.83,60.54c0-1.54,1.24-2.78,2.78-2.78s2.79,1.25,2.79,2.78-1.24,2.78-2.79,2.78-2.78-1.25-2.78-2.78Zm-2.26,30.36h0v-.86h0v.86Zm20.39,0v-.86h.86v.86h-.86Zm-.86,0h-.86v-.86h.86v.86Zm-19.54-2.14h0v-7.31h0v7.31Zm-9.02,2.14h-.86v-.86h.86v.86Zm-1.71,0h-.87v-.86h.87v.86Zm45.57,38.14v4.34h-2.65v-4.34c0-1.37,.53-2.45,1.22-2.56h.2c.69,.1,1.23,1.19,1.23,2.56Zm-12.22-38.14h-.52v-.86h.52v.86Zm-22.63-43.48h0v5.8h0v-5.8Zm-13.11,42.63h.66v.86h-.66v-.86Zm-12.4,39c0-1.37,.54-2.45,1.22-2.56h.2c.69,.1,1.22,1.19,1.22,2.56v4.34h-2.64v-4.34Z"/>
    <polygon class="cls-6" points="2322.3 1038.61 2322.3 1038.55 2323.22 1038.55 2323.22 1034.51 2324.9 1034.51 2324.9 857.12 2309.2 857.12 2309.2 852.4 2273.33 852.4 2273.33 857.12 2257.64 857.12 2257.64 1034.51 2260.23 1034.51 2260.23 1036.17 2260.23 1038.61 2244.14 1038.61 2244.14 1062.57 2339.57 1062.57 2339.57 1038.61 2322.3 1038.61"/>
    <path class="cls-6" d="M2215.45,795.15v2.05h-22.95v-7.49h-72.11v7.49h-22.95v-2.05h-6.35v275.03h130.71v-275.03h-6.35Zm0,3.64v.15h-18.45v-.15h18.45Zm-44.06,0v.15h-29.46v-.15h29.46Zm22.02,.15h-18.43v-.15h18.43v.15Zm-55.08-.15v.15h-18.44v-.15h18.44Zm-40.89,0h18.86v.15h-18.86v-.15Z"/>
    <polygon class="cls-2" points="2212.76 1057.85 2212.76 1042.11 2212.76 1041.06 2212.76 1020.19 2212.76 1016.81 2212.76 1014.45 2212.76 1011.08 2212.76 1007.7 2212.76 1005.34 2212.76 983.88 2212.76 980.82 2212.76 976.86 2212.76 976.86 2072.43 971.64 2074.52 982.06 2067.64 982.32 2068.22 978.75 2068.21 978.75 2068.22 978.7 2031.3 977.52 2031.36 976.86 2028.89 976.86 2029.25 972.57 2010.84 972.57 2010.84 1035.85 2010.85 1035.85 2010.85 1038.95 2010.85 1041.06 2010.84 1041.06 2010.84 1042.11 2010.85 1042.11 2010.85 1047.32 2010.85 1056.75 2010.85 1057.85 2002.17 1057.85 2002.17 1059.56 2004.26 1059.56 2004.26 1061.26 2004.26 1065.52 2007.88 1065.52 2009.73 1065.52 2012.42 1065.52 2014.27 1065.52 2016.98 1065.52 2018.82 1065.52 2021.53 1065.52 2023.39 1065.52 2026.08 1065.52 2027.94 1065.52 2030.64 1065.52 2032.49 1065.52 2035.2 1065.52 2037.05 1065.52 2039.74 1065.52 2041.6 1065.52 2044.3 1065.52 2046.14 1065.52 2048.86 1065.52 2050.71 1065.52 2053.41 1065.52 2055.26 1065.52 2057.96 1065.52 2059.8 1065.52 2062.51 1065.52 2064.37 1065.52 2067.07 1065.52 2068.92 1065.52 2071.62 1065.52 2073.47 1065.52 2076.18 1065.52 2078.03 1065.52 2080.73 1065.52 2082.58 1065.52 2085.28 1065.52 2087.13 1065.52 2089.83 1065.52 2091.69 1065.52 2094.39 1065.52 2096.23 1065.52 2098.94 1065.52 2100.79 1065.52 2103.49 1065.52 2105.35 1065.52 2108.05 1065.52 2109.9 1065.52 2112.6 1065.52 2114.45 1065.52 2117.16 1065.52 2142.2 1065.52 2144.47 1065.52 2146.33 1065.52 2149.03 1065.52 2150.88 1065.52 2153.58 1065.52 2155.43 1065.52 2158.15 1065.52 2159.99 1065.52 2162.69 1065.52 2164.55 1065.52 2167.24 1065.52 2169.09 1065.52 2171.8 1065.52 2173.65 1065.52 2176.35 1065.52 2178.2 1065.52 2180.9 1065.52 2182.75 1065.52 2185.46 1065.52 2187.31 1065.52 2190.01 1065.52 2191.87 1065.52 2194.56 1065.52 2196.41 1065.52 2199.13 1065.52 2200.97 1065.52 2203.67 1065.52 2205.52 1065.52 2208.22 1065.52 2210.07 1065.52 2212.78 1065.52 2214.63 1065.52 2217.33 1065.52 2219.18 1065.52 2220.37 1065.52 2220.37 1061.26 2220.37 1059.56 2222.45 1059.56 2222.45 1057.85 2212.76 1057.85"/>
    <polygon class="cls-5" points="402.21 649.23 402.21 648.01 402.21 646.79 402.39 646.79 402.39 643.12 402.21 643.12 402.21 623.55 402.21 622.22 402.21 618.65 402.21 617.33 402.21 616.21 402.22 616.21 402.22 612.54 402.21 612.54 402.21 611.31 402.21 611.01 402.21 610.09 402.22 610.09 402.22 606.42 402.21 606.42 402.21 605.09 402.21 603.97 402.22 603.97 402.22 600.3 402.21 600.3 402.21 599.08 402.21 597.86 402.22 597.86 402.22 594.19 402.21 594.19 402.21 592.86 402.21 591.74 402.22 591.74 402.22 588.07 402.21 588.07 402.21 586.84 402.21 585.62 402.21 585.52 402.21 581.95 402.21 580.63 402.21 579.5 402.21 575.83 402.21 574.61 402.26 574.61 402.26 573.29 402.21 573.29 402.21 569.72 402.21 568.6 400.67 568.4 400.46 568.4 390.84 567.27 390.85 567.27 381.52 566.18 349.81 562.48 348.95 568.4 348.95 568.4 348.76 569.72 348.24 573.29 348.22 573.29 348.05 574.61 348.05 574.61 347.87 575.83 347.87 575.83 347.33 579.5 347.34 579.5 347.17 580.64 346.95 581.95 346.98 581.95 346.74 583.64 345.42 583.64 342.26 583.64 339.76 583.64 336.6 583.64 333.83 583.64 330.68 583.64 328.18 583.64 325.02 583.64 322.25 583.64 319.1 583.64 318.23 583.64 318.23 584.09 318.2 584.09 317.62 590.82 297.99 590.82 258.03 590.82 258.03 597.55 254.65 597.55 251.97 597.55 242.06 597.55 242.06 600.4 242.06 602.65 242.06 608.25 242.06 611.01 241.36 611.01 238.55 611.01 237.15 611.01 234.34 611.01 232.93 611.01 230.13 611.01 228.72 611.01 225.92 611.01 224.51 611.01 221.71 611.01 220.3 611.01 217.49 611.01 216.09 611.01 213.28 611.01 211.88 611.01 209.07 611.01 207.66 611.01 204.85 611.01 203.45 611.01 200.64 611.01 199.24 611.01 196.43 611.01 195.03 611.01 192.22 611.01 190.82 611.01 188.01 611.01 186.61 611.01 185.2 611.01 185.2 612.54 185.2 616.21 185.2 617.33 185.2 618.65 185.2 622.22 185.2 622.32 185.2 623.55 185.2 624.77 185.2 628.44 185.2 629.56 185.2 630.89 185.2 634.45 185.2 634.56 185.2 635.78 185.2 637 185.2 640.68 185.2 641.79 185.2 643.12 185.2 646.69 185.2 646.79 185.2 648.01 185.2 649.23 185.2 652.9 185.2 654.03 185.2 655.35 185.2 658.92 185.2 659.02 185.2 660.25 185.2 661.47 185.2 665.14 185.2 666.26 185.2 667.59 185.2 671.15 185.2 671.25 185.2 672.48 185.2 673.7 185.2 677.37 185.2 678.5 185.2 679.82 185.2 683.39 185.2 683.49 185.2 684.71 185.2 685.94 185.2 689.6 185.2 690.72 185.2 692.06 185.2 695.62 185.2 695.72 185.2 696.94 185.2 698.17 185.2 701.84 185.2 702.96 185.2 704.29 185.2 707.85 185.2 707.95 185.2 709.18 185.2 710.4 185.2 714.07 185.2 715.19 185.2 716.52 185.2 720.09 185.2 720.19 185.2 721.41 185.2 722.64 185.2 726.31 185.2 727.42 185.2 728.75 185.2 732.32 185.2 732.42 185.2 733.65 185.2 734.87 185.2 738.54 185.2 739.66 185.2 740.98 185.2 744.55 185.2 744.65 185.2 745.88 185.2 747.1 185.2 750.77 185.2 751.89 185.2 753.22 185.2 756.79 185.2 756.89 185.2 758.11 185.2 759.33 185.2 763.01 185.2 764.12 185.2 765.45 185.2 769.02 185.2 769.12 185.2 770.34 185.2 771.57 185.2 775.24 185.2 776.36 185.2 777.69 185.2 781.25 185.2 781.36 185.2 782.58 185.2 783.8 185.2 787.47 185.2 788.59 185.2 789.92 185.2 793.49 185.2 793.59 185.2 794.81 185.2 796.72 185.2 800.39 185.2 802.05 185.2 803.37 185.2 806.94 185.2 807.04 185.2 808.27 185.2 809.49 185.2 813.16 185.2 814.28 185.2 815.61 185.2 819.17 185.2 819.27 185.2 820.5 185.2 821.73 185.2 825.39 185.2 826.51 185.2 827.84 185.2 831.4 185.2 831.51 185.2 832.74 185.2 833.95 185.2 837.63 185.2 838.75 185.2 840.06 185.2 843.64 185.2 843.74 185.2 844.96 185.2 846.2 185.2 849.86 185.2 850.98 185.2 852.3 185.2 855.88 185.2 855.97 185.2 857.2 185.2 858.43 185.2 862.09 185.2 864.54 185.2 868.11 185.2 868.22 185.2 869.44 185.2 870.65 185.2 874.32 185.2 875.45 185.2 876.77 185.2 880.34 185.2 880.45 185.2 881.67 185.2 882.89 185.2 886.56 185.2 887.68 185.2 889.01 185.2 892.57 185.2 892.68 185.2 893.9 185.2 895.12 185.2 898.79 185.2 899.92 185.2 901.24 185.2 904.81 185.2 904.91 185.2 906.13 185.2 907.36 185.2 911.03 185.2 912.15 185.2 913.48 185.2 917.05 185.2 917.14 185.2 918.37 185.2 919.59 185.2 923.26 185.2 924.38 185.2 925.71 185.2 929.27 185.2 929.38 185.2 930.6 185.2 931.82 185.2 935.49 185.2 936.61 185.2 937.94 185.2 941.5 185.2 941.61 185.2 942.83 185.2 944.05 185.2 947.72 185.2 948.85 185.2 950.17 185.2 953.75 185.2 953.84 185.2 955.06 185.2 956.29 185.2 959.96 185.2 961.08 185.2 962.41 185.2 965.97 185.2 966.07 185.2 967.3 185.2 968.52 185.2 972.19 185.2 973.31 185.2 974.64 185.2 978.21 185.2 978.31 185.2 979.53 185.2 980.75 185.2 984.43 185.2 985.55 185.2 986.88 185.2 990.44 185.2 990.54 185.2 991.76 185.2 992.98 185.2 996.66 185.2 997.77 185.2 999.1 185.2 1002.68 185.2 1002.77 185.2 1003.99 185.2 1005.22 185.2 1008.9 185.2 1010.01 185.2 1011.34 185.2 1014.91 185.2 1015.01 185.2 1016.23 185.2 1017.46 185.2 1021.13 185.2 1022.25 185.2 1023.58 185.2 1027.14 185.2 1027.24 185.2 1028.46 185.2 1029.69 185.2 1033.36 185.2 1034.48 185.2 1035.81 185.2 1039.37 185.2 1039.47 185.2 1040.69 185.2 1041.92 185.2 1045.59 185.2 1046.71 185.2 1048.04 185.2 1051.61 185.2 1051.7 185.2 1052.93 185.2 1054.16 185.2 1057.82 185.2 1058.94 185.2 1060.27 185.2 1063.84 185.2 1063.94 185.2 1065.16 185.2 1066.08 186.61 1066.08 188.01 1066.08 190.82 1066.08 192.22 1066.08 195.03 1066.08 196.43 1066.08 199.24 1066.08 200.64 1066.08 203.45 1066.08 204.85 1066.08 207.66 1066.08 209.07 1066.08 211.88 1066.08 213.28 1066.08 216.09 1066.08 217.49 1066.08 220.3 1066.08 221.71 1066.08 224.51 1066.08 225.92 1066.08 228.72 1066.08 230.13 1066.08 232.93 1066.08 234.34 1066.08 237.15 1066.08 238.55 1066.08 241.36 1066.08 242.76 1066.08 245.57 1066.08 246.97 1066.08 249.78 1066.08 251.19 1066.08 253.98 1066.08 255.4 1066.08 258.2 1066.08 259.61 1066.08 262.42 1066.08 263.82 1066.08 266.63 1066.08 268.03 1066.08 270.84 1066.08 272.24 1066.08 275.05 1066.08 276.45 1066.08 276.74 1066.08 282.41 1066.08 283.83 1066.08 294 1066.08 295.41 1066.08 305.58 1066.08 306.99 1066.08 317.16 1066.08 318.57 1066.08 340.96 1066.08 391.69 1066.08 391.89 1062.1 391.91 1062.1 392.09 1058.44 392.07 1058.44 392.13 1057.31 392.21 1057.31 392.24 1055.99 392.2 1055.99 392.2 1055.83 392.26 1055.83 392.44 1052.16 392.42 1052.16 392.44 1051.27 392.51 1049.71 392.53 1049.71 392.72 1046.05 392.7 1046.05 393.13 1037.47 393.14 1037.47 393.32 1033.81 393.32 1033.81 393.98 1020.6 394.06 1020.6 394.08 1019.27 394.09 1019.27 394.28 1015.6 394.26 1015.6 394.27 1014.96 394.6 1008.38 394.73 1008.38 394.76 1007.05 394.67 1007.05 394.86 1003.38 394.93 1003.38 394.96 1002.06 394.92 1002.06 395.23 995.99 395.32 995.99 395.35 994.66 395.3 994.66 395.48 990.99 395.52 990.99 395.54 989.81 395.88 983.21 395.88 983.21 395.88 983.1 396.56 969.64 396.57 969.64 396.58 969.36 396.63 968.31 396.71 968.31 396.89 964.65 396.81 964.65 397.33 954.4 397.39 954.4 397.57 950.73 397.52 950.73 397.91 942.94 397.95 942.94 397.97 941.82 397.98 941.61 397.99 941.61 398.17 937.94 398.16 937.94 398.91 923.26 398.95 923.26 399.13 919.59 399.09 919.59 399.77 906.23 399.8 906.23 399.82 905.15 400.38 894 400.4 894 400.41 893.57 401.38 874.32 401.39 874.32 401.57 870.65 401.57 870.65 401.69 868.22 401.72 868.22 401.9 864.54 401.88 864.54 402.21 857.81 402.21 857.2 402.21 856.81 402.21 855.97 402.21 855.88 402.21 852.3 402.21 850.98 402.21 849.86 402.21 846.2 402.21 844.96 402.21 843.74 402.21 843.64 402.21 840.06 402.21 838.75 402.21 837.63 402.21 833.95 402.21 832.74 402.21 831.51 402.21 831.4 402.21 827.84 402.21 826.51 402.21 825.39 402.21 821.73 402.21 820.5 402.21 819.27 402.21 819.17 402.21 815.61 402.21 814.28 402.21 813.16 402.21 809.49 402.21 808.27 402.21 807.04 402.21 806.94 402.21 803.37 402.21 802.05 402.21 800.39 402.21 796.72 402.21 793.59 402.21 789.92 402.21 787.47 402.21 783.8 402.21 781.36 402.21 777.69 402.21 775.24 402.21 771.57 402.21 769.12 402.21 765.45 402.21 763.01 402.21 759.33 402.21 756.89 402.21 753.22 402.21 750.77 402.21 747.1 402.21 744.65 402.21 740.98 402.21 738.54 402.21 734.87 402.21 732.42 402.21 728.75 402.21 726.31 402.21 722.64 402.21 720.19 402.21 716.52 402.21 714.07 402.21 710.4 402.21 696.94 402.21 695.62 402.21 677.37 402.23 677.37 402.23 673.7 402.21 673.7 402.21 672.48 402.23 672.48 402.23 671.15 402.21 671.15 402.21 667.59 402.23 667.59 402.23 666.26 402.21 666.26 402.21 665.14 402.21 661.47 402.21 660.25 402.21 659.02 402.23 659.02 402.23 655.35 402.21 655.35 402.21 652.9 402.21 649.23"/>
    <polygon class="cls-6" points="524.79 870.51 524.79 857.34 524.78 857.34 524.78 854.4 513.99 854.4 509.78 841.11 509.33 839.69 510.67 839.69 510.67 836.12 468.7 836.12 468.7 839.69 469.22 839.69 468.75 841.2 464.56 854.4 453.62 854.4 453.62 857.34 453.62 858.74 453.62 870.55 446.36 870.55 446.36 1060.78 452.24 1060.78 452.24 1061.15 456.03 1061.15 481.06 1061.15 522.49 1061.15 522.49 1060.97 524.78 1060.97 524.78 1060.78 524.79 1060.78 532.04 1060.75 532.04 891.13 532.04 870.51 524.79 870.51"/>
    <g>
      <polygon class="cls-2" points="640.57 1036.87 640.57 972.91 640.57 913.33 582.14 913.33 582.14 904.48 582.14 899.23 582.14 887.92 582.14 882.68 582.14 871.37 582.14 866.14 582.14 854.82 582.14 849.58 582.14 838.27 582.14 833.03 582.14 821.72 582.14 816.48 582.14 805.17 582.14 799.93 582.14 788.62 582.14 783.38 582.14 772.07 582.14 766.83 578.81 766.83 575.48 766.83 561.09 766.83 554.42 766.83 540.03 766.83 533.36 766.83 518.98 766.83 512.31 766.83 512.31 772.07 512.31 783.38 512.31 788.62 512.31 799.93 512.31 805.17 512.31 816.48 512.31 821.72 512.31 833.03 512.31 838.27 512.31 849.58 512.31 854.82 512.31 866.14 512.31 871.37 512.31 882.68 512.31 887.92 512.31 899.23 512.31 904.48 512.31 913.33 493.97 913.33 493.97 924.08 478.48 924.08 478.48 933.26 454.72 933.26 454.72 943 431.48 943 431.48 951.32 423.73 951.32 423.73 960.54 408.24 960.54 408.24 969.75 400.42 969.75 400.42 978.96 377.18 978.96 377.18 988.05 361.68 988.05 361.68 997.41 344.84 997.41 344.84 1006.62 328.02 1006.62 328.02 1015.84 311.83 1015.84 311.83 1025.06 303.41 1025.06 303.41 1034.27 294.99 1034.27 294.99 1043.37 278.23 1043.37 278.23 1066.54 294.99 1066.54 303.41 1066.54 306.68 1066.54 311.83 1066.54 318.92 1066.54 331.44 1066.54 337.09 1066.54 344.84 1066.54 654.78 1066.54 654.78 1036.87 640.57 1036.87"/>
      <rect class="cls-1" x="525.03" y="756.23" width="44.39" height="10.48"/>
    </g>
    <polygon class="cls-2" points="1430.9 878.63 1430.9 876.75 1430.73 876.75 1430.73 874.31 1429.33 874.31 1427.91 874.31 1422.85 874.31 1421.43 874.31 1416.36 874.31 1414.94 874.31 1409.87 874.31 1408.46 874.31 1403.4 874.31 1401.97 874.31 1396.9 874.31 1395.47 874.31 1390.42 874.31 1389 874.31 1383.94 874.31 1382.52 874.31 1377.46 874.31 1376.03 874.31 1370.96 874.31 1369.55 874.31 1364.48 874.31 1363.07 874.31 1357.99 874.31 1356.58 874.31 1351.51 874.31 1350.1 874.31 1345.02 874.31 1343.61 874.31 1338.54 874.31 1337.13 874.31 1329.97 874.31 1328.5 874.31 1323.18 874.31 1321.7 874.31 1319.55 874.31 1319.55 876.75 1319.39 876.75 1319.39 878.63 1319.55 878.63 1319.55 880.98 1319.39 880.98 1319.39 882.85 1319.55 882.85 1319.55 888.48 1319.39 888.48 1319.39 890.35 1319.55 890.35 1319.55 892.7 1319.39 892.7 1319.39 894.58 1319.55 894.58 1319.55 899.27 1319.39 899.27 1319.39 901.14 1319.55 901.14 1319.55 906.77 1319.39 906.77 1319.39 908.64 1319.55 908.64 1319.55 914.28 1319.39 914.28 1319.39 916.15 1319.55 916.15 1319.55 921.78 1319.39 921.78 1319.39 923.66 1319.55 923.66 1319.55 929.28 1319.55 931.16 1319.55 936.79 1319.39 936.79 1319.39 938.67 1319.55 938.67 1319.55 944.29 1319.39 944.29 1319.39 946.17 1319.55 946.17 1319.55 951.8 1319.39 951.8 1319.39 953.67 1319.55 953.67 1319.55 959.31 1319.39 959.31 1319.39 961.18 1319.55 961.18 1319.55 966.81 1319.39 966.81 1319.39 968.69 1319.55 968.69 1319.55 974.31 1319.39 974.31 1319.39 976.19 1319.55 976.19 1319.55 981.82 1319.39 981.82 1319.39 983.69 1319.55 983.69 1319.55 989.32 1319.39 989.32 1319.39 991.2 1319.55 991.2 1319.55 996.83 1319.39 996.83 1319.39 998.71 1319.55 998.71 1319.55 1004.33 1319.39 1004.33 1319.39 1006.21 1319.55 1006.21 1319.55 1011.83 1319.39 1011.83 1319.39 1013.71 1319.55 1013.71 1319.55 1019.35 1319.39 1019.35 1319.39 1021.22 1319.55 1021.22 1319.55 1026.84 1319.39 1026.84 1319.39 1028.73 1319.55 1028.73 1319.55 1034.35 1319.39 1034.35 1319.39 1036.23 1319.55 1036.23 1319.55 1041.85 1319.39 1041.85 1319.39 1043.74 1319.55 1043.74 1319.55 1049.36 1319.39 1049.36 1319.39 1051.25 1319.55 1051.25 1319.55 1056.86 1319.39 1056.86 1319.39 1058.74 1319.55 1058.74 1319.55 1064.37 1319.39 1064.37 1319.39 1066.25 1319.55 1066.25 1319.55 1068.97 1321.7 1068.97 1321.7 1068.98 1323.18 1068.98 1323.18 1068.97 1328.5 1068.97 1328.5 1068.98 1329.97 1068.98 1329.97 1068.97 1334.95 1068.97 1334.95 1068.98 1337.13 1068.98 1338.54 1068.98 1343.61 1068.98 1345.02 1068.98 1350.1 1068.98 1351.51 1068.98 1356.58 1068.98 1357.99 1068.98 1363.07 1068.98 1364.48 1068.98 1369.55 1068.98 1370.96 1068.98 1376.03 1068.98 1377.46 1068.98 1382.52 1068.98 1383.94 1068.98 1389 1068.98 1390.42 1068.98 1395.47 1068.98 1396.9 1068.98 1401.97 1068.98 1403.4 1068.98 1408.46 1068.98 1409.87 1068.98 1414.94 1068.98 1416.36 1068.98 1416.36 1068.97 1421.43 1068.97 1421.43 1068.98 1422.85 1068.98 1422.85 1068.97 1427.91 1068.97 1427.91 1068.98 1429.33 1068.98 1429.33 1068.97 1430.73 1068.97 1430.73 1066.25 1430.9 1066.25 1430.9 1064.37 1430.73 1064.37 1430.73 1058.74 1430.9 1058.74 1430.9 1056.86 1430.73 1056.86 1430.73 1051.25 1430.9 1051.25 1430.9 1049.36 1430.73 1049.36 1430.73 1043.74 1430.9 1043.74 1430.9 1041.85 1430.73 1041.85 1430.73 1036.23 1430.9 1036.23 1430.9 1034.35 1430.73 1034.35 1430.73 1028.73 1430.9 1028.73 1430.9 1026.84 1430.73 1026.84 1430.73 1021.22 1430.9 1021.22 1430.9 1019.35 1430.73 1019.35 1430.73 1013.71 1430.9 1013.71 1430.9 1011.83 1430.73 1011.83 1430.73 1006.21 1430.9 1006.21 1430.9 1004.33 1430.73 1004.33 1430.73 998.71 1430.9 998.71 1430.9 996.83 1430.73 996.83 1430.73 991.2 1430.9 991.2 1430.9 989.32 1430.73 989.32 1430.73 983.69 1430.9 983.69 1430.9 981.82 1430.73 981.82 1430.73 976.19 1430.9 976.19 1430.9 974.31 1430.73 974.31 1430.73 968.69 1430.9 968.69 1430.9 966.81 1430.73 966.81 1430.73 961.18 1430.9 961.18 1430.9 959.31 1430.73 959.31 1430.73 953.67 1430.9 953.67 1430.9 951.8 1430.73 951.8 1430.73 946.17 1430.9 946.17 1430.9 944.29 1430.73 944.29 1430.73 938.67 1430.9 938.67 1430.9 936.79 1430.73 936.79 1430.73 931.16 1430.73 929.28 1430.73 923.66 1430.9 923.66 1430.9 921.78 1430.73 921.78 1430.73 916.15 1430.9 916.15 1430.9 914.28 1430.73 914.28 1430.73 908.64 1430.9 908.64 1430.9 906.77 1430.73 906.77 1430.73 901.14 1430.9 901.14 1430.9 899.27 1430.73 899.27 1430.73 894.58 1430.9 894.58 1430.9 892.7 1430.73 892.7 1430.73 890.35 1430.9 890.35 1430.9 888.48 1430.73 888.48 1430.73 882.85 1430.9 882.85 1430.9 880.98 1430.73 880.98 1430.73 878.63 1430.9 878.63"/>
    <path class="cls-3" d="M238.46,1058.76c-1.22-25.5-22.21-45.79-48-45.79s-46.78,20.3-48.01,45.79h96.01Z"/>
    <path class="cls-3" d="M248.95,1059.87c-.74-15.43-13.46-27.73-29.07-27.73s-28.33,12.3-29.06,27.73h58.13Z"/>
    <path class="cls-3" d="M129.55,1059.87c-.74-15.43-13.46-27.73-29.07-27.73s-28.33,12.3-29.06,27.73h58.13Z"/>
    <path class="cls-3" d="M190.58,1044.81c-4.25,0-8.11,1.68-10.94,4.43-2.83-2.75-6.69-4.43-10.95-4.43s-7.97,1.62-10.79,4.3c-2.82-2.67-6.62-4.3-10.8-4.3-8.47,0-15.35,6.65-15.75,15.02h74.99c-.41-8.37-7.29-15.02-15.76-15.02Z"/>
    <path class="cls-3" d="M80.53,1047.58c-3.44,0-6.56,1.36-8.84,3.58-2.29-2.22-5.41-3.58-8.85-3.58s-6.45,1.32-8.73,3.47c-2.28-2.16-5.34-3.47-8.73-3.47-6.84,0-12.4,5.37-12.72,12.14h60.61c-.33-6.77-5.89-12.14-12.74-12.14Z"/>
    <path class="cls-3" d="M121.11,1053.95c-1.68,0-3.19,.64-4.31,1.72-1.11-1.07-2.61-1.72-4.29-1.72s-3.14,.63-4.25,1.68c-1.11-1.05-2.6-1.68-4.25-1.68-3.32,0-6.01,2.6-6.18,5.88h29.45c-.16-3.28-2.86-5.88-6.18-5.88Z"/>
    <path class="cls-3" d="M44.95,1053.95c-1.68,0-3.19,.64-4.3,1.72-1.11-1.07-2.61-1.72-4.29-1.72s-3.15,.63-4.25,1.68c-1.11-1.05-2.6-1.68-4.24-1.68-3.32,0-6.02,2.6-6.18,5.88h29.45c-.16-3.28-2.86-5.88-6.18-5.88Z"/>
    <path class="cls-3" d="M195.15,974.85c1.81,.85-5.57-19.2-25.1-9.17-3.46,1.75,7.79-11.43,7.79-11.43,0,0-13.25,.51-15,11.88-.28,1.91-5.64-18.37-24.77-3.62-.34,.24,18.03,6.1,17.65,6.84-.38,.65-22.12-5.88-24.51,13.29-.03,.34,18.6-5.56,24.2-4.91,.47,.1-17.82,7.56-10.29,28.31,.44,1.05,11.84-6.84,14.84-18.84l-8.16,75.16,9.14,.42c.36-29.1,1.92-65.34,2.72-82.6,3.01,5.18,10.12,14.41,24.03,18,0,0-.49-19.65-16.88-23.67-1.08-.24,17.41-3.04,24.35,.34Z"/>
    <path class="cls-3" d="M250.86,1003.81c2.2,.89-8-22.46-30.53-9.21-4.02,2.4,8.49-14.08,8.49-14.08,0,0-15.73,1.51-17.11,15.11-.21,2.26-7.96-21.43-29.74-2.54-.33,.28,21.95,5.98,21.54,6.81-.41,.82-26.76-5.36-28.27,17.72,0,.27,21.75-7.98,28.48-7.63,.57,.07-20.68,10.23-10.24,34.41,.54,1.24,14.18-9.4,16.59-24.45,.07-.47,.13-.89,.19-1.34l.56,45.03,8.45-1.78c-1.08-18.2-3.11-36.55-4.52-48.01,4.41,6.04,13.36,15.14,28.8,18.21,0,0-1.96-23.29-21.7-26.93-1.35-.28,20.46-4.88,29.01-1.3Z"/>
    <path class="cls-3" d="M843.98,1059.37c-.83-17.31-15.09-31.1-32.6-31.1s-31.77,13.78-32.61,31.1h65.21Z"/>
    <path class="cls-3" d="M383.7,1059.87c-1.06-22.24-19.38-39.94-41.87-39.94s-40.8,17.7-41.88,39.94h83.75Z"/>
    <path class="cls-3" d="M736.92,1058.56c-1.06-22.24-19.38-39.94-41.87-39.94s-40.81,17.7-41.88,39.94h83.75Z"/>
    <path class="cls-3" d="M299.58,1054.5c-1.45,0-2.77,.55-3.75,1.49-.97-.94-2.28-1.49-3.74-1.49s-2.74,.54-3.71,1.46c-.96-.92-2.26-1.46-3.7-1.46-2.9,0-5.25,2.27-5.39,5.13h25.68c-.14-2.86-2.5-5.13-5.4-5.13Z"/>
    <path class="cls-3" d="M382.32,1046.4c-3.71,0-7.07,1.46-9.55,3.86-2.46-2.4-5.83-3.86-9.55-3.86s-6.96,1.42-9.42,3.75c-2.46-2.33-5.77-3.75-9.42-3.75-7.38,0-13.38,5.8-13.74,13.1h65.42c-.35-7.3-6.36-13.1-13.75-13.1Z"/>
    <path class="cls-3" d="M341.87,1054.5c-1.45,0-2.77,.55-3.75,1.49-.97-.94-2.28-1.49-3.74-1.49s-2.74,.54-3.7,1.46c-.97-.92-2.26-1.46-3.69-1.46-2.9,0-5.26,2.27-5.4,5.13h25.68c-.14-2.86-2.5-5.13-5.4-5.13Z"/>
    <path class="cls-3" d="M403.06,1054.5c-1.45,0-2.78,.55-3.75,1.49-.97-.94-2.28-1.49-3.75-1.49s-2.73,.54-3.7,1.46c-.96-.92-2.26-1.46-3.69-1.46-2.9,0-5.26,2.27-5.4,5.13h25.69c-.15-2.86-2.5-5.13-5.4-5.13Z"/>
    <path class="cls-3" d="M475.42,1059.53c-.64-13.46-11.74-24.19-25.36-24.19s-24.71,10.73-25.35,24.19h50.71Z"/>
    <path class="cls-3" d="M664.84,1059.53c-.64-13.46-11.74-24.19-25.35-24.19s-24.71,10.73-25.35,24.19h50.71Z"/>
    <path class="cls-3" d="M520.17,1046.4c-3.71,0-7.07,1.46-9.55,3.86-2.46-2.4-5.84-3.86-9.55-3.86s-6.96,1.42-9.42,3.75c-2.45-2.33-5.77-3.75-9.42-3.75-7.38,0-13.38,5.8-13.74,13.1h65.42c-.35-7.3-6.36-13.1-13.74-13.1Z"/>
    <path class="cls-3" d="M479.99,1054.37c-1.45,0-2.78,.56-3.75,1.49-.97-.93-2.28-1.49-3.74-1.49s-2.74,.54-3.71,1.46c-.96-.92-2.26-1.46-3.69-1.46-2.9,0-5.26,2.27-5.4,5.13h25.69c-.15-2.86-2.51-5.13-5.4-5.13Z"/>
    <path class="cls-3" d="M714.01,1046.4c-3.71,0-7.07,1.46-9.55,3.86-2.47-2.4-5.83-3.86-9.55-3.86s-6.96,1.42-9.42,3.75c-2.46-2.33-5.78-3.75-9.43-3.75-7.38,0-13.38,5.8-13.74,13.1h65.41c-.35-7.3-6.36-13.1-13.74-13.1Z"/>
    <path class="cls-3" d="M674.04,1054.37c-1.45,0-2.77,.56-3.75,1.49-.97-.93-2.28-1.49-3.74-1.49s-2.73,.54-3.7,1.46c-.96-.92-2.27-1.46-3.69-1.46-2.9,0-5.26,2.27-5.4,5.13h25.69c-.14-2.86-2.5-5.13-5.4-5.13Z"/>
    <path class="cls-3" d="M893.55,1054.61c-1.45,0-2.78,.56-3.75,1.5-.97-.94-2.28-1.5-3.74-1.5s-2.74,.55-3.7,1.46c-.96-.91-2.27-1.46-3.7-1.46-2.9,0-5.25,2.28-5.4,5.13h25.68c-.14-2.85-2.5-5.13-5.39-5.13Z"/>
    <path class="cls-3" d="M781.55,1054.61c-1.45,0-2.78,.56-3.75,1.5-.97-.94-2.28-1.5-3.74-1.5s-2.74,.55-3.71,1.46c-.96-.91-2.26-1.46-3.69-1.46-2.9,0-5.26,2.28-5.4,5.13h25.69c-.14-2.85-2.5-5.13-5.4-5.13Z"/>
    <path class="cls-3" d="M1522.83,1047.44c-3.71,0-7.07,1.46-9.55,3.86-2.46-2.4-5.83-3.86-9.54-3.86s-6.97,1.42-9.43,3.75c-2.45-2.33-5.77-3.75-9.42-3.75-7.39,0-13.39,5.8-13.75,13.09h65.42c-.35-7.3-6.35-13.09-13.75-13.09Z"/>
    <path class="cls-3" d="M1872.3,1047.44c-3.71,0-7.07,1.46-9.55,3.86-2.46-2.4-5.83-3.86-9.54-3.86s-6.97,1.42-9.43,3.75c-2.45-2.33-5.77-3.75-9.42-3.75-7.39,0-13.39,5.8-13.75,13.09h65.42c-.35-7.3-6.35-13.09-13.75-13.09Z"/>
    <path class="cls-3" d="M626.66,1054.37c-1.45,0-2.77,.56-3.75,1.49-.97-.93-2.28-1.49-3.74-1.49s-2.74,.54-3.7,1.46c-.96-.92-2.26-1.46-3.7-1.46-2.9,0-5.25,2.27-5.4,5.13h25.69c-.15-2.86-2.51-5.13-5.4-5.13Z"/>
    <path class="cls-3" d="M742.97,1054.37c-1.45,0-2.77,.56-3.75,1.49-.97-.93-2.28-1.49-3.74-1.49s-2.73,.54-3.7,1.46c-.96-.92-2.26-1.46-3.69-1.46-2.9,0-5.25,2.27-5.4,5.13h25.69c-.14-2.86-2.5-5.13-5.4-5.13Z"/>
    <path class="cls-3" d="M1106,1046.4c-3.71,0-7.08,1.46-9.55,3.86-2.47-2.4-5.84-3.86-9.55-3.86s-6.96,1.42-9.42,3.75c-2.45-2.33-5.77-3.75-9.42-3.75-7.38,0-13.38,5.8-13.74,13.1h65.42c-.35-7.3-6.36-13.1-13.74-13.1Z"/>
    <path class="cls-3" d="M1134.74,1053.8c-1.45,0-2.77,.57-3.75,1.5-.97-.93-2.28-1.5-3.74-1.5s-2.74,.55-3.71,1.47c-.96-.92-2.26-1.47-3.69-1.47-2.9,0-5.26,2.28-5.4,5.14h25.69c-.14-2.86-2.5-5.14-5.4-5.14Z"/>
    <path class="cls-3" d="M342.5,962.58c-4.27,.5,12.39-8.59,12.39-8.59,0,0-13.72-4.67-19.95,6.27-1.06,1.83,1.35-20.95-24.02-13.28-.41,.14,16.17,13.24,15.5,13.75-.7,.52-20.41-14.55-30.33,4.23-.14,.28,21.23,1.53,26.7,4.34,.44,.25-21.13,.81-21.45,24.94-.03,1.24,15.41-2.57,23.03-14.26,1.31-2.02,2.38-3.82,3.22-5.3l-20.74,88.48,9.85,1.75c4.26-32.3,10.97-72.94,13.71-89.2,1.26,6.64,5.18,18.26,17.53,26.97,0,0,7.1-20.24-8.12-30.69-1.03-.7,19.02,3.55,24.82,9.77,1.51,1.61,1.71-21.8-22.14-19.17Z"/>
    <path class="cls-3" d="M1275.83,1060.18c-1.07-22.24-19.39-39.94-41.89-39.94s-40.8,17.7-41.87,39.94h83.76Z"/>
    <path class="cls-3" d="M1196.91,1046.87c-3.7,0-7.07,1.46-9.54,3.86-2.46-2.4-5.83-3.86-9.55-3.86s-6.96,1.42-9.42,3.75c-2.46-2.33-5.78-3.75-9.42-3.75-7.39,0-13.39,5.8-13.74,13.1h65.42c-.36-7.3-6.36-13.1-13.75-13.1Z"/>
    <path class="cls-3" d="M1382.15,1046.87c-3.72,0-7.09,1.46-9.56,3.86-2.46-2.4-5.83-3.86-9.54-3.86s-6.96,1.42-9.42,3.75c-2.46-2.33-5.78-3.75-9.43-3.75-7.39,0-13.38,5.8-13.74,13.1h65.41c-.35-7.3-6.36-13.1-13.74-13.1Z"/>
    <path class="cls-3" d="M1290.01,1060.01c-.64-13.46-11.73-24.19-25.35-24.19s-24.71,10.73-25.35,24.19h50.7Z"/>
    <path class="cls-3" d="M1212.82,1054.74c-1.46,0-2.77,.56-3.75,1.5-.97-.94-2.28-1.5-3.74-1.5s-2.73,.54-3.71,1.46c-.96-.92-2.27-1.46-3.69-1.46-2.9,0-5.25,2.28-5.4,5.13h25.68c-.14-2.86-2.5-5.13-5.39-5.13Z"/>
    <path class="cls-3" d="M1247.27,1054.74c-1.44,0-2.76,.56-3.74,1.5-.98-.94-2.28-1.5-3.74-1.5s-2.74,.54-3.71,1.46c-.97-.92-2.26-1.46-3.7-1.46-2.89,0-5.25,2.28-5.39,5.13h25.69c-.15-2.86-2.5-5.13-5.41-5.13Z"/>
    <path class="cls-3" d="M1333.35,1054.74c-1.46,0-2.77,.56-3.75,1.5-.98-.94-2.28-1.5-3.74-1.5s-2.75,.54-3.71,1.46c-.96-.92-2.26-1.46-3.69-1.46-2.89,0-5.25,2.28-5.41,5.13h25.69c-.14-2.86-2.5-5.13-5.39-5.13Z"/>
    <path class="cls-3" d="M1423.8,1054.91c-1.45,0-2.76,.57-3.75,1.5-.97-.94-2.28-1.5-3.73-1.5s-2.74,.55-3.71,1.46c-.97-.91-2.26-1.46-3.7-1.46-2.9,0-5.25,2.28-5.39,5.14h25.68c-.13-2.86-2.5-5.14-5.4-5.14Z"/>
    <path class="cls-3" d="M1475.5,1054.91c-1.45,0-2.77,.57-3.75,1.5-.98-.94-2.28-1.5-3.74-1.5s-2.73,.55-3.71,1.46c-.96-.91-2.26-1.46-3.69-1.46-2.89,0-5.25,2.28-5.39,5.14h25.69c-.16-2.86-2.51-5.14-5.41-5.14Z"/>
    <path class="cls-3" d="M1312.83,1011.51c1.16,.46-4.48-11.34-15.82-4.17-2,1.31,4.09-7.32,4.09-7.32,0,0-8.02,1-8.48,7.94,0,1.24-4.39-10.8-15.27-.77-.14,.16,11.34,2.77,11.11,3.16-.1,.24-5.02-.65-9.04,1.15-3.25-8.03-14.59-5.77-14.8-6.16-.23-.55,12.49-3.33,12.36-3.56-12.04-11.02-16.86,2.24-16.98,.93-.45-7.72-9.33-8.87-9.33-8.87,0,0,6.79,9.56,4.55,8.17-12.53-7.94-18.74,5.09-17.46,4.63,4.89-1.86,17.16,1.16,16.39,1.24-11.26,1.77-12.76,14.89-12.76,14.89,9.59-1.59,14.91-7.34,17.25-10.61-.51,11.66-1.67,36.14-3.22,55.72l6.2,.32-.94-50.97c1.36,8.16,8.47,14.17,8.8,13.42,6.4-13.5-5.52-19.6-5.17-19.68,2.34,0,7.79,1.91,11.67,3.34-.94,1.35-1.57,3.14-1.64,5.55,0,.14,10.96-4.4,14.43-4.33,.3,0-10.42,5.56-4.7,17.74,.35,.64,6.13-4.21,7.74-11.1l-.79,45.04,5.64-.23c-1.43-17.93-2.53-40.41-3-50.83,1.94,2.86,6.81,8.49,15.87,10.02,0,0-1.31-11.95-11.5-13.5-.77-.07,10.34-2.78,14.82-1.15Z"/>
    <path class="cls-3" d="M1287.17,1027.56c-2.54,.4,7.15-5.7,7.15-5.7,0,0-8.47-2.2-11.73,4.55-.56,1.15-.07-12.61-14.93-6.91-.29,.08,10.26,7.25,9.9,7.57-.41,.32-12.87-7.9-18,3.83-.07,.16,12.69,0,16.18,1.45,.23,.17-12.68,1.31-11.86,15.8,.07,.74,9.16-2.11,13.23-9.52,1.17-2.09,1.94-3.72,2.4-4.75l.09,30.4,5.27-.09c-1.34-8.43-2.52-18.59-3.24-25.27,1.56,3.82,4.59,8.67,10.58,12.33,0,0,3.34-12.38-6.19-18.08-.66-.32,11.48,1.39,15.23,4.89,.98,.82,.08-13.19-14.08-10.49Z"/>
    <path class="cls-3" d="M1745.48,1058.28c-1.06-22.24-19.37-39.94-41.87-39.94s-40.8,17.7-41.87,39.94h83.74Z"/>
    <path class="cls-3" d="M1810.1,1058.28c-1.06-22.24-19.37-39.94-41.87-39.94s-40.81,17.7-41.88,39.94h83.75Z"/>
    <path class="cls-3" d="M2029.8,1058.28c-1.07-22.24-19.38-39.94-41.89-39.94s-40.79,17.7-41.87,39.94h83.76Z"/>
    <path class="cls-3" d="M2048.77,1060.64c-.74-15.57-13.57-27.98-29.32-27.98s-28.57,12.4-29.32,27.98h58.64Z"/>
    <path class="cls-3" d="M2300.21,1060.45c-.65-13.46-11.75-24.19-25.37-24.19s-24.7,10.73-25.34,24.19h50.71Z"/>
    <path class="cls-3" d="M2355.3,1047.44c-3.71,0-7.09,1.46-9.56,3.86-2.45-2.4-5.82-3.86-9.54-3.86s-6.96,1.42-9.42,3.75c-2.45-2.33-5.77-3.75-9.43-3.75-7.38,0-13.38,5.8-13.74,13.09h65.41c-.35-7.3-6.36-13.09-13.74-13.09Z"/>
    <path class="cls-3" d="M2249,1047.44c-3.71,0-7.08,1.46-9.55,3.86-2.46-2.4-5.83-3.86-9.55-3.86s-6.96,1.42-9.42,3.75c-2.45-2.33-5.77-3.75-9.41-3.75-7.4,0-13.39,5.8-13.76,13.09h65.42c-.36-7.3-6.36-13.09-13.75-13.09Z"/>
    <path class="cls-3" d="M1813.01,1060.45c-.64-13.46-11.74-24.19-25.36-24.19s-24.7,10.73-25.35,24.19h50.71Z"/>
    <path class="cls-3" d="M1657.99,1060.45c-.63-13.46-11.73-24.19-25.35-24.19s-24.71,10.73-25.35,24.19h50.7Z"/>
    <path class="cls-3" d="M1761.81,1047.44c-3.71,0-7.08,1.46-9.56,3.86-2.45-2.4-5.82-3.86-9.54-3.86s-6.96,1.42-9.42,3.75c-2.45-2.33-5.78-3.75-9.43-3.75-7.38,0-13.38,5.8-13.74,13.09h65.42c-.36-7.3-6.37-13.09-13.75-13.09Z"/>
    <path class="cls-3" d="M1677.66,1047.44c-3.71,0-7.07,1.46-9.55,3.86-2.46-2.4-5.83-3.86-9.54-3.86s-6.97,1.42-9.43,3.75c-2.45-2.33-5.77-3.75-9.42-3.75-7.39,0-13.39,5.8-13.75,13.09h65.42c-.35-7.3-6.35-13.09-13.75-13.09Z"/>
    <path class="cls-3" d="M1987.69,1047.44c-3.72,0-7.08,1.46-9.56,3.86-2.45-2.4-5.82-3.86-9.54-3.86s-6.96,1.42-9.42,3.75c-2.45-2.33-5.78-3.75-9.43-3.75-7.39,0-13.38,5.8-13.74,13.09h65.41c-.35-7.3-6.36-13.09-13.74-13.09Z"/>
    <path class="cls-3" d="M1698.78,1054.15c-1.45,0-2.77,.57-3.75,1.5-.98-.94-2.27-1.5-3.74-1.5s-2.74,.55-3.7,1.46c-.97-.91-2.27-1.46-3.7-1.46-2.89,0-5.24,2.28-5.4,5.14h25.69c-.14-2.86-2.51-5.14-5.4-5.14Z"/>
    <path class="cls-3" d="M1822.79,1054.15c-1.45,0-2.77,.57-3.74,1.5-.98-.94-2.29-1.5-3.75-1.5s-2.74,.55-3.7,1.46c-.97-.91-2.27-1.46-3.7-1.46-2.89,0-5.24,2.28-5.4,5.14h25.69c-.14-2.86-2.51-5.14-5.4-5.14Z"/>
    <path class="cls-3" d="M1946.81,1054.15c-1.46,0-2.77,.57-3.75,1.5-.98-.94-2.28-1.5-3.74-1.5s-2.74,.55-3.71,1.46c-.96-.91-2.26-1.46-3.69-1.46-2.89,0-5.24,2.28-5.4,5.14h25.68c-.13-2.86-2.5-5.14-5.39-5.14Z"/>
    <path class="cls-3" d="M1725.36,1054.15c-1.46,0-2.78,.57-3.75,1.5-.98-.94-2.28-1.5-3.74-1.5s-2.74,.55-3.71,1.46c-.96-.91-2.26-1.46-3.7-1.46-2.89,0-5.24,2.28-5.38,5.14h25.68c-.15-2.86-2.51-5.14-5.4-5.14Z"/>
    <path class="cls-3" d="M2293.17,1002.59s6.57,37.86,10.3,66.22l6.81-1.11-15.37-65.36-1.75,.24Z"/>
    <path class="cls-3" d="M2278.28,1025.79s-1.5-14.73,10.29-19.24c.88-.31-13.15-.64-18.14,2.53-1.19,.79,2.47-14.89,17.91-9.19,2.76,1.04-6.82-7.76-6.82-7.76,0,0,9.91-.87,12.28,7.37,.39,1.43,2.54-14.18,18.14-4.92,.32,.16-12.91,6.19-12.51,6.74,.39,.48,15.92-6.49,19.57,7.69,0,.16-14.43-2.46-18.63-1.43-.31,.08,14.04,3.97,10.39,20.2-.32,.79-9.98-4.2-13.15-13.31-1.44-4.29-2.06-7.21-2.06-7.21,0,0-3.09,12.91-17.27,18.53Z"/>
    <path class="cls-3" d="M2322.01,1022.06s-3.26,22.66-4.59,44.92l6.33,1.34,.64-45.15-2.38-1.11Z"/>
    <path class="cls-3" d="M2299.18,1044.57s1.44-17.51,16.33-20.28c.96-.16-15.44-3.65-21.86-.95-1.66,.71,6.02-16.87,22.97-6.9,3.02,1.75-6.34-10.68-6.34-10.68,0,0,11.73,1.17,12.83,11.4,.08,1.74,5.95-16.08,22.34-1.91,.32,.24-16.49,4.52-16.15,5.16,.32,.62,20.13-4.04,21.22,13.31,0,.24-16.33-5.94-21.38-5.63-.48,0,15.52,7.61,7.69,25.75-.41,.94-10.7-7.05-12.44-18.38-.87-5.3-.96-8.88-.96-8.88,0,0-6.33,14.43-24.24,17.99Z"/>
    <path class="cls-3" d="M1806.92,1025.68c1.33,.6-5.08-14.14-19.28-5.75-2.58,1.5,5.27-8.93,5.27-8.93,0,0-9.82,.96-10.66,9.53-.24,1.49-5.1-13.48-18.82-1.56-.24,.18,13.84,3.78,13.55,4.25-.24,.6-16.84-3.36-17.86,11.21,0,.18,13.79-5.04,17.98-4.79,.36,.06-12.99,6.41-6.42,21.69,.31,.78,8.93-5.87,10.43-15.4,.05-.32,.09-.61,.13-.91l.41,28.47,5.33-1.14c-.7-11.46-2.01-23.07-2.92-30.31,2.77,3.83,8.42,9.6,18.2,11.51,0,0-1.2-14.68-13.67-17.02-.9-.12,12.88-3.06,18.33-.84Z"/>
    <path class="cls-3" d="M1579.74,988.4s1.22,42.2,3.12,73.56l-6.29,.38,1.6-73.88,1.57-.07Z"/>
    <path class="cls-3" d="M1607.75,1013.44s-2.36-20.49-19.85-23.12c-1.18-.19,17.84-4.83,25.49-1.91,1.91,.64-7.73-19.57-27.12-7.19-3.37,2.18,7.09-12.64,7.09-12.64,0,0-13.84,1.73-14.56,13.74-.19,2-7.66-18.56-26.22-1.38-.28,.28,19.49,4.64,19.1,5.38-.35,.73-23.65-4-24.2,16.28-.18,.27,18.74-7.55,24.68-7.46,.45,0-17.74,9.57-8.02,30.5,.56,1.09,12.2-8.65,13.84-21.94,.83-6.28,.83-10.37,.83-10.37,0,0,7.84,16.56,28.94,20.12Z"/>
    <path class="cls-3" d="M1636.77,1021.98c6.1-1.08,27.16,4.37,27.09,4.08-3.71-21.27-27.53-12.82-27.97-13.47-.5-.73,19.66-8.3,19.23-8.52-22.07-15.37-26.88,7.43-27.32,5.31-2.55-12.45-17.25-12.23-17.25-12.23,0,0,13.25,13.98,9.25,12.17-22.3-10.06-29.36,12.67-27.31,11.65,7.49-4.15,28.11-2.11,26.94-1.75-17.92,5.4-17.33,27.17-17.33,27.17,14.52-4.57,21.95-14.5,25.26-20.51-1.02,10.9-2.56,26.24-4.29,39.15l7.71,.07-.21-38.77c.33,1.56,.75,3.4,1.31,5.49,3.71,13.7,17.41,22.14,17.85,20.9,7.14-23.45-13.55-30.66-12.96-30.74Z"/>
    <path class="cls-3" d="M1616,1053.41c-1.45,0-2.78,.56-3.75,1.5-.97-.94-2.28-1.5-3.73-1.5s-2.75,.55-3.71,1.46c-.97-.91-2.27-1.46-3.71-1.46-2.89,0-5.24,2.28-5.39,5.13h25.69c-.14-2.86-2.5-5.13-5.4-5.13Z"/>
    <path class="cls-3" d="M1773.18,1053.48c-1.44,0-2.77,.57-3.74,1.5-.97-.93-2.28-1.5-3.73-1.5s-2.75,.55-3.72,1.46c-.96-.91-2.26-1.46-3.7-1.46-2.89,0-5.24,2.28-5.39,5.14h25.69c-.15-2.86-2.5-5.14-5.41-5.14Z"/>
    <path class="cls-3" d="M2313.05,1055.32c-1.45,0-2.77,.56-3.75,1.5-.97-.94-2.28-1.5-3.73-1.5s-2.74,.55-3.72,1.46c-.96-.91-2.25-1.46-3.69-1.46-2.9,0-5.25,2.28-5.39,5.13h25.68c-.15-2.86-2.5-5.13-5.4-5.13Z"/>
    <path class="cls-3" d="M2194.9,1055.32c-1.45,0-2.77,.56-3.75,1.5-.97-.94-2.28-1.5-3.73-1.5s-2.74,.55-3.72,1.46c-.96-.91-2.25-1.46-3.69-1.46-2.9,0-5.25,2.28-5.39,5.13h25.68c-.15-2.86-2.5-5.13-5.4-5.13Z"/>
    <rect class="cls-5" x="-.05" y="1059.23" width="2438.73" height="20.78"/>
  </g>
</svg>