<?xml version="1.0" encoding="UTF-8"?>
<svg id="Layer_1" data-name="Layer 1" xmlns="http://www.w3.org/2000/svg" viewBox="0 0 259.35 329.81">
  <defs>
    <style>
      .cls-1 {
        fill: #0019ff;
      }
    </style>
  </defs>
  <ellipse class="cls-1" cx="130.54" cy="165.42" rx="129.68" ry="164.9"/>
  <g>
    <path d="M143.86,264.57v-98.99h29.2c1.23-13.28,2.43-26.31,3.67-39.65h-31.36c0-6.09-.29-11.91,.09-17.68,.33-5.05,3.5-7.54,8.76-7.6,6.36-.08,12.71-.01,19.07-.02,.94,0,1.89-.09,2.79-.13v-34.22c-13.09,.28-26.04-.25-38.8,1.04-16.74,1.69-27.73,11.47-31.61,27.93-1.61,6.85-1.33,14.16-1.78,21.28-.19,3.05-.03,6.12-.03,9.52h-19.51v39.59c5.65,0,11.12,.13,16.58-.06,2.54-.09,3.25,.62,3.25,3.2-.09,30.72-.06,61.45-.06,92.17v3.64c13.36-.02,26.3-.02,39.74-.02Z"/>
    <path d="M143.86,264.57h-39.74v-3.64c0-30.72-.03-61.45,.06-92.17,.01-2.58-.71-3.29-3.25-3.2-5.46,.19-10.92,.06-16.58,.06v-39.59h19.51c0-3.39-.16-6.47,.03-9.52,.44-7.11,.16-14.42,1.78-21.28,3.87-16.46,14.87-26.25,31.61-27.93,12.76-1.29,25.71-.75,38.8-1.04v34.22c-.91,.04-1.85,.13-2.79,.13-6.36,.01-12.71-.06-19.07,.02-5.27,.07-8.43,2.55-8.76,7.6-.38,5.77-.09,11.59-.09,17.68h31.36c-1.23,13.34-2.44,26.37-3.67,39.65h-29.2c0,33.09,0,65.89,0,99.01Z"/>
  </g>
</svg>