<?xml version="1.0" encoding="UTF-8"?>
<svg id="Layer_1" data-name="Layer 1" xmlns="http://www.w3.org/2000/svg" viewBox="0 0 160.83 160.38">
  <defs>
    <style>
      .cls-1 {
        fill: #1d1d1d;
      }
    </style>
  </defs>
  <path class="cls-1" d="M160.83,80.32c-.23,11.13-.4,22.26-.7,33.39-.21,7.95-1.71,15.67-5.32,22.82-5.94,11.76-15.6,18.83-28.29,21.99-4.99,1.24-10.06,1.82-15.17,1.86-18.46,.14-36.92,.25-55.38,.2-5.97-.02-11.96-.17-17.87-1.32-11.63-2.28-21.59-7.32-28.76-17.1-4.36-5.94-6.76-12.68-7.97-19.86C-.03,113.91,.03,105.41,0,96.94c-.05-14.46,.04-28.92,.22-43.38,.09-7.16,.39-14.32,2.44-21.29C7.52,15.74,18.48,5.78,35.11,1.83c4.77-1.13,9.62-1.58,14.49-1.62C67.9,.07,86.21-.06,104.51,.02c5.77,.02,11.58,.33,17.28,1.16,13.49,1.96,24.38,8.28,31.58,20.2,3.39,5.61,5.24,11.78,6.1,18.21,1.15,8.7,1.09,17.46,1.18,26.22,.05,4.83,0,9.67,0,14.5,.05,.01,.11,.01,.17,.01ZM80,14.21h0c-8.68-.01-17.36-.11-26.03,.04-4.54,.08-9.11,.36-13.61,.95-5.26,.7-10.21,2.47-14.51,5.75-6.7,5.11-9.82,12.2-10.87,20.27-.62,4.78-.9,9.63-.91,14.45-.03,18.03,.07,36.06,.21,54.09,.04,4.63,.39,9.24,1.58,13.77,2.82,10.69,9.46,17.53,20.13,20.53,4.9,1.38,9.91,1.77,14.93,1.8,19.18,.09,38.36,.1,57.53-.02,4.22-.03,8.49-.38,12.63-1.15,12.17-2.28,20.01-9.37,23.06-21.55,1.43-5.7,1.69-11.52,1.71-17.33,.05-18.35-.07-36.69-.21-55.04-.04-5.03-.41-10.03-1.82-14.93-2.8-9.72-8.85-16.21-18.53-19.34-5.82-1.88-11.83-2.16-17.84-2.25-9.14-.15-18.3-.04-27.45-.04Z"/>
  <path class="cls-1" d="M80.24,38.89c22.89,0,41.23,18.36,41.25,41.33,.02,22.67-18.52,41.2-41.21,41.18-22.76-.02-41.28-18.51-41.3-41.27-.03-22.76,18.45-41.23,41.26-41.24Zm26.77,41.27c.04-14.79-11.83-26.74-26.64-26.81-14.78-.06-26.87,11.88-26.91,26.59-.04,14.83,11.94,26.93,26.68,26.97,14.83,.03,26.82-11.91,26.87-26.75Z"/>
  <path class="cls-1" d="M113.51,37.34c0-5.38,4.28-9.62,9.68-9.6,5.29,.02,9.58,4.34,9.58,9.63,0,5.31-4.39,9.65-9.72,9.63-5.28-.04-9.54-4.35-9.54-9.66Z"/>
</svg>