<?xml version="1.0" encoding="UTF-8"?>
<svg id="Layer_1" data-name="Layer 1" xmlns="http://www.w3.org/2000/svg" viewBox="0 0 296.79 244">
  <defs>
    <style>
      .cls-1 {
        fill: #1d1d1d;
      }
    </style>
  </defs>
  <path class="cls-1" d="M104.33,244h-23c-1.26-.33-2.5-.85-3.77-.95-26.19-1.99-50.47-10.01-73.13-23.15-1.12-.65-2.14-1.48-4.42-3.07,33.68,2.52,62.63-5.53,88.95-25.48-32.47-6.81-51.2-21.13-56.31-43.07h25.05c.11-.43,.22-.86,.34-1.3-29.6-9.18-45.54-28.99-47.78-60.26,4.8,1.77,8.91,3.59,13.19,4.78,4.29,1.19,8.76,1.75,13.15,2.58,.19-.4,.37-.8,.56-1.2-12.81-9.33-21.33-21.57-24.6-36.98-3.22-15.23-1.44-29.85,6.72-43.91,16.17,19.31,34.8,34.42,56.66,45.46,21.9,11.05,45.03,17.3,69.85,18.5-.24-2.4-.37-4.06-.59-5.7-4.18-30.98,14.76-59.64,44.92-67.67,4.94-1.32,10.12-1.75,15.19-2.59h2c.45,.2,.89,.55,1.35,.57,15.79,.85,29.3,6.82,40.73,17.76,.99,.95,3.46,1.19,4.89,.71,9.28-3.1,18.48-6.44,27.66-9.83,2.36-.87,4.55-2.23,7.45-3.67-4.93,14.21-13.57,24.42-25.12,32.43,.25,.48,.5,.96,.76,1.44,10.59-2.88,21.18-5.76,31.74-8.64-6.98,10.3-15.45,19.43-25.47,27.02-2.94,2.23-4.25,4.44-4.1,8.25,.72,18.99-2.02,37.61-8.16,55.52-21.68,63.26-63.8,104.42-130.17,118.76-8.06,1.75-16.35,2.49-24.54,3.69Z"/>
</svg>